<svg xmlns="http://www.w3.org/2000/svg" xmlns:xlink="http://www.w3.org/1999/xlink" viewBox="0 0 471.21 471.42"><defs><style>.cls-1{fill:url(#Degradado_sin_nombre_81);}.cls-2{fill:url(#Degradado_sin_nombre_81-2);}.cls-3{fill:url(#Degradado_sin_nombre_81-3);}.cls-4{fill:url(#Degradado_sin_nombre_81-4);}</style><linearGradient id="Degradado_sin_nombre_81" y1="291.52" x2="470.07" y2="291.52" gradientUnits="userSpaceOnUse"><stop offset="0.15" stop-color="#00eed5"/><stop offset="0.38" stop-color="#3ebbd7"/><stop offset="0.81" stop-color="#ab62db"/><stop offset="1" stop-color="#d63edc"/></linearGradient><linearGradient id="Degradado_sin_nombre_81-2" x1="23.58" y1="118.05" x2="473.74" y2="118.05" xlink:href="#Degradado_sin_nombre_81"/><linearGradient id="Degradado_sin_nombre_81-3" x1="96.6" y1="429.26" x2="418.03" y2="107.82" xlink:href="#Degradado_sin_nombre_81"/><linearGradient id="Degradado_sin_nombre_81-4" x1="53.52" y1="406.58" x2="406.32" y2="53.77" xlink:href="#Degradado_sin_nombre_81"/></defs><g id="Layer_2" data-name="Layer 2"><g id="Layer_1-2" data-name="Layer 1"><path class="cls-1" d="M422.6,348.43c-19.82,22.85-65.79,69.72-131.57,61.82A171.3,171.3,0,1,1,133.1,111.62c-18.86,3.45-37.81,7.49-47.76,11.27-37.25,14.15-69.22,27-69.22,27s-20,52-15.44,115.3a236.46,236.46,0,0,0,138.68,186c2.18.95,4.33,1.89,6.57,2.81h0q4.25,1.72,8.44,3.29a236.41,236.41,0,0,0,259.68-68C459.2,329.84,471.21,267.06,470,260.48,470,260.48,456.29,309.57,422.6,348.43Z"/><path class="cls-2" d="M205.75,92.21A171.28,171.28,0,0,1,470,236.1c.51-2.31.82-4.57,1.22-6.85A235.87,235.87,0,0,0,374.8,44.56a312.77,312.77,0,0,0-53-29.27A234.18,234.18,0,0,0,283.41,3.74h0c-19.1-2-51.12-6.34-87.81-1.64A236.17,236.17,0,0,0,46.68,92.4a310.27,310.27,0,0,0-23.1,37.18S113.29,74.11,205.75,92.21Z"/><path class="cls-3" d="M298.67,64.79a170.49,170.49,0,0,0-92.92,27.42c37.57,7.36,75.59,26.9,108.24,67.25a171.52,171.52,0,0,1,29.24,44.87C363.54,242.91,362.35,280.79,354,312a170.73,170.73,0,0,1-38.74,75.67v0S439,376.12,470,236.1A171.31,171.31,0,0,0,298.67,64.79Z"/><path class="cls-4" d="M235.07,395.16h0q-4.72-1.89-9.32-4l-.38-.17c-.89-.42-1.77-.86-2.65-1.3-66.79-32-91.16-87-94.59-138-.46-5.11-.73-10.28-.73-15.52a171.49,171.49,0,0,1,5.81-44.28,125,125,0,0,1,5.24-16.29,171.25,171.25,0,0,1,28.37-48.76A264.57,264.57,0,0,1,186.86,103s-26.79,3.72-53.76,8.65A171.31,171.31,0,1,0,291,410.25c-15.55-1.87-32.38-6.07-50.51-13C238.68,396.61,236.87,395.89,235.07,395.16Z"/></g></g></svg>