<?xml version="1.0" encoding="utf-8"?>
<!-- Generator: Adobe Illustrator 24.2.0, SVG Export Plug-In . SVG Version: 6.00 Build 0)  -->
<svg version="1.1" id="Capa_1" xmlns="http://www.w3.org/2000/svg" xmlns:xlink="http://www.w3.org/1999/xlink" x="0px" y="0px"
	 viewBox="0 0 512 512" style="enable-background:new 0 0 512 512;" xml:space="preserve">
<style type="text/css">
	.st0{opacity:0.17;fill:#1D1B30;enable-background:new    ;}
	.st1{fill:url(#SVGID_1_);}
	.st2{fill:url(#SVGID_2_);}
	.st3{fill:url(#SVGID_3_);}
	.st4{fill:url(#SVGID_4_);}
	.st5{fill:url(#SVGID_5_);}
	.st6{fill:url(#SVGID_6_);}
	.st7{fill:url(#SVGID_7_);}
	.st8{fill:#5D5D5D;}
	.st9{fill:#C8EBE8;}
	.st10{fill:url(#SVGID_8_);}
	.st11{fill:url(#SVGID_9_);}
	.st12{fill:url(#SVGID_10_);}
	.st13{fill:url(#SVGID_11_);}
	.st14{fill:url(#SVGID_12_);}
	.st15{fill:url(#SVGID_13_);}
	.st16{fill:url(#SVGID_14_);}
	.st17{fill:url(#SVGID_15_);}
	.st18{opacity:0.17;}
	.st19{enable-background:new    ;}
	.st20{clip-path:url(#SVGID_17_);}
	.st21{fill:#1D1B30;}
	.st22{fill:url(#SVGID_18_);}
	.st23{fill:url(#XMLID_2_);}
	.st24{fill:url(#XMLID_3_);}
	.st25{fill:url(#SVGID_19_);}
	.st26{fill:url(#SVGID_20_);}
	.st27{fill:url(#SVGID_21_);}
	.st28{fill:url(#SVGID_22_);}
</style>
<polygon class="st0" points="61,229.3 500,235.1 512,279.1 474,349.4 331.5,385.6 "/>
<g>
	<g>
		<g>
			
				<linearGradient id="SVGID_1_" gradientUnits="userSpaceOnUse" x1="149.7" y1="320.8" x2="420.2" y2="320.8" gradientTransform="matrix(1 0 0 -1 0 514)">
				<stop  offset="9.817236e-08" style="stop-color:#00FFBA"/>
				<stop  offset="0.1786" style="stop-color:#11E0D1"/>
				<stop  offset="0.3784" style="stop-color:#20C5E5"/>
				<stop  offset="0.5812" style="stop-color:#2BB1F4"/>
				<stop  offset="0.787" style="stop-color:#31A6FC"/>
				<stop  offset="1" style="stop-color:#33A2FF"/>
			</linearGradient>
			<polygon class="st1" points="149.7,177.1 149.7,110.2 218.6,133.4 258.3,102.3 293.8,128.8 340.3,91.6 420.2,53 420.2,333.4 			
				"/>
			
				<linearGradient id="SVGID_2_" gradientUnits="userSpaceOnUse" x1="389.6648" y1="188.7819" x2="461.1852" y2="455.6995" gradientTransform="matrix(1 0 0 -1 0 514)">
				<stop  offset="9.817236e-08" style="stop-color:#00FFBA"/>
				<stop  offset="0.1786" style="stop-color:#11E0D1"/>
				<stop  offset="0.3784" style="stop-color:#20C5E5"/>
				<stop  offset="0.5812" style="stop-color:#2BB1F4"/>
				<stop  offset="0.787" style="stop-color:#31A6FC"/>
				<stop  offset="1" style="stop-color:#33A2FF"/>
			</linearGradient>
			<polygon class="st2" points="420.2,333.4 431.7,326.6 431.7,50.4 420.2,53 			"/>
			
				<linearGradient id="SVGID_3_" gradientUnits="userSpaceOnUse" x1="258.3" y1="400.9" x2="302.2524" y2="400.9" gradientTransform="matrix(1 0 0 -1 0 514)">
				<stop  offset="9.817236e-08" style="stop-color:#00FFBA"/>
				<stop  offset="0.1786" style="stop-color:#11E0D1"/>
				<stop  offset="0.3784" style="stop-color:#20C5E5"/>
				<stop  offset="0.5812" style="stop-color:#2BB1F4"/>
				<stop  offset="0.787" style="stop-color:#31A6FC"/>
				<stop  offset="1" style="stop-color:#33A2FF"/>
			</linearGradient>
			<polygon class="st3" points="258.3,102.3 266.2,97.4 302.3,122 293.8,128.8 			"/>
		</g>
		<g>
			
				<linearGradient id="SVGID_4_" gradientUnits="userSpaceOnUse" x1="120.1" y1="18761.5" x2="390.6" y2="18761.5" gradientTransform="matrix(1 0 0 1 0 -18536)">
				<stop  offset="0" style="stop-color:#7F00FF"/>
				<stop  offset="0.298" style="stop-color:#7C00FF"/>
				<stop  offset="0.526" style="stop-color:#7200FE"/>
				<stop  offset="0.7307" style="stop-color:#6200FE"/>
				<stop  offset="0.9207" style="stop-color:#4B00FD"/>
				<stop  offset="1" style="stop-color:#3F00FC"/>
			</linearGradient>
			<polygon class="st4" points="120.1,194.5 120.1,122.6 155.1,100.2 229,136.8 298.2,122.6 344.5,147.2 390.6,104.7 390.6,350.8 
							"/>
			
				<linearGradient id="SVGID_5_" gradientUnits="userSpaceOnUse" x1="365.1852" y1="18644.291" x2="427.5148" y2="18876.9082" gradientTransform="matrix(1 0 0 1 0 -18536)">
				<stop  offset="0" style="stop-color:#7F00FF"/>
				<stop  offset="1" style="stop-color:#3F00FC"/>
			</linearGradient>
			<polygon class="st5" points="390.6,350.8 402.1,344.1 402.1,98.4 390.6,104.7 			"/>
			
				<linearGradient id="SVGID_6_" gradientUnits="userSpaceOnUse" x1="155.1" y1="18652.3008" x2="239.2" y2="18652.3008" gradientTransform="matrix(1 0 0 1 0 -18536)">
				<stop  offset="0" style="stop-color:#7F00FF"/>
				<stop  offset="1" style="stop-color:#3F00FC"/>
			</linearGradient>
			<polygon class="st6" points="155.1,100.2 162.8,95.8 239.2,134.7 229,136.8 			"/>
			
				<linearGradient id="SVGID_7_" gradientUnits="userSpaceOnUse" x1="298.2" y1="18669.25" x2="350.9" y2="18669.25" gradientTransform="matrix(1 0 0 1 0 -18536)">
				<stop  offset="0" style="stop-color:#7F00FF"/>
				<stop  offset="1" style="stop-color:#3F00FC"/>
			</linearGradient>
			<polygon class="st7" points="298.2,122.6 307.6,119.3 350.9,141.4 344.5,147.2 			"/>
		</g>
		<path class="st8" d="M74.4,229.6"/>
		<path class="st9" d="M96.1,169.5"/>
		<g>
			
				<linearGradient id="SVGID_8_" gradientUnits="userSpaceOnUse" x1="90.6" y1="273.75" x2="361.1" y2="273.75" gradientTransform="matrix(1 0 0 -1 0 514)">
				<stop  offset="0" style="stop-color:#00FF99"/>
				<stop  offset="2.406955e-02" style="stop-color:#02FD9E"/>
				<stop  offset="0.2134" style="stop-color:#14EBC1"/>
				<stop  offset="0.4056" style="stop-color:#22DDDC"/>
				<stop  offset="0.5996" style="stop-color:#2BD4F0"/>
				<stop  offset="0.7963" style="stop-color:#31CEFB"/>
				<stop  offset="1" style="stop-color:#33CCFF"/>
			</linearGradient>
			<polygon class="st10" points="90.6,211.9 90.6,160.8 158.8,121.3 224.6,149.9 266.2,135.1 293.5,156.9 361.1,112.3 361.1,368.2 
							"/>
			
				<linearGradient id="SVGID_9_" gradientUnits="userSpaceOnUse" x1="333.6398" y1="153.1579" x2="399.9352" y2="400.5756" gradientTransform="matrix(1 0 0 -1 0 514)">
				<stop  offset="0" style="stop-color:#00FF99"/>
				<stop  offset="3.380209e-02" style="stop-color:#08F7A9"/>
				<stop  offset="0.103" style="stop-color:#15EAC4"/>
				<stop  offset="0.1827" style="stop-color:#20DFDA"/>
				<stop  offset="0.2757" style="stop-color:#29D6EB"/>
				<stop  offset="0.3907" style="stop-color:#2FD0F6"/>
				<stop  offset="0.552" style="stop-color:#32CDFD"/>
				<stop  offset="1" style="stop-color:#33CCFF"/>
			</linearGradient>
			<polygon class="st11" points="361.1,368.2 372.6,361.5 372.6,106.1 361.1,112.3 			"/>
			
				<linearGradient id="SVGID_10_" gradientUnits="userSpaceOnUse" x1="158.8" y1="380.55" x2="235" y2="380.55" gradientTransform="matrix(1 0 0 -1 0 514)">
				<stop  offset="0" style="stop-color:#00FF99"/>
				<stop  offset="1" style="stop-color:#33CCFF"/>
			</linearGradient>
			<polygon class="st12" points="158.8,121.3 166.5,117 235,146.1 224.6,149.9 			"/>
			
				<linearGradient id="SVGID_11_" gradientUnits="userSpaceOnUse" x1="266.2" y1="369.45" x2="300.0627" y2="369.45" gradientTransform="matrix(1 0 0 -1 0 514)">
				<stop  offset="0" style="stop-color:#00FF99"/>
				<stop  offset="1" style="stop-color:#33CCFF"/>
			</linearGradient>
			<polygon class="st13" points="266.2,135.1 272.9,132.2 300.1,152.5 293.5,156.9 			"/>
		</g>
		<g>
			
				<linearGradient id="SVGID_12_" gradientUnits="userSpaceOnUse" x1="61" y1="18803.3496" x2="331.5" y2="18803.3496" gradientTransform="matrix(1 0 0 1 0 -18536)">
				<stop  offset="0" style="stop-color:#7F00FF"/>
				<stop  offset="0.298" style="stop-color:#7C00FF"/>
				<stop  offset="0.526" style="stop-color:#7200FE"/>
				<stop  offset="0.7307" style="stop-color:#6200FE"/>
				<stop  offset="0.9207" style="stop-color:#4B00FD"/>
				<stop  offset="1" style="stop-color:#3F00FC"/>
			</linearGradient>
			<polygon class="st14" points="61,229.3 61,189.2 96.1,169.5 195.1,189.2 230.1,168.8 263.9,189.9 331.5,149.1 331.5,385.6 			"/>
			
				<linearGradient id="SVGID_13_" gradientUnits="userSpaceOnUse" x1="307.3386" y1="18688.3828" x2="367.2614" y2="18912.0176" gradientTransform="matrix(1 0 0 1 0 -18536)">
				<stop  offset="0" style="stop-color:#7F00FF"/>
				<stop  offset="1" style="stop-color:#3F00FC"/>
			</linearGradient>
			<polygon class="st15" points="331.5,385.6 343.1,378.9 343.1,142.8 331.5,149.1 			"/>
			
				<linearGradient id="SVGID_14_" gradientUnits="userSpaceOnUse" x1="96.1" y1="18712.4492" x2="206.5" y2="18712.4492" gradientTransform="matrix(1 0 0 1 0 -18536)">
				<stop  offset="0" style="stop-color:#7F00FF"/>
				<stop  offset="1" style="stop-color:#3F00FC"/>
			</linearGradient>
			<polygon class="st16" points="96.1,169.5 106.7,163.7 206.5,182.4 195.1,189.2 			"/>
			
				<linearGradient id="SVGID_15_" gradientUnits="userSpaceOnUse" x1="230.1" y1="18713.3496" x2="271.7575" y2="18713.3496" gradientTransform="matrix(1 0 0 1 0 -18536)">
				<stop  offset="0" style="stop-color:#7F00FF"/>
				<stop  offset="1" style="stop-color:#3F00FC"/>
			</linearGradient>
			<polygon class="st17" points="230.1,168.8 237.7,164.8 271.8,185.2 263.9,189.9 			"/>
		</g>
	</g>
</g>
<g>
	<g id="XMLID_26_" class="st18">
		<g>
			<g class="st19">
				<g>
					<g>
						<defs>
							<polygon id="SVGID_16_" points="18.2,409.6 134.2,342.2 250.9,409.6 134.9,477 							"/>
						</defs>
						<clipPath id="SVGID_17_">
							<use xlink:href="#SVGID_16_"  style="overflow:visible;"/>
						</clipPath>
						<g class="st20">
							<g>
								<g>
									<g>
										<path class="st21" d="M192.6,375.8c-32.2-18.6-84.3-18.6-116.4,0c-32.1,18.6-31.9,48.8,0.4,67.4
											c32.3,18.6,84.3,18.6,116.4,0C225,424.7,224.8,394.5,192.6,375.8"/>
									</g>
								</g>
							</g>
						</g>
					</g>
				</g>
			</g>
		</g>
	</g>
	
		<linearGradient id="SVGID_18_" gradientUnits="userSpaceOnUse" x1="45.9" y1="-17606.8672" x2="223.2848" y2="-17606.8672" gradientTransform="matrix(1 0 0 -1 0 -17238)">
		<stop  offset="0" style="stop-color:#4F3E90"/>
		<stop  offset="1" style="stop-color:#171A31"/>
	</linearGradient>
	<path class="st22" d="M45.9,367.5c0,0,0,47.8,81.9,52s95.2-44.2,95.2-44.2s8.9-47.6-72.8-56.5c0,0-47.2-6.4-82.6,16.5
		C67.5,335.3,48.6,344.6,45.9,367.5z"/>
	
		<linearGradient id="XMLID_2_" gradientUnits="userSpaceOnUse" x1="2038.4053" y1="1167.2185" x2="2182.5532" y2="1167.2185" gradientTransform="matrix(-1 0 0 -1.1206 2244.957 1652.9331)">
		<stop  offset="0" style="stop-color:#4F3E90"/>
		<stop  offset="1" style="stop-color:#171A31"/>
	</linearGradient>
	<path id="XMLID_4_" class="st23" d="M206.2,363.3c0,0-1-28.5-71.7-30.2c0,0-66.2-0.4-71.7,30.2c0,0-10.1-33.5,71.7-36.7
		C134.6,326.5,212.4,328,206.2,363.3z"/>
	
		<linearGradient id="XMLID_3_" gradientUnits="userSpaceOnUse" x1="119.7884" y1="-17668.0957" x2="142.0458" y2="-17585.0273" gradientTransform="matrix(1 0 0 -1 0 -17238)">
		<stop  offset="0" style="stop-color:#4F3E90"/>
		<stop  offset="1" style="stop-color:#171A31"/>
	</linearGradient>
	<path id="XMLID_6_" class="st24" d="M45.7,368.8c0,0,1.2,47.2,88.8,50c0,0,82.1,0.7,88.8-50c0,0,12.5,55.4-88.8,60.8
		C134.5,429.6,38.1,427.1,45.7,368.8z"/>
	<g>
		<linearGradient id="SVGID_19_" gradientUnits="userSpaceOnUse" x1="81.5333" y1="380.0907" x2="193.2614" y2="380.0907">
			<stop  offset="0.1486" style="stop-color:#00EED5"/>
			<stop  offset="0.3817" style="stop-color:#3EBBD7"/>
			<stop  offset="0.8094" style="stop-color:#AB62DB"/>
			<stop  offset="1" style="stop-color:#D63EDC"/>
		</linearGradient>
		<path class="st25" d="M182,388.7c-4.7,3.5-15.6,10.5-31.3,9.3c-6.9,3.3-15.4,5.3-24.8,5.3c-22.5,0-40.7-11.6-40.7-25.9
			c0-11.5,11.7-21.2,27.9-24.6c-4.5,0.5-9,1.1-11.4,1.7c-8.9,2.1-16.5,4.1-16.5,4.1s-4.8,7.9-3.7,17.4c2.5,12.6,15.4,23.2,33,28.1
			c0.5,0.1,1,0.3,1.6,0.4c0,0,0,0,0,0c0.7,0.2,1.3,0.3,2,0.5c6,1.4,12.4,2.1,19.2,2.1c17,0,32.3-4.8,42.6-12.4
			c10.7-9,13.6-18.5,13.3-19.5C193.2,375.4,190,382.8,182,388.7z"/>
		<linearGradient id="SVGID_20_" gradientUnits="userSpaceOnUse" x1="87.1372" y1="353.8636" x2="194.1345" y2="353.8636">
			<stop  offset="0.1486" style="stop-color:#00EED5"/>
			<stop  offset="0.3817" style="stop-color:#3EBBD7"/>
			<stop  offset="0.8094" style="stop-color:#AB62DB"/>
			<stop  offset="1" style="stop-color:#D63EDC"/>
		</linearGradient>
		<path class="st26" d="M130.4,350c6.4-2.6,13.9-4.1,22.1-4.1c22.5,0,40.7,11.6,40.7,25.9c0.1-0.3,0.2-0.7,0.3-1
			c-0.4-11.5-9.3-21.6-22.9-27.9c-4.4-1.9-8.7-3.4-12.6-4.4c-2.9-0.7-6-1.3-9.1-1.7l0,0c-4.5-0.3-12.2-1-20.9-0.2
			c-14.4,1.5-26.9,6.6-35.4,13.7c-1.9,1.7-3.8,3.5-5.5,5.6C87.1,355.6,108.5,347.2,130.4,350z"/>
		<linearGradient id="SVGID_21_" gradientUnits="userSpaceOnUse" x1="120.0272" y1="404.5766" x2="177.3178" y2="347.286">
			<stop  offset="0.1486" style="stop-color:#00EED5"/>
			<stop  offset="0.3817" style="stop-color:#3EBBD7"/>
			<stop  offset="0.8094" style="stop-color:#AB62DB"/>
			<stop  offset="1" style="stop-color:#D63EDC"/>
		</linearGradient>
		<path class="st27" d="M152.5,345.8c-8.1,0-15.7,1.5-22.1,4.1c8.9,1.1,18,4.1,25.7,10.2c2.8,2,5.2,4.3,7,6.8
			c4.8,5.8,4.5,11.6,2.5,16.3c-1.5,4.3-4.8,8.2-9.2,11.4l0,0c0,0,29.4-1.8,36.8-22.9C193.2,357.4,175,345.8,152.5,345.8z"/>
		<linearGradient id="SVGID_22_" gradientUnits="userSpaceOnUse" x1="98.9845" y1="402.9756" x2="162.2504" y2="339.7097">
			<stop  offset="0.1486" style="stop-color:#00EED5"/>
			<stop  offset="0.3817" style="stop-color:#3EBBD7"/>
			<stop  offset="0.8094" style="stop-color:#AB62DB"/>
			<stop  offset="1" style="stop-color:#D63EDC"/>
		</linearGradient>
		<path class="st28" d="M137.4,395.8C137.4,395.8,137.4,395.8,137.4,395.8C137.4,395.8,137.4,395.8,137.4,395.8
			c-0.8-0.2-1.5-0.4-2.2-0.6c0,0-0.1,0-0.1,0c-0.2-0.1-0.4-0.1-0.6-0.2c-15.9-4.8-21.7-13.1-22.5-20.9c-0.1-0.8-0.2-1.6-0.2-2.3
			c0-2.3,0.5-4.6,1.4-6.7c0.3-0.8,0.7-1.7,1.2-2.5c1.6-2.7,3.9-5.2,6.7-7.4c2.6-2.2,4.8-3.6,4.8-3.6s-6.4,0.6-12.8,1.3
			c-16.2,3.4-27.9,13.1-27.9,24.6c0,14.3,18.2,25.9,40.7,25.9c9.3,0,17.9-2,24.8-5.3c-3.7-0.3-7.7-0.9-12-2
			C138.3,396,137.8,395.9,137.4,395.8z"/>
	</g>
</g>
</svg>
