<?xml version="1.0" encoding="utf-8"?>
<!-- Generator: Adobe Illustrator 24.2.0, SVG Export Plug-In . SVG Version: 6.00 Build 0)  -->
<svg version="1.1" id="Layer_1" xmlns="http://www.w3.org/2000/svg" xmlns:xlink="http://www.w3.org/1999/xlink" x="0px" y="0px"
	 viewBox="0 0 1640 1640" style="enable-background:new 0 0 1640 1640;" xml:space="preserve">
<style type="text/css">
	.st0{display:none;}
	.st1{display:inline;fill:#0E1527;}
	.st2{display:inline;}
	.st3{fill:url(#SVGID_1_);}
	.st4{fill:url(#SVGID_2_);}
	.st5{fill:url(#SVGID_3_);}
	.st6{fill:url(#SVGID_4_);}
</style>
<g class="st0">
	<rect x="0.5" y="0.5" class="st1" width="1639" height="1639"/>
	<path class="st2" d="M1639,1v1638H1V1H1639 M1640,0H0v1640h1640V0L1640,0z"/>
</g>
<g>
	<linearGradient id="SVGID_1_" gradientUnits="userSpaceOnUse" x1="419.7239" y1="914.8196" x2="1218.332" y2="914.8196">
		<stop  offset="0.1486" style="stop-color:#00EED5"/>
		<stop  offset="0.3817" style="stop-color:#3EBBD7"/>
		<stop  offset="0.8094" style="stop-color:#AB62DB"/>
		<stop  offset="1" style="stop-color:#D63EDC"/>
	</linearGradient>
	<path class="st3" d="M1137.7,1011.5c-33.7,38.8-111.8,118.5-223.5,105c-49,37.6-110.4,60.1-177,60.1c-160.7,0-291-130.3-291-291
		c0-128.8,83.7-238,199.7-276.3c-32,5.9-64.2,12.7-81.1,19.1c-63.3,24-117.6,45.8-117.6,45.8s-34,88.3-26.2,195.9
		c18,141.7,109.8,260.2,235.6,316c3.7,1.6,7.4,3.2,11.2,4.8c0,0,0,0,0,0c4.8,2,9.6,3.8,14.3,5.6c42.8,15.5,88.9,24,137,24
		c121.6,0,230.5-54.2,304.2-139.6c76.7-101,97.1-207.6,95-218.8C1218.2,862.1,1194.9,945.5,1137.7,1011.5z"/>
	<linearGradient id="SVGID_2_" gradientUnits="userSpaceOnUse" x1="459.7788" y1="620.1059" x2="1224.5729" y2="620.1059">
		<stop  offset="0.1486" style="stop-color:#00EED5"/>
		<stop  offset="0.3817" style="stop-color:#3EBBD7"/>
		<stop  offset="0.8094" style="stop-color:#AB62DB"/>
		<stop  offset="1" style="stop-color:#D63EDC"/>
	</linearGradient>
	<path class="st4" d="M769.3,576.2c45.5-29.4,99.7-46.6,157.9-46.6c160.7,0,291,130.3,291,291c0.9-3.9,1.4-7.8,2.1-11.6
		c-3.1-128.8-66.8-242.5-163.8-313.8c-31.2-21.3-62.5-38-90-49.7c-21-8.3-42.8-14.9-65.3-19.6l0,0c-32.5-3.3-86.9-10.8-149.2-2.8
		c-102.9,17.3-192.5,73.7-253,153.4c-13.7,18.8-26.8,39.8-39.2,63.2C459.8,639.7,612.2,545.5,769.3,576.2z"/>
	<linearGradient id="SVGID_3_" gradientUnits="userSpaceOnUse" x1="583.8357" y1="1148.8173" x2="1129.9249" y2="602.728">
		<stop  offset="0.1486" style="stop-color:#00EED5"/>
		<stop  offset="0.3817" style="stop-color:#3EBBD7"/>
		<stop  offset="0.8094" style="stop-color:#AB62DB"/>
		<stop  offset="1" style="stop-color:#D63EDC"/>
	</linearGradient>
	<path class="st5" d="M927.1,529.6c-58.2,0-112.4,17.2-157.9,46.6c63.8,12.5,128.4,45.7,183.9,114.2c20.3,22.5,37.1,48.2,49.7,76.2
		c34.5,65.5,32.5,129.9,18.2,183c-10.9,48.6-34,92.5-65.8,128.6l0,0c0,0,210.4-19.7,263-257.6
		C1218.2,659.9,1087.9,529.6,927.1,529.6z"/>
	<linearGradient id="SVGID_4_" gradientUnits="userSpaceOnUse" x1="510.6467" y1="1110.2902" x2="1110.0365" y2="510.9003">
		<stop  offset="0.1486" style="stop-color:#00EED5"/>
		<stop  offset="0.3817" style="stop-color:#3EBBD7"/>
		<stop  offset="0.8094" style="stop-color:#AB62DB"/>
		<stop  offset="1" style="stop-color:#D63EDC"/>
	</linearGradient>
	<path class="st6" d="M819.1,1090.9C819.1,1090.9,819,1090.9,819.1,1090.9C819,1090.9,819,1090.9,819.1,1090.9
		c-5.4-2.2-10.7-4.4-15.9-6.9c-0.2-0.1-0.4-0.2-0.6-0.3c-1.5-0.7-3-1.5-4.5-2.2C684.6,1027.1,643.2,933.8,637.3,847
		c-0.8-8.7-1.2-17.5-1.2-26.4c0-26,3.5-51.2,9.9-75.2c2.3-9.3,5.3-18.6,8.9-27.7c11.5-30.3,27.8-58.3,48.2-82.8
		c18.6-24.6,34.1-40.4,34.1-40.4s-45.5,6.3-91.3,14.7c-116,38.3-199.7,147.5-199.7,276.3c0,160.7,130.3,291,291,291
		c66.6,0,127.9-22.4,177-60.1c-26.4-3.2-55-10.3-85.8-22C825.2,1093.4,822.1,1092.1,819.1,1090.9z"/>
</g>
</svg>
