<?xml version="1.0" encoding="utf-8"?>
<!-- Generator: Adobe Illustrator 24.2.0, SVG Export Plug-In . SVG Version: 6.00 Build 0)  -->
<svg version="1.1" id="Capa_1" xmlns="http://www.w3.org/2000/svg" xmlns:xlink="http://www.w3.org/1999/xlink" x="0px" y="0px"
	 viewBox="0 0 220 177" style="enable-background:new 0 0 220 177;" xml:space="preserve">
<style type="text/css">
	.st0{opacity:0.2;fill:#1E1A21;enable-background:new    ;}
	.st1{fill:url(#SVGID_1_);}
	.st2{fill:url(#SVGID_2_);}
	.st3{fill:url(#SVGID_3_);}
	.st4{fill:url(#SVGID_4_);}
	.st5{fill:url(#SVGID_5_);}
	.st6{fill:url(#SVGID_6_);}
	.st7{opacity:0.25;fill:url(#SVGID_7_);enable-background:new    ;}
	.st8{fill:url(#SVGID_8_);}
	.st9{fill:url(#SVGID_9_);}
	.st10{opacity:0.6;fill:url(#SVGID_10_);enable-background:new    ;}
	.st11{enable-background:new    ;}
	.st12{clip-path:url(#SVGID_12_);enable-background:new    ;}
	.st13{fill:#107F6D;}
	.st14{fill:#118471;}
	.st15{fill:#118975;}
	.st16{fill:#128E79;}
	.st17{clip-path:url(#SVGID_14_);enable-background:new    ;}
	.st18{clip-path:url(#SVGID_16_);enable-background:new    ;}
	.st19{fill:#13927D;}
	.st20{fill:#139782;}
	.st21{clip-path:url(#SVGID_18_);enable-background:new    ;}
	.st22{fill:#81528A;}
	.st23{fill:#85558F;}
	.st24{clip-path:url(#SVGID_20_);enable-background:new    ;}
	.st25{clip-path:url(#SVGID_22_);enable-background:new    ;}
	.st26{fill:#8A5894;}
	.st27{fill:#8F5B99;}
	.st28{fill:#945E9E;}
	.st29{clip-path:url(#SVGID_24_);enable-background:new    ;}
	.st30{fill:#7C4F85;}
	.st31{clip-path:url(#SVGID_26_);enable-background:new    ;}
	.st32{clip-path:url(#SVGID_28_);enable-background:new    ;}
	.st33{fill:#DC8CEB;}
	.st34{clip-path:url(#SVGID_30_);enable-background:new    ;}
	.st35{clip-path:url(#SVGID_32_);enable-background:new    ;}
	.st36{clip-path:url(#SVGID_34_);enable-background:new    ;}
	.st37{clip-path:url(#SVGID_36_);enable-background:new    ;}
	.st38{fill:#1DE1C1;}
	.st39{clip-path:url(#SVGID_38_);enable-background:new    ;}
	.st40{clip-path:url(#SVGID_40_);enable-background:new    ;}
	.st41{fill:#006D65;}
	.st42{fill:#007168;}
	.st43{fill:#00756C;}
	.st44{clip-path:url(#SVGID_42_);enable-background:new    ;}
	.st45{fill:#00AEA1;}
	.st46{clip-path:url(#SVGID_44_);enable-background:new    ;}
</style>
<path class="st0" d="M46.1,119.8c0,0-2.5,1.3,0.4,4.4c2.9,3.2,63.8,36.7,63.8,36.7s5,2.6,8.8,0l55.5-32.5c0,0,1.4-2.1-1.5-3.6
	l-63.8-36.9c0,0-3.2-2.5-7.5,0S46.1,119.8,46.1,119.8z"/>
<linearGradient id="SVGID_1_" gradientUnits="userSpaceOnUse" x1="45.0986" y1="70.0778" x2="174.9378" y2="70.0778" gradientTransform="matrix(1 0 0 -1 0 178)">
	<stop  offset="0" style="stop-color:#4F3E90"/>
	<stop  offset="1" style="stop-color:#171A31"/>
</linearGradient>
<path class="st1" d="M46.1,103.3c0,0-2.5,1.3,0.4,4.4c2.9,3.2,63.8,36.7,63.8,36.7s5,2.6,8.8,0l55.5-32.5c0,0,1.4-2.1-1.5-3.6
	l-63.8-36.9c0,0-3.2-2.5-7.5,0S46.1,103.3,46.1,103.3z"/>
<linearGradient id="SVGID_2_" gradientUnits="userSpaceOnUse" x1="45.1" y1="48.9089" x2="174.9472" y2="48.9089" gradientTransform="matrix(1 0 0 -1 0 178)">
	<stop  offset="0" style="stop-color:#463780"/>
	<stop  offset="0.1433" style="stop-color:#382E68"/>
	<stop  offset="0.3308" style="stop-color:#292550"/>
	<stop  offset="0.5289" style="stop-color:#1F1F3F"/>
	<stop  offset="0.7426" style="stop-color:#191B34"/>
	<stop  offset="1" style="stop-color:#171A31"/>
</linearGradient>
<path class="st2" d="M45.1,112.4v-7.6c0,0,0,2,2.2,3.6c2.3,1.5,17.7,10.7,17.7,10.7l23.1,13l21.9,12.2c0,0,4.9,2.7,8.8,0.4
	s55.8-32.7,55.8-32.7s0.5-0.7,0.3-1.8v8.2c0,0.7-0.4,1.4-1,1.7l-54.4,31.7c0,0-5.5,4.1-10.9-0.9l-62.5-36.6
	C45.5,113.9,45.1,113.1,45.1,112.4L45.1,112.4z"/>
<linearGradient id="SVGID_3_" gradientUnits="userSpaceOnUse" x1="45.0986" y1="88.0778" x2="174.9378" y2="88.0778" gradientTransform="matrix(1 0 0 -1 0 178)">
	<stop  offset="0" style="stop-color:#4F3E90"/>
	<stop  offset="1" style="stop-color:#171A31"/>
</linearGradient>
<path class="st3" d="M46.1,85.3c0,0-2.5,1.3,0.4,4.4c2.9,3.2,63.8,36.7,63.8,36.7s5,2.6,8.8,0l55.5-32.5c0,0,1.4-2.1-1.5-3.6
	l-63.8-36.9c0,0-3.2-2.5-7.5,0S46.1,85.3,46.1,85.3z"/>
<linearGradient id="SVGID_4_" gradientUnits="userSpaceOnUse" x1="45.1" y1="66.9089" x2="174.9472" y2="66.9089" gradientTransform="matrix(1 0 0 -1 0 178)">
	<stop  offset="0" style="stop-color:#463780"/>
	<stop  offset="0.1433" style="stop-color:#382E68"/>
	<stop  offset="0.3308" style="stop-color:#292550"/>
	<stop  offset="0.5289" style="stop-color:#1F1F3F"/>
	<stop  offset="0.7426" style="stop-color:#191B34"/>
	<stop  offset="1" style="stop-color:#171A31"/>
</linearGradient>
<path class="st4" d="M45.1,94.4v-7.6c0,0,0,2,2.2,3.6S65,101.1,65,101.1l23.1,13l21.9,12.2c0,0,4.9,2.7,8.8,0.4S174.6,94,174.6,94
	s0.5-0.7,0.3-1.8v8.2c0,0.7-0.4,1.4-1,1.7l-54.4,31.7c0,0-5.5,4.1-10.9-0.9L46.1,96.3C45.5,95.9,45.1,95.1,45.1,94.4L45.1,94.4z"/>
<linearGradient id="SVGID_5_" gradientUnits="userSpaceOnUse" x1="45.0986" y1="106.0778" x2="174.9378" y2="106.0778" gradientTransform="matrix(1 0 0 -1 0 178)">
	<stop  offset="0" style="stop-color:#4F3E90"/>
	<stop  offset="1" style="stop-color:#171A31"/>
</linearGradient>
<path class="st5" d="M46.1,67.3c0,0-2.5,1.3,0.4,4.4c2.9,3.2,63.8,36.7,63.8,36.7s5,2.6,8.8,0l55.5-32.5c0,0,1.4-2.1-1.5-3.6
	l-63.8-36.9c0,0-3.2-2.5-7.5,0S46.1,67.3,46.1,67.3z"/>
<linearGradient id="SVGID_6_" gradientUnits="userSpaceOnUse" x1="45.1" y1="84.9089" x2="174.9472" y2="84.9089" gradientTransform="matrix(1 0 0 -1 0 178)">
	<stop  offset="0" style="stop-color:#463780"/>
	<stop  offset="0.1433" style="stop-color:#382E68"/>
	<stop  offset="0.3308" style="stop-color:#292550"/>
	<stop  offset="0.5289" style="stop-color:#1F1F3F"/>
	<stop  offset="0.7426" style="stop-color:#191B34"/>
	<stop  offset="1" style="stop-color:#171A31"/>
</linearGradient>
<path class="st6" d="M45.1,76.4v-7.6c0,0,0,2,2.2,3.6S65,83.1,65,83.1l23.1,13l21.9,12.2c0,0,4.9,2.7,8.8,0.4S174.6,76,174.6,76
	s0.5-0.7,0.3-1.8v8.2c0,0.7-0.4,1.4-1,1.7l-54.4,31.7c0,0-5.5,4.1-10.9-0.9L46.1,78.3C45.5,77.9,45.1,77.1,45.1,76.4L45.1,76.4z"/>
<linearGradient id="SVGID_7_" gradientUnits="userSpaceOnUse" x1="103.1733" y1="74.7386" x2="119.9921" y2="137.5068" gradientTransform="matrix(1 0 0 -1 0 178)">
	<stop  offset="0" style="stop-color:#4F3E90;stop-opacity:0.6"/>
	<stop  offset="1" style="stop-color:#171ABF;stop-opacity:0.4"/>
</linearGradient>
<path class="st7" d="M52.9,67.6c0,0-2.3,1.1,0.4,4.1c2.7,2.9,58.6,33.7,58.6,33.7s4.6,2.4,8,0l51-29.8c0,0,1.3-2-1.4-3.3l-58.6-33.9
	c0,0-2.9-2.3-6.9,0C100.1,40.6,52.9,67.6,52.9,67.6z"/>
<g>
	
		<linearGradient id="SVGID_8_" gradientUnits="userSpaceOnUse" x1="45.0986" y1="124.0778" x2="174.9378" y2="124.0778" gradientTransform="matrix(1 0 0 -1 0 178)">
		<stop  offset="0" style="stop-color:#4F3E90"/>
		<stop  offset="1" style="stop-color:#171A31"/>
	</linearGradient>
	<path class="st8" d="M46.1,49.3c0,0-2.5,1.3,0.4,4.4c2.9,3.2,63.8,36.7,63.8,36.7s5,2.6,8.8,0l55.5-32.5c0,0,1.4-2.1-1.5-3.6
		l-63.8-36.9c0,0-3.2-2.5-7.5,0S46.1,49.3,46.1,49.3z"/>
	
		<linearGradient id="SVGID_9_" gradientUnits="userSpaceOnUse" x1="45.1" y1="102.9089" x2="174.9472" y2="102.9089" gradientTransform="matrix(1 0 0 -1 0 178)">
		<stop  offset="0" style="stop-color:#463780"/>
		<stop  offset="0.1433" style="stop-color:#382E68"/>
		<stop  offset="0.3308" style="stop-color:#292550"/>
		<stop  offset="0.5289" style="stop-color:#1F1F3F"/>
		<stop  offset="0.7426" style="stop-color:#191B34"/>
		<stop  offset="1" style="stop-color:#171A31"/>
	</linearGradient>
	<path class="st9" d="M45.1,58.4v-7.6c0,0,0,2,2.2,3.6S65,65.1,65,65.1l23.1,13L110,90.3c0,0,4.9,2.7,8.8,0.4S174.6,58,174.6,58
		s0.5-0.7,0.3-1.8v8.2c0,0.7-0.4,1.4-1,1.7l-54.4,31.7c0,0-5.5,4.1-10.9-0.9L46.1,60.3C45.5,59.9,45.1,59.1,45.1,58.4L45.1,58.4z"/>
</g>
<linearGradient id="SVGID_10_" gradientUnits="userSpaceOnUse" x1="74.1" y1="118.85" x2="159.1" y2="118.85" gradientTransform="matrix(1 0 0 -1 0 178)">
	<stop  offset="0" style="stop-color:#463780"/>
	<stop  offset="0.1433" style="stop-color:#382E68"/>
	<stop  offset="0.3308" style="stop-color:#292550"/>
	<stop  offset="0.5289" style="stop-color:#1F1F3F"/>
	<stop  offset="0.7426" style="stop-color:#191B34"/>
	<stop  offset="1" style="stop-color:#171A31"/>
</linearGradient>
<polygon class="st10" points="74.1,49.4 117.8,75.8 159.1,53.7 155,53.3 112.1,42.5 "/>
<g>
	<g>
		<g class="st11">
			<g class="st11">
				<g>
					<defs>
						<path id="SVGID_11_" d="M114.3,30.2c0.1-0.8,0.1-1.6,0.2-2.4c5.9,0.1,11.9,1.6,16.9,4.7c-0.1,0.8-0.1,1.6-0.2,2.4
							C126.2,31.8,120.2,30.3,114.3,30.2z"/>
					</defs>
					<clipPath id="SVGID_12_">
						<use xlink:href="#SVGID_11_"  style="overflow:visible;"/>
					</clipPath>
					<g class="st12">
						<path class="st13" d="M132.8,33.4l-0.2,2.4c-0.1-0.1-0.1-0.1-0.3-0.2c-0.2-0.1-0.4-0.3-0.6-0.4c-0.1,0-0.1-0.1-0.1-0.1
							c-0.1-0.1-0.2-0.1-0.4-0.2c-2-1.3-4.2-2.3-6.6-3l0.2-2.4c2.3,0.8,4.5,1.8,6.6,3c0.1,0.1,0.2,0.1,0.4,0.2
							c0.1,0,0.1,0.1,0.1,0.1c0.2,0.1,0.4,0.3,0.6,0.4C132.6,33.3,132.7,33.3,132.8,33.4"/>
						<path class="st14" d="M124.8,29.5l-0.2,2.4c-1.6-0.5-3.2-0.9-4.9-1.2l0.2-2.4C121.5,28.6,123.2,28.9,124.8,29.5"/>
						<path class="st15" d="M119.9,28.3l-0.2,2.4c-1.5-0.2-3-0.4-4.4-0.4l0.2-2.4C116.9,27.9,118.4,28,119.9,28.3"/>
						<path class="st16" d="M115.5,27.8l-0.2,2.4c-0.3,0-0.6,0-0.9,0c-1.2,0-2.4,0.1-3.5,0.1L111,28c1.1-0.1,2.3-0.1,3.5-0.1
							C114.8,27.8,115.1,27.8,115.5,27.8"/>
					</g>
				</g>
			</g>
			<g class="st11">
				<g>
					<defs>
						<path id="SVGID_13_" d="M131.5,35.1c-0.1-0.1-0.2-0.1-0.4-0.2c0.1-0.8,0.1-1.6,0.2-2.4c0.1,0.1,0.2,0.1,0.4,0.2
							c0.1,0,0.1,0.1,0.1,0.1c0.1,0.1,0.4,0.2,0.5,0.4c0.1,0.1,0.1,0.1,0.1,0.1c0.1,0.1,0.1,0.1,0.3,0.2l-0.2,2.4
							c-0.1-0.1-0.1-0.1-0.3-0.2c-0.2-0.1-0.4-0.3-0.6-0.4C131.6,35.2,131.6,35.2,131.5,35.1z"/>
					</defs>
					<clipPath id="SVGID_14_">
						<use xlink:href="#SVGID_13_"  style="overflow:visible;"/>
					</clipPath>
					<g class="st17">
						<path class="st13" d="M132.8,33.4l-0.2,2.4c-0.1-0.1-0.1-0.1-0.3-0.2c-0.2-0.1-0.4-0.3-0.6-0.4c-0.1,0-0.1-0.1-0.1-0.1
							c-0.1-0.1-0.2-0.1-0.4-0.2c-2-1.3-4.2-2.3-6.6-3l0.2-2.4c2.3,0.8,4.5,1.8,6.6,3c0.1,0.1,0.2,0.1,0.4,0.2
							c0.1,0,0.1,0.1,0.1,0.1c0.2,0.1,0.4,0.3,0.6,0.4C132.6,33.3,132.7,33.3,132.8,33.4"/>
					</g>
				</g>
			</g>
			<g class="st11">
				<g>
					<defs>
						<path id="SVGID_15_" d="M114.3,30.2c-6.9,0-13.3,1.8-18,5.4c0.1-0.8,0.1-1.6,0.2-2.4c4.7-3.6,11.2-5.4,18-5.4
							C114.4,28.6,114.3,29.4,114.3,30.2L114.3,30.2z"/>
					</defs>
					<clipPath id="SVGID_16_">
						<use xlink:href="#SVGID_15_"  style="overflow:visible;"/>
					</clipPath>
					<g class="st18">
						<path class="st16" d="M115.5,27.8l-0.2,2.4c-0.3,0-0.6,0-0.9,0c-1.2,0-2.4,0.1-3.5,0.1L111,28c1.1-0.1,2.3-0.1,3.5-0.1
							C114.8,27.8,115.1,27.8,115.5,27.8"/>
						<path class="st19" d="M110.9,28l-0.2,2.4c-1.8,0.1-3.5,0.5-5.2,0.9l0.2-2.4C107.4,28.4,109.2,28.1,110.9,28"/>
						<path class="st20" d="M105.7,28.9l-0.2,2.4c-3.5,0.9-6.6,2.3-9.3,4.4c-2,1.5-3.5,3.2-4.5,4.9l0.2-2.4c1.1-1.8,2.6-3.5,4.5-4.9
							C99.1,31.2,102.2,29.7,105.7,28.9"/>
					</g>
				</g>
			</g>
			<g class="st11">
				<g>
					<defs>
						<path id="SVGID_17_" d="M116.5,40.7l-0.2,2.4c-2.6-0.7-5.3-1.1-7.9-1.3l0.2-2.4C111.2,39.5,113.9,40,116.5,40.7z"/>
					</defs>
					<clipPath id="SVGID_18_">
						<use xlink:href="#SVGID_17_"  style="overflow:visible;"/>
					</clipPath>
					<g class="st21">
						<path class="st22" d="M116.5,40.7l-0.2,2.4c-1.2-0.4-2.4-0.6-3.7-0.8l0.2-2.4C114.1,40.1,115.3,40.4,116.5,40.7"/>
						<path class="st23" d="M112.8,39.9l-0.2,2.4c-1.4-0.2-2.8-0.4-4.3-0.4l0.2-2.4C110,39.5,111.4,39.7,112.8,39.9"/>
					</g>
				</g>
			</g>
			<g class="st11">
				<g>
					<defs>
						<path id="SVGID_19_" d="M96.2,35.7c-3.5,2.6-5.5,5.9-6.3,9.3l0.2-2.4c0.8-3.4,2.8-6.6,6.3-9.3C96.4,34,96.3,34.8,96.2,35.7z"
							/>
					</defs>
					<clipPath id="SVGID_20_">
						<use xlink:href="#SVGID_19_"  style="overflow:visible;"/>
					</clipPath>
					<g class="st24">
						<path class="st20" d="M105.7,28.9l-0.2,2.4c-3.5,0.9-6.6,2.3-9.3,4.4c-2,1.5-3.5,3.2-4.5,4.9l0.2-2.4c1.1-1.8,2.6-3.5,4.5-4.9
							C99.1,31.2,102.2,29.7,105.7,28.9"/>
						<path class="st19" d="M91.9,38.2l-0.2,2.4c-0.7,1.2-1.2,2.4-1.6,3.7l0.2-2.4C90.7,40.6,91.2,39.3,91.9,38.2"/>
						<path class="st16" d="M90.4,41.8l-0.2,2.4c-0.1,0.2-0.1,0.5-0.1,0.7l0.2-2.4C90.2,42.3,90.3,42.1,90.4,41.8"/>
					</g>
				</g>
			</g>
			<g class="st11">
				<g>
					<defs>
						<path id="SVGID_21_" d="M108.6,39.5l-0.2,2.4c-1.1-0.1-2.3-0.1-3.4-0.1C98.9,41.7,93.9,43,90,45l0.2-2.4c3.9-2,8.8-3.2,15-3.2
							C106.3,39.3,107.4,39.3,108.6,39.5z"/>
					</defs>
					<clipPath id="SVGID_22_">
						<use xlink:href="#SVGID_21_"  style="overflow:visible;"/>
					</clipPath>
					<g class="st25">
						<path class="st23" d="M108.6,39.5l-0.2,2.4c-0.7-0.1-1.3-0.1-2-0.1l0.2-2.4C107.2,39.3,107.9,39.4,108.6,39.5"/>
						<path class="st26" d="M106.6,39.3l-0.2,2.4c-0.4,0-0.9,0-1.3,0c-1.3,0-2.7,0.1-3.9,0.1l0.2-2.4c1.3-0.1,2.5-0.1,3.9-0.1
							C105.6,39.3,106.1,39.3,106.6,39.3"/>
						<path class="st27" d="M101.3,39.5l-0.2,2.4c-1.9,0.1-3.7,0.5-5.3,0.9l0.2-2.4C97.7,39.9,99.4,39.6,101.3,39.5"/>
						<path class="st28" d="M96,40.3l-0.2,2.4c-2.2,0.6-4.1,1.3-5.9,2.2l0.2-2.4C91.9,41.7,93.8,40.9,96,40.3"/>
					</g>
				</g>
			</g>
			<g class="st11">
				<g>
					<defs>
						<path id="SVGID_23_" d="M129.6,48.3l-0.2,2.4c-2.6-3.1-6.7-6.1-13.1-7.6l0.2-2.4C122.9,42.1,127,45.2,129.6,48.3z"/>
					</defs>
					<clipPath id="SVGID_24_">
						<use xlink:href="#SVGID_23_"  style="overflow:visible;"/>
					</clipPath>
					<g class="st29">
						<path class="st30" d="M129.6,48.3l-0.2,2.4c-2.3-2.7-5.6-5.3-10.6-6.9l0.2-2.4C123.9,43,127.3,45.6,129.6,48.3"/>
						<path class="st22" d="M119,41.4l-0.2,2.4c-0.8-0.3-1.6-0.5-2.5-0.7l0.2-2.4C117.4,40.9,118.2,41.1,119,41.4"/>
					</g>
				</g>
			</g>
			<g class="st11">
				<g>
					<defs>
						<path id="SVGID_25_" d="M140.8,50.7l-0.2,2.4c0.1-1.9,0-3.6-0.2-4.8c-0.9-5.6-4.8-10.3-5-10.5l0.2-2.4c0.2,0.2,4.1,4.9,5,10.5
							C140.7,47,140.9,48.8,140.8,50.7z"/>
					</defs>
					<clipPath id="SVGID_26_">
						<use xlink:href="#SVGID_25_"  style="overflow:visible;"/>
					</clipPath>
					<g class="st31">
						<path class="st13" d="M140.8,50.7l-0.2,2.4c0.1-1.9,0-3.6-0.2-4.8c-0.9-5.6-4.8-10.3-5-10.5l0.2-2.4c0.2,0.2,4.1,4.9,5,10.5
							C140.7,47,140.9,48.8,140.8,50.7"/>
					</g>
				</g>
			</g>
			<g class="st11">
				<g>
					<defs>
						<path id="SVGID_27_" d="M138.8,47.7l-0.2,2.4c-0.5,5.6-4.4,9.2-4.7,9.5l0.2-2.4C134.5,56.9,138.3,53.3,138.8,47.7z"/>
					</defs>
					<clipPath id="SVGID_28_">
						<use xlink:href="#SVGID_27_"  style="overflow:visible;"/>
					</clipPath>
					<g class="st32">
						<path class="st26" d="M138.8,47.7l-0.2,2.4c-0.1,0.8-0.2,1.7-0.4,2.5l0.2-2.4C138.5,49.4,138.8,48.6,138.8,47.7"/>
						<path class="st27" d="M138.3,50.1l-0.2,2.4c-0.4,1.5-1.1,2.8-1.7,3.8l0.2-2.4C137.3,53,137.9,51.6,138.3,50.1"/>
						<path class="st28" d="M136.7,54l-0.2,2.4c-1.1,1.9-2.4,3-2.5,3.2l0.2-2.4C134.3,57,135.5,55.9,136.7,54"/>
					</g>
				</g>
			</g>
			<g>
				<path class="st33" d="M114.3,27.8c0.1,0,0.1,0,0.1,0c5.9,0.1,11.9,1.6,16.9,4.7c0.1,0.1,0.2,0.1,0.4,0.2c0.1,0,0.1,0.1,0.1,0.1
					c0.2,0.1,0.4,0.3,0.6,0.4c0.1,0.1,0.1,0.1,0.3,0.2c12.5,13.3,1.9,23.2,1.3,23.8c-0.5-3.1-2-6.1-4.5-8.9
					c-2.6-3.1-6.7-6.1-13.1-7.6c-2.6-0.7-5.3-1.1-7.9-1.3c-1.1-0.1-2.3-0.1-3.4-0.1c-6.1-0.1-11.1,1.3-15,3.2
					c0.8-3.4,2.8-6.6,6.3-9.3c4.7-3.6,11.2-5.4,17.7-5.4C114.3,27.8,114.3,27.8,114.3,27.8z"/>
			</g>
			<g class="st11">
				<g>
					<defs>
						<path id="SVGID_29_" d="M134.1,57.2l-0.2,2.4c-0.5-3.1-2-6.1-4.5-8.9l0.2-2.4C132.1,51,133.7,54.1,134.1,57.2z"/>
					</defs>
					<clipPath id="SVGID_30_">
						<use xlink:href="#SVGID_29_"  style="overflow:visible;"/>
					</clipPath>
					<g class="st34">
						<path class="st30" d="M134.1,57.2l-0.2,2.4c-0.5-3.1-2-6.1-4.5-8.9l0.2-2.4C132.1,51,133.7,54.1,134.1,57.2"/>
					</g>
				</g>
			</g>
			<g class="st11">
				<g>
					<defs>
						<path id="SVGID_31_" d="M73.4,50.6l0.2-2.4c-0.2,2.2,0,4.4,0.6,6.6L74,57.2C73.4,55,73.2,52.8,73.4,50.6z"/>
					</defs>
					<clipPath id="SVGID_32_">
						<use xlink:href="#SVGID_31_"  style="overflow:visible;"/>
					</clipPath>
					<g class="st35">
						<path class="st13" d="M74.2,54.8L74,57.2c-0.6-2.2-0.8-4.4-0.6-6.6l0.2-2.4C73.4,50.3,73.6,52.6,74.2,54.8"/>
					</g>
				</g>
			</g>
			<g class="st11">
				<g>
					<defs>
						<path id="SVGID_33_" d="M84.8,52c-1.2,2-1.9,4.1-2.1,6.2l0.2-2.4c0.2-2.1,0.9-4.2,2.1-6.2C85,50.3,85.1,51.3,84.8,52z"/>
					</defs>
					<clipPath id="SVGID_34_">
						<use xlink:href="#SVGID_33_"  style="overflow:visible;"/>
					</clipPath>
					<g class="st36">
						<path class="st20" d="M85,49.6L84.8,52c-0.1,0.1-0.1,0.1-0.1,0.1l0.2-2.4C84.9,49.8,85,49.7,85,49.6"/>
						<path class="st19" d="M84.9,49.8l-0.2,2.4c-0.7,1.2-1.2,2.4-1.6,3.6l0.2-2.4C83.7,52.2,84.2,51,84.9,49.8"/>
						<path class="st16" d="M83.4,53.4l-0.2,2.4c-0.2,0.8-0.4,1.6-0.4,2.4l0.2-2.4C83,55.1,83.2,54.2,83.4,53.4"/>
					</g>
				</g>
			</g>
			<g class="st11">
				<g>
					<defs>
						<path id="SVGID_35_" d="M90.2,42.5L90,44.9c-11.3,5.7-14.1,16.4-14.2,16.9l0.2-2.4C76.2,58.9,78.9,48.2,90.2,42.5z"/>
					</defs>
					<clipPath id="SVGID_36_">
						<use xlink:href="#SVGID_35_"  style="overflow:visible;"/>
					</clipPath>
					<g class="st37">
						<path class="st20" d="M90.2,42.5L90,44.9c-5.7,2.9-9.3,7.1-11.4,10.5l0.2-2.4C80.9,49.6,84.5,45.4,90.2,42.5"/>
						<path class="st19" d="M78.8,53.1l-0.2,2.4c-1.8,2.9-2.5,5.4-2.8,6.1l0.2-2.4C76.3,58.5,77.1,56,78.8,53.1"/>
						<path class="st16" d="M76.1,59.2l-0.2,2.4c-0.1,0.1-0.1,0.2-0.1,0.3l0.2-2.4C76,59.4,76,59.4,76.1,59.2"/>
					</g>
				</g>
			</g>
			<g>
				<path class="st38" d="M107.3,25.5c8.8,0.1,17.7,2.5,24.9,7.3c0.2,0.2,0.4,0.4,0.6,0.6c-0.1-0.1-0.1-0.1-0.3-0.2
					c-0.2-0.1-0.4-0.3-0.6-0.4c-0.1,0-0.1-0.1-0.1-0.1c-0.1-0.1-0.2-0.1-0.4-0.2c-4.9-3-10.9-4.6-16.9-4.7c-6.9,0-13.3,1.8-18,5.4
					c-3.5,2.6-5.5,5.9-6.3,9.3C78.9,48.3,76.2,59,76,59.5c-0.8-1.6-1.4-3.2-1.8-4.7c-1.6-6.4-0.1-13.1,4.9-18.6
					c3.2-3.2,6.9-5.3,9-6.6c1.6-0.8,3.4-1.5,5.2-2c2.4-0.7,5.4-1.3,8.6-1.8C103.7,25.6,105.5,25.5,107.3,25.5z"/>
			</g>
			<g class="st11">
				<g>
					<defs>
						<path id="SVGID_37_" d="M76,59.4l-0.2,2.4c-0.8-1.6-1.4-3.2-1.8-4.7l0.2-2.4C74.6,56.3,75.2,57.8,76,59.4z"/>
					</defs>
					<clipPath id="SVGID_38_">
						<use xlink:href="#SVGID_37_"  style="overflow:visible;"/>
					</clipPath>
					<g class="st39">
						<path class="st13" d="M76,59.4l-0.2,2.4c-0.8-1.6-1.4-3.2-1.8-4.7l0.2-2.4C74.6,56.3,75.2,57.8,76,59.4"/>
					</g>
				</g>
			</g>
			<g class="st11">
				<g>
					<defs>
						<path id="SVGID_39_" d="M134.2,60.9l-0.2,2.4c-0.4,4-2.6,7.8-6.6,10.8l0.2-2.4C131.6,68.6,133.7,64.8,134.2,60.9z"/>
					</defs>
					<clipPath id="SVGID_40_">
						<use xlink:href="#SVGID_39_"  style="overflow:visible;"/>
					</clipPath>
					<g class="st40">
						<path class="st41" d="M134.2,60.9l-0.2,2.4c-0.1,0.7-0.2,1.5-0.4,2.2l0.2-2.4C134,62.3,134.1,61.6,134.2,60.9"/>
						<path class="st42" d="M133.8,63l-0.2,2.4c-0.4,1.3-0.8,2.5-1.6,3.6l0.2-2.4C132.9,65.5,133.5,64.3,133.8,63"/>
						<path class="st43" d="M132.2,66.7l-0.2,2.4c-1.1,1.8-2.6,3.5-4.5,5l0.2-2.4C129.6,70.1,131.1,68.4,132.2,66.7"/>
					</g>
				</g>
			</g>
			<g class="st11">
				<g>
					<defs>
						<path id="SVGID_41_" d="M88.8,71.9l-0.2,2.4c-7.5-4.6-11.1-10-11.3-10.2l0.2-2.4C77.7,61.9,81.3,67.2,88.8,71.9z"/>
					</defs>
					<clipPath id="SVGID_42_">
						<use xlink:href="#SVGID_41_"  style="overflow:visible;"/>
					</clipPath>
					<g class="st44">
						<path class="st13" d="M88.8,71.9l-0.2,2.4c-7.5-4.6-11.1-10-11.3-10.2l0.2-2.4C77.7,61.9,81.3,67.2,88.8,71.9"/>
					</g>
				</g>
			</g>
			<g>
				<path class="st45" d="M89.5,44.8c0,0.1,0.1,1.4,0.6,3.4c0.4,2,1.3,4.1,2.6,6c0.4,0.6,0.8,1.1,1.3,1.7c1.2,1.4,2.6,2.7,4.4,3.9
					c0.6,0.4,1.2,0.8,1.8,1.1c4.2,2.6,9.7,4.6,16.1,4.6c2.8,0,5.7-0.3,8.8-1.1c0.1-0.1,0.3-0.1,0.4-0.1c0.5-0.1,1-0.3,1.4-0.4
					c0.3-0.1,0.6-0.1,0.8-0.3c2.6-0.8,4.7-1.8,6.5-2.9c-0.4,4-2.6,7.8-6.6,10.8c-4.7,3.6-11,5.4-17.5,5.4c-0.1,0-0.2,0-0.3,0
					c-0.1,0-0.2,0-0.3,0c-5.7-0.1-11.5-1.6-16.4-4.4c-0.6-0.4-1.2-0.8-1.8-1.1c-5.3-3.7-8.1-8.5-8.5-13.3c-0.2-2.9,0.5-5.8,2.1-8.4
					C87.2,47.2,89.4,44.9,89.5,44.8z"/>
			</g>
			<g class="st11">
				<g>
					<defs>
						<path id="SVGID_43_" d="M144.5,54.7l-0.2,2.4c-0.5,5.6-3.5,10.9-9,15.3c-2.8,2.2-6.1,3.9-9.7,5.1c-0.4,0.1-0.8,0.3-1.2,0.4
							c-0.4,0.1-0.6,0.2-1,0.3c-4,1.1-8.4,1.7-12.7,1.7c-7.6-0.1-15.3-1.9-22-5.5l0.2-2.4c6.6,3.6,14.3,5.4,22,5.5
							c4.4,0,8.7-0.5,12.7-1.7c0.4-0.1,0.6-0.2,1-0.3c0.4-0.1,0.8-0.3,1.2-0.4c3.5-1.2,6.9-2.9,9.7-5.1
							C140.9,65.7,143.9,60.3,144.5,54.7z"/>
					</defs>
					<clipPath id="SVGID_44_">
						<use xlink:href="#SVGID_43_"  style="overflow:visible;"/>
					</clipPath>
					<g class="st46">
						<path class="st16" d="M144.5,54.7l-0.2,2.4c-0.1,1.1-0.3,2.3-0.6,3.3l0.2-2.4C144.1,57,144.3,55.8,144.5,54.7"/>
						<path class="st19" d="M143.8,58l-0.2,2.4c-0.5,1.7-1.2,3.4-2.2,5l0.2-2.4C142.6,61.4,143.3,59.8,143.8,58"/>
						<path class="st20" d="M141.7,63.1l-0.2,2.4c-1.5,2.5-3.6,4.8-6.3,6.9c-2.8,2.2-6.1,3.9-9.7,5.1c-0.4,0.1-0.8,0.3-1.2,0.4
							c-0.4,0.1-0.6,0.2-1,0.3c-0.4,0.1-0.6,0.2-1,0.3l0.2-2.4c0.4-0.1,0.6-0.1,1-0.3c0.4-0.1,0.6-0.2,1-0.3
							c0.4-0.1,0.8-0.3,1.2-0.4c3.5-1.2,6.9-2.9,9.7-5.1C138.1,67.9,140.2,65.5,141.7,63.1"/>
						<path class="st19" d="M122.5,76l-0.2,2.4c-2.3,0.6-4.7,1-7.1,1.2l0.2-2.4C117.9,77,120.3,76.5,122.5,76"/>
						<path class="st16" d="M115.5,77.2l-0.2,2.4c-1.6,0.1-3.2,0.2-4.7,0.2c-0.5,0-1,0-1.5,0l0.2-2.4c0.5,0,1,0,1.5,0
							C112.3,77.4,114,77.3,115.5,77.2"/>
						<path class="st15" d="M109.2,77.3l-0.2,2.4c-2-0.1-4.1-0.3-6.1-0.6l0.2-2.4C105.1,77,107.2,77.2,109.2,77.3"/>
						<path class="st14" d="M103.1,76.8l-0.2,2.4c-2.3-0.4-4.6-0.9-6.8-1.6l0.2-2.4C98.5,75.8,100.8,76.3,103.1,76.8"/>
						<path class="st13" d="M96.3,75.1l-0.2,2.4c-2.6-0.8-5.2-1.9-7.5-3.2l0.2-2.4C91.2,73.2,93.7,74.2,96.3,75.1"/>
					</g>
				</g>
			</g>
			<g>
				<path class="st38" d="M135.5,35.3c0.8,0.4,6.6,6.3,8.8,14.4c1.3,7.3-1.6,14.7-8.8,20.2c-2.8,2.2-6.1,3.9-9.7,5.1
					c-0.4,0.1-0.8,0.3-1.2,0.4c-0.4,0.1-0.6,0.2-1,0.3c-4,1.1-8.4,1.7-12.7,1.7c-7.6-0.1-15.3-1.9-22-5.5
					c-7.5-4.6-11.1-10-11.3-10.2c0.1-0.1,1.8-3.5,4-7.4c0.6-1.1,2-2.8,3.5-4.6c-1.6,2.6-2.3,5.5-2.1,8.4c0.4,4.8,3.2,9.7,8.5,13.3
					c0.6,0.4,1.1,0.8,1.8,1.1c4.9,2.9,10.7,4.4,16.4,4.4c0.1,0,0.2,0,0.3,0c0.1,0,0.2,0,0.3,0c6.5,0,12.9-1.8,17.5-5.4
					c4-3,6.1-6.9,6.6-10.8c7.5-4.4,6.9-11.7,6.4-15C139.6,40.2,135.7,35.6,135.5,35.3z"/>
			</g>
		</g>
	</g>
</g>
</svg>
