<?xml version="1.0" encoding="utf-8"?>
<!-- Generator: Adobe Illustrator 24.2.0, SVG Export Plug-In . SVG Version: 6.00 Build 0)  -->
<svg version="1.1" id="Capa_1" xmlns="http://www.w3.org/2000/svg" xmlns:xlink="http://www.w3.org/1999/xlink" x="0px" y="0px"
	 viewBox="0 0 512 512" style="enable-background:new 0 0 512 512;" xml:space="preserve">
<style type="text/css">
	.st0{opacity:0.2;fill:#1E1A21;enable-background:new    ;}
	.st1{fill:none;stroke:url(#SVGID_1_);stroke-width:3;stroke-linecap:round;stroke-linejoin:round;stroke-miterlimit:10;}
	.st2{fill:url(#XMLID_4_);}
	.st3{fill:url(#XMLID_5_);}
	.st4{fill:url(#XMLID_6_);}
	.st5{fill:url(#XMLID_7_);}
	.st6{clip-path:url(#SVGID_3_);fill:url(#XMLID_8_);}
	.st7{clip-path:url(#SVGID_5_);fill:url(#XMLID_9_);}
	.st8{clip-path:url(#SVGID_7_);fill:url(#XMLID_10_);}
	.st9{clip-path:url(#SVGID_9_);fill:url(#XMLID_11_);}
	.st10{clip-path:url(#SVGID_11_);fill:url(#XMLID_12_);}
	.st11{clip-path:url(#SVGID_13_);fill:url(#XMLID_13_);}
	.st12{clip-path:url(#SVGID_15_);fill:url(#XMLID_14_);}
	.st13{clip-path:url(#SVGID_17_);fill:url(#XMLID_15_);}
	.st14{opacity:0.5;fill:none;stroke:#0053FB;stroke-width:2;stroke-miterlimit:10;enable-background:new    ;}
	.st15{fill:url(#XMLID_16_);}
	.st16{fill:url(#XMLID_17_);}
	.st17{fill:url(#XMLID_18_);}
	.st18{fill:url(#XMLID_19_);}
	.st19{fill:url(#XMLID_21_);}
	.st20{fill:url(#XMLID_22_);}
	.st21{fill:url(#XMLID_23_);}
	.st22{fill:url(#XMLID_24_);}
	.st23{fill:url(#XMLID_25_);}
	.st24{fill:url(#XMLID_26_);}
	.st25{fill:url(#XMLID_27_);}
	.st26{fill:url(#XMLID_28_);}
	.st27{fill:url(#XMLID_29_);}
	.st28{fill:url(#XMLID_30_);}
	.st29{fill:url(#SVGID_18_);}
	.st30{fill:url(#SVGID_19_);}
	.st31{fill:url(#SVGID_20_);}
	.st32{fill:url(#SVGID_21_);}
	.st33{fill:url(#SVGID_22_);}
	.st34{fill:url(#SVGID_23_);}
	.st35{opacity:0.25;fill:url(#SVGID_24_);enable-background:new    ;}
	.st36{fill:url(#SVGID_25_);}
	.st37{fill:url(#SVGID_26_);}
	.st38{opacity:0.6;fill:url(#SVGID_27_);enable-background:new    ;}
	.st39{opacity:0.5;}
	.st40{fill:none;stroke:#0053FB;stroke-miterlimit:10;}
	.st41{enable-background:new    ;}
	.st42{clip-path:url(#SVGID_29_);enable-background:new    ;}
	.st43{fill:#128E79;}
	.st44{clip-path:url(#SVGID_31_);enable-background:new    ;}
	.st45{fill:#107F6D;}
	.st46{fill:#118471;}
	.st47{fill:#118975;}
	.st48{clip-path:url(#SVGID_33_);enable-background:new    ;}
	.st49{clip-path:url(#SVGID_35_);enable-background:new    ;}
	.st50{fill:#13927D;}
	.st51{fill:#139782;}
	.st52{clip-path:url(#SVGID_37_);enable-background:new    ;}
	.st53{clip-path:url(#SVGID_39_);enable-background:new    ;}
	.st54{clip-path:url(#SVGID_41_);enable-background:new    ;}
	.st55{fill:#81528A;}
	.st56{fill:#85558F;}
	.st57{clip-path:url(#SVGID_43_);enable-background:new    ;}
	.st58{clip-path:url(#SVGID_45_);enable-background:new    ;}
	.st59{fill:#8A5894;}
	.st60{fill:#8F5B99;}
	.st61{fill:#945E9E;}
	.st62{clip-path:url(#SVGID_47_);enable-background:new    ;}
	.st63{fill:#7C4F85;}
	.st64{clip-path:url(#SVGID_49_);enable-background:new    ;}
	.st65{clip-path:url(#SVGID_51_);enable-background:new    ;}
	.st66{fill:#DC8CEB;}
	.st67{clip-path:url(#SVGID_53_);enable-background:new    ;}
	.st68{clip-path:url(#SVGID_55_);enable-background:new    ;}
	.st69{clip-path:url(#SVGID_57_);enable-background:new    ;}
	.st70{clip-path:url(#SVGID_59_);enable-background:new    ;}
	.st71{clip-path:url(#SVGID_61_);enable-background:new    ;}
	.st72{fill:#1DE1C1;}
	.st73{clip-path:url(#SVGID_63_);enable-background:new    ;}
	.st74{fill:#006D65;}
	.st75{fill:#007168;}
	.st76{fill:#00756C;}
	.st77{clip-path:url(#SVGID_65_);enable-background:new    ;}
	.st78{fill:#006961;}
	.st79{fill:#00665E;}
	.st80{fill:#00625A;}
	.st81{clip-path:url(#SVGID_67_);enable-background:new    ;}
	.st82{clip-path:url(#SVGID_69_);enable-background:new    ;}
	.st83{clip-path:url(#SVGID_71_);enable-background:new    ;}
	.st84{clip-path:url(#SVGID_73_);enable-background:new    ;}
	.st85{clip-path:url(#SVGID_75_);enable-background:new    ;}
	.st86{clip-path:url(#SVGID_77_);enable-background:new    ;}
	.st87{clip-path:url(#SVGID_79_);enable-background:new    ;}
	.st88{clip-path:url(#SVGID_81_);enable-background:new    ;}
	.st89{fill:#00AEA1;}
</style>
<path class="st0" d="M118.6,424.5c0,0-5,2.4,0.8,8.8c5.7,6.3,126.7,72.9,126.7,72.9s10,5.2,17.4,0l110.2-64.6c0,0,2.8-4.2-3.1-7.1
	l-126.5-73.3c0,0-6.4-5-14.9,0S118.6,424.5,118.6,424.5z"/>
<linearGradient id="SVGID_1_" gradientUnits="userSpaceOnUse" x1="197.8" y1="848.4" x2="197.8" y2="848.4" gradientTransform="matrix(1 0 0 1 0 -406)">
	<stop  offset="2.945171e-07" style="stop-color:#3F00FC"/>
	<stop  offset="0.2077" style="stop-color:#3F02F7"/>
	<stop  offset="0.4672" style="stop-color:#3E09E7"/>
	<stop  offset="0.7531" style="stop-color:#3E14CE"/>
	<stop  offset="1" style="stop-color:#3D20B2"/>
</linearGradient>
<path class="st1" d="M197.8,442.4"/>
<linearGradient id="XMLID_4_" gradientUnits="userSpaceOnUse" x1="222.4643" y1="17268.1074" x2="289.5607" y2="17017.6992" gradientTransform="matrix(1 0 0 1 0 -16790)">
	<stop  offset="0" style="stop-color:#4F3E90"/>
	<stop  offset="1" style="stop-color:#171A31"/>
</linearGradient>
<polygon id="XMLID_20_" class="st2" points="140,420.1 140,285.8 255.6,218.6 372,285.7 372,420.1 256.4,487.2 "/>
<linearGradient id="XMLID_5_" gradientUnits="userSpaceOnUse" x1="239.2393" y1="17138.3027" x2="272.7607" y2="17013.1973" gradientTransform="matrix(1 0 0 1 0 -16790)">
	<stop  offset="0" style="stop-color:#4F3E90"/>
	<stop  offset="1" style="stop-color:#171A31"/>
</linearGradient>
<polygon id="XMLID_49_" class="st3" points="255.6,218.6 372,285.7 256.4,352.9 140,285.8 "/>
<linearGradient id="XMLID_6_" gradientUnits="userSpaceOnUse" x1="292.8843" y1="17096.8984" x2="335.5157" y2="17256" gradientTransform="matrix(1 0 0 1 0 -16790)">
	<stop  offset="0" style="stop-color:#4F3E90"/>
	<stop  offset="1" style="stop-color:#171A31"/>
</linearGradient>
<polygon id="XMLID_50_" class="st4" points="256.4,487.2 256.4,352.9 372,285.7 372,420.1 "/>
<g id="XMLID_97_">
	<g>
		
			<linearGradient id="XMLID_7_" gradientUnits="userSpaceOnUse" x1="186.2" y1="233.75" x2="322.9" y2="233.75" gradientTransform="matrix(1 0 0 -1 0 514)">
			<stop  offset="1.916698e-07" style="stop-color:#7F00FF;stop-opacity:0.4"/>
			<stop  offset="1" style="stop-color:#3D00FF;stop-opacity:0.6"/>
		</linearGradient>
		<polygon id="XMLID_98_" class="st5" points="254.4,240.7 322.9,280.3 254.8,319.8 186.2,280.3 		"/>
	</g>
	<g>
		<defs>
			<polygon id="SVGID_2_" points="254.4,240.7 322.9,280.3 254.8,319.8 186.2,280.3 			"/>
		</defs>
		<clipPath id="SVGID_3_">
			<use xlink:href="#SVGID_2_"  style="overflow:visible;"/>
		</clipPath>
		
			<linearGradient id="XMLID_8_" gradientUnits="userSpaceOnUse" x1="244.6399" y1="17045.7148" x2="264.4668" y2="17119.709" gradientTransform="matrix(1 0 0 1 0 -16790)">
			<stop  offset="1.916698e-07" style="stop-color:#7F00FF;stop-opacity:0.4"/>
			<stop  offset="1" style="stop-color:#3D00FF;stop-opacity:0.6"/>
		</linearGradient>
		<polygon id="XMLID_109_" class="st6" points="254.4,253.1 322.9,292.7 254.8,332.3 186.2,292.7 		"/>
	</g>
	<g>
		<defs>
			<polygon id="SVGID_4_" points="254.4,240.7 322.9,280.3 254.8,319.8 186.2,280.3 			"/>
		</defs>
		<clipPath id="SVGID_5_">
			<use xlink:href="#SVGID_4_"  style="overflow:visible;"/>
		</clipPath>
		
			<linearGradient id="XMLID_9_" gradientUnits="userSpaceOnUse" x1="244.6399" y1="17057.916" x2="264.4668" y2="17131.9102" gradientTransform="matrix(1 0 0 1 0 -16790)">
			<stop  offset="1.916698e-07" style="stop-color:#7F00FF;stop-opacity:0.4"/>
			<stop  offset="1" style="stop-color:#3D00FF;stop-opacity:0.6"/>
		</linearGradient>
		<polygon id="XMLID_108_" class="st7" points="254.4,265.3 322.9,304.9 254.8,344.5 186.2,304.9 		"/>
	</g>
	<g>
		<defs>
			<polygon id="SVGID_6_" points="254.4,240.7 322.9,280.3 254.8,319.8 186.2,280.3 			"/>
		</defs>
		<clipPath id="SVGID_7_">
			<use xlink:href="#SVGID_6_"  style="overflow:visible;"/>
		</clipPath>
		
			<linearGradient id="XMLID_10_" gradientUnits="userSpaceOnUse" x1="244.6399" y1="17070.1152" x2="264.4668" y2="17144.1094" gradientTransform="matrix(1 0 0 1 0 -16790)">
			<stop  offset="1.916698e-07" style="stop-color:#7F00FF;stop-opacity:0.4"/>
			<stop  offset="1" style="stop-color:#3D00FF;stop-opacity:0.6"/>
		</linearGradient>
		<polygon id="XMLID_107_" class="st8" points="254.4,277.5 322.9,317.1 254.8,356.7 186.2,317.1 		"/>
	</g>
	<g>
		<defs>
			<polygon id="SVGID_8_" points="254.4,240.7 322.9,280.3 254.8,319.8 186.2,280.3 			"/>
		</defs>
		<clipPath id="SVGID_9_">
			<use xlink:href="#SVGID_8_"  style="overflow:visible;"/>
		</clipPath>
		
			<linearGradient id="XMLID_11_" gradientUnits="userSpaceOnUse" x1="244.6399" y1="17082.3145" x2="264.4668" y2="17156.3105" gradientTransform="matrix(1 0 0 1 0 -16790)">
			<stop  offset="1.916698e-07" style="stop-color:#7F00FF;stop-opacity:0.4"/>
			<stop  offset="1" style="stop-color:#3D00FF;stop-opacity:0.6"/>
		</linearGradient>
		<polygon id="XMLID_105_" class="st9" points="254.4,289.7 322.9,329.3 254.8,368.9 186.2,329.3 		"/>
	</g>
	<g>
		<defs>
			<polygon id="SVGID_10_" points="254.4,240.7 322.9,280.3 254.8,319.8 186.2,280.3 			"/>
		</defs>
		<clipPath id="SVGID_11_">
			<use xlink:href="#SVGID_10_"  style="overflow:visible;"/>
		</clipPath>
		
			<linearGradient id="XMLID_12_" gradientUnits="userSpaceOnUse" x1="244.6649" y1="17094.6094" x2="264.4668" y2="17168.5098" gradientTransform="matrix(1 0 0 1 0 -16790)">
			<stop  offset="1.916698e-07" style="stop-color:#7F00FF;stop-opacity:0.4"/>
			<stop  offset="1" style="stop-color:#3D00FF;stop-opacity:0.6"/>
		</linearGradient>
		<polygon id="XMLID_104_" class="st10" points="254.4,302 322.9,341.5 254.8,381.1 186.2,341.5 		"/>
	</g>
	<g>
		<defs>
			<polygon id="SVGID_12_" points="254.4,240.7 322.9,280.3 254.8,319.8 186.2,280.3 			"/>
		</defs>
		<clipPath id="SVGID_13_">
			<use xlink:href="#SVGID_12_"  style="overflow:visible;"/>
		</clipPath>
		
			<linearGradient id="XMLID_13_" gradientUnits="userSpaceOnUse" x1="244.6649" y1="17106.8086" x2="264.4668" y2="17180.709" gradientTransform="matrix(1 0 0 1 0 -16790)">
			<stop  offset="1.916698e-07" style="stop-color:#7F00FF;stop-opacity:0.4"/>
			<stop  offset="1" style="stop-color:#3D00FF;stop-opacity:0.6"/>
		</linearGradient>
		<polygon id="XMLID_103_" class="st11" points="254.4,314.2 322.9,353.7 254.8,393.3 186.2,353.7 		"/>
	</g>
	<g>
		<defs>
			<polygon id="SVGID_14_" points="254.4,240.7 322.9,280.3 254.8,319.8 186.2,280.3 			"/>
		</defs>
		<clipPath id="SVGID_15_">
			<use xlink:href="#SVGID_14_"  style="overflow:visible;"/>
		</clipPath>
		
			<linearGradient id="XMLID_14_" gradientUnits="userSpaceOnUse" x1="244.6649" y1="17119.0078" x2="264.4668" y2="17192.9102" gradientTransform="matrix(1 0 0 1 0 -16790)">
			<stop  offset="1.916698e-07" style="stop-color:#7F00FF;stop-opacity:0.4"/>
			<stop  offset="1" style="stop-color:#3D00FF;stop-opacity:0.6"/>
		</linearGradient>
		<polygon id="XMLID_101_" class="st12" points="254.4,326.4 322.9,365.9 254.8,405.5 186.2,365.9 		"/>
	</g>
	<g>
		<defs>
			<polygon id="SVGID_16_" points="254.4,240.7 322.9,280.3 254.8,319.8 186.2,280.3 			"/>
		</defs>
		<clipPath id="SVGID_17_">
			<use xlink:href="#SVGID_16_"  style="overflow:visible;"/>
		</clipPath>
		
			<linearGradient id="XMLID_15_" gradientUnits="userSpaceOnUse" x1="244.6524" y1="17131.2109" x2="264.4543" y2="17205.1133" gradientTransform="matrix(1 0 0 1 0 -16790)">
			<stop  offset="1.916698e-07" style="stop-color:#7F00FF;stop-opacity:0.4"/>
			<stop  offset="1" style="stop-color:#3D00FF;stop-opacity:0.6"/>
		</linearGradient>
		<polygon id="XMLID_100_" class="st13" points="254.4,338.6 322.9,378.1 254.8,417.7 186.2,378.2 		"/>
	</g>
</g>
<polyline id="XMLID_56_" class="st14" points="331.1,309.5 331.1,392 307.1,407.9 307.1,457.8 "/>
<linearGradient id="XMLID_16_" gradientUnits="userSpaceOnUse" x1="266.037" y1="17087.8008" x2="267.5721" y2="17087.8008" gradientTransform="matrix(1 0 0 1 0 -16790)">
	<stop  offset="2.945171e-07" style="stop-color:#3F00FC"/>
	<stop  offset="0.2077" style="stop-color:#3F02F7"/>
	<stop  offset="0.4672" style="stop-color:#3E09E7"/>
	<stop  offset="0.7531" style="stop-color:#3E14CE"/>
	<stop  offset="1" style="stop-color:#3D20B2"/>
</linearGradient>
<circle id="XMLID_304_" class="st15" cx="266.8" cy="297.8" r="0.8"/>
<linearGradient id="XMLID_17_" gradientUnits="userSpaceOnUse" x1="220.4831" y1="16984" x2="222.0182" y2="16984" gradientTransform="matrix(1 0 0 1 0 -16790)">
	<stop  offset="2.945171e-07" style="stop-color:#3F00FC"/>
	<stop  offset="0.2077" style="stop-color:#3F02F7"/>
	<stop  offset="0.4672" style="stop-color:#3E09E7"/>
	<stop  offset="0.7531" style="stop-color:#3E14CE"/>
	<stop  offset="1" style="stop-color:#3D20B2"/>
</linearGradient>
<circle id="XMLID_302_" class="st16" cx="221.3" cy="194" r="0.8"/>
<linearGradient id="XMLID_18_" gradientUnits="userSpaceOnUse" x1="314.3911" y1="16913.5" x2="317.9645" y2="16913.5" gradientTransform="matrix(1 0 0 1 0 -16790)">
	<stop  offset="2.945171e-07" style="stop-color:#3F00FC"/>
	<stop  offset="0.2077" style="stop-color:#3F02F7"/>
	<stop  offset="0.4672" style="stop-color:#3E09E7"/>
	<stop  offset="0.7531" style="stop-color:#3E14CE"/>
	<stop  offset="1" style="stop-color:#3D20B2"/>
</linearGradient>
<circle id="XMLID_37_" class="st17" cx="316.2" cy="123.5" r="1.8"/>
<linearGradient id="XMLID_19_" gradientUnits="userSpaceOnUse" x1="334.2146" y1="16833.5" x2="335.6652" y2="16833.5" gradientTransform="matrix(1 0 0 1 0 -16790)">
	<stop  offset="2.945171e-07" style="stop-color:#3F00FC"/>
	<stop  offset="0.2077" style="stop-color:#3F02F7"/>
	<stop  offset="0.4672" style="stop-color:#3E09E7"/>
	<stop  offset="0.7531" style="stop-color:#3E14CE"/>
	<stop  offset="1" style="stop-color:#3D20B2"/>
</linearGradient>
<circle id="XMLID_43_" class="st18" cx="334.9" cy="43.5" r="0.7"/>
<linearGradient id="XMLID_21_" gradientUnits="userSpaceOnUse" x1="205.4942" y1="16909" x2="209.0676" y2="16909" gradientTransform="matrix(1 0 0 1 0 -16790)">
	<stop  offset="2.945171e-07" style="stop-color:#3F00FC"/>
	<stop  offset="0.2077" style="stop-color:#3F02F7"/>
	<stop  offset="0.4672" style="stop-color:#3E09E7"/>
	<stop  offset="0.7531" style="stop-color:#3E14CE"/>
	<stop  offset="1" style="stop-color:#3D20B2"/>
</linearGradient>
<circle id="XMLID_143_" class="st19" cx="207.3" cy="119" r="1.8"/>
<linearGradient id="XMLID_22_" gradientUnits="userSpaceOnUse" x1="327.3285" y1="16992.9004" x2="328.7791" y2="16992.9004" gradientTransform="matrix(1 0 0 1 0 -16790)">
	<stop  offset="2.945171e-07" style="stop-color:#3F00FC"/>
	<stop  offset="0.2077" style="stop-color:#3F02F7"/>
	<stop  offset="0.4672" style="stop-color:#3E09E7"/>
	<stop  offset="0.7531" style="stop-color:#3E14CE"/>
	<stop  offset="1" style="stop-color:#3D20B2"/>
</linearGradient>
<circle id="XMLID_142_" class="st20" cx="328.1" cy="202.9" r="0.7"/>
<linearGradient id="XMLID_23_" gradientUnits="userSpaceOnUse" x1="253.6091" y1="16926.5996" x2="255.5427" y2="16926.5996" gradientTransform="matrix(1 0 0 1 0 -16790)">
	<stop  offset="2.945171e-07" style="stop-color:#3F00FC"/>
	<stop  offset="0.2077" style="stop-color:#3F02F7"/>
	<stop  offset="0.4672" style="stop-color:#3E09E7"/>
	<stop  offset="0.7531" style="stop-color:#3E14CE"/>
	<stop  offset="1" style="stop-color:#3D20B2"/>
</linearGradient>
<circle id="XMLID_140_" class="st21" cx="254.6" cy="136.6" r="1"/>
<linearGradient id="XMLID_24_" gradientUnits="userSpaceOnUse" x1="259.151" y1="17047.1992" x2="262.7244" y2="17047.1992" gradientTransform="matrix(1 0 0 1 0 -16790)">
	<stop  offset="2.945171e-07" style="stop-color:#3F00FC"/>
	<stop  offset="0.2077" style="stop-color:#3F02F7"/>
	<stop  offset="0.4672" style="stop-color:#3E09E7"/>
	<stop  offset="0.7531" style="stop-color:#3E14CE"/>
	<stop  offset="1" style="stop-color:#3D20B2"/>
</linearGradient>
<circle id="XMLID_73_" class="st22" cx="260.9" cy="257.2" r="1.8"/>
<linearGradient id="XMLID_25_" gradientUnits="userSpaceOnUse" x1="244.2558" y1="16967.8008" x2="245.7064" y2="16967.8008" gradientTransform="matrix(1 0 0 1 0 -16790)">
	<stop  offset="2.945171e-07" style="stop-color:#3F00FC"/>
	<stop  offset="0.2077" style="stop-color:#3F02F7"/>
	<stop  offset="0.4672" style="stop-color:#3E09E7"/>
	<stop  offset="0.7531" style="stop-color:#3E14CE"/>
	<stop  offset="1" style="stop-color:#3D20B2"/>
</linearGradient>
<circle id="XMLID_72_" class="st23" cx="245" cy="177.8" r="0.7"/>
<linearGradient id="XMLID_26_" gradientUnits="userSpaceOnUse" x1="236.2674" y1="17076.4004" x2="238.201" y2="17076.4004" gradientTransform="matrix(1 0 0 1 0 -16790)">
	<stop  offset="2.945171e-07" style="stop-color:#3F00FC"/>
	<stop  offset="0.2077" style="stop-color:#3F02F7"/>
	<stop  offset="0.4672" style="stop-color:#3E09E7"/>
	<stop  offset="0.7531" style="stop-color:#3E14CE"/>
	<stop  offset="1" style="stop-color:#3D20B2"/>
</linearGradient>
<circle id="XMLID_71_" class="st24" cx="237.2" cy="286.4" r="1"/>
<linearGradient id="XMLID_27_" gradientUnits="userSpaceOnUse" x1="284.8" y1="17024.9004" x2="286.7336" y2="17024.9004" gradientTransform="matrix(1 0 0 1 0 -16790)">
	<stop  offset="2.945171e-07" style="stop-color:#3F00FC"/>
	<stop  offset="0.2077" style="stop-color:#3F02F7"/>
	<stop  offset="0.4672" style="stop-color:#3E09E7"/>
	<stop  offset="0.7531" style="stop-color:#3E14CE"/>
	<stop  offset="1" style="stop-color:#3D20B2"/>
</linearGradient>
<circle id="XMLID_70_" class="st25" cx="285.8" cy="234.9" r="1"/>
<linearGradient id="XMLID_28_" gradientUnits="userSpaceOnUse" x1="219.464" y1="16815.9004" x2="223.0374" y2="16815.9004" gradientTransform="matrix(1 0 0 1 0 -16790)">
	<stop  offset="2.945171e-07" style="stop-color:#3F00FC"/>
	<stop  offset="0.2077" style="stop-color:#3F02F7"/>
	<stop  offset="0.4672" style="stop-color:#3E09E7"/>
	<stop  offset="0.7531" style="stop-color:#3E14CE"/>
	<stop  offset="1" style="stop-color:#3D20B2"/>
</linearGradient>
<circle id="XMLID_369_" class="st26" cx="221.3" cy="25.9" r="1.8"/>
<linearGradient id="XMLID_29_" gradientUnits="userSpaceOnUse" x1="257.3643" y1="16874.5" x2="260.9377" y2="16874.5" gradientTransform="matrix(1 0 0 1 0 -16790)">
	<stop  offset="2.945171e-07" style="stop-color:#3F00FC"/>
	<stop  offset="0.2077" style="stop-color:#3F02F7"/>
	<stop  offset="0.4672" style="stop-color:#3E09E7"/>
	<stop  offset="0.7531" style="stop-color:#3E14CE"/>
	<stop  offset="1" style="stop-color:#3D20B2"/>
</linearGradient>
<circle id="XMLID_359_" class="st27" cx="259.2" cy="84.5" r="1.8"/>
<linearGradient id="XMLID_30_" gradientUnits="userSpaceOnUse" x1="271.8279" y1="16855.0996" x2="273.7615" y2="16855.0996" gradientTransform="matrix(1 0 0 1 0 -16790)">
	<stop  offset="2.945171e-07" style="stop-color:#3F00FC"/>
	<stop  offset="0.2077" style="stop-color:#3F02F7"/>
	<stop  offset="0.4672" style="stop-color:#3E09E7"/>
	<stop  offset="0.7531" style="stop-color:#3E14CE"/>
	<stop  offset="1" style="stop-color:#3D20B2"/>
</linearGradient>
<circle id="XMLID_358_" class="st28" cx="272.8" cy="65.1" r="1"/>
<g>
	<path class="st0" d="M117.5,461.1c0,0-2.1,1,0.3,3.7c2.4,2.6,52.9,30.4,52.9,30.4s4.2,2.2,7.2,0l46-27c0,0,1.2-1.8-1.3-3
		l-52.8-30.6c0,0-2.7-2.1-6.2,0C160,436.7,117.5,461.1,117.5,461.1z"/>
	
		<linearGradient id="SVGID_18_" gradientUnits="userSpaceOnUse" x1="116.6496" y1="857.2222" x2="224.1879" y2="857.2222" gradientTransform="matrix(1 0 0 1 0 -406)">
		<stop  offset="0" style="stop-color:#4F3E90"/>
		<stop  offset="1" style="stop-color:#171A31"/>
	</linearGradient>
	<path class="st29" d="M117.5,447.4c0,0-2.1,1,0.3,3.7c2.4,2.6,52.9,30.4,52.9,30.4s4.2,2.2,7.2,0l46-27c0,0,1.2-1.8-1.3-3
		l-52.8-30.6c0,0-2.7-2.1-6.2,0C160,423,117.5,447.4,117.5,447.4z"/>
	
		<linearGradient id="SVGID_19_" gradientUnits="userSpaceOnUse" x1="116.6992" y1="874.6496" x2="224.416" y2="874.6496" gradientTransform="matrix(1 0 0 1 0 -406)">
		<stop  offset="0" style="stop-color:#463780"/>
		<stop  offset="0.1433" style="stop-color:#382E68"/>
		<stop  offset="0.3308" style="stop-color:#292550"/>
		<stop  offset="0.5289" style="stop-color:#1F1F3F"/>
		<stop  offset="0.7426" style="stop-color:#191B34"/>
		<stop  offset="1" style="stop-color:#171A31"/>
	</linearGradient>
	<path class="st30" d="M116.7,454.9v-6.3c0,0-0.1,1.7,1.9,2.9c1.9,1.3,14.7,8.8,14.7,8.8l19.1,10.8l18.2,10.1c0,0,4,2.2,7.3,0.3
		c3.2-1.9,46.2-27.1,46.2-27.1s0.4-0.5,0.3-1.5v6.8c0,0.6-0.3,1.1-0.8,1.4l-45.1,26.3c0,0-4.6,3.4-9.1-0.8l-51.8-30.3
		C117,456.2,116.7,455.6,116.7,454.9L116.7,454.9z"/>
	
		<linearGradient id="SVGID_20_" gradientUnits="userSpaceOnUse" x1="116.6496" y1="842.3222" x2="224.1879" y2="842.3222" gradientTransform="matrix(1 0 0 1 0 -406)">
		<stop  offset="0" style="stop-color:#4F3E90"/>
		<stop  offset="1" style="stop-color:#171A31"/>
	</linearGradient>
	<path class="st31" d="M117.5,432.5c0,0-2.1,1,0.3,3.7c2.4,2.6,52.9,30.4,52.9,30.4s4.2,2.2,7.2,0l46-27c0,0,1.2-1.8-1.3-3
		L169.8,406c0,0-2.7-2.1-6.2,0C160,408.1,117.5,432.5,117.5,432.5z"/>
	
		<linearGradient id="SVGID_21_" gradientUnits="userSpaceOnUse" x1="116.6992" y1="859.7496" x2="224.416" y2="859.7496" gradientTransform="matrix(1 0 0 1 0 -406)">
		<stop  offset="0" style="stop-color:#463780"/>
		<stop  offset="0.1433" style="stop-color:#382E68"/>
		<stop  offset="0.3308" style="stop-color:#292550"/>
		<stop  offset="0.5289" style="stop-color:#1F1F3F"/>
		<stop  offset="0.7426" style="stop-color:#191B34"/>
		<stop  offset="1" style="stop-color:#171A31"/>
	</linearGradient>
	<path class="st32" d="M116.7,440v-6.3c0,0-0.1,1.7,1.9,2.9c1.9,1.3,14.7,8.8,14.7,8.8l19.1,10.8l18.2,10.1c0,0,4,2.2,7.3,0.3
		c3.2-1.9,46.2-27.1,46.2-27.1s0.4-0.5,0.3-1.5v6.8c0,0.6-0.3,1.1-0.8,1.4l-45.1,26.3c0,0-4.6,3.4-9.1-0.8l-51.8-30.3
		C117,441.2,116.7,440.7,116.7,440L116.7,440z"/>
	
		<linearGradient id="SVGID_22_" gradientUnits="userSpaceOnUse" x1="116.6496" y1="827.3222" x2="224.1879" y2="827.3222" gradientTransform="matrix(1 0 0 1 0 -406)">
		<stop  offset="0" style="stop-color:#4F3E90"/>
		<stop  offset="1" style="stop-color:#171A31"/>
	</linearGradient>
	<path class="st33" d="M117.5,417.5c0,0-2.1,1,0.3,3.7c2.4,2.6,52.9,30.4,52.9,30.4s4.2,2.2,7.2,0l46-27c0,0,1.2-1.8-1.3-3
		L169.8,391c0,0-2.7-2.1-6.2,0C160,393.2,117.5,417.5,117.5,417.5z"/>
	
		<linearGradient id="SVGID_23_" gradientUnits="userSpaceOnUse" x1="116.6992" y1="844.8496" x2="224.416" y2="844.8496" gradientTransform="matrix(1 0 0 1 0 -406)">
		<stop  offset="0" style="stop-color:#463780"/>
		<stop  offset="0.1433" style="stop-color:#382E68"/>
		<stop  offset="0.3308" style="stop-color:#292550"/>
		<stop  offset="0.5289" style="stop-color:#1F1F3F"/>
		<stop  offset="0.7426" style="stop-color:#191B34"/>
		<stop  offset="1" style="stop-color:#171A31"/>
	</linearGradient>
	<path class="st34" d="M116.7,425.1v-6.3c0,0-0.1,1.7,1.9,2.9c1.9,1.3,14.7,8.8,14.7,8.8l19.1,10.8l18.2,10.1c0,0,4,2.2,7.3,0.3
		s46.2-27.1,46.2-27.1s0.4-0.5,0.3-1.5v6.8c0,0.6-0.3,1.1-0.8,1.4l-45.1,26.3c0,0-4.6,3.4-9.1-0.8l-51.8-30.3
		C117,426.3,116.7,425.7,116.7,425.1L116.7,425.1z"/>
	
		<linearGradient id="SVGID_24_" gradientUnits="userSpaceOnUse" x1="164.8763" y1="853.4328" x2="178.8083" y2="801.4384" gradientTransform="matrix(1 0 0 1 0 -406)">
		<stop  offset="0" style="stop-color:#4F3E90;stop-opacity:0.6"/>
		<stop  offset="1" style="stop-color:#171ABF;stop-opacity:0.4"/>
	</linearGradient>
	<path class="st35" d="M123.2,417.9c0,0-1.9,1,0.3,3.4s48.6,27.9,48.6,27.9s3.8,2,6.7,0l42.2-24.7c0,0,1.1-1.6-1.2-2.8l-48.5-28
		c0,0-2.5-1.9-5.7,0C162.3,395.5,123.2,417.9,123.2,417.9z"/>
	<g>
		
			<linearGradient id="SVGID_25_" gradientUnits="userSpaceOnUse" x1="116.6496" y1="812.4222" x2="224.1879" y2="812.4222" gradientTransform="matrix(1 0 0 1 0 -406)">
			<stop  offset="0" style="stop-color:#4F3E90"/>
			<stop  offset="1" style="stop-color:#171A31"/>
		</linearGradient>
		<path class="st36" d="M117.5,402.6c0,0-2.1,1,0.3,3.7c2.4,2.6,52.9,30.4,52.9,30.4s4.2,2.2,7.2,0l46-27c0,0,1.2-1.8-1.3-3
			l-52.8-30.6c0,0-2.7-2.1-6.2,0C160,378.3,117.5,402.6,117.5,402.6z"/>
		
			<linearGradient id="SVGID_26_" gradientUnits="userSpaceOnUse" x1="116.6992" y1="829.9496" x2="224.416" y2="829.9496" gradientTransform="matrix(1 0 0 1 0 -406)">
			<stop  offset="0" style="stop-color:#463780"/>
			<stop  offset="0.1433" style="stop-color:#382E68"/>
			<stop  offset="0.3308" style="stop-color:#292550"/>
			<stop  offset="0.5289" style="stop-color:#1F1F3F"/>
			<stop  offset="0.7426" style="stop-color:#191B34"/>
			<stop  offset="1" style="stop-color:#171A31"/>
		</linearGradient>
		<path class="st37" d="M116.7,410.2v-6.3c0,0-0.1,1.7,1.9,2.9c1.9,1.3,14.7,8.8,14.7,8.8l19.1,10.8l18.2,10.1c0,0,4,2.2,7.3,0.3
			c3.2-1.9,46.2-27.1,46.2-27.1s0.4-0.5,0.3-1.5v6.8c0,0.6-0.3,1.1-0.8,1.4l-45.1,26.3c0,0-4.6,3.4-9.1-0.8l-51.8-30.3
			C117,411.4,116.7,410.8,116.7,410.2L116.7,410.2z"/>
	</g>
	
		<linearGradient id="SVGID_27_" gradientUnits="userSpaceOnUse" x1="140.7" y1="816.8" x2="211.2" y2="816.8" gradientTransform="matrix(1 0 0 1 0 -406)">
		<stop  offset="0" style="stop-color:#463780"/>
		<stop  offset="0.1433" style="stop-color:#382E68"/>
		<stop  offset="0.3308" style="stop-color:#292550"/>
		<stop  offset="0.5289" style="stop-color:#1F1F3F"/>
		<stop  offset="0.7426" style="stop-color:#191B34"/>
		<stop  offset="1" style="stop-color:#171A31"/>
	</linearGradient>
	<polygon class="st38" points="140.7,402.8 176.9,424.6 211.2,406.3 207.8,406 172.2,397 	"/>
</g>
<g class="st39">
	<g>
		<line class="st40" x1="254.6" y1="0" x2="254.6" y2="297.1"/>
	</g>
</g>
<g>
	<g>
		<g class="st41">
			<g class="st41">
				<defs>
					<path id="SVGID_28_" class="st41" d="M174.3,388.6c-0.1,0-0.2,0-0.2,0c0.1-1.1,0.2-2.3,0.3-3.4c0.1,0,0.2,0,0.2,0
						c0.1,0,0.2,0,0.2,0c-0.1,1.1-0.2,2.3-0.3,3.4C174.5,388.6,174.4,388.6,174.3,388.6z"/>
				</defs>
				<clipPath id="SVGID_29_">
					<use xlink:href="#SVGID_28_"  style="overflow:visible;"/>
				</clipPath>
				<g class="st42">
					<path class="st43" d="M175.5,385.2l-0.3,3.4c-0.2,0-0.4,0-0.6,0c-0.1,0-0.2,0-0.2,0c-0.1,0-0.2,0-0.2,0c-0.8,0-1.6,0-2.4,0.1
						l0.3-3.4c0.8-0.1,1.6-0.1,2.4-0.1c0.1,0,0.2,0,0.2,0c0.1,0,0.2,0,0.2,0C175.1,385.2,175.3,385.2,175.5,385.2"/>
				</g>
			</g>
			<g class="st41">
				<defs>
					<path id="SVGID_30_" class="st41" d="M187.8,392.4c-3.8-2.5-8.6-3.7-13.2-3.8c0.1-1.1,0.2-2.3,0.3-3.4
						c4.7,0.1,9.4,1.4,13.2,3.8C188,390.2,187.9,391.3,187.8,392.4z"/>
				</defs>
				<clipPath id="SVGID_31_">
					<use xlink:href="#SVGID_30_"  style="overflow:visible;"/>
				</clipPath>
				<g class="st44">
					<path class="st45" d="M188.8,389.5l-0.3,3.4c-0.2-0.2-0.5-0.3-0.7-0.5c-1.7-1.1-3.5-1.9-5.4-2.5l0.3-3.4
						c1.9,0.6,3.7,1.5,5.4,2.5C188.3,389.2,188.6,389.3,188.8,389.5"/>
					<path class="st46" d="M182.7,386.5l-0.3,3.4c-1.2-0.4-2.5-0.7-3.8-0.9l0.3-3.4C180.2,385.8,181.4,386.1,182.7,386.5"/>
					<path class="st47" d="M178.9,385.6l-0.3,3.4c-1.1-0.2-2.3-0.3-3.4-0.4l0.3-3.4C176.6,385.3,177.8,385.4,178.9,385.6"/>
					<path class="st43" d="M175.5,385.2l-0.3,3.4c-0.2,0-0.4,0-0.6,0c-0.1,0-0.2,0-0.2,0c-0.1,0-0.2,0-0.2,0c-0.8,0-1.6,0-2.4,0.1
						l0.3-3.4c0.8-0.1,1.6-0.1,2.4-0.1c0.1,0,0.2,0,0.2,0c0.1,0,0.2,0,0.2,0C175.1,385.2,175.3,385.2,175.5,385.2"/>
				</g>
			</g>
			<g class="st41">
				<defs>
					<path id="SVGID_32_" class="st41" d="M188.5,392.9c-0.2-0.2-0.5-0.3-0.7-0.5c0.1-1.1,0.2-2.3,0.3-3.4c0.2,0.2,0.5,0.3,0.7,0.5
						C188.7,390.5,188.6,391.9,188.5,392.9z"/>
				</defs>
				<clipPath id="SVGID_33_">
					<use xlink:href="#SVGID_32_"  style="overflow:visible;"/>
				</clipPath>
				<g class="st48">
					<path class="st45" d="M188.8,389.5l-0.3,3.4c-0.2-0.2-0.5-0.3-0.7-0.5c-1.7-1.1-3.5-1.9-5.4-2.5l0.3-3.4
						c1.9,0.6,3.7,1.5,5.4,2.5C188.3,389.2,188.6,389.3,188.8,389.5"/>
				</g>
			</g>
			<g class="st41">
				<defs>
					<path id="SVGID_34_" class="st41" d="M174.1,388.6c-4.6,0-9,1.2-12.5,3.5c0.1-1.1,0.2-2.3,0.3-3.4c3.5-2.3,8-3.5,12.5-3.5
						C174.3,386.3,174.2,387.5,174.1,388.6z"/>
				</defs>
				<clipPath id="SVGID_35_">
					<use xlink:href="#SVGID_34_"  style="overflow:visible;"/>
				</clipPath>
				<g class="st49">
					<path class="st43" d="M175.5,385.2l-0.3,3.4c-0.2,0-0.4,0-0.6,0c-0.1,0-0.2,0-0.2,0c-0.1,0-0.2,0-0.2,0c-0.8,0-1.6,0-2.4,0.1
						l0.3-3.4c0.8-0.1,1.6-0.1,2.4-0.1c0.1,0,0.2,0,0.2,0c0.1,0,0.2,0,0.2,0C175.1,385.2,175.3,385.2,175.5,385.2"/>
					<path class="st50" d="M172,385.3l-0.3,3.4c-1.3,0.1-2.7,0.3-3.9,0.7l0.3-3.4C169.3,385.6,170.6,385.4,172,385.3"/>
					<path class="st51" d="M168.1,386l-0.3,3.4c-2.3,0.6-4.4,1.5-6.2,2.7c-0.2,0.1-0.3,0.2-0.5,0.3c-0.1,0.1-0.3,0.2-0.4,0.3
						c-1.5,1.1-2.7,2.4-3.5,3.8l0.3-3.4c0.8-1.4,2-2.7,3.5-3.8c0.1-0.1,0.3-0.2,0.4-0.3c0.2-0.1,0.3-0.2,0.5-0.3
						C163.7,387.5,165.8,386.6,168.1,386"/>
				</g>
			</g>
			<g class="st41">
				<defs>
					<path id="SVGID_36_" class="st41" d="M161.5,392.1c-0.2,0.1-0.3,0.2-0.5,0.3c0.1-1.1,0.2-2.3,0.3-3.4c0.2-0.1,0.3-0.2,0.5-0.3
						C161.7,389.8,161.6,391,161.5,392.1z"/>
				</defs>
				<clipPath id="SVGID_37_">
					<use xlink:href="#SVGID_36_"  style="overflow:visible;"/>
				</clipPath>
				<g class="st52">
					<path class="st51" d="M168.1,386l-0.3,3.4c-2.3,0.6-4.4,1.5-6.2,2.7c-0.2,0.1-0.3,0.2-0.5,0.3c-0.1,0.1-0.3,0.2-0.4,0.3
						c-1.5,1.1-2.7,2.4-3.5,3.8l0.3-3.4c0.8-1.4,2-2.7,3.5-3.8c0.1-0.1,0.3-0.2,0.4-0.3c0.2-0.1,0.3-0.2,0.5-0.3
						C163.7,387.5,165.8,386.6,168.1,386"/>
				</g>
			</g>
			<g class="st41">
				<defs>
					<path id="SVGID_38_" class="st41" d="M161,392.4c-0.1,0.1-0.3,0.2-0.4,0.3c0.1-1.1,0.2-2.3,0.3-3.4c0.1-0.1,0.3-0.2,0.4-0.3
						C161.2,390.2,161.1,391.3,161,392.4z"/>
				</defs>
				<clipPath id="SVGID_39_">
					<use xlink:href="#SVGID_38_"  style="overflow:visible;"/>
				</clipPath>
				<g class="st53">
					<path class="st51" d="M168.1,386l-0.3,3.4c-2.3,0.6-4.4,1.5-6.2,2.7c-0.2,0.1-0.3,0.2-0.5,0.3c-0.1,0.1-0.3,0.2-0.4,0.3
						c-1.5,1.1-2.7,2.4-3.5,3.8l0.3-3.4c0.8-1.4,2-2.7,3.5-3.8c0.1-0.1,0.3-0.2,0.4-0.3c0.2-0.1,0.3-0.2,0.5-0.3
						C163.7,387.5,165.8,386.6,168.1,386"/>
				</g>
			</g>
			<g class="st41">
				<defs>
					<path id="SVGID_40_" class="st41" d="M176.3,395.1l-0.3,3.4c-2-0.6-4-0.9-6.1-1l0.3-3.4C172.3,394.2,174.3,394.5,176.3,395.1z"
						/>
				</defs>
				<clipPath id="SVGID_41_">
					<use xlink:href="#SVGID_40_"  style="overflow:visible;"/>
				</clipPath>
				<g class="st54">
					<path class="st55" d="M176.3,395.1l-0.3,3.4c-0.9-0.3-1.9-0.5-2.8-0.6l0.3-3.4C174.5,394.6,175.4,394.8,176.3,395.1"/>
					<path class="st56" d="M173.5,394.5l-0.3,3.4c-1.1-0.2-2.2-0.3-3.3-0.3l0.3-3.4C171.3,394.2,172.4,394.3,173.5,394.5"/>
				</g>
			</g>
			<g class="st41">
				<defs>
					<path id="SVGID_42_" class="st41" d="M160.6,392.8c-2.6,2-4.2,4.5-4.8,7.2l0.3-3.4c0.6-2.6,2.2-5.1,4.8-7.2
						C160.8,390.5,160.7,391.6,160.6,392.8z"/>
				</defs>
				<clipPath id="SVGID_43_">
					<use xlink:href="#SVGID_42_"  style="overflow:visible;"/>
				</clipPath>
				<g class="st57">
					<path class="st51" d="M168.1,386l-0.3,3.4c-2.3,0.6-4.4,1.5-6.2,2.7c-0.2,0.1-0.3,0.2-0.5,0.3c-0.1,0.1-0.3,0.2-0.4,0.3
						c-1.5,1.1-2.7,2.4-3.5,3.8l0.3-3.4c0.8-1.4,2-2.7,3.5-3.8c0.1-0.1,0.3-0.2,0.4-0.3c0.2-0.1,0.3-0.2,0.5-0.3
						C163.7,387.5,165.8,386.6,168.1,386"/>
					<path class="st50" d="M157.4,393.2l-0.3,3.4c-0.5,0.9-0.9,1.8-1.2,2.8l0.3-3.4C156.5,395,156.9,394.1,157.4,393.2"/>
					<path class="st43" d="M156.2,395.9l-0.3,3.4c-0.1,0.2-0.1,0.4-0.1,0.6l0.3-3.4C156.1,396.3,156.2,396.1,156.2,395.9"/>
				</g>
			</g>
			<g class="st41">
				<defs>
					<path id="SVGID_44_" class="st41" d="M170.2,394.1l-0.3,3.4c-0.9-0.1-1.8-0.1-2.6-0.1c-4.7,0-8.5,1-11.5,2.5l0.3-3.4
						c3-1.5,6.8-2.5,11.5-2.5C168.4,394,169.3,394.1,170.2,394.1z"/>
				</defs>
				<clipPath id="SVGID_45_">
					<use xlink:href="#SVGID_44_"  style="overflow:visible;"/>
				</clipPath>
				<g class="st58">
					<path class="st56" d="M170.2,394.1l-0.3,3.4c-0.5,0-1.1-0.1-1.6-0.1l0.3-3.4C169.1,394.1,169.7,394.1,170.2,394.1"/>
					<path class="st59" d="M168.6,394l-0.3,3.4c-0.3,0-0.7,0-1,0c-1,0-2,0-3,0.1l0.3-3.4c1-0.1,1.9-0.1,3-0.1
						C167.9,394,168.3,394,168.6,394"/>
					<path class="st60" d="M164.6,394.1l-0.3,3.4c-1.5,0.1-2.8,0.4-4.1,0.7l0.3-3.4C161.8,394.5,163.2,394.3,164.6,394.1"/>
					<path class="st61" d="M160.6,394.8l-0.3,3.4c-1.7,0.4-3.1,1-4.5,1.7l0.3-3.4C157.4,395.8,158.9,395.3,160.6,394.8"/>
				</g>
			</g>
			<g class="st41">
				<defs>
					<path id="SVGID_46_" class="st41" d="M186.4,400.9l-0.3,3.4c-2-2.4-5.2-4.7-10.1-5.8l0.3-3.4
						C181.2,396.2,184.3,398.6,186.4,400.9z"/>
				</defs>
				<clipPath id="SVGID_47_">
					<use xlink:href="#SVGID_46_"  style="overflow:visible;"/>
				</clipPath>
				<g class="st62">
					<path class="st63" d="M186.4,400.9l-0.3,3.4c-1.7-2-4.3-4.1-8.2-5.3l0.3-3.4C182,396.9,184.6,398.9,186.4,400.9"/>
					<path class="st55" d="M178.2,395.6l-0.3,3.4c-0.6-0.2-1.2-0.4-1.9-0.5l0.3-3.4C177,395.3,177.6,395.4,178.2,395.6"/>
				</g>
			</g>
			<g class="st41">
				<defs>
					<path id="SVGID_48_" class="st41" d="M195,402.8l-0.3,3.4c0.1-1.5,0-2.8-0.2-3.7c-0.7-4.3-3.7-7.9-3.9-8.1l0.3-3.4
						c0.2,0.2,3.2,3.8,3.9,8.1C194.9,400,195.1,401.3,195,402.8z"/>
				</defs>
				<clipPath id="SVGID_49_">
					<use xlink:href="#SVGID_48_"  style="overflow:visible;"/>
				</clipPath>
				<g class="st64">
					<path class="st45" d="M195,402.8l-0.3,3.4c0.1-1.5,0-2.8-0.2-3.7c-0.7-4.3-3.7-7.9-3.9-8.1l0.3-3.4c0.2,0.2,3.2,3.8,3.9,8.1
						C194.9,400,195.1,401.3,195,402.8"/>
				</g>
			</g>
			<g class="st41">
				<defs>
					<path id="SVGID_50_" class="st41" d="M193.4,400.5l-0.3,3.4c-0.4,4.3-3.3,7.1-3.6,7.3l0.3-3.4
						C190.1,407.6,193,404.8,193.4,400.5z"/>
				</defs>
				<clipPath id="SVGID_51_">
					<use xlink:href="#SVGID_50_"  style="overflow:visible;"/>
				</clipPath>
				<g class="st65">
					<path class="st59" d="M193.4,400.5l-0.3,3.4c-0.1,0.7-0.2,1.3-0.3,1.9l0.3-3.4C193.3,401.8,193.4,401.2,193.4,400.5"/>
					<path class="st60" d="M193.1,402.4l-0.3,3.4c-0.3,1.1-0.8,2.1-1.3,2.9l0.3-3.4C192.3,404.5,192.8,403.5,193.1,402.4"/>
					<path class="st61" d="M191.8,405.3l-0.3,3.4c-0.9,1.5-1.8,2.3-2,2.5l0.3-3.4C190,407.7,190.9,406.8,191.8,405.3"/>
				</g>
			</g>
			<g>
				<path class="st66" d="M174.6,385.2c0.1,0,0.2,0,0.2,0c4.7,0.1,9.4,1.4,13.2,3.8c0.2,0.2,0.5,0.3,0.7,0.5
					c9.6,10.3,1.5,17.9,1,18.3c-0.4-2.4-1.5-4.7-3.5-6.9c-2-2.4-5.2-4.7-10.1-5.8c-2-0.6-4-0.9-6.1-1c-0.9-0.1-1.8-0.1-2.6-0.1
					c-4.7,0-8.5,1-11.5,2.5c0.6-2.6,2.2-5.1,4.8-7.2c0.1-0.1,0.3-0.2,0.4-0.3c0.2-0.1,0.3-0.2,0.5-0.3c3.5-2.3,8-3.5,12.5-3.5
					C174.5,385.2,174.5,385.2,174.6,385.2z"/>
			</g>
			<g class="st41">
				<defs>
					<path id="SVGID_52_" class="st41" d="M189.9,407.8l-0.3,3.4c-0.4-2.4-1.5-4.7-3.5-6.9l0.3-3.4
						C188.3,403,189.5,405.4,189.9,407.8z"/>
				</defs>
				<clipPath id="SVGID_53_">
					<use xlink:href="#SVGID_52_"  style="overflow:visible;"/>
				</clipPath>
				<g class="st67">
					<path class="st63" d="M189.9,407.8l-0.3,3.4c-0.4-2.4-1.5-4.7-3.5-6.9l0.3-3.4C188.3,403,189.5,405.4,189.9,407.8"/>
				</g>
			</g>
			<g class="st41">
				<defs>
					<path id="SVGID_54_" class="st41" d="M143.1,404.3l0.3-3.4c-0.2,1.7,0,3.4,0.4,5.1l-0.3,3.4C143,407.7,142.9,406,143.1,404.3z"
						/>
				</defs>
				<clipPath id="SVGID_55_">
					<use xlink:href="#SVGID_54_"  style="overflow:visible;"/>
				</clipPath>
				<g class="st68">
					<path class="st45" d="M143.8,405.9l-0.3,3.4c-0.4-1.7-0.6-3.4-0.4-5.1l0.3-3.4C143.2,402.5,143.4,404.2,143.8,405.9"/>
				</g>
			</g>
			<g class="st41">
				<defs>
					<path id="SVGID_56_" class="st41" d="M151.8,405.4c-0.9,1.5-1.5,3.1-1.6,4.8l0.3-3.4c0.2-1.7,0.7-3.3,1.6-4.8
						C152,403,152.1,404.4,151.8,405.4z"/>
				</defs>
				<clipPath id="SVGID_57_">
					<use xlink:href="#SVGID_56_"  style="overflow:visible;"/>
				</clipPath>
				<g class="st69">
					<path class="st51" d="M152.1,402l-0.3,3.4c0,0-0.1,0.1-0.1,0.1l0.3-3.4C152.1,402.1,152.1,402,152.1,402"/>
					<path class="st50" d="M152,402.1l-0.3,3.4c-0.5,0.9-0.9,1.8-1.2,2.8l0.3-3.4C151.1,403.9,151.5,403,152,402.1"/>
					<path class="st43" d="M150.8,404.9l-0.3,3.4c-0.2,0.6-0.3,1.2-0.3,1.9l0.3-3.4C150.6,406.1,150.7,405.5,150.8,404.9"/>
				</g>
			</g>
			<g class="st41">
				<defs>
					<path id="SVGID_58_" class="st41" d="M156.1,396.5l-0.3,3.4c-8.7,4.4-10.8,12.6-10.9,13l0.3-3.4
						C145.3,409.1,147.4,400.9,156.1,396.5z"/>
				</defs>
				<clipPath id="SVGID_59_">
					<use xlink:href="#SVGID_58_"  style="overflow:visible;"/>
				</clipPath>
				<g class="st70">
					<path class="st51" d="M156.1,396.5l-0.3,3.4c-4.4,2.2-7.1,5.4-8.7,8.1l0.3-3.4C149,401.9,151.7,398.7,156.1,396.5"/>
					<path class="st50" d="M147.3,404.6L147,408c-1.4,2.2-1.9,4.1-2.1,4.7l0.3-3.4C145.4,408.7,146,406.9,147.3,404.6"/>
					<path class="st43" d="M145.2,409.3l-0.3,3.4c0,0.1,0,0.2-0.1,0.2l0.3-3.4C145.2,409.5,145.2,409.4,145.2,409.3"/>
				</g>
			</g>
			<g class="st41">
				<defs>
					<path id="SVGID_60_" class="st41" d="M145.2,409.5l-0.3,3.4c-0.6-1.3-1.1-2.5-1.4-3.6l0.3-3.4
						C144.1,407.1,144.6,408.3,145.2,409.5z"/>
				</defs>
				<clipPath id="SVGID_61_">
					<use xlink:href="#SVGID_60_"  style="overflow:visible;"/>
				</clipPath>
				<g class="st71">
					<path class="st45" d="M145.2,409.5l-0.3,3.4c-0.6-1.3-1.1-2.5-1.4-3.6l0.3-3.4C144.1,407.1,144.6,408.3,145.2,409.5"/>
				</g>
			</g>
			<g>
				<path class="st72" d="M169.3,383.4c6.7,0.1,13.6,1.9,19.1,5.6c0.2,0.2,0.3,0.3,0.5,0.5c-0.2-0.2-0.5-0.3-0.7-0.5
					c-3.8-2.5-8.6-3.7-13.2-3.8c-0.1,0-0.2,0-0.2,0c-0.1,0-0.2,0-0.2,0c-4.6,0-9,1.2-12.5,3.5c-0.2,0.1-0.3,0.2-0.5,0.3
					c-0.1,0.1-0.3,0.2-0.4,0.3c-2.6,2-4.2,4.5-4.8,7.2c-8.7,4.4-10.8,12.6-10.9,13c-0.6-1.3-1.1-2.5-1.4-3.6c-1.3-4.9,0-10,3.8-14.2
					c2.4-2.5,5.3-4.1,6.9-5.1c1.3-0.6,2.6-1.1,4-1.6c1.8-0.5,4.1-1,6.6-1.4C166.4,383.5,167.8,383.4,169.3,383.4z"/>
			</g>
			<g class="st41">
				<defs>
					<path id="SVGID_62_" class="st41" d="M189.9,410.6l-0.3,3.4c-0.3,3-2,6-5,8.3l0.3-3.4C187.9,416.5,189.6,413.6,189.9,410.6z"/>
				</defs>
				<clipPath id="SVGID_63_">
					<use xlink:href="#SVGID_62_"  style="overflow:visible;"/>
				</clipPath>
				<g class="st73">
					<path class="st74" d="M189.9,410.6l-0.3,3.4c-0.1,0.6-0.2,1.1-0.3,1.7l0.3-3.4C189.7,411.7,189.8,411.1,189.9,410.6"/>
					<path class="st75" d="M189.6,412.3l-0.3,3.4c-0.3,1-0.7,1.9-1.2,2.8l0.3-3.4C188.9,414.2,189.3,413.2,189.6,412.3"/>
					<path class="st76" d="M188.4,415.1l-0.3,3.4c-0.8,1.4-2,2.7-3.5,3.8l0.3-3.4C186.4,417.7,187.5,416.4,188.4,415.1"/>
				</g>
			</g>
			<g class="st41">
				<defs>
					<path id="SVGID_64_" class="st41" d="M150.2,410.2l0.3-3.4c-0.1,0.6-0.1,1.1,0,1.7c0.3,3.7,2.4,7.4,6.5,10.3
						c0.1,0,0.1,0.1,0.2,0.1c0.1,0.1,0.2,0.2,0.4,0.2c3.9,2.5,8.7,3.9,13.4,3.9c0.1,0,0.2,0,0.2,0c0.2,0,0.5,0,0.7,0
						c4.3-0.1,8.5-1.2,11.9-3.4c0.1,0,0.1-0.1,0.2-0.1c0.3-0.2,0.6-0.4,0.9-0.7l-0.3,3.4c-0.3,0.2-0.6,0.5-0.9,0.7
						c-0.1,0-0.1,0.1-0.2,0.1c-3.3,2.2-7.6,3.3-11.9,3.4c-0.2,0-0.5,0-0.7,0c-0.1,0-0.2,0-0.2,0c-4.7-0.1-9.5-1.4-13.4-3.9
						c-0.1-0.1-0.2-0.2-0.4-0.2c-0.1,0-0.1-0.1-0.2-0.1c-4.1-2.8-6.2-6.6-6.5-10.3C150.1,411.3,150.1,410.7,150.2,410.2z"/>
				</defs>
				<clipPath id="SVGID_65_">
					<use xlink:href="#SVGID_64_"  style="overflow:visible;"/>
				</clipPath>
				<g class="st77">
					<path class="st76" d="M184.9,418.9l-0.3,3.4c-0.3,0.2-0.6,0.5-0.9,0.7c-0.1,0-0.1,0.1-0.2,0.1c-1.8,1.2-3.9,2-6,2.6l0.3-3.4
						c2.2-0.6,4.2-1.4,6-2.6c0.1,0,0.1-0.1,0.2-0.1C184.3,419.3,184.6,419.1,184.9,418.9"/>
					<path class="st75" d="M177.7,422.2l-0.3,3.4c-1.3,0.3-2.6,0.6-3.9,0.7l0.3-3.4C175.1,422.8,176.5,422.6,177.7,422.2"/>
					<path class="st74" d="M173.8,422.9l-0.3,3.4c-0.6,0.1-1.3,0.1-1.9,0.1c-0.2,0-0.5,0-0.7,0c-0.1,0-0.2,0-0.2,0
						c-0.2,0-0.4,0-0.6,0l0.3-3.4c0.2,0,0.4,0,0.6,0c0.1,0,0.2,0,0.2,0c0.2,0,0.5,0,0.7,0C172.5,423,173.2,423,173.8,422.9"/>
					<path class="st78" d="M170.3,423l-0.3,3.4c-1.1,0-2.3-0.2-3.4-0.4l0.3-3.4C168,422.8,169.2,423,170.3,423"/>
					<path class="st79" d="M166.9,422.7l-0.3,3.4c-1.3-0.2-2.5-0.5-3.8-0.9l0.3-3.4C164.4,422.1,165.6,422.4,166.9,422.7"/>
					<path class="st80" d="M163.1,421.7l-0.3,3.4c-2-0.6-3.9-1.5-5.6-2.7c-0.1-0.1-0.2-0.2-0.4-0.2c-0.1,0-0.1-0.1-0.2-0.1
						c-4.1-2.8-6.2-6.6-6.5-10.3c0-0.6,0-1.1,0-1.7l0.3-3.4c-0.1,0.6-0.1,1.1,0,1.7c0.3,3.7,2.4,7.4,6.5,10.3c0.1,0,0.1,0.1,0.2,0.1
						c0.1,0.1,0.2,0.2,0.4,0.2C159.2,420.2,161.1,421.1,163.1,421.7"/>
				</g>
			</g>
			<g class="st41">
				<defs>
					<path id="SVGID_66_" class="st41" d="M155,419l-0.3,3.4c-5.8-3.5-8.5-7.6-8.7-7.8l0.3-3.4C146.5,411.4,149.3,415.5,155,419z"/>
				</defs>
				<clipPath id="SVGID_67_">
					<use xlink:href="#SVGID_66_"  style="overflow:visible;"/>
				</clipPath>
				<g class="st81">
					<path class="st45" d="M155,419l-0.3,3.4c-5.8-3.5-8.5-7.6-8.7-7.8l0.3-3.4C146.5,411.4,149.3,415.5,155,419"/>
				</g>
			</g>
			<g class="st41">
				<defs>
					<path id="SVGID_68_" class="st41" d="M158.9,424.4c-1.4-0.5-2.9-1.2-4.2-1.9l0.3-3.4c1.3,0.7,2.7,1.4,4.2,1.9
						C159.1,422.1,159,423.3,158.9,424.4z"/>
				</defs>
				<clipPath id="SVGID_69_">
					<use xlink:href="#SVGID_68_"  style="overflow:visible;"/>
				</clipPath>
				<g class="st82">
					<path class="st45" d="M160.8,421.5l-0.3,3.4c-2-0.6-3.9-1.5-5.8-2.5l0.3-3.4C156.9,420.1,158.8,420.9,160.8,421.5"/>
				</g>
			</g>
			<g class="st41">
				<defs>
					<path id="SVGID_70_" class="st41" d="M181.4,425.4c-2.7,0.8-5.6,1.2-8.4,1.3c0.1-1.1,0.2-2.3,0.3-3.4c2.9-0.1,5.8-0.5,8.4-1.3
						c0.2-0.1,0.5-0.1,0.7-0.2c0.3-0.1,0.6-0.2,0.9-0.3c2.7-0.9,5.3-2.3,7.4-3.9c4.3-3.3,6.6-7.4,7-11.7l-0.3,3.4
						c-0.4,4.3-2.7,8.4-7,11.7c-2.2,1.7-4.7,3-7.4,3.9c-0.3,0.1-0.6,0.2-0.9,0.3C181.9,425.3,181.6,425.4,181.4,425.4z"/>
				</defs>
				<clipPath id="SVGID_71_">
					<use xlink:href="#SVGID_70_"  style="overflow:visible;"/>
				</clipPath>
				<g class="st83">
					<path class="st43" d="M197.8,405.9l-0.3,3.4c-0.1,0.9-0.2,1.7-0.5,2.6l0.3-3.4C197.5,407.6,197.7,406.7,197.8,405.9"/>
					<path class="st50" d="M197.3,408.5l-0.3,3.4c-0.4,1.3-0.9,2.6-1.7,3.8l0.3-3.4C196.4,411.1,196.9,409.8,197.3,408.5"/>
					<path class="st51" d="M195.6,412.3l-0.3,3.4c-1.2,1.9-2.8,3.7-4.8,5.3c-2.2,1.7-4.7,3-7.4,3.9c-0.3,0.1-0.6,0.2-0.9,0.3
						c-0.3,0.1-0.5,0.1-0.7,0.2c-0.3,0.1-0.5,0.1-0.8,0.2l0.3-3.4c0.3-0.1,0.5-0.1,0.8-0.2c0.2-0.1,0.5-0.1,0.7-0.2
						c0.3-0.1,0.6-0.2,0.9-0.3c2.7-0.9,5.3-2.3,7.4-3.9C192.9,416,194.5,414.2,195.6,412.3"/>
					<path class="st50" d="M180.9,422.2l-0.3,3.4c-1.8,0.5-3.6,0.8-5.4,0.9l0.3-3.4C177.4,423,179.2,422.7,180.9,422.2"/>
					<path class="st43" d="M175.5,423.1l-0.3,3.4c-1.2,0.1-2.4,0.2-3.6,0.2c-0.4,0-0.8,0-1.2,0l0.3-3.4c0.4,0,0.8,0,1.2,0
						C173.1,423.3,174.3,423.3,175.5,423.1"/>
				</g>
			</g>
			<g class="st41">
				<defs>
					<path id="SVGID_72_" class="st41" d="M172.9,426.7c-0.4,0-0.8,0-1.2,0c0.1-1.1,0.2-2.3,0.3-3.4c0.4,0,0.8,0,1.2,0
						C173.1,424.4,173,425.6,172.9,426.7z"/>
				</defs>
				<clipPath id="SVGID_73_">
					<use xlink:href="#SVGID_72_"  style="overflow:visible;"/>
				</clipPath>
				<g class="st84">
					<path class="st43" d="M175.5,423.1l-0.3,3.4c-1.2,0.1-2.4,0.2-3.6,0.2c-0.4,0-0.8,0-1.2,0l0.3-3.4c0.4,0,0.8,0,1.2,0
						C173.1,423.3,174.3,423.3,175.5,423.1"/>
				</g>
			</g>
			<g class="st41">
				<defs>
					<path id="SVGID_74_" class="st41" d="M158.9,424.4c0.1-1.1,0.2-2.3,0.3-3.4c2.4,0.9,4.9,1.5,7.4,1.9c-0.1,1.1-0.2,2.3-0.3,3.4
						C163.8,425.9,161.3,425.3,158.9,424.4z"/>
				</defs>
				<clipPath id="SVGID_75_">
					<use xlink:href="#SVGID_74_"  style="overflow:visible;"/>
				</clipPath>
				<g class="st85">
					<path class="st47" d="M170.7,423.3l-0.3,3.4c-1.6-0.1-3.2-0.2-4.7-0.5l0.3-3.4C167.6,423.1,169.2,423.2,170.7,423.3"/>
					<path class="st46" d="M166,422.8l-0.3,3.4c-1.8-0.3-3.5-0.7-5.2-1.3l0.3-3.4C162.5,422.1,164.2,422.5,166,422.8"/>
					<path class="st45" d="M160.8,421.5l-0.3,3.4c-2-0.6-3.9-1.5-5.8-2.5l0.3-3.4C156.9,420.1,158.8,420.9,160.8,421.5"/>
				</g>
			</g>
			<g class="st41">
				<defs>
					<path id="SVGID_76_" class="st41" d="M171.6,426.7c-0.4,0-0.8,0-1.1,0c0.1-1.1,0.2-2.3,0.3-3.4c0.4,0,0.8,0,1.1,0
						c0,0,0.1,0,0.1,0c-0.1,1.1-0.2,2.3-0.3,3.4C171.7,426.7,171.6,426.7,171.6,426.7z"/>
				</defs>
				<clipPath id="SVGID_77_">
					<use xlink:href="#SVGID_76_"  style="overflow:visible;"/>
				</clipPath>
				<g class="st86">
					<path class="st43" d="M175.5,423.1l-0.3,3.4c-1.2,0.1-2.4,0.2-3.6,0.2c-0.4,0-0.8,0-1.2,0l0.3-3.4c0.4,0,0.8,0,1.2,0
						C173.1,423.3,174.3,423.3,175.5,423.1"/>
				</g>
			</g>
			<g class="st41">
				<defs>
					<path id="SVGID_78_" class="st41" d="M170.4,426.7c0,0,0-0.1,0-0.1c0,0,0,0,0,0c0,0,0,0,0,0c0-0.1,0-0.1,0-0.2
						c0.1-0.5,0.1-1.1,0.2-1.6c0-0.3,0.1-0.7,0.1-1c0-0.1,0-0.3,0-0.4c0,0,0,0,0.1,0C170.6,424.4,170.5,425.6,170.4,426.7
						C170.4,426.7,170.4,426.7,170.4,426.7z"/>
				</defs>
				<clipPath id="SVGID_79_">
					<use xlink:href="#SVGID_78_"  style="overflow:visible;"/>
				</clipPath>
				<g class="st87">
					<path class="st43" d="M175.5,423.1l-0.3,3.4c-1.2,0.1-2.4,0.2-3.6,0.2c-0.4,0-0.8,0-1.2,0l0.3-3.4c0.4,0,0.8,0,1.2,0
						C173.1,423.3,174.3,423.3,175.5,423.1"/>
					<path class="st47" d="M170.7,423.3l-0.3,3.4c-1.6-0.1-3.2-0.2-4.7-0.5l0.3-3.4C167.6,423.1,169.2,423.2,170.7,423.3"/>
				</g>
			</g>
			<g class="st41">
				<defs>
					<path id="SVGID_80_" class="st41" d="M170.4,426.7c-1.4-0.1-2.7-0.2-4.1-0.4c0.1-1.1,0.2-2.3,0.3-3.4c1.3,0.2,2.7,0.3,4.1,0.4
						C170.6,424.4,170.5,425.5,170.4,426.7z"/>
				</defs>
				<clipPath id="SVGID_81_">
					<use xlink:href="#SVGID_80_"  style="overflow:visible;"/>
				</clipPath>
				<g class="st88">
					<path class="st47" d="M170.7,423.3l-0.3,3.4c-1.6-0.1-3.2-0.2-4.7-0.5l0.3-3.4C167.6,423.1,169.2,423.2,170.7,423.3"/>
				</g>
			</g>
			<g>
				<path class="st89" d="M155.5,398.3c0,0.1,0.1,1.1,0.5,2.6c0.3,1.6,1,3.1,2,4.6c0.3,0.4,0.6,0.9,1,1.3c0.9,1.1,2,2.1,3.3,3
					c0.5,0.3,0.9,0.6,1.4,0.9c3.2,2,7.4,3.5,12.4,3.5c2.1,0,4.4-0.2,6.8-0.9c0.1,0,0.2-0.1,0.3-0.1c0.4-0.1,0.8-0.2,1.1-0.3
					c0.2-0.1,0.4-0.1,0.6-0.2c2-0.7,3.7-1.4,5-2.2c-0.3,3-2,6-5,8.3c-0.3,0.2-0.6,0.5-0.9,0.7c-0.1,0-0.1,0.1-0.2,0.1
					c-3.3,2.2-7.6,3.3-11.9,3.4c-0.2,0-0.5,0-0.7,0c-0.1,0-0.2,0-0.2,0c-4.7-0.1-9.5-1.4-13.4-3.9c-0.1-0.1-0.2-0.2-0.4-0.2
					c-0.1,0-0.1-0.1-0.2-0.1c-4.1-2.8-6.2-6.6-6.5-10.3c-0.2-2.2,0.4-4.4,1.7-6.5C153.8,400.1,155.5,398.4,155.5,398.3z"/>
			</g>
			<g>
				<path class="st72" d="M190.9,391c0.7,0.3,5.1,4.8,6.7,11.1c1,5.6-1.3,11.3-6.8,15.5c-2.2,1.7-4.7,3-7.4,3.9
					c-0.3,0.1-0.6,0.2-0.9,0.3c-0.3,0.1-0.5,0.1-0.7,0.2c-3.1,0.9-6.4,1.3-9.8,1.3c-5.9,0-11.8-1.5-16.9-4.3
					c-5.8-3.5-8.5-7.6-8.7-7.8c0.1-0.1,1.4-2.7,3-5.7c0.4-0.8,1.6-2.2,2.7-3.5c-1.3,2-1.8,4.2-1.7,6.5c0.3,3.7,2.4,7.4,6.5,10.3
					c0.1,0,0.1,0.1,0.2,0.1c0.1,0.1,0.2,0.2,0.4,0.2c3.9,2.5,8.7,3.9,13.4,3.9c0.1,0,0.2,0,0.2,0c0.2,0,0.5,0,0.7,0
					c4.3-0.1,8.5-1.2,11.9-3.4c0.1,0,0.1-0.1,0.2-0.1c0.3-0.2,0.6-0.4,0.9-0.7c3-2.3,4.7-5.3,5-8.3c5.8-3.4,5.3-9,4.9-11.5
					C194.1,394.7,191.1,391.2,190.9,391z"/>
			</g>
		</g>
	</g>
</g>
</svg>
