<?xml version="1.0" encoding="utf-8"?>
<!-- Generator: Adobe Illustrator 24.2.0, SVG Export Plug-In . SVG Version: 6.00 Build 0)  -->
<svg version="1.1" id="Capa_1" xmlns="http://www.w3.org/2000/svg" xmlns:xlink="http://www.w3.org/1999/xlink" x="0px" y="0px"
	 viewBox="0 0 512 512" style="enable-background:new 0 0 512 512;" xml:space="preserve">
<style type="text/css">
	.st0{fill:none;stroke:url(#SVGID_1_);stroke-width:3;stroke-linecap:round;stroke-linejoin:round;stroke-miterlimit:10;}
	.st1{opacity:0.2;fill:#1E1A21;enable-background:new    ;}
	.st2{fill:url(#SVGID_2_);}
	.st3{fill:url(#SVGID_3_);}
	.st4{fill:url(#SVGID_4_);}
	.st5{opacity:0.2;fill:#2E3191;enable-background:new    ;}
	.st6{fill:url(#SVGID_5_);}
	.st7{fill:url(#SVGID_6_);}
	.st8{fill:url(#SVGID_7_);}
	.st9{fill:#031653;}
	.st10{fill:url(#SVGID_8_);}
	.st11{fill:url(#SVGID_9_);}
	.st12{fill:url(#SVGID_10_);}
	.st13{fill:url(#SVGID_11_);}
	.st14{fill:url(#SVGID_12_);}
	.st15{fill:url(#SVGID_13_);}
	.st16{opacity:0.25;fill:url(#SVGID_14_);enable-background:new    ;}
	.st17{fill:url(#SVGID_15_);}
	.st18{fill:url(#SVGID_16_);}
	.st19{opacity:0.6;fill:url(#SVGID_17_);enable-background:new    ;}
	.st20{enable-background:new    ;}
	.st21{clip-path:url(#SVGID_19_);enable-background:new    ;}
	.st22{fill:#107F6D;}
	.st23{fill:#118471;}
	.st24{fill:#118975;}
	.st25{fill:#128E79;}
	.st26{clip-path:url(#SVGID_21_);enable-background:new    ;}
	.st27{clip-path:url(#SVGID_23_);enable-background:new    ;}
	.st28{fill:#13927D;}
	.st29{fill:#139782;}
	.st30{clip-path:url(#SVGID_25_);enable-background:new    ;}
	.st31{fill:#81528A;}
	.st32{fill:#85558F;}
	.st33{clip-path:url(#SVGID_27_);enable-background:new    ;}
	.st34{clip-path:url(#SVGID_29_);enable-background:new    ;}
	.st35{fill:#8A5894;}
	.st36{fill:#8F5B99;}
	.st37{fill:#945E9E;}
	.st38{clip-path:url(#SVGID_31_);enable-background:new    ;}
	.st39{fill:#7C4F85;}
	.st40{clip-path:url(#SVGID_33_);enable-background:new    ;}
	.st41{clip-path:url(#SVGID_35_);enable-background:new    ;}
	.st42{fill:#DC8CEB;}
	.st43{clip-path:url(#SVGID_37_);enable-background:new    ;}
	.st44{clip-path:url(#SVGID_39_);enable-background:new    ;}
	.st45{clip-path:url(#SVGID_41_);enable-background:new    ;}
	.st46{clip-path:url(#SVGID_43_);enable-background:new    ;}
	.st47{fill:#1DE1C1;}
	.st48{clip-path:url(#SVGID_45_);enable-background:new    ;}
	.st49{clip-path:url(#SVGID_47_);enable-background:new    ;}
	.st50{fill:#006D65;}
	.st51{fill:#007168;}
	.st52{fill:#00756C;}
	.st53{clip-path:url(#SVGID_49_);enable-background:new    ;}
	.st54{fill:#00AEA1;}
	.st55{clip-path:url(#SVGID_51_);enable-background:new    ;}
</style>
<linearGradient id="SVGID_1_" gradientUnits="userSpaceOnUse" x1="191.8" y1="56.7" x2="191.8" y2="56.7" gradientTransform="matrix(1 0 0 -1 0 514)">
	<stop  offset="2.945171e-07" style="stop-color:#3F00FC"/>
	<stop  offset="0.2077" style="stop-color:#3F02F7"/>
	<stop  offset="0.4672" style="stop-color:#3E09E7"/>
	<stop  offset="0.7531" style="stop-color:#3E14CE"/>
	<stop  offset="1" style="stop-color:#3D20B2"/>
</linearGradient>
<path class="st0" d="M191.8,457.3"/>
<g>
	<path class="st1" d="M349.4,312.1l57.2,2.5c0,0,8.9-1.3,14-7.1c5-5.8-1.2-21.6-12-25.4c-10.9-3.7-88.3-7.7-88.3-7.7L349.4,312.1z"
		/>
	<g>
		
			<linearGradient id="SVGID_2_" gradientUnits="userSpaceOnUse" x1="-552.7601" y1="181.5422" x2="-552.1371" y2="182.2634" gradientTransform="matrix(123.428 0 0 179.065 68515.3125 -32334.3086)">
			<stop  offset="0" style="stop-color:#463780"/>
			<stop  offset="0.1433" style="stop-color:#382E68"/>
			<stop  offset="0.3308" style="stop-color:#292550"/>
			<stop  offset="0.5289" style="stop-color:#1F1F3F"/>
			<stop  offset="0.7426" style="stop-color:#191B34"/>
			<stop  offset="1" style="stop-color:#171A31"/>
		</linearGradient>
		<path class="st2" d="M361.5,212.1l-67.8-38c-1.9-1-3.6-1-4.7-0.3l-16.6,9.7l3.2,2.7l11.7,8.4v58.6c0,3.9,2.9,8.8,6.5,10.9l56,31.4
			l-1.3,14.1l1,2.7l16.8-9.7l0,0c1.2-0.6,1.9-2.1,1.9-4v-75.4C368,219,365.1,214.1,361.5,212.1z"/>
		
			<linearGradient id="SVGID_3_" gradientUnits="userSpaceOnUse" x1="-552.2266" y1="181.6824" x2="-551.5107" y2="182.4466" gradientTransform="matrix(107.17 0 0 168.6487 59457.0391 -30458.6699)">
			<stop  offset="0" style="stop-color:#268ECD"/>
			<stop  offset="0.3644" style="stop-color:#0974F9"/>
			<stop  offset="0.5403" style="stop-color:#1195F7"/>
			<stop  offset="0.6698" style="stop-color:#076CF9"/>
			<stop  offset="1" style="stop-color:#325FAC"/>
		</linearGradient>
		<path class="st3" d="M272.7,260.6c0,3.9,2.9,8.8,6.5,10.9l67.7,41.1c2.2,0.5,6.6-2.7,6.6-6.7v-74.2c0-4.6-3.5-10-7-11.9
			l-66.9-37.2c-3.9-2.1-9.1,1-9.1,5.1L272.7,260.6z"/>
		
			<linearGradient id="SVGID_4_" gradientUnits="userSpaceOnUse" x1="-551.4971" y1="182.5051" x2="-551.9935" y2="181.6807" gradientTransform="matrix(104.176 0 0 167.1217 57789.3828 -30183.9219)">
			<stop  offset="0" style="stop-color:#4F3E90"/>
			<stop  offset="1" style="stop-color:#171A31"/>
		</linearGradient>
		<path class="st4" d="M270.4,262.9c0,3.9,2.9,8.8,6.5,10.9l67.8,38c3.6,2,6.5,0.3,6.5-3.6v-75.4c0-3.9-2.9-8.8-6.5-10.9l-67.8-38
			c-3.6-2-6.5-0.3-6.5,3.6L270.4,262.9L270.4,262.9z"/>
		<path class="st5" d="M303,189.1l8.6-5l-7.9-4.4l-1.7,5.9L303,189.1z M346.9,213.7l8.6-4.9l-7.9-4.5l-1.7,5.9L346.9,213.7z"/>
		
			<linearGradient id="SVGID_5_" gradientUnits="userSpaceOnUse" x1="-550.0165" y1="184.3151" x2="-549.2424" y2="184.3151" gradientTransform="matrix(71.661 0 0 94.1923 39707.8359 -17182.9121)">
			<stop  offset="0" style="stop-color:#D5E8F1"/>
			<stop  offset="1" style="stop-color:#94BCFF"/>
		</linearGradient>
		<path class="st6" d="M348.6,190.4c0-17.7-10.9-37.7-24.8-45.5c-7.1-4-14.3-4.3-20.2-1.1c-6.7,3.7-10.5,11.7-10.5,22V187h0.1
			c0.1,0.8,0.6,1.6,1.7,2.2c2.2,1.3,6,1.3,8.2,0c1.2-0.7,1.8-1.7,1.7-2.7v-20.7c0-6,1.7-10.6,4.7-12.3c2.7-1.5,6.1-0.2,8.5,1.1
			c10.3,5.8,19,22.1,19,35.8v21.1c0.1,0.8,0.6,1.6,1.7,2.2c2.2,1.3,6,1.3,8.2,0c1.1-0.6,1.7-1.4,1.7-2.2L348.6,190.4
			C348.7,190.4,348.6,190.4,348.6,190.4z"/>
		<path class="st5" d="M328.6,148.2c10.2,11.3,17.2,27.9,17.2,43.1v22.9c0.4-0.2,0.8-0.3,1.2-0.5c1.1-0.6,1.7-1.4,1.7-2.2v-21.2
			C348.6,174.8,340.1,157.4,328.6,148.2L328.6,148.2z M306.7,152.9c-3.6,2-5.6,7.5-5.6,14.8v22.2c0.7-0.2,1.5-0.4,2.1-0.7
			c1.2-0.7,1.8-1.7,1.7-2.7v-20.7c0-6,1.7-10.6,4.7-12.3c2-1.1,4.4-0.7,6.5,0.2C313.2,152.3,309.6,151.2,306.7,152.9L306.7,152.9z"
			/>
		
			<linearGradient id="SVGID_6_" gradientUnits="userSpaceOnUse" x1="-529.164" y1="191.2054" x2="-528.3877" y2="191.8525" gradientTransform="matrix(17.861 0 0 35.9945 9754.6045 -6647.5542)">
			<stop  offset="5.148000e-02" style="stop-color:#BEB3ED"/>
			<stop  offset="0.1809" style="stop-color:#E4E0FF"/>
			<stop  offset="0.3754" style="stop-color:#DED5F9"/>
			<stop  offset="0.4362" style="stop-color:#DED5F9"/>
			<stop  offset="0.4851" style="stop-color:#A89AE4"/>
			<stop  offset="0.7084" style="stop-color:#957EDC"/>
			<stop  offset="1" style="stop-color:#6E70C5"/>
		</linearGradient>
		<path class="st7" d="M310.3,234c-3.8-2.2-6.9-0.4-6.9,3.9c0,3,1.5,6.4,3.6,8.8v9.3c0,1.6,1.3,3.6,3,4.5s3,0.4,3-1.2v-9
			c2.5,0.2,4.2-1.5,4.2-4.7C317.2,241.3,314.1,236.1,310.3,234z"/>
		
			<linearGradient id="SVGID_7_" gradientUnits="userSpaceOnUse" x1="-529.164" y1="191.2054" x2="-528.3877" y2="191.8525" gradientTransform="matrix(17.861 0 0 35.9945 9754.6045 -6647.5542)">
			<stop  offset="0" style="stop-color:#4F3E90"/>
			<stop  offset="1" style="stop-color:#171A31"/>
		</linearGradient>
		<path class="st8" d="M310.3,234c-3.8-2.2-6.9-0.4-6.9,3.9c0,3,1.5,6.4,3.6,8.8v9.3c0,1.6,1.3,3.6,3,4.5s3,0.4,3-1.2v-9
			c2.5,0.2,4.2-1.5,4.2-4.7C317.2,241.3,314.1,236.1,310.3,234z"/>
		<path class="st9" d="M313,250.3v9.1l-0.5-0.2c-1.7-0.9-3-3-3-4.5v-9.3c-2.2-2.5-3.6-5.9-3.6-8.8c0-1.4,0.3-2.6,1-3.4
			c1-0.1,2.2,0.2,3.5,0.9c3.8,2.2,6.9,7.3,6.9,11.6c0,1.4-0.3,2.6-1,3.4h-0.8L313,250.3L313,250.3z"/>
	</g>
	<g>
		<path class="st1" d="M91.2,304.6c0,0-3.9,1.9,0.6,6.9c4.5,4.9,99.3,57.1,99.3,57.1s7.8,4.1,13.6,0L291,318c0,0,2.2-3.3-2.4-5.6
			L189.5,255c0,0-5-3.9-11.7,0S91.2,304.6,91.2,304.6z"/>
		
			<linearGradient id="SVGID_8_" gradientUnits="userSpaceOnUse" x1="89.6316" y1="227.8556" x2="291.5258" y2="227.8556" gradientTransform="matrix(1 0 0 -1 0 514)">
			<stop  offset="0" style="stop-color:#4F3E90"/>
			<stop  offset="1" style="stop-color:#171A31"/>
		</linearGradient>
		<path class="st10" d="M91.2,278.9c0,0-3.9,1.9,0.6,6.9c4.5,4.9,99.3,57.1,99.3,57.1s7.8,4.1,13.6,0l86.3-50.6c0,0,2.2-3.3-2.4-5.6
			l-99.2-57.4c0,0-5-3.9-11.7,0C171.1,233.2,91.2,278.9,91.2,278.9z"/>
		
			<linearGradient id="SVGID_9_" gradientUnits="userSpaceOnUse" x1="89.6997" y1="194.9264" x2="291.8673" y2="194.9264" gradientTransform="matrix(1 0 0 -1 0 514)">
			<stop  offset="0" style="stop-color:#463780"/>
			<stop  offset="0.1433" style="stop-color:#382E68"/>
			<stop  offset="0.3308" style="stop-color:#292550"/>
			<stop  offset="0.5289" style="stop-color:#1F1F3F"/>
			<stop  offset="0.7426" style="stop-color:#191B34"/>
			<stop  offset="1" style="stop-color:#171A31"/>
		</linearGradient>
		<path class="st11" d="M89.7,293.1v-11.8c0,0-0.1,3.2,3.5,5.5c3.6,2.4,27.6,16.6,27.6,16.6l35.9,20.3l34.1,18.9
			c0,0,7.6,4.2,13.7,0.6c6.1-3.6,86.8-50.8,86.8-50.8s0.8-1,0.5-2.8v12.7c0,1.1-0.6,2.1-1.5,2.7l-84.6,49.4c0,0-8.6,6.4-17-1.5
			L91.5,296C90.3,295.4,89.7,294.3,89.7,293.1L89.7,293.1z"/>
		
			<linearGradient id="SVGID_10_" gradientUnits="userSpaceOnUse" x1="89.6316" y1="255.8556" x2="291.5258" y2="255.8556" gradientTransform="matrix(1 0 0 -1 0 514)">
			<stop  offset="0" style="stop-color:#4F3E90"/>
			<stop  offset="1" style="stop-color:#171A31"/>
		</linearGradient>
		<path class="st12" d="M91.2,250.9c0,0-3.9,1.9,0.6,6.9c4.5,4.9,99.3,57.1,99.3,57.1s7.8,4.1,13.6,0l86.3-50.6c0,0,2.2-3.3-2.4-5.6
			l-99.2-57.4c0,0-5-3.9-11.7,0C171.1,205.2,91.2,250.9,91.2,250.9z"/>
		
			<linearGradient id="SVGID_11_" gradientUnits="userSpaceOnUse" x1="89.6997" y1="222.9264" x2="291.8673" y2="222.9264" gradientTransform="matrix(1 0 0 -1 0 514)">
			<stop  offset="0" style="stop-color:#463780"/>
			<stop  offset="0.1433" style="stop-color:#382E68"/>
			<stop  offset="0.3308" style="stop-color:#292550"/>
			<stop  offset="0.5289" style="stop-color:#1F1F3F"/>
			<stop  offset="0.7426" style="stop-color:#191B34"/>
			<stop  offset="1" style="stop-color:#171A31"/>
		</linearGradient>
		<path class="st13" d="M89.7,265.1v-11.8c0,0-0.1,3.2,3.5,5.5c3.6,2.4,27.6,16.6,27.6,16.6l35.9,20.3l34.1,18.9
			c0,0,7.6,4.2,13.7,0.6c6.1-3.6,86.8-50.8,86.8-50.8s0.8-1,0.5-2.8v12.7c0,1.1-0.6,2.1-1.5,2.7l-84.6,49.4c0,0-8.6,6.4-17-1.5
			L91.5,268C90.3,267.4,89.7,266.3,89.7,265.1L89.7,265.1z"/>
		
			<linearGradient id="SVGID_12_" gradientUnits="userSpaceOnUse" x1="89.6316" y1="283.8556" x2="291.5258" y2="283.8556" gradientTransform="matrix(1 0 0 -1 0 514)">
			<stop  offset="0" style="stop-color:#4F3E90"/>
			<stop  offset="1" style="stop-color:#171A31"/>
		</linearGradient>
		<path class="st14" d="M91.2,222.9c0,0-3.9,1.9,0.6,6.9c4.5,4.9,99.3,57.1,99.3,57.1s7.8,4.1,13.6,0l86.3-50.6c0,0,2.2-3.3-2.4-5.6
			l-99.2-57.4c0,0-5-3.9-11.7,0C171.1,177.2,91.2,222.9,91.2,222.9z"/>
		
			<linearGradient id="SVGID_13_" gradientUnits="userSpaceOnUse" x1="89.6997" y1="250.9264" x2="291.8673" y2="250.9264" gradientTransform="matrix(1 0 0 -1 0 514)">
			<stop  offset="0" style="stop-color:#463780"/>
			<stop  offset="0.1433" style="stop-color:#382E68"/>
			<stop  offset="0.3308" style="stop-color:#292550"/>
			<stop  offset="0.5289" style="stop-color:#1F1F3F"/>
			<stop  offset="0.7426" style="stop-color:#191B34"/>
			<stop  offset="1" style="stop-color:#171A31"/>
		</linearGradient>
		<path class="st15" d="M89.7,237.1v-11.8c0,0-0.1,3.2,3.5,5.5c3.6,2.4,27.6,16.6,27.6,16.6l35.9,20.3l34.1,18.9
			c0,0,7.6,4.2,13.7,0.6c6.1-3.6,86.8-50.8,86.8-50.8s0.8-1,0.5-2.8v12.7c0,1.1-0.6,2.1-1.5,2.7l-84.6,49.4c0,0-8.6,6.4-17-1.5
			L91.5,240C90.3,239.4,89.7,238.3,89.7,237.1L89.7,237.1z"/>
		
			<linearGradient id="SVGID_14_" gradientUnits="userSpaceOnUse" x1="180.1236" y1="235.1035" x2="206.2902" y2="332.7586" gradientTransform="matrix(1 0 0 -1 0 514)">
			<stop  offset="0" style="stop-color:#4F3E90;stop-opacity:0.6"/>
			<stop  offset="1" style="stop-color:#171ABF;stop-opacity:0.4"/>
		</linearGradient>
		<path class="st16" d="M101.9,223.5c0,0-3.6,1.8,0.6,6.3s91.2,52.4,91.2,52.4s7.1,3.8,12.5,0l79.3-46.4c0,0,2-3-2.2-5.2L192.2,178
			c0,0-4.6-3.6-10.7,0C175.3,181.6,101.9,223.5,101.9,223.5z"/>
		<g>
			
				<linearGradient id="SVGID_15_" gradientUnits="userSpaceOnUse" x1="89.6316" y1="311.8556" x2="291.5258" y2="311.8556" gradientTransform="matrix(1 0 0 -1 0 514)">
				<stop  offset="0" style="stop-color:#4F3E90"/>
				<stop  offset="1" style="stop-color:#171A31"/>
			</linearGradient>
			<path class="st17" d="M91.2,194.9c0,0-3.9,1.9,0.6,6.9c4.5,4.9,99.3,57.1,99.3,57.1s7.8,4.1,13.6,0l86.3-50.6
				c0,0,2.2-3.3-2.4-5.6l-99.2-57.4c0,0-5-3.9-11.7,0C171.1,149.2,91.2,194.9,91.2,194.9z"/>
			
				<linearGradient id="SVGID_16_" gradientUnits="userSpaceOnUse" x1="89.6997" y1="278.9264" x2="291.8673" y2="278.9264" gradientTransform="matrix(1 0 0 -1 0 514)">
				<stop  offset="0" style="stop-color:#463780"/>
				<stop  offset="0.1433" style="stop-color:#382E68"/>
				<stop  offset="0.3308" style="stop-color:#292550"/>
				<stop  offset="0.5289" style="stop-color:#1F1F3F"/>
				<stop  offset="0.7426" style="stop-color:#191B34"/>
				<stop  offset="1" style="stop-color:#171A31"/>
			</linearGradient>
			<path class="st18" d="M89.7,209.1v-11.8c0,0-0.1,3.2,3.5,5.5c3.6,2.4,27.6,16.6,27.6,16.6l35.9,20.3l34.1,18.9
				c0,0,7.6,4.2,13.7,0.6c6.1-3.6,86.8-50.8,86.8-50.8s0.8-1,0.5-2.8v12.7c0,1.1-0.6,2.1-1.5,2.7l-84.6,49.4c0,0-8.6,6.4-17-1.5
				L91.5,212C90.3,211.4,89.7,210.3,89.7,209.1L89.7,209.1z"/>
		</g>
		
			<linearGradient id="SVGID_17_" gradientUnits="userSpaceOnUse" x1="134.8" y1="303.7" x2="267.1" y2="303.7" gradientTransform="matrix(1 0 0 -1 0 514)">
			<stop  offset="0" style="stop-color:#463780"/>
			<stop  offset="0.1433" style="stop-color:#382E68"/>
			<stop  offset="0.3308" style="stop-color:#292550"/>
			<stop  offset="0.5289" style="stop-color:#1F1F3F"/>
			<stop  offset="0.7426" style="stop-color:#191B34"/>
			<stop  offset="1" style="stop-color:#171A31"/>
		</linearGradient>
		<polygon class="st19" points="134.8,195.2 202.7,236.2 267.1,201.8 260.7,201.2 194,184.4 		"/>
	</g>
</g>
<g>
	<g>
		<g class="st20">
			<g class="st20">
				<defs>
					<path id="SVGID_18_" class="st20" d="M198.3,167.8c0.1-1.1,0.2-2.3,0.3-3.4c8.4,0.1,16.9,2.3,23.9,6.6
						c-0.1,1.1-0.2,2.3-0.3,3.4C215.2,170.1,206.7,167.9,198.3,167.8z"/>
				</defs>
				<clipPath id="SVGID_19_">
					<use xlink:href="#SVGID_18_"  style="overflow:visible;"/>
				</clipPath>
				<g class="st21">
					<path class="st22" d="M224.6,172.3l-0.3,3.4c-0.1-0.1-0.2-0.2-0.4-0.3c-0.3-0.2-0.6-0.4-0.9-0.6c-0.1,0-0.1-0.1-0.2-0.1
						c-0.2-0.1-0.3-0.2-0.5-0.3c-2.9-1.8-6-3.2-9.3-4.3l0.3-3.4c3.3,1.1,6.4,2.5,9.3,4.3c0.2,0.1,0.3,0.2,0.5,0.3
						c0.1,0,0.1,0.1,0.2,0.1c0.3,0.2,0.6,0.4,0.9,0.6C224.3,172.2,224.4,172.2,224.6,172.3"/>
					<path class="st23" d="M213.2,166.8l-0.3,3.4c-2.3-0.7-4.6-1.3-6.9-1.7l0.3-3.4C208.6,165.5,211,166,213.2,166.8"/>
					<path class="st24" d="M206.3,165.1l-0.3,3.4c-2.1-0.3-4.2-0.6-6.3-0.6l0.3-3.4C202.1,164.5,204.2,164.7,206.3,165.1"/>
					<path class="st25" d="M200,164.4l-0.3,3.4c-0.4,0-0.9,0-1.3,0c-1.7,0-3.4,0.1-5,0.2l0.3-3.4c1.6-0.1,3.3-0.2,5-0.2
						C199.1,164.4,199.5,164.4,200,164.4"/>
				</g>
			</g>
			<g class="st20">
				<defs>
					<path id="SVGID_20_" class="st20" d="M222.7,174.7c-0.2-0.1-0.3-0.2-0.5-0.3c0.1-1.1,0.2-2.3,0.3-3.4c0.2,0.1,0.3,0.2,0.5,0.3
						c0.1,0,0.1,0.1,0.2,0.1c0.2,0.1,0.5,0.3,0.7,0.5c0.1,0.1,0.2,0.1,0.2,0.2c0.1,0.1,0.2,0.2,0.4,0.3l-0.3,3.4
						c-0.1-0.1-0.2-0.2-0.4-0.3c-0.3-0.2-0.6-0.4-0.9-0.6C222.9,174.8,222.8,174.8,222.7,174.7z"/>
				</defs>
				<clipPath id="SVGID_21_">
					<use xlink:href="#SVGID_20_"  style="overflow:visible;"/>
				</clipPath>
				<g class="st26">
					<path class="st22" d="M224.6,172.3l-0.3,3.4c-0.1-0.1-0.2-0.2-0.4-0.3c-0.3-0.2-0.6-0.4-0.9-0.6c-0.1,0-0.1-0.1-0.2-0.1
						c-0.2-0.1-0.3-0.2-0.5-0.3c-2.9-1.8-6-3.2-9.3-4.3l0.3-3.4c3.3,1.1,6.4,2.5,9.3,4.3c0.2,0.1,0.3,0.2,0.5,0.3
						c0.1,0,0.1,0.1,0.2,0.1c0.3,0.2,0.6,0.4,0.9,0.6C224.3,172.2,224.4,172.2,224.6,172.3"/>
				</g>
			</g>
			<g class="st20">
				<defs>
					<path id="SVGID_22_" class="st20" d="M198.3,167.8c-9.7,0-18.8,2.5-25.5,7.7c0.1-1.1,0.2-2.3,0.3-3.4
						c6.7-5.1,15.8-7.7,25.5-7.7C198.5,165.5,198.4,166.7,198.3,167.8C198.3,167.8,198.3,167.8,198.3,167.8z"/>
				</defs>
				<clipPath id="SVGID_23_">
					<use xlink:href="#SVGID_22_"  style="overflow:visible;"/>
				</clipPath>
				<g class="st27">
					<path class="st25" d="M200,164.4l-0.3,3.4c-0.4,0-0.9,0-1.3,0c-1.7,0-3.4,0.1-5,0.2l0.3-3.4c1.6-0.1,3.3-0.2,5-0.2
						C199.1,164.4,199.5,164.4,200,164.4"/>
					<path class="st28" d="M193.6,164.6l-0.3,3.4c-2.5,0.2-5,0.7-7.4,1.3l0.3-3.4C188.6,165.3,191.1,164.8,193.6,164.6"/>
					<path class="st29" d="M186.2,165.9l-0.3,3.4c-4.9,1.3-9.4,3.3-13.1,6.2c-2.8,2.1-4.9,4.5-6.4,7l0.3-3.4c1.5-2.5,3.7-4.9,6.4-7
						C176.9,169.2,181.3,167.1,186.2,165.9"/>
				</g>
			</g>
			<g class="st20">
				<defs>
					<path id="SVGID_24_" class="st20" d="M201.5,182.6l-0.3,3.4c-3.7-1-7.5-1.6-11.2-1.8l0.3-3.4C194,181,197.8,181.6,201.5,182.6z
						"/>
				</defs>
				<clipPath id="SVGID_25_">
					<use xlink:href="#SVGID_24_"  style="overflow:visible;"/>
				</clipPath>
				<g class="st30">
					<path class="st31" d="M201.5,182.6l-0.3,3.4c-1.7-0.5-3.4-0.9-5.2-1.1l0.3-3.4C198.1,181.8,199.8,182.2,201.5,182.6"/>
					<path class="st32" d="M196.3,181.5l-0.3,3.4c-2-0.3-4-0.5-6.1-0.6l0.3-3.4C192.3,180.9,194.3,181.2,196.3,181.5"/>
				</g>
			</g>
			<g class="st20">
				<defs>
					<path id="SVGID_26_" class="st20" d="M172.8,175.5c-4.9,3.7-7.8,8.3-8.9,13.2l0.3-3.4c1.1-4.8,4-9.4,8.9-13.2
						C173,173.2,172.9,174.3,172.8,175.5z"/>
				</defs>
				<clipPath id="SVGID_27_">
					<use xlink:href="#SVGID_26_"  style="overflow:visible;"/>
				</clipPath>
				<g class="st33">
					<path class="st29" d="M186.2,165.9l-0.3,3.4c-4.9,1.3-9.4,3.3-13.1,6.2c-2.8,2.1-4.9,4.5-6.4,7l0.3-3.4c1.5-2.5,3.7-4.9,6.4-7
						C176.9,169.2,181.3,167.1,186.2,165.9"/>
					<path class="st28" d="M166.7,179.1l-0.3,3.4c-1,1.7-1.7,3.4-2.2,5.2l0.3-3.4C165,182.5,165.7,180.7,166.7,179.1"/>
					<path class="st25" d="M164.5,184.2l-0.3,3.4c-0.1,0.3-0.2,0.7-0.2,1l0.3-3.4C164.3,184.9,164.4,184.6,164.5,184.2"/>
				</g>
			</g>
			<g class="st20">
				<defs>
					<path id="SVGID_28_" class="st20" d="M190.3,180.9l-0.3,3.4c-1.6-0.1-3.2-0.2-4.8-0.2c-8.7-0.1-15.7,1.8-21.3,4.6l0.3-3.4
						c5.5-2.8,12.5-4.6,21.3-4.6C187,180.7,188.6,180.7,190.3,180.9z"/>
				</defs>
				<clipPath id="SVGID_29_">
					<use xlink:href="#SVGID_28_"  style="overflow:visible;"/>
				</clipPath>
				<g class="st34">
					<path class="st32" d="M190.3,180.9l-0.3,3.4c-1-0.1-1.9-0.1-2.9-0.2l0.3-3.4C188.3,180.7,189.3,180.8,190.3,180.9"/>
					<path class="st35" d="M187.4,180.7l-0.3,3.4c-0.6,0-1.3,0-1.9,0c-1.9,0-3.8,0.1-5.5,0.2l0.3-3.4c1.8-0.2,3.6-0.2,5.5-0.2
						C186.1,180.6,186.8,180.7,187.4,180.7"/>
					<path class="st36" d="M180,180.9l-0.3,3.4c-2.7,0.2-5.2,0.7-7.5,1.3l0.3-3.4C174.8,181.5,177.3,181.1,180,180.9"/>
					<path class="st37" d="M172.5,182.1l-0.3,3.4c-3.1,0.8-5.8,1.8-8.3,3.1l0.3-3.4C166.7,184,169.4,182.9,172.5,182.1"/>
				</g>
			</g>
			<g class="st20">
				<defs>
					<path id="SVGID_30_" class="st20" d="M220,193.4l-0.3,3.4c-3.7-4.4-9.5-8.7-18.5-10.8l0.3-3.4C210.5,184.7,216.3,189,220,193.4
						z"/>
				</defs>
				<clipPath id="SVGID_31_">
					<use xlink:href="#SVGID_30_"  style="overflow:visible;"/>
				</clipPath>
				<g class="st38">
					<path class="st39" d="M220,193.4l-0.3,3.4c-3.2-3.8-8-7.5-15-9.8l0.3-3.4C212,185.9,216.8,189.6,220,193.4"/>
					<path class="st31" d="M205,183.6l-0.3,3.4c-1.1-0.4-2.3-0.7-3.5-1l0.3-3.4C202.7,182.9,203.9,183.2,205,183.6"/>
				</g>
			</g>
			<g class="st20">
				<defs>
					<path id="SVGID_32_" class="st20" d="M235.9,196.8l-0.3,3.4c0.2-2.7,0-5.1-0.3-6.8c-1.3-8-6.8-14.6-7.1-14.9l0.3-3.4
						c0.3,0.3,5.8,6.9,7.1,14.9C235.8,191.6,236.1,194.1,235.9,196.8z"/>
				</defs>
				<clipPath id="SVGID_33_">
					<use xlink:href="#SVGID_32_"  style="overflow:visible;"/>
				</clipPath>
				<g class="st40">
					<path class="st22" d="M235.9,196.8l-0.3,3.4c0.2-2.7,0-5.1-0.3-6.8c-1.3-8-6.8-14.6-7.1-14.9l0.3-3.4c0.3,0.3,5.8,6.9,7.1,14.9
						C235.8,191.6,236.1,194.1,235.9,196.8"/>
				</g>
			</g>
			<g class="st20">
				<defs>
					<path id="SVGID_34_" class="st20" d="M233.1,192.5l-0.3,3.4c-0.7,8-6.2,13-6.6,13.5l0.3-3.4
						C226.9,205.6,232.3,200.5,233.1,192.5z"/>
				</defs>
				<clipPath id="SVGID_35_">
					<use xlink:href="#SVGID_34_"  style="overflow:visible;"/>
				</clipPath>
				<g class="st41">
					<path class="st35" d="M233.1,192.5l-0.3,3.4c-0.1,1.2-0.3,2.4-0.6,3.5l0.3-3.4C232.7,194.9,233,193.8,233.1,192.5"/>
					<path class="st36" d="M232.4,196l-0.3,3.4c-0.6,2.1-1.5,3.9-2.4,5.4l0.3-3.4C231,200,231.8,198.1,232.4,196"/>
					<path class="st37" d="M230.1,201.5l-0.3,3.4c-1.6,2.7-3.4,4.3-3.6,4.6l0.3-3.4C226.7,205.8,228.4,204.2,230.1,201.5"/>
				</g>
			</g>
			<g>
				<path class="st42" d="M198.4,164.4c0.1,0,0.1,0,0.2,0c8.4,0.1,16.9,2.3,23.9,6.6c0.2,0.1,0.3,0.2,0.5,0.3c0.1,0,0.1,0.1,0.2,0.1
					c0.3,0.2,0.6,0.4,0.9,0.6c0.1,0.1,0.2,0.2,0.4,0.3c17.7,18.9,2.7,32.9,1.9,33.7c-0.7-4.4-2.8-8.7-6.4-12.6
					c-3.7-4.4-9.5-8.7-18.5-10.8c-3.7-1-7.5-1.6-11.2-1.8c-1.6-0.1-3.2-0.2-4.8-0.2c-8.7-0.1-15.7,1.8-21.3,4.6
					c1.1-4.8,4-9.4,8.9-13.2c6.7-5.1,15.8-7.7,25.1-7.7C198.3,164.4,198.3,164.4,198.4,164.4z"/>
			</g>
			<g class="st20">
				<defs>
					<path id="SVGID_36_" class="st20" d="M226.4,206l-0.3,3.4c-0.7-4.4-2.8-8.7-6.4-12.6l0.3-3.4
						C223.6,197.3,225.8,201.6,226.4,206z"/>
				</defs>
				<clipPath id="SVGID_37_">
					<use xlink:href="#SVGID_36_"  style="overflow:visible;"/>
				</clipPath>
				<g class="st43">
					<path class="st39" d="M226.4,206l-0.3,3.4c-0.7-4.4-2.8-8.7-6.4-12.6l0.3-3.4C223.6,197.3,225.8,201.6,226.4,206"/>
				</g>
			</g>
			<g class="st20">
				<defs>
					<path id="SVGID_38_" class="st20" d="M140.5,196.6l0.3-3.4c-0.3,3.1,0,6.3,0.8,9.4l-0.3,3.4
						C140.5,202.9,140.2,199.8,140.5,196.6z"/>
				</defs>
				<clipPath id="SVGID_39_">
					<use xlink:href="#SVGID_38_"  style="overflow:visible;"/>
				</clipPath>
				<g class="st44">
					<path class="st22" d="M141.6,202.6l-0.3,3.4c-0.8-3.1-1.1-6.3-0.8-9.4l0.3-3.4C140.5,196.3,140.8,199.5,141.6,202.6"/>
				</g>
			</g>
			<g class="st20">
				<defs>
					<path id="SVGID_40_" class="st20" d="M156.6,198.7c-1.7,2.8-2.7,5.8-3,8.8l0.3-3.4c0.3-3,1.3-6,3-8.8
						C156.9,196.3,157,197.7,156.6,198.7z"/>
				</defs>
				<clipPath id="SVGID_41_">
					<use xlink:href="#SVGID_40_"  style="overflow:visible;"/>
				</clipPath>
				<g class="st45">
					<path class="st29" d="M156.9,195.3l-0.3,3.4c-0.1,0.1-0.1,0.2-0.1,0.2l0.3-3.4C156.8,195.5,156.9,195.4,156.9,195.3"/>
					<path class="st28" d="M156.8,195.5l-0.3,3.4c-1,1.7-1.7,3.4-2.2,5.1l0.3-3.4C155.1,198.9,155.8,197.2,156.8,195.5"/>
					<path class="st25" d="M154.6,200.7l-0.3,3.4c-0.3,1.1-0.5,2.3-0.6,3.4l0.3-3.4C154,203,154.3,201.8,154.6,200.7"/>
				</g>
			</g>
			<g class="st20">
				<defs>
					<path id="SVGID_42_" class="st20" d="M164.2,185.2l-0.3,3.4c-16,8.1-19.9,23.2-20.1,24l0.3-3.4
						C144.4,208.4,148.2,193.3,164.2,185.2z"/>
				</defs>
				<clipPath id="SVGID_43_">
					<use xlink:href="#SVGID_42_"  style="overflow:visible;"/>
				</clipPath>
				<g class="st46">
					<path class="st29" d="M164.2,185.2l-0.3,3.4c-8.1,4.1-13.1,10-16.1,14.9l0.3-3.4C151.1,195.2,156.1,189.3,164.2,185.2"/>
					<path class="st28" d="M148.1,200.2l-0.3,3.4c-2.5,4.1-3.6,7.6-3.9,8.7l0.3-3.4C144.6,207.8,145.7,204.3,148.1,200.2"/>
					<path class="st25" d="M144.3,208.9l-0.3,3.4c-0.1,0.2-0.1,0.3-0.1,0.4l0.3-3.4C144.2,209.2,144.2,209.1,144.3,208.9"/>
				</g>
			</g>
			<g>
				<path class="st47" d="M188.5,161.1c12.4,0.1,25,3.5,35.2,10.3c0.3,0.3,0.6,0.6,0.9,0.9c-0.1-0.1-0.2-0.2-0.4-0.3
					c-0.3-0.2-0.6-0.4-0.9-0.6c-0.1,0-0.1-0.1-0.2-0.1c-0.2-0.1-0.3-0.2-0.5-0.3c-7-4.3-15.5-6.5-23.9-6.6c-9.7,0-18.8,2.5-25.5,7.7
					c-4.9,3.7-7.8,8.3-8.9,13.2c-16,8.1-19.9,23.2-20.1,24c-1.1-2.3-2-4.5-2.6-6.6c-2.3-9.1-0.1-18.5,7-26.3
					c4.5-4.5,9.7-7.5,12.8-9.4c2.3-1.1,4.8-2.1,7.3-2.9c3.4-1,7.6-1.9,12.2-2.5C183.3,161.2,185.9,161.1,188.5,161.1z"/>
			</g>
			<g class="st20">
				<defs>
					<path id="SVGID_44_" class="st20" d="M144.2,209.2l-0.3,3.4c-1.1-2.3-2-4.5-2.6-6.6l0.3-3.4C142.2,204.7,143,206.9,144.2,209.2
						z"/>
				</defs>
				<clipPath id="SVGID_45_">
					<use xlink:href="#SVGID_44_"  style="overflow:visible;"/>
				</clipPath>
				<g class="st48">
					<path class="st22" d="M144.2,209.2l-0.3,3.4c-1.1-2.3-2-4.5-2.6-6.6l0.3-3.4C142.2,204.7,143,206.9,144.2,209.2"/>
				</g>
			</g>
			<g class="st20">
				<defs>
					<path id="SVGID_46_" class="st20" d="M226.6,211.2l-0.3,3.4c-0.6,5.6-3.7,11-9.3,15.3l0.3-3.4
						C222.9,222.2,225.9,216.8,226.6,211.2z"/>
				</defs>
				<clipPath id="SVGID_47_">
					<use xlink:href="#SVGID_46_"  style="overflow:visible;"/>
				</clipPath>
				<g class="st49">
					<path class="st50" d="M226.6,211.2l-0.3,3.4c-0.1,1-0.3,2.1-0.6,3.1l0.3-3.4C226.2,213.2,226.4,212.2,226.6,211.2"/>
					<path class="st51" d="M226,214.2l-0.3,3.4c-0.5,1.8-1.2,3.5-2.2,5.1l0.3-3.4C224.7,217.7,225.5,216,226,214.2"/>
					<path class="st52" d="M223.7,219.4l-0.3,3.4c-1.5,2.6-3.7,4.9-6.4,7.1l0.3-3.4C220.1,224.3,222.2,221.9,223.7,219.4"/>
				</g>
			</g>
			<g class="st20">
				<defs>
					<path id="SVGID_48_" class="st20" d="M162.3,226.8l-0.3,3.4c-10.6-6.5-15.7-14.1-16-14.5l0.3-3.4
						C146.6,212.7,151.7,220.2,162.3,226.8z"/>
				</defs>
				<clipPath id="SVGID_49_">
					<use xlink:href="#SVGID_48_"  style="overflow:visible;"/>
				</clipPath>
				<g class="st53">
					<path class="st22" d="M162.3,226.8l-0.3,3.4c-10.6-6.5-15.7-14.1-16-14.5l0.3-3.4C146.6,212.7,151.7,220.2,162.3,226.8"/>
				</g>
			</g>
			<g>
				<path class="st54" d="M163.2,188.5c0,0.1,0.2,2,0.9,4.8c0.6,2.9,1.8,5.8,3.7,8.5c0.5,0.8,1.1,1.6,1.8,2.4c1.7,2,3.7,3.8,6.2,5.5
					c0.8,0.6,1.7,1.1,2.6,1.6c6,3.7,13.7,6.5,22.8,6.5c3.9,0,8.1-0.4,12.5-1.6c0.2-0.1,0.4-0.1,0.6-0.1c0.7-0.2,1.4-0.4,2-0.6
					c0.4-0.1,0.8-0.2,1.1-0.4c3.7-1.2,6.7-2.6,9.2-4.1c-0.6,5.6-3.7,11-9.3,15.3c-6.7,5.1-15.6,7.7-24.8,7.7c-0.1,0-0.3,0-0.4,0
					c-0.1,0-0.3,0-0.4,0c-8.1-0.1-16.3-2.2-23.2-6.3c-0.9-0.5-1.7-1.1-2.5-1.6c-7.5-5.3-11.5-12.1-12-18.9c-0.3-4.1,0.7-8.2,3-11.9
					C160,191.8,163.1,188.6,163.2,188.5z"/>
			</g>
			<g class="st20">
				<defs>
					<path id="SVGID_50_" class="st20" d="M241.1,202.5l-0.3,3.4c-0.7,7.9-5,15.5-12.8,21.6c-4,3.1-8.7,5.5-13.7,7.2
						c-0.6,0.2-1.1,0.4-1.7,0.6c-0.5,0.1-0.9,0.3-1.4,0.4c-5.7,1.6-11.9,2.4-18,2.4c-10.8-0.1-21.7-2.7-31.1-7.8l0.3-3.4
						c9.3,5.1,20.3,7.7,31.1,7.8c6.2,0,12.3-0.7,18-2.4c0.5-0.1,0.9-0.3,1.4-0.4c0.6-0.2,1.2-0.4,1.7-0.6c5-1.7,9.7-4.1,13.7-7.2
						C236.1,218,240.3,210.4,241.1,202.5z"/>
				</defs>
				<clipPath id="SVGID_51_">
					<use xlink:href="#SVGID_50_"  style="overflow:visible;"/>
				</clipPath>
				<g class="st55">
					<path class="st25" d="M241.1,202.5l-0.3,3.4c-0.1,1.6-0.4,3.2-0.9,4.7l0.3-3.4C240.6,205.7,240.9,204.1,241.1,202.5"/>
					<path class="st28" d="M240.2,207.2l-0.3,3.4c-0.7,2.4-1.7,4.8-3.1,7.1l0.3-3.4C238.5,212,239.5,209.7,240.2,207.2"/>
					<path class="st29" d="M237.1,214.3l-0.3,3.4c-2.1,3.5-5.1,6.8-8.9,9.7c-4,3.1-8.7,5.5-13.7,7.2c-0.6,0.2-1.1,0.4-1.7,0.6
						c-0.5,0.1-0.9,0.3-1.4,0.4c-0.5,0.1-0.9,0.3-1.4,0.4l0.3-3.4c0.5-0.1,0.9-0.2,1.4-0.4c0.5-0.1,0.9-0.3,1.4-0.4
						c0.6-0.2,1.2-0.4,1.7-0.6c5-1.7,9.7-4.1,13.7-7.2C232,221.1,235,217.8,237.1,214.3"/>
					<path class="st28" d="M210,232.6l-0.3,3.4c-3.2,0.8-6.6,1.4-10,1.7l0.3-3.4C203.5,234,206.8,233.4,210,232.6"/>
					<path class="st25" d="M200.1,234.3l-0.3,3.4c-2.2,0.2-4.5,0.3-6.7,0.3c-0.7,0-1.4,0-2.1,0l0.3-3.4c0.7,0,1.4,0,2.1,0
						C195.6,234.6,197.9,234.5,200.1,234.3"/>
					<path class="st24" d="M191.2,234.5l-0.3,3.4c-2.9-0.1-5.8-0.4-8.7-0.9l0.3-3.4C185.4,234.1,188.3,234.4,191.2,234.5"/>
					<path class="st23" d="M182.5,233.7l-0.3,3.4c-3.3-0.5-6.5-1.3-9.6-2.3l0.3-3.4C176,232.3,179.3,233.1,182.5,233.7"/>
					<path class="st22" d="M172.9,231.3l-0.3,3.4c-3.7-1.2-7.3-2.7-10.6-4.6l0.3-3.4C165.7,228.6,169.2,230.1,172.9,231.3"/>
				</g>
			</g>
			<g>
				<path class="st47" d="M228.4,175c1.2,0.6,9.4,8.9,12.4,20.4c1.8,10.3-2.3,20.8-12.5,28.6c-4,3.1-8.7,5.5-13.7,7.2
					c-0.6,0.2-1.1,0.4-1.7,0.6c-0.5,0.1-0.9,0.3-1.4,0.4c-5.7,1.6-11.9,2.4-18,2.4c-10.8-0.1-21.7-2.7-31.1-7.8
					c-10.6-6.5-15.7-14.1-16-14.5c0.1-0.2,2.5-4.9,5.6-10.5c0.8-1.5,2.9-4,5-6.5c-2.3,3.7-3.3,7.8-3,11.9c0.5,6.8,4.5,13.7,12,18.9
					c0.8,0.6,1.6,1.1,2.5,1.6c6.9,4.1,15.1,6.2,23.2,6.3c0.1,0,0.3,0,0.4,0c0.1,0,0.3,0,0.4,0c9.2,0,18.2-2.6,24.8-7.7
					c5.6-4.3,8.6-9.7,9.3-15.3c10.6-6.3,9.8-16.5,9-21.2C234.2,182,228.7,175.4,228.4,175z"/>
			</g>
		</g>
	</g>
</g>
</svg>
