<?xml version="1.0" encoding="utf-8"?>
<!-- Generator: Adobe Illustrator 24.2.0, SVG Export Plug-In . SVG Version: 6.00 Build 0)  -->
<svg version="1.1" id="Capa_1" xmlns="http://www.w3.org/2000/svg" xmlns:xlink="http://www.w3.org/1999/xlink" x="0px" y="0px"
	 viewBox="0 0 512 512" style="enable-background:new 0 0 512 512;" xml:space="preserve">
<style type="text/css">
	.st0{opacity:0.17;}
	.st1{enable-background:new    ;}
	.st2{clip-path:url(#SVGID_2_);}
	.st3{fill:#1D1B30;}
	.st4{fill:url(#SVGID_3_);}
	.st5{fill:url(#XMLID_4_);}
	.st6{fill:url(#XMLID_8_);}
	.st7{clip-path:url(#SVGID_5_);}
	.st8{fill:url(#SVGID_6_);}
	.st9{fill:url(#XMLID_9_);}
	.st10{fill:url(#XMLID_10_);}
	.st11{clip-path:url(#SVGID_8_);}
	.st12{fill:url(#SVGID_9_);}
	.st13{fill:url(#XMLID_11_);}
	.st14{fill:url(#XMLID_15_);}
	.st15{fill:url(#SVGID_10_);}
	.st16{fill:url(#SVGID_11_);}
	.st17{fill:url(#SVGID_12_);}
	.st18{fill:url(#SVGID_13_);}
	.st19{fill:url(#SVGID_14_);}
	.st20{fill:url(#SVGID_15_);}
	.st21{fill:url(#SVGID_16_);}
	.st22{fill:url(#SVGID_17_);}
	.st23{fill:url(#SVGID_18_);}
	.st24{fill:url(#SVGID_19_);}
	.st25{fill:url(#SVGID_20_);}
	.st26{fill:url(#SVGID_21_);}
</style>
<g id="XMLID_26_" class="st0">
	<g>
		<g class="st1">
			<g>
				<defs>
					<polygon id="SVGID_1_" points="13.4,210.6 140.3,136.8 268.1,210.6 141.2,284.3 					"/>
				</defs>
				<clipPath id="SVGID_2_">
					<use xlink:href="#SVGID_1_"  style="overflow:visible;"/>
				</clipPath>
				<g class="st2">
					<g>
						<g>
							<g>
								<path class="st3" d="M204.2,173.7c-35.3-20.4-92.3-20.4-127.4,0c-35,20.3-34.8,53.4,0.5,73.7c35.3,20.4,92.3,20.4,127.4,0
									C239.7,227.1,239.5,194,204.2,173.7"/>
							</g>
						</g>
					</g>
				</g>
			</g>
		</g>
	</g>
</g>
<linearGradient id="SVGID_3_" gradientUnits="userSpaceOnUse" x1="24.4" y1="18693.0742" x2="257.0677" y2="18693.0742" gradientTransform="matrix(1 0 0 1 0 -18536)">
	<stop  offset="0" style="stop-color:#4F3E90"/>
	<stop  offset="1" style="stop-color:#171A31"/>
</linearGradient>
<path class="st4" d="M24.4,155.4c0,0,0,62.7,107.4,68.1s124.9-58,124.9-58s11.6-62.4-95.5-74.1c0,0-61.9-8.4-108.3,21.7
	C52.9,113.2,28.1,125.3,24.4,155.4z"/>
<linearGradient id="XMLID_4_" gradientUnits="userSpaceOnUse" x1="3125.7988" y1="8.831" x2="3314.5732" y2="8.831" gradientTransform="matrix(-1 0 0 1.1206 3360.957 115.904)">
	<stop  offset="0" style="stop-color:#4F3E90"/>
	<stop  offset="1" style="stop-color:#171A31"/>
</linearGradient>
<path id="XMLID_1_" class="st5" d="M234.7,149.9c0,0-1.3-37.4-93.9-39.6c0,0-86.8-0.6-93.9,39.6c0,0-13.2-43.9,93.9-48.2
	C140.8,101.7,242.8,103.7,234.7,149.9z"/>
<linearGradient id="XMLID_8_" gradientUnits="userSpaceOnUse" x1="121.4176" y1="18773.5469" x2="150.6001" y2="18664.6367" gradientTransform="matrix(1 0 0 1 0 -18536)">
	<stop  offset="0" style="stop-color:#4F3E90"/>
	<stop  offset="1" style="stop-color:#171A31"/>
</linearGradient>
<path id="XMLID_6_" class="st6" d="M24.2,157.2c0,0,1.6,61.9,116.5,65.6c0,0,107.7,0.9,116.5-65.6c0,0,16.4,72.7-116.5,79.7
	C140.7,236.9,14.3,233.6,24.2,157.2z"/>
<g id="XMLID_7_" class="st0">
	<g>
		<g class="st1">
			<g>
				<defs>
					<polygon id="SVGID_4_" points="258.7,267 372.7,200.7 487.5,266.9 373.4,333.2 					"/>
				</defs>
				<clipPath id="SVGID_5_">
					<use xlink:href="#SVGID_4_"  style="overflow:visible;"/>
				</clipPath>
				<g class="st7">
					<g>
						<g>
							<g>
								<path class="st3" d="M430.1,233.8c-31.7-18.3-82.9-18.3-114.4,0s-31.3,48,0.4,66.3c31.7,18.3,82.9,18.3,114.4,0
									C461.9,281.8,461.8,252.1,430.1,233.8"/>
							</g>
						</g>
					</g>
				</g>
			</g>
		</g>
	</g>
</g>
<linearGradient id="SVGID_6_" gradientUnits="userSpaceOnUse" x1="256.8" y1="18749.4805" x2="489.4677" y2="18749.4805" gradientTransform="matrix(1 0 0 1 0 -18536)">
	<stop  offset="0" style="stop-color:#4F3E90"/>
	<stop  offset="1" style="stop-color:#171A31"/>
</linearGradient>
<path class="st8" d="M256.8,211.8c0,0,0,62.7,107.4,68.1c107.4,5.5,124.9-58,124.9-58s11.6-62.4-95.5-74.1c0,0-61.9-8.4-108.3,21.7
	C285.2,169.6,260.4,181.7,256.8,211.8z"/>
<linearGradient id="XMLID_9_" gradientUnits="userSpaceOnUse" x1="2893.499" y1="59.1612" x2="3082.2732" y2="59.1612" gradientTransform="matrix(-1 0 0 1.1206 3360.957 115.904)">
	<stop  offset="0" style="stop-color:#4F3E90"/>
	<stop  offset="1" style="stop-color:#171A31"/>
</linearGradient>
<path id="XMLID_5_" class="st9" d="M467,206.3c0,0-1.3-37.4-93.9-39.6c0,0-86.8-0.6-93.9,39.6c0,0-13.2-43.9,93.9-48.2
	C373.1,158.1,475.1,160.1,467,206.3z"/>
<linearGradient id="XMLID_10_" gradientUnits="userSpaceOnUse" x1="353.8231" y1="18829.9258" x2="383.0001" y2="18721.0371" gradientTransform="matrix(1 0 0 1 0 -18536)">
	<stop  offset="0" style="stop-color:#4F3E90"/>
	<stop  offset="1" style="stop-color:#171A31"/>
</linearGradient>
<path id="XMLID_2_" class="st10" d="M256.6,213.6c0,0,1.6,61.9,116.5,65.6c0,0,107.7,0.9,116.5-65.6c0,0,16.4,72.7-116.5,79.7
	C373,293.2,246.6,290,256.6,213.6z"/>
<g id="XMLID_14_" class="st0">
	<g>
		<g class="st1">
			<g>
				<defs>
					<polygon id="SVGID_7_" points="14,374.7 146.3,297.8 279.4,374.7 147.2,451.6 					"/>
				</defs>
				<clipPath id="SVGID_8_">
					<use xlink:href="#SVGID_7_"  style="overflow:visible;"/>
				</clipPath>
				<g class="st11">
					<g>
						<g>
							<g>
								<path class="st3" d="M212.9,336.3c-36.8-21.2-96.2-21.2-132.7,0c-36.5,21.2-36.3,55.6,0.4,76.9c36.7,21.3,96.2,21.2,132.7,0
									C249.8,391.9,249.6,357.5,212.9,336.3"/>
							</g>
						</g>
					</g>
				</g>
			</g>
		</g>
	</g>
</g>
<linearGradient id="SVGID_9_" gradientUnits="userSpaceOnUse" x1="30.4" y1="18857.2734" x2="263.0677" y2="18857.2734" gradientTransform="matrix(1 0 0 1 0 -18536)">
	<stop  offset="0" style="stop-color:#4F3E90"/>
	<stop  offset="1" style="stop-color:#171A31"/>
</linearGradient>
<path class="st12" d="M30.4,319.6c0,0,0,62.7,107.4,68.1c107.4,5.4,124.9-58,124.9-58s11.6-62.4-95.5-74.1c0,0-61.9-8.4-108.3,21.7
	C58.9,277.3,34.1,289.5,30.4,319.6z"/>
<linearGradient id="XMLID_11_" gradientUnits="userSpaceOnUse" x1="3119.8096" y1="155.2704" x2="3308.5732" y2="155.2704" gradientTransform="matrix(-1 0 0 1.1206 3360.957 115.904)">
	<stop  offset="0" style="stop-color:#4F3E90"/>
	<stop  offset="1" style="stop-color:#171A31"/>
</linearGradient>
<path id="XMLID_13_" class="st13" d="M240.7,314c0,0-1.3-37.4-93.9-39.6c0,0-86.8-0.6-93.9,39.6c0,0-13.2-43.9,93.9-48.2
	C146.8,265.8,248.7,267.8,240.7,314z"/>
<linearGradient id="XMLID_15_" gradientUnits="userSpaceOnUse" x1="127.4096" y1="18937.6777" x2="156.6" y2="18828.7363" gradientTransform="matrix(1 0 0 1 0 -18536)">
	<stop  offset="0" style="stop-color:#4F3E90"/>
	<stop  offset="1" style="stop-color:#171A31"/>
</linearGradient>
<path id="XMLID_12_" class="st14" d="M30.2,321.3c0,0,1.6,61.9,116.5,65.6c0,0,107.7,0.9,116.5-65.6c0,0,16.4,72.7-116.5,79.7
	C146.7,401,20.3,397.8,30.2,321.3z"/>
<g>
	<linearGradient id="SVGID_10_" gradientUnits="userSpaceOnUse" x1="67.7339" y1="168.5981" x2="213.3793" y2="168.5981">
		<stop  offset="0.1486" style="stop-color:#00EED5"/>
		<stop  offset="0.3817" style="stop-color:#3EBBD7"/>
		<stop  offset="0.8094" style="stop-color:#AB62DB"/>
		<stop  offset="1" style="stop-color:#D63EDC"/>
	</linearGradient>
	<path class="st15" d="M198.7,179.3c-6.1,4.3-20.4,13.1-40.8,11.6c-8.9,4.2-20.1,6.6-32.3,6.6c-29.3,0-53.1-14.4-53.1-32.2
		c0-14.3,15.3-26.4,36.4-30.6c-5.8,0.6-11.7,1.4-14.8,2.1c-11.5,2.7-21.4,5.1-21.4,5.1s-6.2,9.8-4.8,21.7c3.3,15.7,20,28.8,43,35
		c0.7,0.2,1.3,0.4,2,0.5c0,0,0,0,0,0c0.9,0.2,1.7,0.4,2.6,0.6c7.8,1.7,16.2,2.7,25,2.7c22.2,0,42-6,55.5-15.5
		c14-11.2,17.7-23,17.3-24.2C213.4,162.8,209.1,172,198.7,179.3z"/>
	<linearGradient id="SVGID_11_" gradientUnits="userSpaceOnUse" x1="75.0389" y1="135.9682" x2="214.5175" y2="135.9682">
		<stop  offset="0.1486" style="stop-color:#00EED5"/>
		<stop  offset="0.3817" style="stop-color:#3EBBD7"/>
		<stop  offset="0.8094" style="stop-color:#AB62DB"/>
		<stop  offset="1" style="stop-color:#D63EDC"/>
	</linearGradient>
	<path class="st16" d="M131.5,131.1c8.3-3.3,18.2-5.2,28.8-5.2c29.3,0,53.1,14.4,53.1,32.2c0.2-0.4,0.3-0.9,0.4-1.3
		c-0.6-14.3-12.2-26.9-29.9-34.7c-5.7-2.4-11.4-4.2-16.4-5.5c-3.8-0.9-7.8-1.7-11.9-2.2l0,0c-5.9-0.4-15.8-1.2-27.2-0.3
		c-18.8,1.9-35.1,8.2-46.1,17c-2.5,2.1-4.9,4.4-7.2,7C75,138.1,102.8,127.7,131.5,131.1z"/>
	<linearGradient id="SVGID_12_" gradientUnits="userSpaceOnUse" x1="119.515" y1="199.7557" x2="192.3455" y2="126.9251">
		<stop  offset="0.1486" style="stop-color:#00EED5"/>
		<stop  offset="0.3817" style="stop-color:#3EBBD7"/>
		<stop  offset="0.8094" style="stop-color:#AB62DB"/>
		<stop  offset="1" style="stop-color:#D63EDC"/>
	</linearGradient>
	<path class="st17" d="M160.3,125.9c-10.6,0-20.5,1.9-28.8,5.2c11.6,1.4,23.4,5.1,33.5,12.6c3.7,2.5,6.8,5.3,9.1,8.4
		c6.3,7.3,5.9,14.4,3.3,20.3c-2,5.4-6.2,10.2-12,14.2l0,0c0,0,38.4-2.2,48-28.5C213.4,140.4,189.6,125.9,160.3,125.9z"/>
	<linearGradient id="SVGID_13_" gradientUnits="userSpaceOnUse" x1="90.8522" y1="198.0102" x2="171.3181" y2="117.5442">
		<stop  offset="0.1486" style="stop-color:#00EED5"/>
		<stop  offset="0.3817" style="stop-color:#3EBBD7"/>
		<stop  offset="0.8094" style="stop-color:#AB62DB"/>
		<stop  offset="1" style="stop-color:#D63EDC"/>
	</linearGradient>
	<path class="st18" d="M140.6,188.1C140.6,188.1,140.6,188.1,140.6,188.1C140.6,188.1,140.6,188.1,140.6,188.1c-1-0.2-2-0.5-2.9-0.8
		c0,0-0.1,0-0.1,0c-0.3-0.1-0.5-0.2-0.8-0.2c-20.7-6-28.2-16.4-29.3-26c-0.1-1-0.2-1.9-0.2-2.9c0-2.9,0.6-5.7,1.8-8.3
		c0.4-1,1-2.1,1.6-3.1c2.1-3.4,5.1-6.5,8.8-9.2c3.4-2.7,6.2-4.5,6.2-4.5s-8.3,0.7-16.7,1.6c-21.2,4.2-36.4,16.3-36.4,30.6
		c0,17.8,23.8,32.2,53.1,32.2c12.1,0,23.3-2.5,32.3-6.6c-4.8-0.4-10-1.1-15.7-2.4C141.7,188.4,141.1,188.2,140.6,188.1z"/>
</g>
<g>
	<linearGradient id="SVGID_14_" gradientUnits="userSpaceOnUse" x1="300.1396" y1="224.0982" x2="445.785" y2="224.0982">
		<stop  offset="0.1486" style="stop-color:#00EED5"/>
		<stop  offset="0.3817" style="stop-color:#3EBBD7"/>
		<stop  offset="0.8094" style="stop-color:#AB62DB"/>
		<stop  offset="1" style="stop-color:#D63EDC"/>
	</linearGradient>
	<path class="st19" d="M431.1,234.8c-6.1,4.3-20.4,13.1-40.8,11.6c-8.9,4.2-20.1,6.6-32.3,6.6c-29.3,0-53.1-14.4-53.1-32.2
		c0-14.3,15.3-26.4,36.4-30.6c-5.8,0.6-11.7,1.4-14.8,2.1c-11.5,2.7-21.4,5.1-21.4,5.1s-6.2,9.8-4.8,21.7c3.3,15.7,20,28.8,43,35
		c0.7,0.2,1.3,0.4,2,0.5c0,0,0,0,0,0c0.9,0.2,1.7,0.4,2.6,0.6c7.8,1.7,16.2,2.7,25,2.7c22.2,0,42-6,55.5-15.5
		c14-11.2,17.7-23,17.3-24.2C445.8,218.3,441.5,227.5,431.1,234.8z"/>
	<linearGradient id="SVGID_15_" gradientUnits="userSpaceOnUse" x1="307.4445" y1="191.4683" x2="446.9232" y2="191.4683">
		<stop  offset="0.1486" style="stop-color:#00EED5"/>
		<stop  offset="0.3817" style="stop-color:#3EBBD7"/>
		<stop  offset="0.8094" style="stop-color:#AB62DB"/>
		<stop  offset="1" style="stop-color:#D63EDC"/>
	</linearGradient>
	<path class="st20" d="M363.9,186.6c8.3-3.3,18.2-5.2,28.8-5.2c29.3,0,53.1,14.4,53.1,32.2c0.2-0.4,0.3-0.9,0.4-1.3
		c-0.6-14.3-12.2-26.9-29.9-34.7c-5.7-2.4-11.4-4.2-16.4-5.5c-3.8-0.9-7.8-1.7-11.9-2.2l0,0c-5.9-0.4-15.8-1.2-27.2-0.3
		c-18.8,1.9-35.1,8.2-46.1,17c-2.5,2.1-4.9,4.4-7.2,7C307.4,193.6,335.2,183.2,363.9,186.6z"/>
	<linearGradient id="SVGID_16_" gradientUnits="userSpaceOnUse" x1="351.9207" y1="255.2557" x2="424.7512" y2="182.4252">
		<stop  offset="0.1486" style="stop-color:#00EED5"/>
		<stop  offset="0.3817" style="stop-color:#3EBBD7"/>
		<stop  offset="0.8094" style="stop-color:#AB62DB"/>
		<stop  offset="1" style="stop-color:#D63EDC"/>
	</linearGradient>
	<path class="st21" d="M392.7,181.4c-10.6,0-20.5,1.9-28.8,5.2c11.6,1.4,23.4,5.1,33.5,12.6c3.7,2.5,6.8,5.3,9.1,8.4
		c6.3,7.3,5.9,14.4,3.3,20.3c-2,5.4-6.2,10.2-12,14.2l0,0c0,0,38.4-2.2,48-28.5C445.8,195.9,422,181.4,392.7,181.4z"/>
	<linearGradient id="SVGID_17_" gradientUnits="userSpaceOnUse" x1="323.2579" y1="253.5102" x2="403.7238" y2="173.0443">
		<stop  offset="0.1486" style="stop-color:#00EED5"/>
		<stop  offset="0.3817" style="stop-color:#3EBBD7"/>
		<stop  offset="0.8094" style="stop-color:#AB62DB"/>
		<stop  offset="1" style="stop-color:#D63EDC"/>
	</linearGradient>
	<path class="st22" d="M373,243.6C373,243.6,373,243.6,373,243.6C373,243.6,373,243.6,373,243.6c-1-0.2-2-0.5-2.9-0.8
		c0,0-0.1,0-0.1,0c-0.3-0.1-0.5-0.2-0.8-0.2c-20.7-6-28.2-16.4-29.3-26c-0.1-1-0.2-1.9-0.2-2.9c0-2.9,0.6-5.7,1.8-8.3
		c0.4-1,1-2.1,1.6-3.1c2.1-3.4,5.1-6.5,8.8-9.2c3.4-2.7,6.2-4.5,6.2-4.5s-8.3,0.7-16.7,1.6c-21.2,4.2-36.4,16.3-36.4,30.6
		c0,17.8,23.8,32.2,53.1,32.2c12.1,0,23.3-2.5,32.3-6.6c-4.8-0.4-10-1.1-15.7-2.4C374.1,243.9,373.5,243.7,373,243.6z"/>
</g>
<g>
	<linearGradient id="SVGID_18_" gradientUnits="userSpaceOnUse" x1="73.7657" y1="331.7982" x2="219.4111" y2="331.7982">
		<stop  offset="0.1486" style="stop-color:#00EED5"/>
		<stop  offset="0.3817" style="stop-color:#3EBBD7"/>
		<stop  offset="0.8094" style="stop-color:#AB62DB"/>
		<stop  offset="1" style="stop-color:#D63EDC"/>
	</linearGradient>
	<path class="st23" d="M204.7,342.5c-6.1,4.3-20.4,13.1-40.8,11.6c-8.9,4.2-20.1,6.6-32.3,6.6c-29.3,0-53.1-14.4-53.1-32.2
		c0-14.3,15.3-26.4,36.4-30.6c-5.8,0.6-11.7,1.4-14.8,2.1c-11.5,2.7-21.4,5.1-21.4,5.1s-6.2,9.8-4.8,21.7c3.3,15.7,20,28.8,43,35
		c0.7,0.2,1.3,0.4,2,0.5c0,0,0,0,0,0c0.9,0.2,1.7,0.4,2.6,0.6c7.8,1.7,16.2,2.7,25,2.7c22.2,0,42-6,55.5-15.5
		c14-11.2,17.7-23,17.3-24.2C219.4,326,215.1,335.2,204.7,342.5z"/>
	<linearGradient id="SVGID_19_" gradientUnits="userSpaceOnUse" x1="81.0706" y1="299.1683" x2="220.5493" y2="299.1683">
		<stop  offset="0.1486" style="stop-color:#00EED5"/>
		<stop  offset="0.3817" style="stop-color:#3EBBD7"/>
		<stop  offset="0.8094" style="stop-color:#AB62DB"/>
		<stop  offset="1" style="stop-color:#D63EDC"/>
	</linearGradient>
	<path class="st24" d="M137.5,294.3c8.3-3.3,18.2-5.2,28.8-5.2c29.3,0,53.1,14.4,53.1,32.2c0.2-0.4,0.3-0.9,0.4-1.3
		c-0.6-14.3-12.2-26.9-29.9-34.7c-5.7-2.4-11.4-4.2-16.4-5.5c-3.8-0.9-7.8-1.7-11.9-2.2l0,0c-5.9-0.4-15.8-1.2-27.2-0.3
		c-18.8,1.9-35.1,8.2-46.1,17c-2.5,2.1-4.9,4.4-7.2,7C81.1,301.3,108.9,290.9,137.5,294.3z"/>
	<linearGradient id="SVGID_20_" gradientUnits="userSpaceOnUse" x1="125.5468" y1="362.9557" x2="198.3773" y2="290.1252">
		<stop  offset="0.1486" style="stop-color:#00EED5"/>
		<stop  offset="0.3817" style="stop-color:#3EBBD7"/>
		<stop  offset="0.8094" style="stop-color:#AB62DB"/>
		<stop  offset="1" style="stop-color:#D63EDC"/>
	</linearGradient>
	<path class="st25" d="M166.3,289.1c-10.6,0-20.5,1.9-28.8,5.2c11.6,1.4,23.4,5.1,33.5,12.6c3.7,2.5,6.8,5.3,9.1,8.4
		c6.3,7.3,5.9,14.4,3.3,20.3c-2,5.4-6.2,10.2-12,14.2l0,0c0,0,38.4-2.2,48-28.5C219.4,303.6,195.6,289.1,166.3,289.1z"/>
	<linearGradient id="SVGID_21_" gradientUnits="userSpaceOnUse" x1="96.884" y1="361.2102" x2="177.3499" y2="280.7443">
		<stop  offset="0.1486" style="stop-color:#00EED5"/>
		<stop  offset="0.3817" style="stop-color:#3EBBD7"/>
		<stop  offset="0.8094" style="stop-color:#AB62DB"/>
		<stop  offset="1" style="stop-color:#D63EDC"/>
	</linearGradient>
	<path class="st26" d="M146.6,351.3C146.6,351.3,146.6,351.3,146.6,351.3C146.6,351.3,146.6,351.3,146.6,351.3c-1-0.2-2-0.5-2.9-0.8
		c0,0-0.1,0-0.1,0c-0.3-0.1-0.5-0.2-0.8-0.2c-20.7-6-28.2-16.4-29.3-26c-0.1-1-0.2-1.9-0.2-2.9c0-2.9,0.6-5.7,1.8-8.3
		c0.4-1,1-2.1,1.6-3.1c2.1-3.4,5.1-6.5,8.8-9.2c3.4-2.7,6.2-4.5,6.2-4.5s-8.3,0.7-16.7,1.6c-21.2,4.2-36.4,16.3-36.4,30.6
		c0,17.8,23.8,32.2,53.1,32.2c12.1,0,23.3-2.5,32.3-6.6c-4.8-0.4-10-1.1-15.7-2.4C147.7,351.6,147.2,351.4,146.6,351.3z"/>
</g>
</svg>
