<?xml version="1.0" encoding="utf-8"?>
<!-- Generator: Adobe Illustrator 24.2.0, SVG Export Plug-In . SVG Version: 6.00 Build 0)  -->
<svg version="1.1" id="Capa_1" xmlns="http://www.w3.org/2000/svg" xmlns:xlink="http://www.w3.org/1999/xlink" x="0px" y="0px"
	 viewBox="0 0 512 512" style="enable-background:new 0 0 512 512;" xml:space="preserve">
<style type="text/css">
	.st0{opacity:0.2;fill:#11081C;enable-background:new    ;}
	.st1{fill:url(#SVGID_1_);}
	.st2{fill:url(#SVGID_2_);}
	.st3{enable-background:new    ;}
	.st4{clip-path:url(#SVGID_4_);enable-background:new    ;}
	.st5{fill:#107F6D;}
	.st6{fill:#118471;}
	.st7{fill:#118975;}
	.st8{fill:#128E79;}
	.st9{clip-path:url(#SVGID_6_);enable-background:new    ;}
	.st10{fill:#13927D;}
	.st11{fill:#139782;}
	.st12{clip-path:url(#SVGID_8_);enable-background:new    ;}
	.st13{clip-path:url(#SVGID_10_);enable-background:new    ;}
	.st14{clip-path:url(#SVGID_12_);enable-background:new    ;}
	.st15{fill:#81528A;}
	.st16{fill:#85558F;}
	.st17{clip-path:url(#SVGID_14_);enable-background:new    ;}
	.st18{fill:#8A5894;}
	.st19{fill:#8F5B99;}
	.st20{fill:#945E9E;}
	.st21{clip-path:url(#SVGID_16_);enable-background:new    ;}
	.st22{clip-path:url(#SVGID_18_);enable-background:new    ;}
	.st23{fill:#7C4F85;}
	.st24{clip-path:url(#SVGID_20_);enable-background:new    ;}
	.st25{fill:#DC8CEB;}
	.st26{clip-path:url(#SVGID_22_);enable-background:new    ;}
	.st27{clip-path:url(#SVGID_24_);enable-background:new    ;}
	.st28{clip-path:url(#SVGID_26_);enable-background:new    ;}
	.st29{clip-path:url(#SVGID_28_);enable-background:new    ;}
	.st30{fill:#1DE1C1;}
	.st31{clip-path:url(#SVGID_30_);enable-background:new    ;}
	.st32{clip-path:url(#SVGID_32_);enable-background:new    ;}
	.st33{clip-path:url(#SVGID_34_);enable-background:new    ;}
	.st34{fill:#006D65;}
	.st35{fill:#007168;}
	.st36{fill:#00756C;}
	.st37{clip-path:url(#SVGID_36_);enable-background:new    ;}
	.st38{fill:#00AEA1;}
	.st39{clip-path:url(#SVGID_38_);enable-background:new    ;}
	.st40{fill:url(#SVGID_39_);}
	.st41{fill:url(#SVGID_40_);}
	.st42{clip-path:url(#SVGID_42_);enable-background:new    ;}
	.st43{clip-path:url(#SVGID_44_);enable-background:new    ;}
	.st44{clip-path:url(#SVGID_46_);enable-background:new    ;}
	.st45{clip-path:url(#SVGID_48_);enable-background:new    ;}
	.st46{clip-path:url(#SVGID_50_);enable-background:new    ;}
	.st47{clip-path:url(#SVGID_52_);enable-background:new    ;}
	.st48{clip-path:url(#SVGID_54_);enable-background:new    ;}
	.st49{clip-path:url(#SVGID_56_);enable-background:new    ;}
	.st50{clip-path:url(#SVGID_58_);enable-background:new    ;}
	.st51{clip-path:url(#SVGID_60_);enable-background:new    ;}
	.st52{clip-path:url(#SVGID_62_);enable-background:new    ;}
	.st53{clip-path:url(#SVGID_64_);enable-background:new    ;}
	.st54{clip-path:url(#SVGID_66_);enable-background:new    ;}
	.st55{clip-path:url(#SVGID_68_);enable-background:new    ;}
	.st56{clip-path:url(#SVGID_70_);enable-background:new    ;}
	.st57{clip-path:url(#SVGID_72_);enable-background:new    ;}
	.st58{clip-path:url(#SVGID_74_);enable-background:new    ;}
	.st59{clip-path:url(#SVGID_76_);enable-background:new    ;}
	.st60{fill:url(#SVGID_77_);}
	.st61{fill:url(#SVGID_78_);}
	.st62{clip-path:url(#SVGID_80_);enable-background:new    ;}
	.st63{clip-path:url(#SVGID_82_);enable-background:new    ;}
	.st64{clip-path:url(#SVGID_84_);enable-background:new    ;}
	.st65{clip-path:url(#SVGID_86_);enable-background:new    ;}
	.st66{clip-path:url(#SVGID_88_);enable-background:new    ;}
	.st67{clip-path:url(#SVGID_90_);enable-background:new    ;}
	.st68{clip-path:url(#SVGID_92_);enable-background:new    ;}
	.st69{clip-path:url(#SVGID_94_);enable-background:new    ;}
	.st70{clip-path:url(#SVGID_96_);enable-background:new    ;}
	.st71{clip-path:url(#SVGID_98_);enable-background:new    ;}
	.st72{clip-path:url(#SVGID_100_);enable-background:new    ;}
	.st73{clip-path:url(#SVGID_102_);enable-background:new    ;}
	.st74{clip-path:url(#SVGID_104_);enable-background:new    ;}
	.st75{clip-path:url(#SVGID_106_);enable-background:new    ;}
	.st76{clip-path:url(#SVGID_108_);enable-background:new    ;}
	.st77{clip-path:url(#SVGID_110_);enable-background:new    ;}
	.st78{fill:none;stroke:url(#SVGID_111_);stroke-width:3;stroke-linecap:round;stroke-linejoin:round;stroke-miterlimit:10;}
</style>
<path class="st0" d="M253.2,364.7c0,0,22,19.9,59.7,4.8s84.5-36.2,98.8-44.9c14.2-8.7,24.3-22.2,3.3-25.9S340.1,272,340.1,272
	s-2.1-13.8-8.8-20.5c-6.7-6.7-115.1,11.3-115.1,11.3l-51,29.1L253.2,364.7z"/>
<g>
	<g>
		
			<linearGradient id="SVGID_1_" gradientUnits="userSpaceOnUse" x1="146.2687" y1="-120.4944" x2="356.6508" y2="-120.4944" gradientTransform="matrix(1 0 0 -1 0 172)">
			<stop  offset="0" style="stop-color:#4F3E90"/>
			<stop  offset="1" style="stop-color:#171A31"/>
		</linearGradient>
		<path class="st1" d="M147.9,284.9c0,0-4.1,2,0.7,7.2c4.7,5.1,103.4,59.5,103.4,59.5s8.1,4.3,14.2,0l89.9-52.7c0,0,2.3-3.4-2.5-5.9
			l-103.3-59.7c0,0-5.2-4.1-12.2,0C231.2,237.3,147.9,284.9,147.9,284.9z"/>
		
			<linearGradient id="SVGID_2_" gradientUnits="userSpaceOnUse" x1="146.2997" y1="-154.6674" x2="356.7673" y2="-154.6674" gradientTransform="matrix(1 0 0 -1 0 172)">
			<stop  offset="0" style="stop-color:#463780"/>
			<stop  offset="0.1433" style="stop-color:#382E68"/>
			<stop  offset="0.3308" style="stop-color:#292550"/>
			<stop  offset="0.5289" style="stop-color:#1F1F3F"/>
			<stop  offset="0.7426" style="stop-color:#191B34"/>
			<stop  offset="1" style="stop-color:#171A31"/>
		</linearGradient>
		<path class="st2" d="M146.3,299.7v-12.3c0,0-0.1,3.3,3.6,5.8c3.7,2.5,28.7,17.3,28.7,17.3l37.4,21.1l35.5,19.7
			c0,0,7.9,4.4,14.3,0.6s90.4-53,90.4-53s0.8-1.1,0.5-2.9v13.3c0,1.2-0.6,2.2-1.6,2.8L267,363.4c0,0-8.9,6.6-17.7-1.5l-101.2-59.2
			C147,302.1,146.3,300.9,146.3,299.7L146.3,299.7z"/>
	</g>
	<g>
		<g>
			<g class="st3">
				<g class="st3">
					<defs>
						<path id="SVGID_3_" class="st3" d="M292.8,270.7c-7.3-5.1-16.6-7.8-25.7-7.9c0.1-1.1,0.2-2.3,0.3-3.4
							c9.1,0.2,18.4,2.8,25.7,7.9C293,268.3,292.9,269.6,292.8,270.7z"/>
					</defs>
					<clipPath id="SVGID_4_">
						<use xlink:href="#SVGID_3_"  style="overflow:visible;"/>
					</clipPath>
					<g class="st4">
						<path class="st5" d="M293.1,267.3l-0.3,3.4c-3.4-2.4-7.3-4.3-11.3-5.6l0.3-3.4C285.8,263,289.7,264.9,293.1,267.3"/>
						<path class="st6" d="M281.8,261.7l-0.3,3.4c-2.3-0.7-4.6-1.3-6.9-1.7l0.3-3.4C277.2,260.4,279.5,260.9,281.8,261.7"/>
						<path class="st7" d="M274.8,260l-0.3,3.4c-2.1-0.4-4.2-0.6-6.3-0.6l0.3-3.4C270.6,259.4,272.7,259.6,274.8,260"/>
						<path class="st8" d="M268.5,259.3l-0.3,3.4c-0.4,0-0.7,0-1.1,0c-0.1,0-0.3,0-0.4,0c-0.1,0-0.3,0-0.4,0c-1.5,0-3,0.1-4.4,0.2
							l0.3-3.4c1.5-0.1,2.9-0.2,4.4-0.2c0.1,0,0.3,0,0.4,0c0.1,0,0.3,0,0.4,0C267.7,259.3,268.1,259.3,268.5,259.3"/>
					</g>
				</g>
				<g class="st3">
					<defs>
						<path id="SVGID_5_" class="st3" d="M266.2,262.7c-8.4,0-16.7,2.2-23.2,6.5c0.1-1.1,0.2-2.3,0.3-3.4c6.4-4.2,14.5-6.4,22.8-6.4
							c0.1,0,0.2,0,0.3,0c0.1,0,0.3,0,0.4,0c0.1,0,0.3,0,0.4,0c-0.1,1.1-0.2,2.3-0.3,3.4c-0.1,0-0.3,0-0.4,0
							C266.5,262.7,266.3,262.7,266.2,262.7c0-0.3,0.1-0.6,0.1-0.9C266.2,262.1,266.2,262.4,266.2,262.7z"/>
					</defs>
					<clipPath id="SVGID_6_">
						<use xlink:href="#SVGID_5_"  style="overflow:visible;"/>
					</clipPath>
					<g class="st9">
						<path class="st8" d="M268.5,259.3l-0.3,3.4c-0.4,0-0.7,0-1.1,0c-0.1,0-0.3,0-0.4,0c-0.1,0-0.3,0-0.4,0c-1.5,0-3,0.1-4.4,0.2
							l0.3-3.4c1.5-0.1,2.9-0.2,4.4-0.2c0.1,0,0.3,0,0.4,0c0.1,0,0.3,0,0.4,0C267.7,259.3,268.1,259.3,268.5,259.3"/>
						<path class="st10" d="M262.1,259.5l-0.3,3.4c-2.5,0.2-4.9,0.6-7.2,1.2l0.3-3.4C257.2,260.1,259.6,259.7,262.1,259.5"/>
						<path class="st11" d="M254.8,260.7l-0.3,3.4c-4.2,1.1-8.1,2.7-11.5,5c-0.1,0.1-0.2,0.1-0.2,0.2c-0.3,0.2-0.6,0.4-0.8,0.6
							c-0.2,0.2-0.4,0.3-0.6,0.5l0.3-3.4c0.2-0.2,0.4-0.3,0.6-0.5c0.3-0.2,0.5-0.4,0.8-0.6c0.1-0.1,0.2-0.1,0.2-0.2
							C246.7,263.5,250.7,261.8,254.8,260.7"/>
					</g>
				</g>
				<g class="st3">
					<defs>
						<path id="SVGID_7_" class="st3" d="M242.8,269.3c-0.3,0.2-0.6,0.4-0.8,0.6c0.1-1.1,0.2-2.3,0.3-3.4c0.3-0.2,0.5-0.4,0.8-0.6
							c0.1-0.1,0.2-0.1,0.2-0.2c-0.1,1.1-0.2,2.3-0.3,3.4C242.9,269.2,242.9,269.3,242.8,269.3z"/>
					</defs>
					<clipPath id="SVGID_8_">
						<use xlink:href="#SVGID_7_"  style="overflow:visible;"/>
					</clipPath>
					<g class="st12">
						<path class="st11" d="M254.8,260.7l-0.3,3.4c-4.2,1.1-8.1,2.7-11.5,5c-0.1,0.1-0.2,0.1-0.2,0.2c-0.3,0.2-0.6,0.4-0.8,0.6
							c-0.2,0.2-0.4,0.3-0.6,0.5l0.3-3.4c0.2-0.2,0.4-0.3,0.6-0.5c0.3-0.2,0.5-0.4,0.8-0.6c0.1-0.1,0.2-0.1,0.2-0.2
							C246.7,263.5,250.7,261.8,254.8,260.7"/>
					</g>
				</g>
				<g class="st3">
					<defs>
						<path id="SVGID_9_" class="st3" d="M242,269.9c-0.2,0.2-0.4,0.3-0.6,0.5l0.3-3.4c0.2-0.2,0.4-0.3,0.6-0.5
							C242.2,267.6,242.1,268.8,242,269.9z"/>
					</defs>
					<clipPath id="SVGID_10_">
						<use xlink:href="#SVGID_9_"  style="overflow:visible;"/>
					</clipPath>
					<g class="st13">
						<path class="st11" d="M254.8,260.7l-0.3,3.4c-4.2,1.1-8.1,2.7-11.5,5c-0.1,0.1-0.2,0.1-0.2,0.2c-0.3,0.2-0.6,0.4-0.8,0.6
							c-0.2,0.2-0.4,0.3-0.6,0.5l0.3-3.4c0.2-0.2,0.4-0.3,0.6-0.5c0.3-0.2,0.5-0.4,0.8-0.6c0.1-0.1,0.2-0.1,0.2-0.2
							C246.7,263.5,250.7,261.8,254.8,260.7"/>
					</g>
				</g>
				<g class="st3">
					<defs>
						<path id="SVGID_11_" class="st3" d="M270,277.6l-0.3,3.4c-3.7-1-7.5-1.6-11.2-1.8l0.3-3.4C262.6,275.9,266.4,276.5,270,277.6z
							"/>
					</defs>
					<clipPath id="SVGID_12_">
						<use xlink:href="#SVGID_11_"  style="overflow:visible;"/>
					</clipPath>
					<g class="st14">
						<path class="st15" d="M270,277.6l-0.3,3.4c-1.7-0.5-3.4-0.9-5.2-1.1l0.3-3.4C266.6,276.7,268.3,277.1,270,277.6"/>
						<path class="st16" d="M264.9,276.4l-0.3,3.4c-2-0.3-4-0.5-6.1-0.6l0.3-3.4C260.8,275.9,262.8,276.1,264.9,276.4"/>
					</g>
				</g>
				<g class="st3">
					<defs>
						<path id="SVGID_13_" class="st3" d="M258.8,275.8l-0.3,3.4c-1.6-0.1-3.2-0.2-4.8-0.2c-8.7-0.1-15.7,1.8-21.3,4.6l0.3-3.4
							c5.5-2.8,12.5-4.6,21.3-4.6C255.5,275.6,257.1,275.7,258.8,275.8z"/>
					</defs>
					<clipPath id="SVGID_14_">
						<use xlink:href="#SVGID_13_"  style="overflow:visible;"/>
					</clipPath>
					<g class="st17">
						<path class="st16" d="M258.8,275.8l-0.3,3.4c-1-0.1-1.9-0.1-2.9-0.2l0.3-3.4C256.8,275.6,257.8,275.7,258.8,275.8"/>
						<path class="st18" d="M255.9,275.6l-0.3,3.4c-0.6,0-1.3,0-1.9,0c-1.9,0-3.8,0.1-5.5,0.2l0.3-3.4c1.8-0.2,3.6-0.2,5.5-0.2
							C254.6,275.6,255.3,275.6,255.9,275.6"/>
						<path class="st19" d="M248.5,275.8l-0.3,3.4c-2.7,0.2-5.2,0.7-7.5,1.3l0.3-3.4C243.3,276.5,245.8,276,248.5,275.8"/>
						<path class="st20" d="M241,277.1l-0.3,3.4c-3.1,0.8-5.8,1.8-8.3,3.1l0.3-3.4C235.2,278.9,237.9,277.9,241,277.1"/>
					</g>
				</g>
				<g class="st3">
					<defs>
						<path id="SVGID_15_" class="st3" d="M241.6,267l-0.3,3.4c-4.9,3.7-7.8,8.3-8.9,13.2l0.3-3.4
							C233.8,275.3,236.8,270.7,241.6,267z"/>
					</defs>
					<clipPath id="SVGID_16_">
						<use xlink:href="#SVGID_15_"  style="overflow:visible;"/>
					</clipPath>
					<g class="st21">
						<path class="st11" d="M241.6,267l-0.3,3.4c-2.8,2.1-4.9,4.5-6.4,7l0.3-3.4C236.8,271.5,238.9,269.1,241.6,267"/>
						<path class="st10" d="M235.2,274l-0.3,3.4c-1,1.7-1.7,3.4-2.2,5.2l0.3-3.4C233.5,277.4,234.2,275.7,235.2,274"/>
						<path class="st8" d="M233,279.2l-0.3,3.4c-0.1,0.3-0.2,0.7-0.2,1l0.3-3.4C232.8,279.8,232.9,279.5,233,279.2"/>
					</g>
				</g>
				<g class="st3">
					<defs>
						<path id="SVGID_17_" class="st3" d="M288.5,288.3l-0.3,3.4c-3.7-4.4-9.6-8.7-18.5-10.8l0.3-3.4
							C279,279.6,284.8,284,288.5,288.3z"/>
					</defs>
					<clipPath id="SVGID_18_">
						<use xlink:href="#SVGID_17_"  style="overflow:visible;"/>
					</clipPath>
					<g class="st22">
						<path class="st23" d="M288.5,288.3l-0.3,3.4c-3.2-3.8-8-7.5-15-9.8l0.3-3.4C280.5,280.8,285.3,284.5,288.5,288.3"/>
						<path class="st15" d="M273.5,278.5l-0.3,3.4c-1.1-0.4-2.3-0.7-3.5-1l0.3-3.4C271.2,277.8,272.4,278.2,273.5,278.5"/>
					</g>
				</g>
				<g class="st3">
					<defs>
						<path id="SVGID_19_" class="st3" d="M304.4,291.7l-0.3,3.4c0.2-2.7,0-5.1-0.3-6.8c-1.3-8-6.8-14.6-7.1-14.9l0.3-3.4
							c0.3,0.3,5.8,6.9,7.1,14.9C304.4,286.6,304.6,289,304.4,291.7z"/>
					</defs>
					<clipPath id="SVGID_20_">
						<use xlink:href="#SVGID_19_"  style="overflow:visible;"/>
					</clipPath>
					<g class="st24">
						<path class="st5" d="M304.4,291.7l-0.3,3.4c0.2-2.7,0-5.1-0.3-6.8c-1.3-8-6.8-14.6-7.1-14.9l0.3-3.4c0.3,0.3,5.8,6.9,7.1,14.9
							C304.4,286.6,304.6,289,304.4,291.7"/>
					</g>
				</g>
				<g>
					<path class="st25" d="M266.9,259.3c0.1,0,0.3,0,0.4,0c9.1,0.2,18.4,2.8,25.7,7.9c17.7,18.9,2.7,33,1.9,33.7
						c-0.7-4.4-2.8-8.7-6.4-12.6c-3.7-4.4-9.6-8.7-18.5-10.8c-3.7-1-7.5-1.6-11.2-1.8c-1.6-0.1-3.2-0.2-4.8-0.2
						c-8.7-0.1-15.7,1.8-21.3,4.6c1.1-4.8,4-9.4,8.9-13.2c0.2-0.2,0.4-0.3,0.6-0.5c0.3-0.2,0.5-0.4,0.8-0.6c0.1-0.1,0.2-0.1,0.2-0.2
						c6.5-4.3,14.7-6.4,23.2-6.5C266.6,259.3,266.8,259.3,266.9,259.3z"/>
				</g>
				<g class="st3">
					<defs>
						<path id="SVGID_21_" class="st3" d="M295,300.9l-0.3,3.4c-0.7-4.4-2.8-8.7-6.4-12.6l0.3-3.4
							C292.1,292.2,294.3,296.5,295,300.9z"/>
					</defs>
					<clipPath id="SVGID_22_">
						<use xlink:href="#SVGID_21_"  style="overflow:visible;"/>
					</clipPath>
					<g class="st26">
						<path class="st23" d="M295,300.9l-0.3,3.4c-0.7-4.4-2.8-8.7-6.4-12.6l0.3-3.4C292.1,292.2,294.3,296.5,295,300.9"/>
					</g>
				</g>
				<g class="st3">
					<defs>
						<path id="SVGID_23_" class="st3" d="M301.6,287.5l-0.3,3.4c-0.7,8-6.2,13-6.6,13.5l0.3-3.4
							C295.4,300.5,300.9,295.4,301.6,287.5z"/>
					</defs>
					<clipPath id="SVGID_24_">
						<use xlink:href="#SVGID_23_"  style="overflow:visible;"/>
					</clipPath>
					<g class="st27">
						<path class="st18" d="M301.6,287.5l-0.3,3.4c-0.1,1.2-0.3,2.4-0.6,3.5l0.3-3.4C301.2,289.9,301.5,288.7,301.6,287.5"/>
						<path class="st19" d="M300.9,291l-0.3,3.4c-0.6,2.1-1.5,3.9-2.4,5.4l0.3-3.4C299.5,294.9,300.4,293.1,300.9,291"/>
						<path class="st20" d="M298.6,296.4l-0.3,3.4c-1.6,2.7-3.4,4.3-3.6,4.6l0.3-3.4C295.2,300.7,296.9,299.1,298.6,296.4"/>
					</g>
				</g>
				<g class="st3">
					<defs>
						<path id="SVGID_25_" class="st3" d="M209,291.6l0.3-3.4c-0.3,3.1,0,6.3,0.8,9.4l-0.3,3.4C209,297.8,208.7,294.7,209,291.6z"/>
					</defs>
					<clipPath id="SVGID_26_">
						<use xlink:href="#SVGID_25_"  style="overflow:visible;"/>
					</clipPath>
					<g class="st28">
						<path class="st5" d="M210.1,297.5l-0.3,3.4c-0.8-3.1-1.1-6.3-0.8-9.4l0.3-3.4C209.1,291.3,209.3,294.4,210.1,297.5"/>
					</g>
				</g>
				<g class="st3">
					<defs>
						<path id="SVGID_27_" class="st3" d="M225.1,293.6c-1.7,2.8-2.7,5.8-3,8.8l0.3-3.4c0.3-3,1.3-6,3-8.8
							C225.4,291.2,225.5,292.7,225.1,293.6z"/>
					</defs>
					<clipPath id="SVGID_28_">
						<use xlink:href="#SVGID_27_"  style="overflow:visible;"/>
					</clipPath>
					<g class="st29">
						<path class="st11" d="M225.5,290.2l-0.3,3.4c-0.1,0.1-0.1,0.2-0.1,0.2l0.3-3.4C225.4,290.4,225.4,290.3,225.5,290.2"/>
						<path class="st10" d="M225.3,290.5l-0.3,3.4c-1,1.7-1.7,3.4-2.2,5.1l0.3-3.4C223.6,293.8,224.3,292.1,225.3,290.5"/>
						<path class="st8" d="M223.1,295.6l-0.3,3.4c-0.3,1.1-0.5,2.3-0.6,3.4l0.3-3.4C222.6,297.9,222.8,296.7,223.1,295.6"/>
					</g>
				</g>
				<g>
					<path class="st30" d="M257,256c12.4,0.1,25,3.5,35.2,10.3c0.3,0.3,0.6,0.6,0.9,0.9c-7.3-5.1-16.6-7.8-25.7-7.9
						c-0.1,0-0.3,0-0.4,0c-0.1,0-0.3,0-0.4,0c-8.4,0-16.7,2.2-23.2,6.5c-0.1,0.1-0.2,0.1-0.2,0.2c-0.3,0.2-0.6,0.4-0.8,0.6
						c-0.2,0.2-0.4,0.3-0.6,0.5c-4.9,3.7-7.8,8.3-8.9,13.2c-16,8.1-19.8,23.2-20,24c-1.1-2.3-2-4.5-2.6-6.6
						c-2.3-9.1-0.1-18.5,7-26.3c4.5-4.5,9.7-7.5,12.8-9.4c2.3-1.1,4.8-2.1,7.3-2.9c3.4-1,7.6-1.9,12.2-2.5
						C251.9,256.1,254.4,256,257,256z"/>
				</g>
				<g class="st3">
					<defs>
						<path id="SVGID_29_" class="st3" d="M212.7,304.2l-0.3,3.4c-1.1-2.3-2-4.5-2.6-6.6l0.3-3.4
							C210.7,299.6,211.6,301.8,212.7,304.2z"/>
					</defs>
					<clipPath id="SVGID_30_">
						<use xlink:href="#SVGID_29_"  style="overflow:visible;"/>
					</clipPath>
					<g class="st31">
						<path class="st5" d="M212.7,304.2l-0.3,3.4c-1.1-2.3-2-4.5-2.6-6.6l0.3-3.4C210.7,299.6,211.6,301.8,212.7,304.2"/>
					</g>
				</g>
				<g class="st3">
					<defs>
						<path id="SVGID_31_" class="st3" d="M232.7,280.1l-0.3,3.4c-16,8.1-19.8,23.2-20,24l0.3-3.4
							C212.9,303.4,216.7,288.2,232.7,280.1z"/>
					</defs>
					<clipPath id="SVGID_32_">
						<use xlink:href="#SVGID_31_"  style="overflow:visible;"/>
					</clipPath>
					<g class="st32">
						<path class="st11" d="M232.7,280.1l-0.3,3.4c-8.1,4.1-13.1,10-16.1,14.9l0.3-3.4C219.6,290.1,224.6,284.2,232.7,280.1"/>
						<path class="st10" d="M216.7,295.1l-0.3,3.4c-2.5,4.1-3.6,7.6-3.9,8.7l0.3-3.4C213.1,302.7,214.2,299.2,216.7,295.1"/>
						<path class="st8" d="M212.8,303.8l-0.3,3.4c-0.1,0.2-0.1,0.3-0.1,0.4l0.3-3.4C212.7,304.1,212.7,304,212.8,303.8"/>
					</g>
				</g>
				<g class="st3">
					<defs>
						<path id="SVGID_33_" class="st3" d="M295.1,306.1l-0.3,3.4c-0.6,5.6-3.7,11-9.3,15.3l0.3-3.4
							C291.4,317.1,294.5,311.7,295.1,306.1z"/>
					</defs>
					<clipPath id="SVGID_34_">
						<use xlink:href="#SVGID_33_"  style="overflow:visible;"/>
					</clipPath>
					<g class="st33">
						<path class="st34" d="M295.1,306.1l-0.3,3.4c-0.1,1-0.3,2.1-0.6,3.1l0.3-3.4C294.8,308.2,295,307.1,295.1,306.1"/>
						<path class="st35" d="M294.5,309.2l-0.3,3.4c-0.5,1.8-1.2,3.5-2.2,5.1l0.3-3.4C293.3,312.7,294,310.9,294.5,309.2"/>
						<path class="st36" d="M292.3,314.3l-0.3,3.4c-1.5,2.6-3.7,4.9-6.4,7.1l0.3-3.4C288.6,319.2,290.7,316.9,292.3,314.3"/>
					</g>
				</g>
				<g class="st3">
					<defs>
						<path id="SVGID_35_" class="st3" d="M230.8,321.7l-0.3,3.4c-10.6-6.5-15.7-14.1-16-14.5l0.3-3.4
							C215.1,307.6,220.2,315.2,230.8,321.7z"/>
					</defs>
					<clipPath id="SVGID_36_">
						<use xlink:href="#SVGID_35_"  style="overflow:visible;"/>
					</clipPath>
					<g class="st37">
						<path class="st5" d="M230.8,321.7l-0.3,3.4c-10.6-6.5-15.7-14.1-16-14.5l0.3-3.4C215.1,307.6,220.2,315.2,230.8,321.7"/>
					</g>
				</g>
				<g>
					<path class="st38" d="M231.8,283.4c0,0.1,0.2,2,0.9,4.8c0.6,2.9,1.8,5.8,3.7,8.5c0.5,0.8,1.1,1.6,1.8,2.4
						c1.7,2,3.7,3.8,6.2,5.5c0.8,0.6,1.7,1.1,2.6,1.6c6,3.7,13.7,6.5,22.8,6.5c3.9,0,8.1-0.4,12.5-1.6c0.2,0,0.4-0.1,0.6-0.1
						c0.7-0.2,1.4-0.4,2.1-0.6c0.4-0.1,0.7-0.2,1.1-0.4c3.7-1.2,6.7-2.6,9.2-4.1c-0.6,5.6-3.7,11-9.3,15.3
						c-6.7,5.1-15.6,7.7-24.8,7.7c-0.1,0-0.3,0-0.4,0c-0.1,0-0.3,0-0.4,0c-8.6-0.1-17.3-2.5-24.4-7.1c-0.3-0.2-0.6-0.4-0.9-0.6
						c-0.1-0.1-0.2-0.2-0.4-0.3c-7.5-5.3-11.5-12.1-12-18.9c-0.3-4.1,0.7-8.2,3-11.9C228.5,286.7,231.6,283.6,231.8,283.4z"/>
				</g>
				<g class="st3">
					<defs>
						<path id="SVGID_37_" class="st3" d="M309.6,297.4l-0.3,3.4c-0.7,7.9-5,15.5-12.8,21.5c-4,3.1-8.7,5.5-13.7,7.2
							c-0.6,0.2-1.1,0.4-1.7,0.6c-0.5,0.1-0.9,0.3-1.4,0.4c-5.7,1.6-11.9,2.4-18.1,2.4c-10.8-0.1-21.7-2.7-31-7.8l0.3-3.4
							c9.3,5.1,20.3,7.7,31,7.8c6.2,0,12.3-0.7,18.1-2.4c0.5-0.1,0.9-0.3,1.4-0.4c0.6-0.2,1.2-0.4,1.7-0.6c5-1.7,9.7-4.1,13.7-7.2
							C304.6,312.9,308.9,305.3,309.6,297.4z"/>
					</defs>
					<clipPath id="SVGID_38_">
						<use xlink:href="#SVGID_37_"  style="overflow:visible;"/>
					</clipPath>
					<g class="st39">
						<path class="st8" d="M309.6,297.4l-0.3,3.4c-0.1,1.6-0.4,3.2-0.9,4.7l0.3-3.4C309.1,300.6,309.4,299,309.6,297.4"/>
						<path class="st10" d="M308.7,302.2l-0.3,3.4c-0.7,2.4-1.7,4.8-3.1,7.1l0.3-3.4C307,307,308,304.6,308.7,302.2"/>
						<path class="st11" d="M305.6,309.2l-0.3,3.4c-2.1,3.5-5.1,6.8-8.9,9.7c-4,3.1-8.7,5.5-13.7,7.2c-0.6,0.2-1.1,0.4-1.7,0.6
							c-0.5,0.1-0.9,0.3-1.4,0.4c-0.5,0.1-0.9,0.3-1.4,0.4l0.3-3.4c0.5-0.1,0.9-0.2,1.4-0.4c0.5-0.1,0.9-0.3,1.4-0.4
							c0.6-0.2,1.2-0.4,1.7-0.6c5-1.7,9.7-4.1,13.7-7.2C300.6,316.1,303.5,312.8,305.6,309.2"/>
						<path class="st10" d="M278.6,327.5l-0.3,3.4c-3.2,0.8-6.6,1.4-10,1.7l0.3-3.4C272,328.9,275.3,328.4,278.6,327.5"/>
						<path class="st8" d="M268.6,329.2l-0.3,3.4c-2.2,0.2-4.5,0.3-6.7,0.3c-0.7,0-1.4,0-2.1,0l0.3-3.4c0.7,0,1.4,0,2.1,0
							C264.1,329.5,266.4,329.4,268.6,329.2"/>
						<path class="st7" d="M259.8,329.5l-0.3,3.4c-2.9-0.1-5.8-0.4-8.7-0.9l0.3-3.4C253.9,329.1,256.8,329.4,259.8,329.5"/>
						<path class="st6" d="M251,328.6l-0.3,3.4c-3.2-0.5-6.5-1.3-9.6-2.3l0.3-3.4C244.6,327.3,247.8,328,251,328.6"/>
						<path class="st5" d="M241.5,326.3l-0.3,3.4c-3.7-1.2-7.3-2.7-10.6-4.6l0.3-3.4C234.2,323.5,237.8,325.1,241.5,326.3"/>
					</g>
				</g>
				<g>
					<path class="st30" d="M296.9,270c1.2,0.6,9.4,8.9,12.4,20.4c1.8,10.3-2.3,20.8-12.5,28.6c-4,3.1-8.7,5.5-13.7,7.2
						c-0.6,0.2-1.1,0.4-1.7,0.6c-0.5,0.1-0.9,0.3-1.4,0.4c-5.7,1.6-11.9,2.4-18.1,2.4c-10.8-0.1-21.7-2.7-31-7.8
						c-10.6-6.5-15.7-14.1-16-14.5c0.1-0.2,2.5-4.9,5.6-10.5c0.8-1.5,2.9-4,5-6.5c-2.3,3.7-3.3,7.8-3,11.9c0.5,6.8,4.5,13.7,12,18.9
						c0.1,0.1,0.2,0.2,0.4,0.3c0.3,0.2,0.6,0.4,0.9,0.6c7.1,4.6,15.8,6.9,24.4,7.1c0.1,0,0.3,0,0.4,0c0.1,0,0.3,0,0.4,0
						c9.2,0,18.2-2.6,24.8-7.7c5.6-4.3,8.7-9.7,9.3-15.3c10.6-6.3,9.8-16.5,9-21.2C302.7,276.9,297.2,270.3,296.9,270z"/>
				</g>
			</g>
		</g>
	</g>
</g>
<g>
	<g>
		
			<linearGradient id="SVGID_39_" gradientUnits="userSpaceOnUse" x1="113.0687" y1="-75.1944" x2="323.4508" y2="-75.1944" gradientTransform="matrix(1 0 0 -1 0 172)">
			<stop  offset="0" style="stop-color:#4F3E90"/>
			<stop  offset="1" style="stop-color:#171A31"/>
		</linearGradient>
		<path class="st40" d="M114.7,239.6c0,0-4.1,2,0.7,7.2s103.4,59.5,103.4,59.5s8.1,4.3,14.2,0l89.9-52.7c0,0,2.3-3.4-2.5-5.9
			L217.1,188c0,0-5.2-4.1-12.2,0S114.7,239.6,114.7,239.6z"/>
		
			<linearGradient id="SVGID_40_" gradientUnits="userSpaceOnUse" x1="113.0997" y1="-109.4174" x2="323.5673" y2="-109.4174" gradientTransform="matrix(1 0 0 -1 0 172)">
			<stop  offset="0" style="stop-color:#463780"/>
			<stop  offset="0.1433" style="stop-color:#382E68"/>
			<stop  offset="0.3308" style="stop-color:#292550"/>
			<stop  offset="0.5289" style="stop-color:#1F1F3F"/>
			<stop  offset="0.7426" style="stop-color:#191B34"/>
			<stop  offset="1" style="stop-color:#171A31"/>
		</linearGradient>
		<path class="st41" d="M113.1,254.4v-12.3c0,0-0.1,3.3,3.6,5.8s28.7,17.3,28.7,17.3l37.4,21.1l35.5,19.7c0,0,7.9,4.4,14.3,0.6
			c6.4-3.8,90.4-53,90.4-53s0.8-1.1,0.5-2.9V264c0,1.2-0.6,2.2-1.6,2.8l-88.1,51.4c0,0-8.9,6.6-17.7-1.5l-101.2-59.2
			C113.8,256.8,113.1,255.7,113.1,254.4L113.1,254.4z"/>
	</g>
	<g>
		<g>
			<g class="st3">
				<g class="st3">
					<defs>
						<path id="SVGID_41_" class="st3" d="M260.5,224.9c-7.5-4.8-16.8-7.2-25.9-7.3c0.1-1.1,0.2-2.3,0.3-3.4
							c9.1,0.1,18.3,2.6,25.9,7.3C260.7,222.7,260.6,223.8,260.5,224.9z"/>
					</defs>
					<clipPath id="SVGID_42_">
						<use xlink:href="#SVGID_41_"  style="overflow:visible;"/>
					</clipPath>
					<g class="st42">
						<path class="st5" d="M262.4,222.6l-0.3,3.4c-0.3-0.2-0.6-0.4-1-0.7c-0.2-0.1-0.4-0.3-0.6-0.4c-3.2-2-6.7-3.6-10.4-4.8l0.3-3.4
							c3.7,1.2,7.2,2.8,10.4,4.8c0.2,0.1,0.4,0.3,0.6,0.4C261.7,222.1,262.1,222.4,262.4,222.6"/>
						<path class="st6" d="M250.4,216.7l-0.3,3.4c-2.4-0.8-4.9-1.4-7.4-1.8l0.3-3.4C245.5,215.3,248,215.9,250.4,216.7"/>
						<path class="st7" d="M243.1,214.9l-0.3,3.4c-2.2-0.4-4.5-0.6-6.7-0.7l0.3-3.4C238.6,214.3,240.8,214.5,243.1,214.9"/>
						<path class="st8" d="M236.3,214.2l-0.3,3.4c-0.5,0-0.9,0-1.4,0c-1.8,0-3.5,0.1-5.3,0.2l0.3-3.4c1.7-0.2,3.5-0.2,5.3-0.2
							C235.4,214.2,235.9,214.2,236.3,214.2"/>
					</g>
				</g>
				<g class="st3">
					<defs>
						<path id="SVGID_43_" class="st3" d="M261.1,225.3c-0.2-0.1-0.4-0.3-0.6-0.4c0.1-1.1,0.2-2.3,0.3-3.4c0.2,0.1,0.4,0.3,0.6,0.4
							C261.3,223.1,261.2,224.2,261.1,225.3z"/>
					</defs>
					<clipPath id="SVGID_44_">
						<use xlink:href="#SVGID_43_"  style="overflow:visible;"/>
					</clipPath>
					<g class="st43">
						<path class="st5" d="M262.4,222.6l-0.3,3.4c-0.3-0.2-0.6-0.4-1-0.7c-0.2-0.1-0.4-0.3-0.6-0.4c-3.2-2-6.7-3.6-10.4-4.8l0.3-3.4
							c3.7,1.2,7.2,2.8,10.4,4.8c0.2,0.1,0.4,0.3,0.6,0.4C261.7,222.1,262.1,222.4,262.4,222.6"/>
					</g>
				</g>
				<g class="st3">
					<defs>
						<path id="SVGID_45_" class="st3" d="M262.1,226c-0.3-0.2-0.6-0.4-1-0.7c0.1-1.1,0.2-2.3,0.3-3.4c0.3,0.2,0.7,0.4,1,0.7
							C262.3,223.6,262.2,225,262.1,226z"/>
					</defs>
					<clipPath id="SVGID_46_">
						<use xlink:href="#SVGID_45_"  style="overflow:visible;"/>
					</clipPath>
					<g class="st44">
						<path class="st5" d="M262.4,222.6l-0.3,3.4c-0.3-0.2-0.6-0.4-1-0.7c-0.2-0.1-0.4-0.3-0.6-0.4c-3.2-2-6.7-3.6-10.4-4.8l0.3-3.4
							c3.7,1.2,7.2,2.8,10.4,4.8c0.2,0.1,0.4,0.3,0.6,0.4C261.7,222.1,262.1,222.4,262.4,222.6"/>
					</g>
				</g>
				<g class="st3">
					<defs>
						<path id="SVGID_47_" class="st3" d="M207.7,225.7c0.1-1.1,0.2-2.3,0.3-3.4c7.1-5.4,16.7-8.1,27-8.1c-0.1,1.1-0.2,2.3-0.3,3.4
							C224.4,217.6,214.8,220.3,207.7,225.7z"/>
					</defs>
					<clipPath id="SVGID_48_">
						<use xlink:href="#SVGID_47_"  style="overflow:visible;"/>
					</clipPath>
					<g class="st45">
						<path class="st8" d="M236.3,214.2l-0.3,3.4c-0.5,0-0.9,0-1.4,0c-1.8,0-3.5,0.1-5.3,0.2l0.3-3.4c1.7-0.2,3.5-0.2,5.3-0.2
							C235.4,214.2,235.9,214.2,236.3,214.2"/>
						<path class="st10" d="M229.7,214.4l-0.3,3.4c-2.7,0.2-5.3,0.7-7.8,1.3l0.3-3.4C224.3,215.1,227,214.7,229.7,214.4"/>
						<path class="st11" d="M221.8,215.7l-0.3,3.4c-5.2,1.3-9.9,3.5-13.9,6.5c-2.9,2.2-5.2,4.8-6.8,7.5l0.3-3.4
							c1.6-2.7,3.9-5.2,6.8-7.5C211.9,219.3,216.6,217.1,221.8,215.7"/>
					</g>
				</g>
				<g class="st3">
					<defs>
						<path id="SVGID_49_" class="st3" d="M238,233.5l-0.3,3.4c-3.9-1.1-7.9-1.7-11.9-1.9l0.3-3.4
							C230.1,231.8,234.1,232.4,238,233.5z"/>
					</defs>
					<clipPath id="SVGID_50_">
						<use xlink:href="#SVGID_49_"  style="overflow:visible;"/>
					</clipPath>
					<g class="st46">
						<path class="st15" d="M238,233.5l-0.3,3.4c-1.8-0.5-3.6-0.9-5.4-1.2l0.3-3.4C234.4,232.6,236.2,233,238,233.5"/>
						<path class="st16" d="M232.5,232.3l-0.3,3.4c-2.1-0.4-4.3-0.6-6.5-0.7l0.3-3.4C228.2,231.7,230.4,231.9,232.5,232.3"/>
					</g>
				</g>
				<g class="st3">
					<defs>
						<path id="SVGID_51_" class="st3" d="M207.7,225.7c-5.2,4-8.3,8.8-9.4,13.9l0.3-3.4c1.1-5.1,4.3-10,9.4-13.9
							C207.9,223.4,207.8,224.6,207.7,225.7z"/>
					</defs>
					<clipPath id="SVGID_52_">
						<use xlink:href="#SVGID_51_"  style="overflow:visible;"/>
					</clipPath>
					<g class="st47">
						<path class="st11" d="M221.8,215.7l-0.3,3.4c-5.2,1.3-9.9,3.5-13.9,6.5c-2.9,2.2-5.2,4.8-6.8,7.5l0.3-3.4
							c1.6-2.7,3.9-5.2,6.8-7.5C211.9,219.3,216.6,217.1,221.8,215.7"/>
						<path class="st10" d="M201.2,229.7l-0.3,3.4c-1.1,1.8-1.8,3.6-2.4,5.4l0.3-3.4C199.3,233.3,200.1,231.5,201.2,229.7"/>
						<path class="st8" d="M198.8,235.2l-0.3,3.4c-0.1,0.3-0.2,0.7-0.3,1l0.3-3.4C198.6,235.9,198.7,235.5,198.8,235.2"/>
					</g>
				</g>
				<g class="st3">
					<defs>
						<path id="SVGID_53_" class="st3" d="M226.1,231.6l-0.3,3.4c-1.7-0.1-3.4-0.2-5-0.2c-9.3-0.1-16.6,1.9-22.5,4.8l0.3-3.4
							c5.9-3,13.2-4.9,22.5-4.8C222.7,231.4,224.3,231.5,226.1,231.6z"/>
					</defs>
					<clipPath id="SVGID_54_">
						<use xlink:href="#SVGID_53_"  style="overflow:visible;"/>
					</clipPath>
					<g class="st48">
						<path class="st16" d="M226.1,231.6l-0.3,3.4c-1-0.1-2-0.1-3-0.2l0.3-3.4C224.1,231.5,225.1,231.5,226.1,231.6"/>
						<path class="st18" d="M223.1,231.4l-0.3,3.4c-0.7,0-1.4,0-2,0c-2,0-4,0.1-5.8,0.2l0.3-3.4c1.9-0.2,3.8-0.3,5.8-0.2
							C221.7,231.4,222.4,231.4,223.1,231.4"/>
						<path class="st19" d="M215.2,231.6l-0.3,3.4c-2.8,0.3-5.5,0.7-7.9,1.4l0.3-3.4C209.7,232.3,212.4,231.9,215.2,231.6"/>
						<path class="st20" d="M207.3,233l-0.3,3.4c-3.2,0.8-6.1,1.9-8.7,3.3l0.3-3.4C201.1,234.9,204,233.8,207.3,233"/>
					</g>
				</g>
				<g class="st3">
					<defs>
						<path id="SVGID_55_" class="st3" d="M257.6,244.9l-0.3,3.4c-4-4.6-10.1-9.2-19.6-11.4l0.3-3.4
							C247.5,235.7,253.6,240.2,257.6,244.9z"/>
					</defs>
					<clipPath id="SVGID_56_">
						<use xlink:href="#SVGID_55_"  style="overflow:visible;"/>
					</clipPath>
					<g class="st49">
						<path class="st23" d="M257.6,244.9l-0.3,3.4c-3.4-4-8.5-8-15.9-10.4l0.3-3.4C249.1,236.9,254.2,240.9,257.6,244.9"/>
						<path class="st15" d="M241.7,234.5l-0.3,3.4c-1.2-0.4-2.4-0.7-3.7-1l0.3-3.4C239.3,233.8,240.5,234.1,241.7,234.5"/>
					</g>
				</g>
				<g class="st3">
					<defs>
						<path id="SVGID_57_" class="st3" d="M274.4,248.4l-0.3,3.4c0.3-2.9,0-5.4-0.3-7.2c-1.4-8.4-7.2-15.4-7.5-15.8l0.3-3.4
							c0.3,0.4,6.1,7.3,7.5,15.8C274.3,243,274.6,245.6,274.4,248.4z"/>
					</defs>
					<clipPath id="SVGID_58_">
						<use xlink:href="#SVGID_57_"  style="overflow:visible;"/>
					</clipPath>
					<g class="st50">
						<path class="st5" d="M274.4,248.4l-0.3,3.4c0.3-2.9,0-5.4-0.3-7.2c-1.4-8.4-7.2-15.4-7.5-15.8l0.3-3.4
							c0.3,0.4,6.1,7.3,7.5,15.8C274.3,243,274.6,245.6,274.4,248.4"/>
					</g>
				</g>
				<g class="st3">
					<defs>
						<path id="SVGID_59_" class="st3" d="M271.4,244l-0.3,3.4c-0.8,8.4-6.5,13.8-7,14.3l0.3-3.4C264.9,257.8,270.6,252.4,271.4,244
							z"/>
					</defs>
					<clipPath id="SVGID_60_">
						<use xlink:href="#SVGID_59_"  style="overflow:visible;"/>
					</clipPath>
					<g class="st51">
						<path class="st18" d="M271.4,244l-0.3,3.4c-0.1,1.3-0.4,2.5-0.7,3.7l0.3-3.4C271,246.5,271.3,245.3,271.4,244"/>
						<path class="st19" d="M270.7,247.7l-0.3,3.4c-0.6,2.2-1.5,4.2-2.5,5.7l0.3-3.4C269.1,251.8,270.1,249.9,270.7,247.7"/>
						<path class="st20" d="M268.2,253.4l-0.3,3.4c-1.7,2.9-3.6,4.6-3.8,4.8l0.3-3.4C264.6,258,266.5,256.3,268.2,253.4"/>
					</g>
				</g>
				<g>
					<path class="st25" d="M234.7,214.2c0.1,0,0.2,0,0.2,0c9.1,0.1,18.3,2.6,25.9,7.3c0.2,0.1,0.4,0.3,0.6,0.4
						c0.3,0.2,0.7,0.4,1,0.7c18.7,20,2.8,34.9,2,35.6c-0.7-4.7-3-9.2-6.8-13.3c-4-4.6-10.1-9.2-19.6-11.4c-3.9-1.1-7.9-1.7-11.9-1.9
						c-1.7-0.1-3.4-0.2-5-0.2c-9.3-0.1-16.6,1.9-22.5,4.8c1.1-5.1,4.3-10,9.4-13.9c7.1-5.4,16.7-8.1,26.5-8.1
						C234.6,214.2,234.6,214.2,234.7,214.2z"/>
				</g>
				<g class="st3">
					<defs>
						<path id="SVGID_61_" class="st3" d="M264.4,258.2l-0.3,3.4c-0.7-4.7-3-9.2-6.8-13.3l0.3-3.4
							C261.4,249,263.7,253.6,264.4,258.2z"/>
					</defs>
					<clipPath id="SVGID_62_">
						<use xlink:href="#SVGID_61_"  style="overflow:visible;"/>
					</clipPath>
					<g class="st52">
						<path class="st23" d="M264.4,258.2l-0.3,3.4c-0.7-4.7-3-9.2-6.8-13.3l0.3-3.4C261.4,249,263.7,253.6,264.4,258.2"/>
					</g>
				</g>
				<g class="st3">
					<defs>
						<path id="SVGID_63_" class="st3" d="M173.5,248.1l0.3-3.4c-0.3,3.3,0,6.6,0.8,9.9l-0.3,3.4
							C173.5,254.7,173.2,251.4,173.5,248.1z"/>
					</defs>
					<clipPath id="SVGID_64_">
						<use xlink:href="#SVGID_63_"  style="overflow:visible;"/>
					</clipPath>
					<g class="st53">
						<path class="st5" d="M174.6,254.6l-0.3,3.4c-0.8-3.3-1.1-6.6-0.8-9.9l0.3-3.4C173.5,248,173.8,251.3,174.6,254.6"/>
					</g>
				</g>
				<g class="st3">
					<defs>
						<path id="SVGID_65_" class="st3" d="M190.5,250.3c-1.8,2.9-2.9,6.1-3.2,9.3l0.3-3.4c0.3-3.2,1.3-6.4,3.2-9.3
							C190.7,247.9,190.9,249.3,190.5,250.3z"/>
					</defs>
					<clipPath id="SVGID_66_">
						<use xlink:href="#SVGID_65_"  style="overflow:visible;"/>
					</clipPath>
					<g class="st54">
						<path class="st11" d="M190.8,246.9l-0.3,3.4c0,0.1-0.1,0.2-0.1,0.2l0.3-3.4C190.7,247,190.8,247,190.8,246.9"/>
						<path class="st10" d="M190.7,247.1l-0.3,3.4c-1.1,1.8-1.8,3.6-2.4,5.4l0.3-3.4C188.8,250.7,189.6,248.9,190.7,247.1"/>
						<path class="st8" d="M188.3,252.6L188,256c-0.3,1.2-0.6,2.4-0.7,3.6l0.3-3.4C187.8,255,188,253.8,188.3,252.6"/>
					</g>
				</g>
				<g>
					<path class="st30" d="M224.2,210.7c13.1,0.1,26.5,3.8,37.2,10.9c0.3,0.3,0.6,0.6,1,0.9c-0.3-0.2-0.6-0.4-1-0.7
						c-0.2-0.1-0.4-0.3-0.6-0.4c-7.5-4.8-16.8-7.2-25.9-7.3c-10.3,0-19.9,2.7-27,8.1c-5.2,4-8.3,8.8-9.4,13.9
						c-16.9,8.6-21,24.6-21.2,25.4c-1.2-2.5-2.1-4.8-2.7-7c-2.5-9.6-0.1-19.6,7.4-27.8c4.7-4.8,10.3-8,13.5-9.9
						c2.5-1.2,5-2.2,7.7-3.1c3.6-1.1,8-2,12.9-2.7C218.8,210.8,221.5,210.7,224.2,210.7z"/>
				</g>
				<g class="st3">
					<defs>
						<path id="SVGID_67_" class="st3" d="M177.3,261.6l-0.3,3.4c-1.2-2.5-2.1-4.8-2.7-7l0.3-3.4
							C175.2,256.8,176.1,259.2,177.3,261.6z"/>
					</defs>
					<clipPath id="SVGID_68_">
						<use xlink:href="#SVGID_67_"  style="overflow:visible;"/>
					</clipPath>
					<g class="st55">
						<path class="st5" d="M177.3,261.6l-0.3,3.4c-1.2-2.5-2.1-4.8-2.7-7l0.3-3.4C175.2,256.8,176.1,259.2,177.3,261.6"/>
					</g>
				</g>
				<g class="st3">
					<defs>
						<path id="SVGID_69_" class="st3" d="M198.5,236.2l-0.3,3.4c-16.9,8.6-21,24.6-21.2,25.4l0.3-3.4
							C177.6,260.8,181.6,244.8,198.5,236.2z"/>
					</defs>
					<clipPath id="SVGID_70_">
						<use xlink:href="#SVGID_69_"  style="overflow:visible;"/>
					</clipPath>
					<g class="st56">
						<path class="st11" d="M198.5,236.2l-0.3,3.4c-8.6,4.3-13.9,10.6-17,15.8l0.3-3.4C184.7,246.8,190,240.6,198.5,236.2"/>
						<path class="st10" d="M181.5,252l-0.3,3.4c-2.6,4.4-3.8,8-4.1,9.2l0.3-3.4C177.8,260.1,178.9,256.4,181.5,252"/>
						<path class="st8" d="M177.4,261.3l-0.3,3.4c-0.1,0.2-0.1,0.3-0.1,0.4l0.3-3.4C177.4,261.6,177.4,261.4,177.4,261.3"/>
					</g>
				</g>
				<g class="st3">
					<defs>
						<path id="SVGID_71_" class="st3" d="M264.5,263.7l-0.3,3.4c-0.6,5.9-3.9,11.6-9.8,16.2l0.3-3.4
							C260.6,275.3,263.8,269.6,264.5,263.7z"/>
					</defs>
					<clipPath id="SVGID_72_">
						<use xlink:href="#SVGID_71_"  style="overflow:visible;"/>
					</clipPath>
					<g class="st57">
						<path class="st34" d="M264.5,263.7l-0.3,3.4c-0.1,1.1-0.3,2.2-0.6,3.3l0.3-3.4C264.2,265.9,264.4,264.8,264.5,263.7"/>
						<path class="st35" d="M263.9,266.9l-0.3,3.4c-0.5,1.9-1.3,3.7-2.4,5.4l0.3-3.4C262.6,270.6,263.3,268.8,263.9,266.9"/>
						<path class="st36" d="M261.5,272.4l-0.3,3.4c-1.6,2.7-3.9,5.2-6.8,7.5l0.3-3.4C257.6,277.6,259.9,275.1,261.5,272.4"/>
					</g>
				</g>
				<g class="st3">
					<defs>
						<path id="SVGID_73_" class="st3" d="M196.5,280.2l-0.3,3.4c-11.3-6.9-16.6-14.9-16.9-15.3l0.3-3.4
							C179.9,265.3,185.3,273.3,196.5,280.2z"/>
					</defs>
					<clipPath id="SVGID_74_">
						<use xlink:href="#SVGID_73_"  style="overflow:visible;"/>
					</clipPath>
					<g class="st58">
						<path class="st5" d="M196.5,280.2l-0.3,3.4c-11.3-6.9-16.6-14.9-16.9-15.3l0.3-3.4C179.9,265.3,185.3,273.3,196.5,280.2"/>
					</g>
				</g>
				<g class="st3">
					<defs>
						<path id="SVGID_75_" class="st3" d="M279.8,254.5l-0.3,3.4c-0.8,8.4-5.3,16.4-13.6,22.8c-4.3,3.3-9.2,5.8-14.5,7.7
							c-0.6,0.2-1.2,0.4-1.8,0.6c-0.5,0.1-1,0.3-1.5,0.4c-6.1,1.7-12.6,2.5-19.1,2.5c-11.4-0.1-23-2.9-32.9-8.3l0.3-3.4
							c9.9,5.4,21.5,8.2,32.9,8.3c6.5,0.1,13-0.8,19.1-2.5c0.5-0.1,1-0.3,1.5-0.4c0.6-0.2,1.2-0.4,1.8-0.6
							c5.3-1.8,10.2-4.4,14.5-7.7C274.6,270.9,279.1,262.9,279.8,254.5z"/>
					</defs>
					<clipPath id="SVGID_76_">
						<use xlink:href="#SVGID_75_"  style="overflow:visible;"/>
					</clipPath>
					<g class="st59">
						<path class="st8" d="M279.8,254.5l-0.3,3.4c-0.2,1.7-0.5,3.4-0.9,5l0.3-3.4C279.4,257.9,279.7,256.2,279.8,254.5"/>
						<path class="st10" d="M278.9,259.5l-0.3,3.4c-0.7,2.6-1.8,5.1-3.3,7.5l0.3-3.4C277.1,264.6,278.2,262.1,278.9,259.5"/>
						<path class="st11" d="M275.7,267l-0.3,3.4c-2.2,3.7-5.4,7.2-9.4,10.3c-4.3,3.3-9.2,5.8-14.5,7.7c-0.6,0.2-1.2,0.4-1.8,0.6
							c-0.5,0.1-1,0.3-1.5,0.4c-0.5,0.1-1,0.3-1.5,0.4l0.3-3.4c0.5-0.1,1-0.3,1.5-0.4c0.5-0.1,1-0.3,1.5-0.4
							c0.6-0.2,1.2-0.4,1.8-0.6c5.3-1.8,10.2-4.4,14.5-7.7C270.3,274.2,273.4,270.7,275.7,267"/>
						<path class="st10" d="M247,286.4l-0.3,3.4c-3.4,0.9-7,1.5-10.5,1.8l0.3-3.4C240.1,287.8,243.6,287.2,247,286.4"/>
						<path class="st8" d="M236.5,288.2l-0.3,3.4c-2.3,0.2-4.7,0.3-7.1,0.3c-0.8,0-1.5,0-2.3-0.1l0.3-3.4c0.8,0,1.5,0,2.3,0.1
							C231.8,288.5,234.1,288.4,236.5,288.2"/>
						<path class="st7" d="M227.1,288.4l-0.3,3.4c-3.1-0.1-6.2-0.4-9.2-0.9l0.3-3.4C220.9,288,224,288.3,227.1,288.4"/>
						<path class="st6" d="M217.9,287.5l-0.3,3.4c-3.4-0.6-6.8-1.4-10.1-2.5l0.3-3.4C211.1,286.1,214.5,286.9,217.9,287.5"/>
						<path class="st5" d="M207.8,285l-0.3,3.4c-3.9-1.3-7.7-2.9-11.2-4.8l0.3-3.4C200.1,282.1,203.8,283.7,207.8,285"/>
					</g>
				</g>
				<g>
					<path class="st30" d="M266.5,225.4c1.3,0.6,10,9.4,13.1,21.5c1.9,10.9-2.5,22-13.3,30.3c-4.3,3.3-9.2,5.8-14.5,7.7
						c-0.6,0.2-1.2,0.4-1.8,0.6c-0.5,0.1-1,0.3-1.5,0.4c-6.1,1.7-12.6,2.5-19.1,2.5c-11.4-0.1-23-2.9-32.9-8.3
						c-11.3-6.9-16.6-14.9-16.9-15.3c0.1-0.3,2.7-5.2,5.9-11.2c0.9-1.6,3.1-4.3,5.3-6.8c-2.4,3.9-3.5,8.3-3.2,12.6
						c0.5,7.2,4.7,14.5,12.7,20c7.8,5.5,17.7,8.3,27.4,8.4c9.4,0,18.2-2.2,25-6.7c0.2-0.1,0.3-0.2,0.5-0.3c0.5-0.3,1-0.7,1.5-1.1
						c5.9-4.5,9.1-10.2,9.8-16.2c11.2-6.7,10.3-17.5,9.5-22.4C272.6,232.8,266.8,225.8,266.5,225.4z"/>
				</g>
				<g>
					<path class="st38" d="M197.5,239.7c0,0.1,0.2,2.1,0.9,5.1c0.6,3.1,1.9,6.1,3.9,9c0.6,0.9,1.2,1.7,1.9,2.5
						c1.8,2.1,4,4.1,6.5,5.9c0.9,0.6,1.8,1.2,2.7,1.7c6.3,3.9,14.5,6.8,24.1,6.9c4.1,0,8.6-0.5,13.2-1.7c0.2-0.1,0.4-0.1,0.6-0.2
						c0.8-0.2,1.5-0.4,2.2-0.6c0.4-0.1,0.8-0.2,1.2-0.4c3.9-1.3,7.1-2.7,9.8-4.3c-0.6,5.9-3.9,11.6-9.8,16.2c-0.5,0.4-1,0.7-1.5,1.1
						c-0.2,0.1-0.3,0.2-0.5,0.3c-6.9,4.5-15.6,6.8-24.6,6.7c-0.1,0-0.2,0-0.2,0c-0.1,0-0.2,0-0.2,0c-9.7-0.1-19.6-2.9-27.4-8.4
						c-7.9-5.6-12.2-12.8-12.7-20c-0.3-4.3,0.8-8.7,3.2-12.6C194.1,243.2,197.3,239.8,197.5,239.7z"/>
				</g>
			</g>
		</g>
	</g>
</g>
<g>
	
		<linearGradient id="SVGID_77_" gradientUnits="userSpaceOnUse" x1="78.9687" y1="-37.4944" x2="289.3508" y2="-37.4944" gradientTransform="matrix(1 0 0 -1 0 172)">
		<stop  offset="0" style="stop-color:#4F3E90"/>
		<stop  offset="1" style="stop-color:#171A31"/>
	</linearGradient>
	<path class="st60" d="M80.6,201.9c0,0-4.1,2,0.7,7.2s103.4,59.5,103.4,59.5s8.1,4.3,14.2,0l89.9-52.7c0,0,2.3-3.4-2.5-5.9
		L183,150.3c0,0-5.2-4.1-12.2,0C163.8,154.3,80.6,201.9,80.6,201.9z"/>
	
		<linearGradient id="SVGID_78_" gradientUnits="userSpaceOnUse" x1="78.9997" y1="-71.7174" x2="289.4673" y2="-71.7174" gradientTransform="matrix(1 0 0 -1 0 172)">
		<stop  offset="0" style="stop-color:#463780"/>
		<stop  offset="0.1433" style="stop-color:#382E68"/>
		<stop  offset="0.3308" style="stop-color:#292550"/>
		<stop  offset="0.5289" style="stop-color:#1F1F3F"/>
		<stop  offset="0.7426" style="stop-color:#191B34"/>
		<stop  offset="1" style="stop-color:#171A31"/>
	</linearGradient>
	<path class="st61" d="M79,216.7v-12.3c0,0-0.1,3.3,3.6,5.8s28.7,17.3,28.7,17.3l37.4,21.1l35.5,19.7c0,0,7.9,4.4,14.3,0.6
		c6.4-3.8,90.4-53,90.4-53s0.8-1.1,0.5-2.9v13.3c0,1.2-0.6,2.2-1.6,2.8l-88.1,51.4c0,0-8.9,6.6-17.7-1.5L80.7,219.8
		C79.7,219.1,79,218,79,216.7L79,216.7z"/>
	<g>
		<g>
			<g class="st3">
				<g class="st3">
					<defs>
						<path id="SVGID_79_" class="st3" d="M222.2,184.2c-7.8-5.5-17.7-8.3-27.5-8.4c0.1-1.1,0.2-2.3,0.3-3.4
							c9.8,0.1,19.7,2.9,27.5,8.4C222.4,181.8,222.2,183.1,222.2,184.2z"/>
					</defs>
					<clipPath id="SVGID_80_">
						<use xlink:href="#SVGID_79_"  style="overflow:visible;"/>
					</clipPath>
					<g class="st62">
						<path class="st5" d="M222.5,180.7l-0.3,3.4c-3.6-2.5-7.7-4.5-12-5.9l0.3-3.4C214.8,176.2,218.8,178.2,222.5,180.7"/>
						<path class="st6" d="M210.5,174.8l-0.3,3.4c-2.4-0.8-4.9-1.4-7.4-1.8l0.3-3.4C205.6,173.5,208.1,174.1,210.5,174.8"/>
						<path class="st7" d="M203.1,173l-0.3,3.4c-2.2-0.4-4.5-0.6-6.7-0.7l0.3-3.4C198.6,172.4,200.9,172.7,203.1,173"/>
						<path class="st8" d="M196.4,172.4l-0.3,3.4c-0.5,0-0.9,0-1.4,0c-1.8,0-3.6,0.1-5.3,0.2l0.3-3.4c1.7-0.2,3.5-0.2,5.3-0.2
							C195.4,172.3,195.9,172.3,196.4,172.4"/>
					</g>
				</g>
				<g class="st3">
					<defs>
						<path id="SVGID_81_" class="st3" d="M167.6,183.8c0.1-1.1,0.2-2.3,0.3-3.4c7.1-5.4,16.7-8.1,27-8.1c-0.1,1.1-0.2,2.3-0.3,3.4
							C184.4,175.7,174.8,178.4,167.6,183.8z"/>
					</defs>
					<clipPath id="SVGID_82_">
						<use xlink:href="#SVGID_81_"  style="overflow:visible;"/>
					</clipPath>
					<g class="st63">
						<path class="st8" d="M196.4,172.4l-0.3,3.4c-0.5,0-0.9,0-1.4,0c-1.8,0-3.6,0.1-5.3,0.2l0.3-3.4c1.7-0.2,3.5-0.2,5.3-0.2
							C195.4,172.3,195.9,172.3,196.4,172.4"/>
						<path class="st10" d="M189.7,172.5l-0.3,3.4c-2.7,0.2-5.3,0.7-7.9,1.3l0.3-3.4C184.4,173.2,187,172.8,189.7,172.5"/>
						<path class="st11" d="M181.8,173.9l-0.3,3.4c-5.2,1.3-9.9,3.5-13.9,6.5c-2.9,2.2-5.2,4.8-6.8,7.5l0.3-3.4
							c1.6-2.7,3.9-5.2,6.8-7.5C171.9,177.4,176.6,175.2,181.8,173.9"/>
					</g>
				</g>
				<g class="st3">
					<defs>
						<path id="SVGID_83_" class="st3" d="M198,191.7l-0.3,3.4c-3.9-1.1-7.9-1.7-11.9-1.9l0.3-3.4
							C190.1,189.9,194.1,190.6,198,191.7z"/>
					</defs>
					<clipPath id="SVGID_84_">
						<use xlink:href="#SVGID_83_"  style="overflow:visible;"/>
					</clipPath>
					<g class="st64">
						<path class="st15" d="M198,191.7l-0.3,3.4c-1.8-0.5-3.6-0.9-5.4-1.2l0.3-3.4C194.4,190.8,196.2,191.2,198,191.7"/>
						<path class="st16" d="M192.6,190.5l-0.3,3.4c-2.1-0.4-4.3-0.6-6.5-0.7l0.3-3.4C188.3,189.9,190.4,190.1,192.6,190.5"/>
					</g>
				</g>
				<g class="st3">
					<defs>
						<path id="SVGID_85_" class="st3" d="M186.1,189.8l-0.3,3.4c-1.7-0.1-3.4-0.2-5.1-0.2c-9.3-0.1-16.7,1.9-22.5,4.9l0.3-3.4
							c5.9-3,13.3-4.9,22.5-4.9C182.7,189.6,184.4,189.6,186.1,189.8z"/>
					</defs>
					<clipPath id="SVGID_86_">
						<use xlink:href="#SVGID_85_"  style="overflow:visible;"/>
					</clipPath>
					<g class="st65">
						<path class="st16" d="M186.1,189.8l-0.3,3.4c-1-0.1-2.1-0.1-3-0.2l0.3-3.4C184,189.6,185.1,189.7,186.1,189.8"/>
						<path class="st18" d="M183.1,189.6l-0.3,3.4c-0.7,0-1.4,0-2,0c-2,0-4,0.1-5.8,0.2l0.3-3.4c1.9-0.2,3.8-0.3,5.8-0.2
							C181.7,189.5,182.4,189.6,183.1,189.6"/>
						<path class="st19" d="M175.2,189.8l-0.3,3.4c-2.8,0.3-5.5,0.7-7.9,1.4l0.3-3.4C169.7,190.5,172.4,190,175.2,189.8"/>
						<path class="st20" d="M167.3,191.1l-0.3,3.4c-3.2,0.8-6.2,2-8.8,3.3l0.3-3.4C161.1,193.1,164,192,167.3,191.1"/>
					</g>
				</g>
				<g class="st3">
					<defs>
						<path id="SVGID_87_" class="st3" d="M167.6,183.8c0,0,0,0-9.4,14l9.7-17.4c0,0,0,0-9.4,14c1.1-5.1,4.3-10,9.4-14
							C167.8,181.6,167.7,182.7,167.6,183.8z"/>
					</defs>
					<clipPath id="SVGID_88_">
						<use xlink:href="#SVGID_87_"  style="overflow:visible;"/>
					</clipPath>
					<g class="st66">
						<path class="st11" d="M181.8,173.9l-0.3,3.4c-5.2,1.3-9.9,3.5-13.9,6.5c-2.9,2.2-5.2,4.8-6.8,7.5l0.3-3.4
							c1.6-2.7,3.9-5.2,6.8-7.5C171.9,177.4,176.6,175.2,181.8,173.9"/>
						<path class="st10" d="M161.1,187.9l-0.3,3.4c-1.1,1.8-1.8,3.6-2.4,5.5l0.3-3.4C159.3,191.5,160.1,189.6,161.1,187.9"/>
						<path class="st8" d="M158.8,193.3l-0.3,3.4c-0.1,0.4-0.2,0.7-0.3,1.1l0.3-3.4C158.6,194,158.7,193.7,158.8,193.3"/>
					</g>
				</g>
				<g class="st3">
					<defs>
						<path id="SVGID_89_" class="st3" d="M217.6,203.1l-0.3,3.4c-4-4.6-10.1-9.2-19.6-11.4l0.3-3.4
							C207.5,193.8,213.7,198.4,217.6,203.1z"/>
					</defs>
					<clipPath id="SVGID_90_">
						<use xlink:href="#SVGID_89_"  style="overflow:visible;"/>
					</clipPath>
					<g class="st67">
						<path class="st23" d="M217.6,203.1l-0.3,3.4c-3.4-4-8.5-8-15.9-10.4l0.3-3.4C209.2,195.1,214.2,199.1,217.6,203.1"/>
						<path class="st15" d="M201.7,192.7l-0.3,3.4c-1.2-0.4-2.4-0.7-3.7-1l0.3-3.4C199.3,192,200.5,192.3,201.7,192.7"/>
					</g>
				</g>
				<g class="st3">
					<defs>
						<path id="SVGID_91_" class="st3" d="M234.4,206.6l-0.3,3.4c0.3-2.9,0-5.4-0.3-7.2c-1.4-8.5-7.3-15.4-7.6-15.8l0.3-3.4
							c0.3,0.4,6.1,7.3,7.6,15.8C234.4,201.2,234.7,203.8,234.4,206.6z"/>
					</defs>
					<clipPath id="SVGID_92_">
						<use xlink:href="#SVGID_91_"  style="overflow:visible;"/>
					</clipPath>
					<g class="st68">
						<path class="st5" d="M234.4,206.6l-0.3,3.4c0.3-2.9,0-5.4-0.3-7.2c-1.4-8.5-7.3-15.4-7.6-15.8l0.3-3.4
							c0.3,0.4,6.1,7.3,7.6,15.8C234.4,201.2,234.7,203.8,234.4,206.6"/>
					</g>
				</g>
				<g class="st3">
					<defs>
						<path id="SVGID_93_" class="st3" d="M224.5,216.4l-0.3,3.4c-0.7-4.7-3-9.3-6.8-13.4l0.3-3.4
							C221.5,207.2,223.7,211.8,224.5,216.4z"/>
					</defs>
					<clipPath id="SVGID_94_">
						<use xlink:href="#SVGID_93_"  style="overflow:visible;"/>
					</clipPath>
					<g class="st69">
						<path class="st23" d="M224.5,216.4l-0.3,3.4c-0.7-4.7-3-9.3-6.8-13.4l0.3-3.4C221.5,207.2,223.7,211.8,224.5,216.4"/>
					</g>
				</g>
				<g class="st3">
					<defs>
						<path id="SVGID_95_" class="st3" d="M231.5,202.2l-0.3,3.4c-0.8,8.4-6.5,13.8-7,14.3l0.3-3.4
							C224.9,216,230.7,210.6,231.5,202.2z"/>
					</defs>
					<clipPath id="SVGID_96_">
						<use xlink:href="#SVGID_95_"  style="overflow:visible;"/>
					</clipPath>
					<g class="st70">
						<path class="st18" d="M231.5,202.2l-0.3,3.4c-0.1,1.3-0.4,2.5-0.7,3.7l0.3-3.4C231.1,204.7,231.3,203.5,231.5,202.2"/>
						<path class="st19" d="M230.8,205.8l-0.3,3.4c-0.6,2.2-1.6,4.2-2.5,5.8l0.3-3.4C229.2,210,230.2,208.1,230.8,205.8"/>
						<path class="st20" d="M228.3,211.6L228,215c-1.7,2.9-3.6,4.6-3.8,4.8l0.3-3.4C224.7,216.2,226.6,214.5,228.3,211.6"/>
					</g>
				</g>
				<g>
					<path class="st25" d="M194.7,172.3c0.1,0,0.2,0,0.2,0c9.8,0.1,19.7,2.9,27.5,8.4c18.7,20,2.8,34.9,2,35.7
						c-0.7-4.7-3-9.3-6.8-13.4c-4-4.6-10.1-9.2-19.6-11.4c-3.9-1.1-7.9-1.7-11.9-1.9c-1.7-0.1-3.4-0.2-5.1-0.2
						c-9.3-0.1-16.7,1.9-22.5,4.9c1.1-5.1,4.3-10,9.4-14c7.1-5.4,16.7-8.1,26.6-8.1C194.6,172.3,194.7,172.3,194.7,172.3z"/>
				</g>
				<g class="st3">
					<defs>
						<path id="SVGID_97_" class="st3" d="M133.4,206.3l0.3-3.4c-0.3,3.3,0,6.6,0.8,9.9l-0.3,3.4
							C133.4,212.9,133.1,209.6,133.4,206.3z"/>
					</defs>
					<clipPath id="SVGID_98_">
						<use xlink:href="#SVGID_97_"  style="overflow:visible;"/>
					</clipPath>
					<g class="st71">
						<path class="st5" d="M134.5,212.8l-0.3,3.4c-0.8-3.3-1.1-6.6-0.8-9.9l0.3-3.4C133.4,206.2,133.7,209.5,134.5,212.8"/>
					</g>
				</g>
				<g class="st3">
					<defs>
						<path id="SVGID_99_" class="st3" d="M150.5,208.5c-1.8,3-2.9,6.1-3.2,9.3l0.3-3.4c0.3-3.2,1.4-6.4,3.2-9.3
							C150.7,206.1,150.8,207.5,150.5,208.5z"/>
					</defs>
					<clipPath id="SVGID_100_">
						<use xlink:href="#SVGID_99_"  style="overflow:visible;"/>
					</clipPath>
					<g class="st72">
						<path class="st11" d="M150.8,205.1l-0.3,3.4c-0.1,0.1-0.1,0.2-0.2,0.3l0.3-3.4C150.7,205.2,150.7,205.2,150.8,205.1"/>
						<path class="st10" d="M150.6,205.3l-0.3,3.4c-1.1,1.8-1.8,3.6-2.4,5.4l0.3-3.4C148.8,208.9,149.6,207.1,150.6,205.3"/>
						<path class="st8" d="M148.3,210.8l-0.3,3.4c-0.3,1.2-0.6,2.4-0.7,3.6l0.3-3.4C147.7,213.2,147.9,212,148.3,210.8"/>
					</g>
				</g>
				<g class="st3">
					<defs>
						<path id="SVGID_101_" class="st3" d="M158.5,194.4l-0.3,3.4c-17,8.6-21,24.6-21.2,25.5l0.3-3.4
							C137.5,219,141.5,203,158.5,194.4z"/>
					</defs>
					<clipPath id="SVGID_102_">
						<use xlink:href="#SVGID_101_"  style="overflow:visible;"/>
					</clipPath>
					<g class="st73">
						<path class="st11" d="M158.5,194.4l-0.3,3.4c-8.6,4.3-13.9,10.6-17,15.8l0.3-3.4C144.6,205,149.9,198.7,158.5,194.4"/>
						<path class="st10" d="M141.5,210.2l-0.3,3.4c-2.6,4.4-3.8,8-4.1,9.2l0.3-3.4C137.7,218.3,138.8,214.6,141.5,210.2"/>
						<path class="st8" d="M137.4,219.5l-0.3,3.4c-0.1,0.2-0.1,0.3-0.1,0.4l0.3-3.4C137.3,219.8,137.3,219.7,137.4,219.5"/>
					</g>
				</g>
				<g>
					<path class="st30" d="M184.3,168.8c13.1,0.1,26.5,3.8,37.2,10.9c0.3,0.3,0.7,0.6,1,0.9c-7.8-5.5-17.7-8.3-27.5-8.4
						c-10.3,0-19.9,2.7-27,8.1c-5.2,4-8.3,8.8-9.4,14c-17,8.6-21,24.6-21.2,25.5c-1.2-2.5-2.1-4.8-2.7-7c-2.5-9.6-0.1-19.6,7.4-27.8
						c4.8-4.8,10.3-8,13.5-10c2.5-1.2,5.1-2.2,7.7-3.1c3.6-1.1,8-2,12.9-2.7C178.8,169,181.5,168.8,184.3,168.8z"/>
				</g>
				<g class="st3">
					<defs>
						<path id="SVGID_103_" class="st3" d="M137.3,219.9l-0.3,3.4c-1.2-2.5-2.1-4.8-2.7-7l0.3-3.4
							C135.2,215,136.1,217.4,137.3,219.9z"/>
					</defs>
					<clipPath id="SVGID_104_">
						<use xlink:href="#SVGID_103_"  style="overflow:visible;"/>
					</clipPath>
					<g class="st74">
						<path class="st5" d="M137.3,219.9l-0.3,3.4c-1.2-2.5-2.1-4.8-2.7-7l0.3-3.4C135.2,215,136.1,217.4,137.3,219.9"/>
					</g>
				</g>
				<g class="st3">
					<defs>
						<path id="SVGID_105_" class="st3" d="M224.6,221.9l-0.3,3.4c-0.7,5.9-3.9,11.7-9.8,16.2l0.3-3.4
							C220.7,233.5,223.9,227.8,224.6,221.9z"/>
					</defs>
					<clipPath id="SVGID_106_">
						<use xlink:href="#SVGID_105_"  style="overflow:visible;"/>
					</clipPath>
					<g class="st75">
						<path class="st34" d="M224.6,221.9l-0.3,3.4c-0.1,1.1-0.3,2.2-0.6,3.3l0.3-3.4C224.2,224.1,224.5,223,224.6,221.9"/>
						<path class="st35" d="M223.9,225.2l-0.3,3.4c-0.5,1.9-1.3,3.7-2.4,5.5l0.3-3.4C222.6,228.9,223.4,227,223.9,225.2"/>
						<path class="st36" d="M221.6,230.6l-0.3,3.4c-1.6,2.7-3.9,5.2-6.8,7.5l0.3-3.4C217.7,235.8,220,233.3,221.6,230.6"/>
					</g>
				</g>
				<g class="st3">
					<defs>
						<path id="SVGID_107_" class="st3" d="M156.5,238.4l-0.3,3.4c-11.3-6.9-16.7-14.9-17-15.3l0.3-3.4
							C139.8,223.5,145.2,231.5,156.5,238.4z"/>
					</defs>
					<clipPath id="SVGID_108_">
						<use xlink:href="#SVGID_107_"  style="overflow:visible;"/>
					</clipPath>
					<g class="st76">
						<path class="st5" d="M156.5,238.4l-0.3,3.4c-11.3-6.9-16.7-14.9-17-15.3l0.3-3.4C139.8,223.5,145.2,231.5,156.5,238.4"/>
					</g>
				</g>
				<g>
					<path class="st38" d="M157.5,197.8c0,0.1,0.2,2.1,0.9,5.1c0.6,3.1,1.9,6.1,3.9,9c0.6,0.9,1.2,1.7,1.9,2.5
						c1.8,2.1,4,4.1,6.5,5.9c0.9,0.6,1.8,1.2,2.7,1.7c6.3,3.9,14.5,6.9,24.1,6.9c4.2,0,8.6-0.5,13.2-1.7c0.2-0.1,0.4-0.1,0.6-0.2
						c0.8-0.2,1.5-0.4,2.2-0.6c0.4-0.1,0.8-0.2,1.2-0.4c3.9-1.3,7.1-2.7,9.8-4.3c-0.7,5.9-3.9,11.7-9.8,16.2
						c-7.1,5.4-16.6,8.1-26.3,8.1c-0.2,0-0.3,0-0.5,0c-0.2,0-0.3,0-0.5,0c-9.2-0.2-18.5-2.7-26-7.6c-0.1-0.1-0.3-0.2-0.4-0.3
						c-0.3-0.2-0.6-0.4-0.8-0.6c-7.9-5.6-12.2-12.8-12.7-20.1c-0.3-4.3,0.8-8.7,3.2-12.6C154,201.4,157.3,198,157.5,197.8z"/>
				</g>
				<g class="st3">
					<defs>
						<path id="SVGID_109_" class="st3" d="M239.9,212.7l-0.3,3.4c-0.8,8.4-5.3,16.5-13.6,22.8c-4.3,3.3-9.2,5.8-14.5,7.7
							c-0.6,0.2-1.2,0.4-1.8,0.6c-0.5,0.1-1,0.3-1.5,0.4c-6.1,1.7-12.6,2.6-19.1,2.5c-11.4-0.1-23-2.9-32.9-8.3l0.3-3.4
							c9.9,5.4,21.5,8.2,32.9,8.3c6.6,0.1,13.1-0.8,19.1-2.5c0.5-0.1,1-0.3,1.5-0.4c0.6-0.2,1.2-0.4,1.8-0.6
							c5.3-1.8,10.3-4.4,14.5-7.7C234.7,229.2,239.2,221.1,239.9,212.7z"/>
					</defs>
					<clipPath id="SVGID_110_">
						<use xlink:href="#SVGID_109_"  style="overflow:visible;"/>
					</clipPath>
					<g class="st77">
						<path class="st8" d="M239.9,212.7l-0.3,3.4c-0.2,1.7-0.5,3.4-0.9,5l0.3-3.4C239.5,216.1,239.8,214.4,239.9,212.7"/>
						<path class="st10" d="M239,217.7l-0.3,3.4c-0.7,2.6-1.8,5.1-3.3,7.5l0.3-3.4C237.2,222.8,238.3,220.3,239,217.7"/>
						<path class="st11" d="M235.8,225.2l-0.3,3.4c-2.2,3.7-5.4,7.2-9.4,10.3c-4.3,3.3-9.2,5.8-14.5,7.7c-0.6,0.2-1.2,0.4-1.8,0.6
							c-0.5,0.1-1,0.3-1.5,0.4c-0.5,0.1-1,0.3-1.5,0.4l0.3-3.4c0.5-0.1,1-0.3,1.5-0.4c0.5-0.1,1-0.3,1.5-0.4
							c0.6-0.2,1.2-0.4,1.8-0.6c5.3-1.8,10.3-4.4,14.5-7.7C230.4,232.5,233.5,229,235.8,225.2"/>
						<path class="st10" d="M207.1,244.6l-0.3,3.4c-3.4,0.9-7,1.5-10.6,1.8l0.3-3.4C200.1,246.1,203.6,245.5,207.1,244.6"/>
						<path class="st8" d="M196.5,246.4l-0.3,3.4c-2.3,0.2-4.7,0.3-7.1,0.3c-0.8,0-1.5,0-2.3-0.1l0.3-3.4c0.8,0,1.5,0,2.3,0.1
							C191.8,246.7,194.1,246.6,196.5,246.4"/>
						<path class="st7" d="M187.1,246.7l-0.3,3.4c-3.1-0.1-6.2-0.4-9.3-0.9l0.3-3.4C180.9,246.2,184,246.6,187.1,246.7"/>
						<path class="st6" d="M177.9,245.7l-0.3,3.4c-3.4-0.6-6.8-1.4-10.1-2.5l0.3-3.4C171,244.3,174.4,245.2,177.9,245.7"/>
						<path class="st5" d="M167.7,243.3l-0.3,3.4c-3.9-1.3-7.7-2.9-11.2-4.8l0.3-3.4C160,240.4,163.8,242,167.7,243.3"/>
					</g>
				</g>
				<g>
					<path class="st30" d="M226.5,183.6c1.3,0.6,10,9.4,13.1,21.6c1.9,10.9-2.5,22.1-13.3,30.3c-4.3,3.3-9.2,5.8-14.5,7.7
						c-0.6,0.2-1.2,0.4-1.8,0.6c-0.5,0.1-1,0.3-1.5,0.4c-6.1,1.7-12.6,2.6-19.1,2.5c-11.4-0.1-23-2.9-32.9-8.3
						c-11.3-6.9-16.7-14.9-17-15.3c0.1-0.3,2.7-5.2,5.9-11.2c0.9-1.6,3.1-4.3,5.3-6.8c-2.4,4-3.5,8.3-3.2,12.6
						c0.5,7.2,4.8,14.5,12.7,20.1c0.3,0.2,0.5,0.4,0.8,0.6c0.1,0.1,0.3,0.2,0.4,0.3c7.6,4.9,16.8,7.4,26,7.6c0.2,0,0.3,0,0.5,0
						c0.2,0,0.3,0,0.5,0c9.7,0,19.3-2.7,26.3-8.1c5.9-4.5,9.2-10.3,9.8-16.2c11.2-6.7,10.4-17.5,9.5-22.5
						C232.7,190.9,226.8,184,226.5,183.6z"/>
				</g>
			</g>
		</g>
	</g>
</g>
<linearGradient id="SVGID_111_" gradientUnits="userSpaceOnUse" x1="191.8" y1="-285.3" x2="191.8" y2="-285.3" gradientTransform="matrix(1 0 0 -1 0 172)">
	<stop  offset="2.945171e-07" style="stop-color:#3F00FC"/>
	<stop  offset="0.2077" style="stop-color:#3F02F7"/>
	<stop  offset="0.4672" style="stop-color:#3E09E7"/>
	<stop  offset="0.7531" style="stop-color:#3E14CE"/>
	<stop  offset="1" style="stop-color:#3D20B2"/>
</linearGradient>
<path class="st78" d="M191.8,457.3"/>
</svg>
