<?xml version="1.0" encoding="utf-8"?>
<!-- Generator: Adobe Illustrator 24.2.0, SVG Export Plug-In . SVG Version: 6.00 Build 0)  -->
<svg version="1.1" id="Capa_1" xmlns="http://www.w3.org/2000/svg" xmlns:xlink="http://www.w3.org/1999/xlink" x="0px" y="0px"
	 viewBox="0 0 2083 2083" style="enable-background:new 0 0 2083 2083;" xml:space="preserve">
<style type="text/css">
	.st0{fill:none;stroke:url(#SVGID_1_);stroke-width:6;stroke-miterlimit:10;}
	.st1{opacity:0.17;}
	.st2{enable-background:new    ;}
	.st3{clip-path:url(#SVGID_3_);}
	.st4{fill:#1D1B30;}
	.st5{fill:none;stroke:url(#XMLID_3_);stroke-width:6;stroke-miterlimit:10;}
	.st6{fill:none;stroke:url(#XMLID_4_);stroke-width:6;stroke-miterlimit:10;}
	.st7{fill:none;stroke:url(#XMLID_5_);stroke-width:6;stroke-miterlimit:10;}
	.st8{opacity:0.3;fill:#1D1B30;enable-background:new    ;}
	.st9{fill:url(#XMLID_7_);}
	.st10{fill:url(#XMLID_8_);}
	.st11{fill:url(#XMLID_9_);}
	.st12{fill:url(#XMLID_10_);}
	.st13{opacity:0.2;fill:none;stroke:url(#XMLID_11_);stroke-width:2;stroke-miterlimit:10;enable-background:new    ;}
	.st14{fill:url(#XMLID_13_);}
	.st15{fill:url(#XMLID_14_);}
	.st16{fill:url(#XMLID_15_);}
	.st17{fill:url(#XMLID_16_);}
	.st18{fill:url(#XMLID_17_);}
	.st19{fill:url(#XMLID_18_);}
	.st20{fill:url(#XMLID_19_);}
	.st21{fill:url(#XMLID_20_);}
	.st22{fill:url(#XMLID_21_);}
	.st23{fill:url(#XMLID_22_);}
	.st24{fill:url(#XMLID_23_);}
	.st25{fill:url(#XMLID_24_);}
	.st26{fill:url(#XMLID_25_);}
	.st27{fill:url(#XMLID_27_);}
	.st28{fill:url(#XMLID_28_);}
	.st29{fill:url(#XMLID_29_);}
	.st30{opacity:0.2;fill:none;stroke:url(#XMLID_30_);stroke-width:2;stroke-miterlimit:10;enable-background:new    ;}
	.st31{fill:url(#XMLID_31_);}
	.st32{fill:url(#XMLID_32_);}
	.st33{fill:url(#XMLID_33_);}
	.st34{opacity:0.4;fill:url(#XMLID_34_);enable-background:new    ;}
	.st35{opacity:0.55;fill:url(#XMLID_35_);enable-background:new    ;}
	.st36{fill:url(#XMLID_36_);}
	.st37{fill:url(#XMLID_37_);}
	.st38{fill:url(#XMLID_38_);}
	.st39{fill:url(#XMLID_41_);}
	.st40{fill:url(#XMLID_42_);}
	.st41{clip-path:url(#SVGID_5_);fill:url(#XMLID_43_);}
	.st42{clip-path:url(#SVGID_7_);fill:url(#XMLID_44_);}
	.st43{clip-path:url(#SVGID_9_);fill:url(#XMLID_45_);}
	.st44{clip-path:url(#SVGID_11_);fill:url(#XMLID_46_);}
	.st45{clip-path:url(#SVGID_13_);fill:url(#XMLID_47_);}
	.st46{clip-path:url(#SVGID_15_);fill:url(#XMLID_51_);}
	.st47{clip-path:url(#SVGID_17_);fill:url(#XMLID_53_);}
	.st48{clip-path:url(#SVGID_19_);fill:url(#XMLID_54_);}
	.st49{opacity:0.55;fill:url(#XMLID_55_);enable-background:new    ;}
	.st50{fill:url(#XMLID_56_);}
	.st51{opacity:5.000000e-02;fill:url(#XMLID_57_);enable-background:new    ;}
	.st52{fill:url(#XMLID_58_);}
	.st53{fill:url(#XMLID_59_);}
	.st54{opacity:0.2;fill:none;stroke:url(#XMLID_60_);stroke-width:2;stroke-miterlimit:10;enable-background:new    ;}
	.st55{fill:url(#XMLID_61_);}
	.st56{fill:url(#SVGID_20_);}
	.st57{fill:url(#SVGID_21_);}
	.st58{fill:url(#SVGID_22_);}
	.st59{fill:url(#SVGID_23_);}
	.st60{fill:url(#SVGID_24_);}
	.st61{fill:url(#SVGID_25_);}
	.st62{fill:url(#SVGID_26_);}
	.st63{fill:url(#SVGID_27_);}
	.st64{fill:url(#SVGID_28_);}
	.st65{fill:url(#SVGID_29_);}
	.st66{fill:url(#SVGID_30_);}
	.st67{fill:url(#SVGID_31_);}
	.st68{fill:url(#SVGID_32_);}
	.st69{fill:url(#SVGID_33_);}
	.st70{fill:url(#SVGID_34_);}
	.st71{fill:url(#SVGID_35_);}
	.st72{fill:url(#SVGID_36_);}
	.st73{fill:url(#XMLID_62_);}
	.st74{fill:url(#XMLID_63_);}
	.st75{fill:url(#SVGID_37_);}
	.st76{fill:none;stroke:url(#SVGID_38_);stroke-width:3;stroke-miterlimit:10;}
	.st77{fill:url(#SVGID_39_);}
	.st78{fill:none;stroke:url(#SVGID_40_);stroke-width:3;stroke-miterlimit:10;}
	.st79{fill:url(#SVGID_41_);}
	.st80{fill:none;stroke:url(#SVGID_42_);stroke-width:3;stroke-miterlimit:10;}
	.st81{fill:url(#SVGID_43_);}
	.st82{fill:none;stroke:url(#SVGID_44_);stroke-width:3;stroke-miterlimit:10;}
	.st83{fill:url(#SVGID_45_);}
	.st84{fill:url(#SVGID_46_);}
	.st85{fill:url(#SVGID_47_);}
	.st86{fill:url(#SVGID_48_);}
	.st87{fill:url(#SVGID_49_);}
	.st88{fill:url(#SVGID_50_);}
	.st89{fill:url(#SVGID_51_);}
	.st90{fill:url(#SVGID_52_);}
</style>
<linearGradient id="SVGID_1_" gradientUnits="userSpaceOnUse" x1="752.4083" y1="-17280.834" x2="1952.1552" y2="-17280.834" gradientTransform="matrix(1 0 0 -1 0 -15668)">
	<stop  offset="0" style="stop-color:#7F00FF"/>
	<stop  offset="1" style="stop-color:#3F00FC"/>
</linearGradient>
<polyline class="st0" points="1595.6,1510.2 1946.2,1714.2 1665.6,1878.2 1196.9,1606.8 1112.2,1654.8 865.6,1510.2 950.9,1459.5 
	753.9,1346.6 "/>
<g id="XMLID_26_" class="st1">
	<g>
		<g class="st2">
			<g>
				<g>
					<defs>
						<polygon id="SVGID_2_" points="7.1,1041.8 465.7,775.3 927.3,1041.8 468.7,1308.3 						"/>
					</defs>
					<clipPath id="SVGID_3_">
						<use xlink:href="#SVGID_2_"  style="overflow:visible;"/>
					</clipPath>
					<g class="st3">
						<g>
							<g>
								<g>
									<path class="st4" d="M696.5,908.5c-127.5-73.6-333.5-73.6-460.1,0s-126,192.9,1.5,266.5s333.5,73.6,460.1,0
										C824.7,1101.5,824,982.1,696.5,908.5"/>
								</g>
							</g>
						</g>
					</g>
				</g>
			</g>
		</g>
	</g>
</g>
<linearGradient id="XMLID_3_" gradientUnits="userSpaceOnUse" x1="958.1677" y1="-16802.8008" x2="1063.2323" y2="-16802.8008" gradientTransform="matrix(1 0 0 -1 0 -15668)">
	<stop  offset="0" style="stop-color:#7F00FF"/>
	<stop  offset="1" style="stop-color:#3F00FC"/>
</linearGradient>
<line id="XMLID_154_" class="st5" x1="1061.7" y1="1165.1" x2="959.7" y2="1104.5"/>
<linearGradient id="XMLID_4_" gradientUnits="userSpaceOnUse" x1="808.576" y1="-16894.4355" x2="1054.7275" y2="-16894.4355" gradientTransform="matrix(1 0 0 -1 0 -15668)">
	<stop  offset="0" style="stop-color:#7F00FF"/>
	<stop  offset="1" style="stop-color:#3F00FC"/>
</linearGradient>
<polyline id="XMLID_74_" class="st6" points="1053.1,1257.9 957.1,1195.9 849.1,1249.9 810.1,1226.9 "/>
<linearGradient id="XMLID_5_" gradientUnits="userSpaceOnUse" x1="338.2978" y1="-17227.5195" x2="1428.6713" y2="-17227.5195" gradientTransform="matrix(1 0 0 -1 0 -15668)">
	<stop  offset="0" style="stop-color:#7F00FF"/>
	<stop  offset="1" style="stop-color:#3F00FC"/>
</linearGradient>
<polyline id="XMLID_12_" class="st7" points="1427.1,1389.7 876.2,1728.4 339.8,1418.1 "/>
<polygon id="XMLID_121_" class="st8" points="1492.9,1102.6 1969.1,1398.9 1496.1,1695.3 1019.9,1399 "/>
<g id="XMLID_172_">
	
		<linearGradient id="XMLID_7_" gradientUnits="userSpaceOnUse" x1="1385.3252" y1="-16938.9316" x2="1603.7748" y2="-16123.668" gradientTransform="matrix(1 0 0 -1 0 -15668)">
		<stop  offset="0" style="stop-color:#4F3E90"/>
		<stop  offset="1" style="stop-color:#171A31"/>
	</linearGradient>
	<polygon id="XMLID_182_" class="st9" points="1263.4,560.1 1493.8,426.2 1725.7,560 1725.7,1166.5 1495.3,1300.4 1263.4,1166.6 	
		"/>
	
		<linearGradient id="XMLID_8_" gradientUnits="userSpaceOnUse" x1="1461.1627" y1="-16352.6533" x2="1527.9623" y2="-16103.3535" gradientTransform="matrix(1 0 0 -1 0 -15668)">
		<stop  offset="0" style="stop-color:#4F3E90"/>
		<stop  offset="1" style="stop-color:#171A31"/>
	</linearGradient>
	<polygon id="XMLID_181_" class="st10" points="1493.8,426.2 1725.7,560 1495.3,693.8 1263.4,560.1 	"/>
	<g id="XMLID_173_">
		
			<linearGradient id="XMLID_9_" gradientUnits="userSpaceOnUse" x1="1477.1552" y1="-16281.6455" x2="1511.7765" y2="-16152.4365" gradientTransform="matrix(1 0 0 -1 0 -15668)">
			<stop  offset="0" style="stop-color:#4F3E90"/>
			<stop  offset="1" style="stop-color:#171A31"/>
		</linearGradient>
		<polygon id="XMLID_178_" class="st11" points="1494.1,479.7 1614.2,549.1 1494.9,618.4 1374.7,549.1 		"/>
		
			<linearGradient id="XMLID_10_" gradientUnits="userSpaceOnUse" x1="1475.9143" y1="-16292.8857" x2="1504.1809" y2="-16187.3936" gradientTransform="matrix(1 0 0 -1 0 -15668)">
			<stop  offset="0" style="stop-color:#463780"/>
			<stop  offset="0.1433" style="stop-color:#382E68"/>
			<stop  offset="0.3308" style="stop-color:#292550"/>
			<stop  offset="0.5289" style="stop-color:#1F1F3F"/>
			<stop  offset="0.7426" style="stop-color:#191B34"/>
			<stop  offset="1" style="stop-color:#171A31"/>
		</linearGradient>
		<path id="XMLID_175_" class="st12" d="M1490.6,616.2L1374.9,549v11l115.7,68.5c2.5,1.5,5.5,1.5,8,0l115.7-67.2v-12.4l-115.7,67.2
			C1496.1,617.6,1493.1,617.6,1490.6,616.2z"/>
		
			<linearGradient id="XMLID_11_" gradientUnits="userSpaceOnUse" x1="1374.2002" y1="-16251.2422" x2="1614.7028" y2="-16251.2422" gradientTransform="matrix(1 0 0 -1 0 -15668)">
			<stop  offset="0" style="stop-color:#00ACE9"/>
			<stop  offset="1" style="stop-color:#007541"/>
		</linearGradient>
		<path id="XMLID_174_" class="st13" d="M1374.7,549.1l116.3,67.1c2.4,1.4,5.4,1.4,7.8,0l115.4-67.1"/>
	</g>
</g>
<g id="XMLID_413_">
	
		<linearGradient id="XMLID_13_" gradientUnits="userSpaceOnUse" x1="1159.6317" y1="-17096.4492" x2="1300.9" y2="-16569.2324" gradientTransform="matrix(1 0 0 -1 0 -15668)">
		<stop  offset="0" style="stop-color:#4F3E90"/>
		<stop  offset="1" style="stop-color:#171A31"/>
	</linearGradient>
	<polygon id="XMLID_185_" class="st14" points="999.6,1314.1 999.6,1015.7 1229.5,882.1 1460.9,1015.6 1460.9,1314.1 1231.1,1447.6 
			"/>
	<g id="XMLID_315_">
		
			<linearGradient id="XMLID_14_" gradientUnits="userSpaceOnUse" x1="1196.0909" y1="-16761.5332" x2="1262.9091" y2="-16512.166" gradientTransform="matrix(1 0 0 -1 0 -15668)">
			<stop  offset="0" style="stop-color:#4F3E90"/>
			<stop  offset="1" style="stop-color:#171A31"/>
		</linearGradient>
		<polygon id="XMLID_382_" class="st15" points="1228.7,835 1460.6,968.8 1230.3,1102.7 998.4,968.9 		"/>
		
			<linearGradient id="XMLID_15_" gradientUnits="userSpaceOnUse" x1="1099.7548" y1="-16780.8203" x2="1128.9453" y2="-16671.8789" gradientTransform="matrix(1 0 0 -1 0 -15668)">
			<stop  offset="0" style="stop-color:#7F00FF"/>
			<stop  offset="1" style="stop-color:#3F00FC"/>
		</linearGradient>
		<polygon id="XMLID_381_" class="st16" points="998.4,968.9 998.2,1014 1230.3,1147.8 1230.3,1102.7 		"/>
		
			<linearGradient id="XMLID_16_" gradientUnits="userSpaceOnUse" x1="1345.5" y1="-16815.9004" x2="1345.5" y2="-16636.9004" gradientTransform="matrix(1 0 0 -1 0 -15668)">
			<stop  offset="0" style="stop-color:#463780"/>
			<stop  offset="0.1433" style="stop-color:#382E68"/>
			<stop  offset="0.3308" style="stop-color:#292550"/>
			<stop  offset="0.5289" style="stop-color:#1F1F3F"/>
			<stop  offset="0.7426" style="stop-color:#191B34"/>
			<stop  offset="1" style="stop-color:#171A31"/>
		</linearGradient>
		<polygon id="XMLID_318_" class="st17" points="1230.3,1147.9 1230.3,1102.7 1460.7,968.9 1460.5,1014.1 		"/>
	</g>
	<g id="XMLID_265_">
		
			<linearGradient id="XMLID_17_" gradientUnits="userSpaceOnUse" x1="1196.1163" y1="-16674.4414" x2="1262.9087" y2="-16425.166" gradientTransform="matrix(1 0 0 -1 0 -15668)">
			<stop  offset="0" style="stop-color:#4F3E90"/>
			<stop  offset="1" style="stop-color:#171A31"/>
		</linearGradient>
		<polygon id="XMLID_312_" class="st18" points="1228.7,748 1460.6,881.8 1230.3,1015.6 998.4,881.9 		"/>
		
			<linearGradient id="XMLID_18_" gradientUnits="userSpaceOnUse" x1="1099.7548" y1="-16693.8203" x2="1128.9453" y2="-16584.8789" gradientTransform="matrix(1 0 0 -1 0 -15668)">
			<stop  offset="0" style="stop-color:#7F00FF"/>
			<stop  offset="1" style="stop-color:#3F00FC"/>
		</linearGradient>
		<polygon id="XMLID_307_" class="st19" points="998.4,881.9 998.2,927 1230.3,1060.8 1230.3,1015.7 		"/>
		
			<linearGradient id="XMLID_19_" gradientUnits="userSpaceOnUse" x1="1345.5" y1="-16728.8008" x2="1345.5" y2="-16549.9004" gradientTransform="matrix(1 0 0 -1 0 -15668)">
			<stop  offset="0" style="stop-color:#463780"/>
			<stop  offset="0.1433" style="stop-color:#382E68"/>
			<stop  offset="0.3308" style="stop-color:#292550"/>
			<stop  offset="0.5289" style="stop-color:#1F1F3F"/>
			<stop  offset="0.7426" style="stop-color:#191B34"/>
			<stop  offset="1" style="stop-color:#171A31"/>
		</linearGradient>
		<polygon id="XMLID_291_" class="st20" points="1230.3,1060.8 1230.3,1015.7 1460.7,881.9 1460.5,927 		"/>
	</g>
	<g id="XMLID_189_">
		
			<linearGradient id="XMLID_20_" gradientUnits="userSpaceOnUse" x1="1196.1158" y1="-16587.4395" x2="1262.9091" y2="-16338.166" gradientTransform="matrix(1 0 0 -1 0 -15668)">
			<stop  offset="0" style="stop-color:#4F3E90"/>
			<stop  offset="1" style="stop-color:#171A31"/>
		</linearGradient>
		<polygon id="XMLID_246_" class="st21" points="1228.7,661 1460.6,794.8 1230.3,928.6 998.4,794.9 		"/>
		
			<linearGradient id="XMLID_21_" gradientUnits="userSpaceOnUse" x1="1099.7548" y1="-16606.8203" x2="1128.9453" y2="-16497.8789" gradientTransform="matrix(1 0 0 -1 0 -15668)">
			<stop  offset="0" style="stop-color:#7F00FF"/>
			<stop  offset="1" style="stop-color:#3F00FC"/>
		</linearGradient>
		<polygon id="XMLID_245_" class="st22" points="998.4,794.9 998.2,840 1230.3,973.8 1230.3,928.7 		"/>
		
			<linearGradient id="XMLID_22_" gradientUnits="userSpaceOnUse" x1="1345.5" y1="-16641.8008" x2="1345.5" y2="-16462.9004" gradientTransform="matrix(1 0 0 -1 0 -15668)">
			<stop  offset="0" style="stop-color:#463780"/>
			<stop  offset="0.1433" style="stop-color:#382E68"/>
			<stop  offset="0.3308" style="stop-color:#292550"/>
			<stop  offset="0.5289" style="stop-color:#1F1F3F"/>
			<stop  offset="0.7426" style="stop-color:#191B34"/>
			<stop  offset="1" style="stop-color:#171A31"/>
		</linearGradient>
		<polygon id="XMLID_229_" class="st23" points="1230.3,973.8 1230.3,928.7 1460.7,794.9 1460.5,840 		"/>
	</g>
	<g id="XMLID_160_">
		
			<linearGradient id="XMLID_23_" gradientUnits="userSpaceOnUse" x1="1196.1162" y1="-16500.4414" x2="1262.9088" y2="-16251.166" gradientTransform="matrix(1 0 0 -1 0 -15668)">
			<stop  offset="0" style="stop-color:#4F3E90"/>
			<stop  offset="1" style="stop-color:#171A31"/>
		</linearGradient>
		<polygon id="XMLID_163_" class="st24" points="1228.7,574 1460.6,707.8 1230.3,841.6 998.4,707.9 		"/>
		
			<linearGradient id="XMLID_24_" gradientUnits="userSpaceOnUse" x1="1099.7548" y1="-16519.8203" x2="1128.9453" y2="-16410.8789" gradientTransform="matrix(1 0 0 -1 0 -15668)">
			<stop  offset="0" style="stop-color:#7F00FF"/>
			<stop  offset="1" style="stop-color:#3F00FC"/>
		</linearGradient>
		<polygon id="XMLID_162_" class="st25" points="998.4,707.9 998.2,753 1230.3,886.8 1230.3,841.7 		"/>
		
			<linearGradient id="XMLID_25_" gradientUnits="userSpaceOnUse" x1="1345.5" y1="-16554.8008" x2="1345.5" y2="-16375.9004" gradientTransform="matrix(1 0 0 -1 0 -15668)">
			<stop  offset="0" style="stop-color:#463780"/>
			<stop  offset="0.1433" style="stop-color:#382E68"/>
			<stop  offset="0.3308" style="stop-color:#292550"/>
			<stop  offset="0.5289" style="stop-color:#1F1F3F"/>
			<stop  offset="0.7426" style="stop-color:#191B34"/>
			<stop  offset="1" style="stop-color:#171A31"/>
		</linearGradient>
		<polygon id="XMLID_161_" class="st26" points="1230.3,886.8 1230.3,841.7 1460.7,707.9 1460.5,753 		"/>
	</g>
	
		<linearGradient id="XMLID_27_" gradientUnits="userSpaceOnUse" x1="1196.8568" y1="-16499.9238" x2="1263.6749" y2="-16250.5576" gradientTransform="matrix(1 0 0 -1 0 -15668)">
		<stop  offset="0" style="stop-color:#4F3E90"/>
		<stop  offset="1" style="stop-color:#171A31"/>
	</linearGradient>
	<polygon id="XMLID_212_" class="st27" points="1229.5,573.4 1461.4,707.3 1231.1,841.1 999.1,707.3 	"/>
	<g id="XMLID_190_">
		
			<linearGradient id="XMLID_28_" gradientUnits="userSpaceOnUse" x1="1212.9552" y1="-16428.9453" x2="1247.5698" y2="-16299.7617" gradientTransform="matrix(1 0 0 -1 0 -15668)">
			<stop  offset="0" style="stop-color:#4F3E90"/>
			<stop  offset="1" style="stop-color:#171A31"/>
		</linearGradient>
		<polygon id="XMLID_210_" class="st28" points="1229.8,627 1350,696.4 1230.7,765.7 1110.5,696.4 		"/>
		
			<linearGradient id="XMLID_29_" gradientUnits="userSpaceOnUse" x1="1211.7144" y1="-16440.0859" x2="1239.981" y2="-16334.5938" gradientTransform="matrix(1 0 0 -1 0 -15668)">
			<stop  offset="0" style="stop-color:#463780"/>
			<stop  offset="0.1433" style="stop-color:#382E68"/>
			<stop  offset="0.3308" style="stop-color:#292550"/>
			<stop  offset="0.5289" style="stop-color:#1F1F3F"/>
			<stop  offset="0.7426" style="stop-color:#191B34"/>
			<stop  offset="1" style="stop-color:#171A31"/>
		</linearGradient>
		<path id="XMLID_208_" class="st29" d="M1226.4,763.4l-115.7-67.2v11l115.7,68.5c2.5,1.5,5.5,1.5,8,0l115.7-67.2v-12.4l-115.7,67.2
			C1231.9,764.9,1228.8,764.9,1226.4,763.4z"/>
		
			<linearGradient id="XMLID_30_" gradientUnits="userSpaceOnUse" x1="1110.0002" y1="-16398.541" x2="1350.5028" y2="-16398.541" gradientTransform="matrix(1 0 0 -1 0 -15668)">
			<stop  offset="0" style="stop-color:#00ACE9"/>
			<stop  offset="1" style="stop-color:#007541"/>
		</linearGradient>
		<path id="XMLID_191_" class="st30" d="M1110.5,696.4l116.3,67.1c2.4,1.4,5.4,1.4,7.8,0l115.4-67.1"/>
	</g>
</g>
<linearGradient id="XMLID_31_" gradientUnits="userSpaceOnUse" x1="1640.4913" y1="-17087.623" x2="1858.9337" y2="-16272.3838" gradientTransform="matrix(1 0 0 -1 0 -15668)">
	<stop  offset="0" style="stop-color:#4F3E90"/>
	<stop  offset="1" style="stop-color:#171A31"/>
</linearGradient>
<polygon id="XMLID_171_" class="st31" points="1518.6,708.8 1748.9,574.9 1980.8,708.7 1980.8,1315.3 1750.5,1449.1 1518.6,1315.3 
	"/>
<linearGradient id="XMLID_32_" gradientUnits="userSpaceOnUse" x1="1716.291" y1="-16501.4336" x2="1783.109" y2="-16252.0664" gradientTransform="matrix(1 0 0 -1 0 -15668)">
	<stop  offset="0" style="stop-color:#4F3E90"/>
	<stop  offset="1" style="stop-color:#171A31"/>
</linearGradient>
<polygon id="XMLID_170_" class="st32" points="1748.9,574.9 1980.8,708.7 1750.5,842.6 1518.6,708.8 "/>
<linearGradient id="XMLID_33_" gradientUnits="userSpaceOnUse" x1="1385.3129" y1="-17236.4297" x2="1603.7622" y2="-16421.1641" gradientTransform="matrix(1 0 0 -1 0 -15668)">
	<stop  offset="0" style="stop-color:#4F3E90"/>
	<stop  offset="1" style="stop-color:#171A31"/>
</linearGradient>
<polygon id="XMLID_52_" class="st33" points="1263.4,857.5 1493.8,723.7 1725.7,857.5 1725.7,1464 1495.3,1597.9 1263.4,1464.1 "/>
<linearGradient id="XMLID_34_" gradientUnits="userSpaceOnUse" x1="1806.0189" y1="-16257.2998" x2="1811.1287" y2="-16257.2998" gradientTransform="matrix(1 0 0 -1 0 -15668)">
	<stop  offset="9.817236e-08" style="stop-color:#FFFFFF;stop-opacity:0.6"/>
	<stop  offset="1" style="stop-color:#FFFFFF"/>
</linearGradient>
<circle id="XMLID_214_" class="st34" cx="1808.6" cy="589.3" r="2.6"/>
<linearGradient id="XMLID_35_" gradientUnits="userSpaceOnUse" x1="1785.634" y1="-16219.7998" x2="1791.1094" y2="-16219.7998" gradientTransform="matrix(1 0 0 -1 0 -15668)">
	<stop  offset="9.817236e-08" style="stop-color:#FFFFFF;stop-opacity:0.6"/>
	<stop  offset="1" style="stop-color:#FFFFFF"/>
</linearGradient>
<circle id="XMLID_358_" class="st35" cx="1788.4" cy="551.8" r="2.7"/>
<linearGradient id="XMLID_36_" gradientUnits="userSpaceOnUse" x1="1461.1504" y1="-16650.1504" x2="1527.9496" y2="-16400.8496" gradientTransform="matrix(1 0 0 -1 0 -15668)">
	<stop  offset="0" style="stop-color:#4F3E90"/>
	<stop  offset="1" style="stop-color:#171A31"/>
</linearGradient>
<polygon id="XMLID_92_" class="st36" points="1493.8,723.7 1725.7,857.5 1495.3,991.3 1263.4,857.5 "/>
<g id="XMLID_111_">
	
		<linearGradient id="XMLID_37_" gradientUnits="userSpaceOnUse" x1="1733.1267" y1="-16419.9512" x2="1766.2483" y2="-16296.3418" gradientTransform="matrix(1 0 0 -1 0 -15668)">
		<stop  offset="0" style="stop-color:#4F3E90"/>
		<stop  offset="1" style="stop-color:#171A31"/>
	</linearGradient>
	<polygon id="XMLID_115_" class="st37" points="1749.3,623.8 1864.3,690.1 1750.1,756.5 1635.1,690.1 	"/>
	
		<linearGradient id="XMLID_38_" gradientUnits="userSpaceOnUse" x1="1685.3643" y1="-16429.5547" x2="1699.8357" y2="-16375.5449" gradientTransform="matrix(1 0 0 -1 0 -15668)">
		<stop  offset="0" style="stop-color:#7F00FF"/>
		<stop  offset="1" style="stop-color:#3F00FC"/>
	</linearGradient>
	<polygon id="XMLID_113_" class="st38" points="1635.1,690.2 1635,712.5 1750.1,778.9 1750.1,756.5 	"/>
	
		<linearGradient id="XMLID_41_" gradientUnits="userSpaceOnUse" x1="1807.25" y1="-16446.9004" x2="1807.25" y2="-16358.2002" gradientTransform="matrix(1 0 0 -1 0 -15668)">
		<stop  offset="0" style="stop-color:#463780"/>
		<stop  offset="0.1433" style="stop-color:#382E68"/>
		<stop  offset="0.3308" style="stop-color:#292550"/>
		<stop  offset="0.5289" style="stop-color:#1F1F3F"/>
		<stop  offset="0.7426" style="stop-color:#191B34"/>
		<stop  offset="1" style="stop-color:#171A31"/>
	</linearGradient>
	<polygon id="XMLID_112_" class="st39" points="1750.1,778.9 1750.1,756.5 1864.4,690.2 1864.3,712.5 	"/>
</g>
<linearGradient id="XMLID_42_" gradientUnits="userSpaceOnUse" x1="1740.1949" y1="-16393.3652" x2="1760.0117" y2="-16319.4092" gradientTransform="matrix(1 0 0 -1 0 -15668)">
	<stop  offset="0" style="stop-color:#7F00FF;stop-opacity:0.2"/>
	<stop  offset="1" style="stop-color:#3F00FC"/>
</linearGradient>
<polygon id="XMLID_110_" class="st40" points="1749.9,648.7 1818.6,688.4 1750.4,728.1 1681.6,688.4 "/>
<g id="XMLID_97_">
	<g>
		<g>
			<defs>
				<polygon id="SVGID_4_" points="1749.9,648.7 1818.6,688.4 1750.4,728.1 1681.6,688.4 				"/>
			</defs>
			<clipPath id="SVGID_5_">
				<use xlink:href="#SVGID_4_"  style="overflow:visible;"/>
			</clipPath>
			
				<linearGradient id="XMLID_43_" gradientUnits="userSpaceOnUse" x1="1740.1742" y1="-16331.8057" x2="1760.0325" y2="-16405.9199" gradientTransform="matrix(1 0 0 -1 0 -15668)">
				<stop  offset="0" style="stop-color:#7F00FF;stop-opacity:0.7"/>
				<stop  offset="1" style="stop-color:#3F00FC;stop-opacity:0.6"/>
			</linearGradient>
			<polygon id="XMLID_109_" class="st41" points="1749.9,661.2 1818.6,700.8 1750.4,740.5 1681.6,700.9 			"/>
		</g>
	</g>
	<g>
		<g>
			<defs>
				<polygon id="SVGID_6_" points="1749.9,648.7 1818.6,688.4 1750.4,728.1 1681.6,688.4 				"/>
			</defs>
			<clipPath id="SVGID_7_">
				<use xlink:href="#SVGID_6_"  style="overflow:visible;"/>
			</clipPath>
			
				<linearGradient id="XMLID_44_" gradientUnits="userSpaceOnUse" x1="1740.1614" y1="-16344.0098" x2="1760.0453" y2="-16418.2148" gradientTransform="matrix(1 0 0 -1 0 -15668)">
				<stop  offset="0" style="stop-color:#7F00FF;stop-opacity:0.7"/>
				<stop  offset="1" style="stop-color:#3F00FC;stop-opacity:0.6"/>
			</linearGradient>
			<polygon id="XMLID_108_" class="st42" points="1749.9,673.4 1818.6,713.1 1750.4,752.8 1681.6,713.1 			"/>
		</g>
	</g>
	<g>
		<g>
			<defs>
				<polygon id="SVGID_8_" points="1749.9,648.7 1818.6,688.4 1750.4,728.1 1681.6,688.4 				"/>
			</defs>
			<clipPath id="SVGID_9_">
				<use xlink:href="#SVGID_8_"  style="overflow:visible;"/>
			</clipPath>
			
				<linearGradient id="XMLID_45_" gradientUnits="userSpaceOnUse" x1="1740.1738" y1="-16356.3066" x2="1760.0327" y2="-16430.418" gradientTransform="matrix(1 0 0 -1 0 -15668)">
				<stop  offset="0" style="stop-color:#7F00FF;stop-opacity:0.7"/>
				<stop  offset="1" style="stop-color:#3F00FC;stop-opacity:0.6"/>
			</linearGradient>
			<polygon id="XMLID_107_" class="st43" points="1749.9,685.7 1818.6,725.3 1750.4,765 1681.6,725.4 			"/>
		</g>
	</g>
	<g>
		<g>
			<defs>
				<polygon id="SVGID_10_" points="1749.9,648.7 1818.6,688.4 1750.4,728.1 1681.6,688.4 				"/>
			</defs>
			<clipPath id="SVGID_11_">
				<use xlink:href="#SVGID_10_"  style="overflow:visible;"/>
			</clipPath>
			
				<linearGradient id="XMLID_46_" gradientUnits="userSpaceOnUse" x1="1740.1614" y1="-16368.5098" x2="1760.0453" y2="-16442.7148" gradientTransform="matrix(1 0 0 -1 0 -15668)">
				<stop  offset="0" style="stop-color:#7F00FF;stop-opacity:0.7"/>
				<stop  offset="1" style="stop-color:#3F00FC;stop-opacity:0.6"/>
			</linearGradient>
			<polygon id="XMLID_105_" class="st44" points="1749.9,697.9 1818.6,737.6 1750.4,777.3 1681.6,737.6 			"/>
		</g>
	</g>
	<g>
		<g>
			<defs>
				<polygon id="SVGID_12_" points="1749.9,648.7 1818.6,688.4 1750.4,728.1 1681.6,688.4 				"/>
			</defs>
			<clipPath id="SVGID_13_">
				<use xlink:href="#SVGID_12_"  style="overflow:visible;"/>
			</clipPath>
			
				<linearGradient id="XMLID_47_" gradientUnits="userSpaceOnUse" x1="1740.1616" y1="-16380.709" x2="1760.045" y2="-16454.916" gradientTransform="matrix(1 0 0 -1 0 -15668)">
				<stop  offset="0" style="stop-color:#7F00FF;stop-opacity:0.7"/>
				<stop  offset="1" style="stop-color:#3F00FC;stop-opacity:0.6"/>
			</linearGradient>
			<polygon id="XMLID_104_" class="st45" points="1749.9,710.1 1818.6,749.8 1750.4,789.5 1681.6,749.8 			"/>
		</g>
	</g>
	<g>
		<g>
			<defs>
				<polygon id="SVGID_14_" points="1749.9,648.7 1818.6,688.4 1750.4,728.1 1681.6,688.4 				"/>
			</defs>
			<clipPath id="SVGID_15_">
				<use xlink:href="#SVGID_14_"  style="overflow:visible;"/>
			</clipPath>
			
				<linearGradient id="XMLID_51_" gradientUnits="userSpaceOnUse" x1="1740.1616" y1="-16393.0098" x2="1760.02" y2="-16467.123" gradientTransform="matrix(1 0 0 -1 0 -15668)">
				<stop  offset="0" style="stop-color:#7F00FF;stop-opacity:0.7"/>
				<stop  offset="1" style="stop-color:#3F00FC;stop-opacity:0.6"/>
			</linearGradient>
			<polygon id="XMLID_103_" class="st46" points="1749.9,722.4 1818.6,762.1 1750.4,801.7 1681.6,762.1 			"/>
		</g>
	</g>
	<g>
		<g>
			<defs>
				<polygon id="SVGID_16_" points="1749.9,648.7 1818.6,688.4 1750.4,728.1 1681.6,688.4 				"/>
			</defs>
			<clipPath id="SVGID_17_">
				<use xlink:href="#SVGID_16_"  style="overflow:visible;"/>
			</clipPath>
			
				<linearGradient id="XMLID_53_" gradientUnits="userSpaceOnUse" x1="1740.1617" y1="-16405.209" x2="1760.0449" y2="-16479.416" gradientTransform="matrix(1 0 0 -1 0 -15668)">
				<stop  offset="0" style="stop-color:#7F00FF;stop-opacity:0.7"/>
				<stop  offset="1" style="stop-color:#3F00FC;stop-opacity:0.6"/>
			</linearGradient>
			<polygon id="XMLID_101_" class="st47" points="1749.9,734.6 1818.6,774.3 1750.4,814 1681.6,774.3 			"/>
		</g>
	</g>
	<g>
		<g>
			<defs>
				<polygon id="SVGID_18_" points="1749.9,648.7 1818.6,688.4 1750.4,728.1 1681.6,688.4 				"/>
			</defs>
			<clipPath id="SVGID_19_">
				<use xlink:href="#SVGID_18_"  style="overflow:visible;"/>
			</clipPath>
			
				<linearGradient id="XMLID_54_" gradientUnits="userSpaceOnUse" x1="1740.1742" y1="-16417.5059" x2="1760.0325" y2="-16491.6191" gradientTransform="matrix(1 0 0 -1 0 -15668)">
				<stop  offset="0" style="stop-color:#7F00FF;stop-opacity:0.7"/>
				<stop  offset="1" style="stop-color:#3F00FC;stop-opacity:0.6"/>
			</linearGradient>
			<polygon id="XMLID_100_" class="st48" points="1749.9,746.9 1818.6,786.5 1750.4,826.2 1681.6,786.6 			"/>
		</g>
	</g>
</g>
<linearGradient id="XMLID_55_" gradientUnits="userSpaceOnUse" x1="1753.2999" y1="-16313.7002" x2="1756.84" y2="-16313.7002" gradientTransform="matrix(1 0 0 -1 0 -15668)">
	<stop  offset="9.817236e-08" style="stop-color:#FFFFFF;stop-opacity:0.6"/>
	<stop  offset="1" style="stop-color:#FFFFFF"/>
</linearGradient>
<circle id="XMLID_93_" class="st49" cx="1755.1" cy="645.7" r="1.8"/>
<linearGradient id="XMLID_56_" gradientUnits="userSpaceOnUse" x1="1303.799" y1="-16613.7383" x2="1454.901" y2="-17177.6621" gradientTransform="matrix(1 0 0 -1 0 -15668)">
	<stop  offset="0" style="stop-color:#7F00FF"/>
	<stop  offset="1" style="stop-color:#3F00FC"/>
</linearGradient>
<polygon id="XMLID_252_" class="st50" points="1292,948.9 1466.7,1049.6 1466.7,1506.5 1292,1405.8 "/>
<linearGradient id="XMLID_57_" gradientUnits="userSpaceOnUse" x1="1443.8" y1="-16492.8496" x2="1725.7" y2="-16492.8496" gradientTransform="matrix(1 0 0 -1 0 -15668)">
	<stop  offset="0" style="stop-color:#463780"/>
	<stop  offset="0.1433" style="stop-color:#382E68"/>
	<stop  offset="0.3308" style="stop-color:#292550"/>
	<stop  offset="0.5289" style="stop-color:#1F1F3F"/>
	<stop  offset="0.7426" style="stop-color:#191B34"/>
	<stop  offset="1" style="stop-color:#171A31"/>
</linearGradient>
<polygon id="XMLID_693_" class="st51" points="1498.6,926 1627.2,914.7 1725.7,857.5 1493.8,723.7 1443.8,806.5 "/>
<g id="XMLID_40_">
	
		<linearGradient id="XMLID_58_" gradientUnits="userSpaceOnUse" x1="1477.155" y1="-16579.1445" x2="1511.7766" y2="-16449.9355" gradientTransform="matrix(1 0 0 -1 0 -15668)">
		<stop  offset="0" style="stop-color:#4F3E90"/>
		<stop  offset="1" style="stop-color:#171A31"/>
	</linearGradient>
	<polygon id="XMLID_50_" class="st52" points="1494.1,777.2 1614.2,846.6 1494.9,915.9 1374.7,846.6 	"/>
	
		<linearGradient id="XMLID_59_" gradientUnits="userSpaceOnUse" x1="1475.9146" y1="-16590.3867" x2="1504.1555" y2="-16484.9883" gradientTransform="matrix(1 0 0 -1 0 -15668)">
		<stop  offset="0" style="stop-color:#463780"/>
		<stop  offset="0.1433" style="stop-color:#382E68"/>
		<stop  offset="0.3308" style="stop-color:#292550"/>
		<stop  offset="0.5289" style="stop-color:#1F1F3F"/>
		<stop  offset="0.7426" style="stop-color:#191B34"/>
		<stop  offset="1" style="stop-color:#171A31"/>
	</linearGradient>
	<path id="XMLID_49_" class="st53" d="M1490.6,913.7l-115.7-67.2v11l115.7,68.5c2.5,1.5,5.5,1.5,8,0l115.7-67.2v-12.3l-115.7,67.2
		C1496.1,915.1,1493.1,915.1,1490.6,913.7z"/>
	
		<linearGradient id="XMLID_60_" gradientUnits="userSpaceOnUse" x1="1374.2002" y1="-16548.7422" x2="1614.7028" y2="-16548.7422" gradientTransform="matrix(1 0 0 -1 0 -15668)">
		<stop  offset="0" style="stop-color:#00ACE9"/>
		<stop  offset="1" style="stop-color:#007541"/>
	</linearGradient>
	<path id="XMLID_48_" class="st54" d="M1374.7,846.6l116.3,67.1c2.4,1.4,5.4,1.4,7.8,0l115.4-67.1"/>
</g>
<linearGradient id="XMLID_61_" gradientUnits="userSpaceOnUse" x1="1680.7368" y1="-16376.168" x2="1785.1716" y2="-15986.4121" gradientTransform="matrix(1 0 0 -1 0 -15668)">
	<stop  offset="0" style="stop-color:#FFFFFF;stop-opacity:0"/>
	<stop  offset="1" style="stop-color:#FFFFFF;stop-opacity:0.12"/>
</linearGradient>
<polygon id="XMLID_39_" class="st55" points="1681.2,687.1 1638.7,373.1 1749.3,308.8 1860.7,373 1818.2,687.1 1749.9,726.7 "/>
<g>
	
		<linearGradient id="SVGID_20_" gradientUnits="userSpaceOnUse" x1="1544.2" y1="-16670.3496" x2="1684.3" y2="-16670.3496" gradientTransform="matrix(1 0 0 -1 0 -15668)">
		<stop  offset="0" style="stop-color:#4F3E90"/>
		<stop  offset="1" style="stop-color:#171A31"/>
	</linearGradient>
	<polygon class="st56" points="1544.2,1039.4 1544.2,1046.2 1684.3,965.4 1684.3,958.5 	"/>
	
		<linearGradient id="SVGID_21_" gradientUnits="userSpaceOnUse" x1="1544.2" y1="-16684.5996" x2="1684.3" y2="-16684.5996" gradientTransform="matrix(1 0 0 -1 0 -15668)">
		<stop  offset="0" style="stop-color:#4F3E90"/>
		<stop  offset="1" style="stop-color:#171A31"/>
	</linearGradient>
	<polygon class="st57" points="1544.2,1053.7 1544.2,1060.4 1684.3,979.7 1684.3,972.8 	"/>
	
		<linearGradient id="SVGID_22_" gradientUnits="userSpaceOnUse" x1="1544.2" y1="-16698.8496" x2="1684.3" y2="-16698.8496" gradientTransform="matrix(1 0 0 -1 0 -15668)">
		<stop  offset="0" style="stop-color:#4F3E90"/>
		<stop  offset="1" style="stop-color:#171A31"/>
	</linearGradient>
	<polygon class="st58" points="1544.2,1067.9 1544.2,1074.7 1684.3,993.9 1684.3,987 	"/>
	
		<linearGradient id="SVGID_23_" gradientUnits="userSpaceOnUse" x1="1544.2" y1="-16713.0996" x2="1684.3" y2="-16713.0996" gradientTransform="matrix(1 0 0 -1 0 -15668)">
		<stop  offset="0" style="stop-color:#4F3E90"/>
		<stop  offset="1" style="stop-color:#171A31"/>
	</linearGradient>
	<polygon class="st59" points="1544.2,1082.2 1544.2,1088.9 1684.3,1008.2 1684.3,1001.3 	"/>
	
		<linearGradient id="SVGID_24_" gradientUnits="userSpaceOnUse" x1="1544.2" y1="-16727.4004" x2="1684.3" y2="-16727.4004" gradientTransform="matrix(1 0 0 -1 0 -15668)">
		<stop  offset="0" style="stop-color:#4F3E90"/>
		<stop  offset="1" style="stop-color:#171A31"/>
	</linearGradient>
	<polygon class="st60" points="1544.2,1096.5 1544.2,1103.2 1684.3,1022.4 1684.3,1015.6 	"/>
	
		<linearGradient id="SVGID_25_" gradientUnits="userSpaceOnUse" x1="1544.2" y1="-16741.6504" x2="1684.3" y2="-16741.6504" gradientTransform="matrix(1 0 0 -1 0 -15668)">
		<stop  offset="0" style="stop-color:#4F3E90"/>
		<stop  offset="1" style="stop-color:#171A31"/>
	</linearGradient>
	<polygon class="st61" points="1544.2,1110.7 1544.2,1117.5 1684.3,1036.7 1684.3,1029.8 	"/>
	
		<linearGradient id="SVGID_26_" gradientUnits="userSpaceOnUse" x1="1544.2" y1="-16755.9004" x2="1684.3" y2="-16755.9004" gradientTransform="matrix(1 0 0 -1 0 -15668)">
		<stop  offset="0" style="stop-color:#4F3E90"/>
		<stop  offset="1" style="stop-color:#171A31"/>
	</linearGradient>
	<polygon class="st62" points="1544.2,1125 1544.2,1131.7 1684.3,1051 1684.3,1044.1 	"/>
	
		<linearGradient id="SVGID_27_" gradientUnits="userSpaceOnUse" x1="1544.2" y1="-16770.1504" x2="1684.3" y2="-16770.1504" gradientTransform="matrix(1 0 0 -1 0 -15668)">
		<stop  offset="0" style="stop-color:#4F3E90"/>
		<stop  offset="1" style="stop-color:#171A31"/>
	</linearGradient>
	<polygon class="st63" points="1544.2,1139.2 1544.2,1146 1684.3,1065.2 1684.3,1058.3 	"/>
</g>
<g>
	
		<linearGradient id="SVGID_28_" gradientUnits="userSpaceOnUse" x1="1544.2" y1="-17017" x2="1684.3" y2="-17017" gradientTransform="matrix(1 0 0 -1 0 -15668)">
		<stop  offset="0" style="stop-color:#4F3E90"/>
		<stop  offset="1" style="stop-color:#171A31"/>
	</linearGradient>
	<polygon class="st64" points="1544.2,1386.1 1544.2,1392.8 1684.3,1312.1 1684.3,1305.2 	"/>
	
		<linearGradient id="SVGID_29_" gradientUnits="userSpaceOnUse" x1="1544.2" y1="-17031.25" x2="1684.3" y2="-17031.25" gradientTransform="matrix(1 0 0 -1 0 -15668)">
		<stop  offset="0" style="stop-color:#4F3E90"/>
		<stop  offset="1" style="stop-color:#171A31"/>
	</linearGradient>
	<polygon class="st65" points="1544.2,1400.3 1544.2,1407.1 1684.3,1326.3 1684.3,1319.4 	"/>
	
		<linearGradient id="SVGID_30_" gradientUnits="userSpaceOnUse" x1="1544.2" y1="-17045.5508" x2="1684.3" y2="-17045.5508" gradientTransform="matrix(1 0 0 -1 0 -15668)">
		<stop  offset="0" style="stop-color:#4F3E90"/>
		<stop  offset="1" style="stop-color:#171A31"/>
	</linearGradient>
	<polygon class="st66" points="1544.2,1414.6 1544.2,1421.4 1684.3,1340.6 1684.3,1333.7 	"/>
	
		<linearGradient id="SVGID_31_" gradientUnits="userSpaceOnUse" x1="1544.2" y1="-17059.8008" x2="1684.3" y2="-17059.8008" gradientTransform="matrix(1 0 0 -1 0 -15668)">
		<stop  offset="0" style="stop-color:#4F3E90"/>
		<stop  offset="1" style="stop-color:#171A31"/>
	</linearGradient>
	<polygon class="st67" points="1544.2,1428.9 1544.2,1435.6 1684.3,1354.8 1684.3,1348 	"/>
	
		<linearGradient id="SVGID_32_" gradientUnits="userSpaceOnUse" x1="1544.2" y1="-17074.0508" x2="1684.3" y2="-17074.0508" gradientTransform="matrix(1 0 0 -1 0 -15668)">
		<stop  offset="0" style="stop-color:#4F3E90"/>
		<stop  offset="1" style="stop-color:#171A31"/>
	</linearGradient>
	<polygon class="st68" points="1544.2,1443.1 1544.2,1449.9 1684.3,1369.1 1684.3,1362.2 	"/>
	
		<linearGradient id="SVGID_33_" gradientUnits="userSpaceOnUse" x1="1544.2" y1="-17088.3008" x2="1684.3" y2="-17088.3008" gradientTransform="matrix(1 0 0 -1 0 -15668)">
		<stop  offset="0" style="stop-color:#4F3E90"/>
		<stop  offset="1" style="stop-color:#171A31"/>
	</linearGradient>
	<polygon class="st69" points="1544.2,1457.4 1544.2,1464.1 1684.3,1383.4 1684.3,1376.5 	"/>
	
		<linearGradient id="SVGID_34_" gradientUnits="userSpaceOnUse" x1="1544.2" y1="-17102.5508" x2="1684.3" y2="-17102.5508" gradientTransform="matrix(1 0 0 -1 0 -15668)">
		<stop  offset="0" style="stop-color:#4F3E90"/>
		<stop  offset="1" style="stop-color:#171A31"/>
	</linearGradient>
	<polygon class="st70" points="1544.2,1471.6 1544.2,1478.4 1684.3,1397.6 1684.3,1390.7 	"/>
	
		<linearGradient id="SVGID_35_" gradientUnits="userSpaceOnUse" x1="1544.2" y1="-17116.8008" x2="1684.3" y2="-17116.8008" gradientTransform="matrix(1 0 0 -1 0 -15668)">
		<stop  offset="0" style="stop-color:#4F3E90"/>
		<stop  offset="1" style="stop-color:#171A31"/>
	</linearGradient>
	<polygon class="st71" points="1544.2,1485.9 1544.2,1492.6 1684.3,1411.9 1684.3,1405 	"/>
</g>
<linearGradient id="SVGID_36_" gradientUnits="userSpaceOnUse" x1="116.5" y1="-16548.8301" x2="817.9104" y2="-16548.8301" gradientTransform="matrix(1 0 0 -1 0 -15668)">
	<stop  offset="0" style="stop-color:#4F3E90"/>
	<stop  offset="1" style="stop-color:#171A31"/>
</linearGradient>
<path class="st72" d="M116.5,875.5c0,0-0.1,189,323.8,205.5s376.5-174.8,376.5-174.8s35-188.1-288-223.3c0,0-186.7-25.3-326.7,65.3
	C202.2,748.2,127.4,784.8,116.5,875.5z"/>
<linearGradient id="XMLID_62_" gradientUnits="userSpaceOnUse" x1="4622.9897" y1="2119.3247" x2="5192.5215" y2="2119.3247" gradientTransform="matrix(-1 0 0 -1.1206 5374.957 3161.0654)">
	<stop  offset="0" style="stop-color:#4F3E90"/>
	<stop  offset="1" style="stop-color:#171A31"/>
</linearGradient>
<path id="XMLID_1_" class="st73" d="M750.6,858.8c0,0-4-112.8-283.3-119.6c0,0-261.9-1.7-283.3,119.6c0,0-39.9-132.5,283.3-145.3
	C467.3,713.5,774.9,719.4,750.6,858.8z"/>
<linearGradient id="XMLID_63_" gradientUnits="userSpaceOnUse" x1="408.9426" y1="-16791.1094" x2="496.9416" y2="-16462.6934" gradientTransform="matrix(1 0 0 -1 0 -15668)">
	<stop  offset="0" style="stop-color:#4F3E90"/>
	<stop  offset="1" style="stop-color:#171A31"/>
</linearGradient>
<path id="XMLID_6_" class="st74" d="M115.9,880.8c0,0,4.9,186.6,351.2,197.8c0,0,324.7,2.8,351.2-197.8c0,0,49.4,219.2-351.2,240.3
	C467.1,1121.1,85.8,1111.3,115.9,880.8z"/>
<g>
	
		<linearGradient id="SVGID_37_" gradientUnits="userSpaceOnUse" x1="306.364" y1="-17078.6816" x2="329.9583" y2="-17078.6816" gradientTransform="matrix(1 0 0 -1 0 -15668)">
		<stop  offset="0" style="stop-color:#7F00FF"/>
		<stop  offset="1" style="stop-color:#3F00FC"/>
	</linearGradient>
	<path class="st75" d="M310,1406c0,0,4-3.7,13.1-1.5s6.6,8.1,6.6,8.1s-2.5,5.6-13.8,4.9C315.9,1417.5,299.2,1414.3,310,1406z"/>
	
		<linearGradient id="SVGID_38_" gradientUnits="userSpaceOnUse" x1="293.0909" y1="-17078.9609" x2="344.4817" y2="-17078.9609" gradientTransform="matrix(1 0 0 -1 0 -15668)">
		<stop  offset="0" style="stop-color:#7F00FF"/>
		<stop  offset="1" style="stop-color:#3F00FC"/>
	</linearGradient>
	<path class="st76" d="M313.6,1397.3c0,0,22.8-2.6,28.6,11.9s-24.1,15.6-24.1,15.6s-23.8-1.3-23.6-15
		C294.6,1409.8,294.8,1399.8,313.6,1397.3z"/>
</g>
<g>
	
		<linearGradient id="SVGID_39_" gradientUnits="userSpaceOnUse" x1="720.764" y1="-17005.6816" x2="744.3583" y2="-17005.6816" gradientTransform="matrix(1 0 0 -1 0 -15668)">
		<stop  offset="0" style="stop-color:#7F00FF"/>
		<stop  offset="1" style="stop-color:#3F00FC"/>
	</linearGradient>
	<path class="st77" d="M724.4,1333c0,0,4-3.7,13.1-1.5s6.6,8.1,6.6,8.1s-2.6,5.6-13.8,4.9C730.3,1344.5,713.6,1341.3,724.4,1333z"/>
	
		<linearGradient id="SVGID_40_" gradientUnits="userSpaceOnUse" x1="707.4791" y1="-17005.9609" x2="758.8699" y2="-17005.9609" gradientTransform="matrix(1 0 0 -1 0 -15668)">
		<stop  offset="0" style="stop-color:#7F00FF"/>
		<stop  offset="1" style="stop-color:#3F00FC"/>
	</linearGradient>
	<path class="st78" d="M728,1324.3c0,0,22.8-2.6,28.6,11.9s-24.1,15.6-24.1,15.6s-23.8-1.3-23.6-15
		C709,1336.8,709.2,1326.8,728,1324.3z"/>
</g>
<g>
	
		<linearGradient id="SVGID_41_" gradientUnits="userSpaceOnUse" x1="780.1193" y1="-16884.8809" x2="803.7144" y2="-16884.8809" gradientTransform="matrix(1 0 0 -1 0 -15668)">
		<stop  offset="0" style="stop-color:#7F00FF"/>
		<stop  offset="1" style="stop-color:#3F00FC"/>
	</linearGradient>
	<path class="st79" d="M783.7,1212.2c0,0,4-3.7,13.1-1.5s6.6,8.1,6.6,8.1s-2.5,5.6-13.8,4.9C789.7,1223.7,773,1220.5,783.7,1212.2z"
		/>
	
		<linearGradient id="SVGID_42_" gradientUnits="userSpaceOnUse" x1="766.8646" y1="-16885.1602" x2="818.2555" y2="-16885.1602" gradientTransform="matrix(1 0 0 -1 0 -15668)">
		<stop  offset="0" style="stop-color:#7F00FF"/>
		<stop  offset="1" style="stop-color:#3F00FC"/>
	</linearGradient>
	<path class="st80" d="M787.4,1203.5c0,0,22.8-2.6,28.6,11.9s-24.1,15.6-24.1,15.6s-23.8-1.3-23.6-15
		C768.4,1216,768.6,1206,787.4,1203.5z"/>
</g>
<g>
	
		<linearGradient id="SVGID_43_" gradientUnits="userSpaceOnUse" x1="928.264" y1="-16763.582" x2="951.8583" y2="-16763.582" gradientTransform="matrix(1 0 0 -1 0 -15668)">
		<stop  offset="0" style="stop-color:#7F00FF"/>
		<stop  offset="1" style="stop-color:#3F00FC"/>
	</linearGradient>
	<path class="st81" d="M931.9,1090.9c0,0,4-3.7,13.1-1.5s6.6,8.1,6.6,8.1s-2.5,5.6-13.8,4.9C937.8,1102.4,921.1,1099.2,931.9,1090.9
		z"/>
	
		<linearGradient id="SVGID_44_" gradientUnits="userSpaceOnUse" x1="914.9771" y1="-16763.8594" x2="966.3679" y2="-16763.8594" gradientTransform="matrix(1 0 0 -1 0 -15668)">
		<stop  offset="0" style="stop-color:#7F00FF"/>
		<stop  offset="1" style="stop-color:#3F00FC"/>
	</linearGradient>
	<path class="st82" d="M935.5,1082.2c0,0,22.8-2.6,28.6,11.9s-24.1,15.6-24.1,15.6s-23.8-1.3-23.6-15
		C916.5,1094.7,916.7,1084.7,935.5,1082.2z"/>
</g>
<g>
	<linearGradient id="SVGID_45_" gradientUnits="userSpaceOnUse" x1="229.6204" y1="899.037" x2="707.7349" y2="899.037">
		<stop  offset="0.1486" style="stop-color:#00EED5"/>
		<stop  offset="0.3817" style="stop-color:#3EBBD7"/>
		<stop  offset="0.8094" style="stop-color:#AB62DB"/>
		<stop  offset="1" style="stop-color:#D63EDC"/>
	</linearGradient>
	<path class="st83" d="M659.5,928.2c-20.2,11.7-66.9,35.8-133.8,31.7c-29.4,11.4-66.1,18.1-106,18.1c-96.2,0-174.2-39.3-174.2-87.9
		c0-38.9,50.1-71.9,119.6-83.4c-19.2,1.8-38.5,3.8-48.6,5.8c-37.9,7.3-70.4,13.8-70.4,13.8s-20.4,26.7-15.7,59.1
		c10.8,42.8,65.7,78.6,141.1,95.4c2.2,0.5,4.4,1,6.7,1.4c0,0,0,0,0,0c2.9,0.6,5.7,1.2,8.6,1.7c25.6,4.7,53.2,7.3,82,7.3
		c72.8,0,138-16.3,182.1-42.1c45.9-30.5,58.1-62.7,56.9-66C707.6,883.1,693.7,908.3,659.5,928.2z"/>
	<linearGradient id="SVGID_46_" gradientUnits="userSpaceOnUse" x1="253.6007" y1="810.0701" x2="711.4712" y2="810.0701">
		<stop  offset="0.1486" style="stop-color:#00EED5"/>
		<stop  offset="0.3817" style="stop-color:#3EBBD7"/>
		<stop  offset="0.8094" style="stop-color:#AB62DB"/>
		<stop  offset="1" style="stop-color:#D63EDC"/>
	</linearGradient>
	<path class="st84" d="M438.9,796.8c27.2-8.9,59.7-14.1,94.5-14.1c96.2,0,174.2,39.3,174.2,87.9c0.5-1.2,0.8-2.3,1.2-3.5
		c-1.9-38.9-40-73.2-98.1-94.7c-18.7-6.4-37.4-11.5-53.9-15c-12.6-2.5-25.6-4.5-39.1-5.9l0,0c-19.4-1-52-3.3-89.3-0.8
		c-61.6,5.2-115.3,22.2-151.5,46.3c-8.2,5.7-16.1,12-23.5,19.1C253.6,816,344.8,787.5,438.9,796.8z"/>
	<linearGradient id="SVGID_47_" gradientUnits="userSpaceOnUse" x1="418.1985" y1="992.9284" x2="636.3723" y2="774.7546">
		<stop  offset="0.1486" style="stop-color:#00EED5"/>
		<stop  offset="0.3817" style="stop-color:#3EBBD7"/>
		<stop  offset="0.8094" style="stop-color:#AB62DB"/>
		<stop  offset="1" style="stop-color:#D63EDC"/>
	</linearGradient>
	<path class="st85" d="M533.4,782.8c-34.9,0-67.3,5.2-94.5,14.1c38.2,3.8,76.9,13.8,110.1,34.5c12.2,6.8,22.2,14.6,29.7,23
		c20.7,19.8,19.4,39.2,10.9,55.2c-6.5,14.7-20.3,27.9-39.4,38.8l0,0c0,0,125.9-5.9,157.4-77.8C707.7,822.1,629.6,782.8,533.4,782.8z
		"/>
	<linearGradient id="SVGID_48_" gradientUnits="userSpaceOnUse" x1="309.2203" y1="990.9118" x2="550.67" y2="749.462">
		<stop  offset="0.1486" style="stop-color:#00EED5"/>
		<stop  offset="0.3817" style="stop-color:#3EBBD7"/>
		<stop  offset="0.8094" style="stop-color:#AB62DB"/>
		<stop  offset="1" style="stop-color:#D63EDC"/>
	</linearGradient>
	<path class="st86" d="M468.7,952.2C468.7,952.2,468.7,952.2,468.7,952.2C468.7,952.2,468.7,952.2,468.7,952.2
		c-3.2-0.7-6.4-1.3-9.5-2.1c-0.1,0-0.3-0.1-0.4-0.1c-0.9-0.2-1.8-0.4-2.7-0.7c-67.9-16.4-92.7-44.6-96.2-70.8
		c-0.5-2.6-0.7-5.3-0.7-8c0-7.9,2.1-15.5,5.9-22.7c1.4-2.8,3.2-5.6,5.3-8.4c6.9-9.2,16.7-17.6,28.9-25c11.1-7.4,20.4-12.2,20.4-12.2
		s-27.2,1.9-54.7,4.4c-69.4,11.6-119.6,44.5-119.6,83.4c0,48.5,78,87.9,174.2,87.9c39.9,0,76.6-6.8,106-18.1
		c-15.8-1-32.9-3.1-51.4-6.7C472.4,952.9,470.5,952.6,468.7,952.2z"/>
</g>
<g>
	<linearGradient id="SVGID_49_" gradientUnits="userSpaceOnUse" x1="1667.4924" y1="499.1738" x2="1831.5082" y2="499.1738">
		<stop  offset="0.1486" style="stop-color:#00EED5"/>
		<stop  offset="0.3817" style="stop-color:#3EBBD7"/>
		<stop  offset="0.8094" style="stop-color:#AB62DB"/>
		<stop  offset="1" style="stop-color:#D63EDC"/>
	</linearGradient>
	<path class="st87" d="M1814.9,519c-6.9,8-23,24.3-45.9,21.6c-10.1,7.7-22.7,12.3-36.3,12.3c-33,0-59.8-26.8-59.8-59.8
		c0-26.5,17.2-48.9,41-56.8c-6.6,1.2-13.2,2.6-16.7,3.9c-13,4.9-24.2,9.4-24.2,9.4s-7,18.1-5.4,40.2c3.7,29.1,22.5,53.4,48.4,64.9
		c0.8,0.3,1.5,0.7,2.3,1c0,0,0,0,0,0c1,0.4,2,0.8,2.9,1.1c8.8,3.2,18.3,4.9,28.1,4.9c25,0,47.3-11.1,62.5-28.7
		c15.7-20.7,19.9-42.6,19.5-44.9C1831.5,488.3,1826.7,505.5,1814.9,519z"/>
	<linearGradient id="SVGID_50_" gradientUnits="userSpaceOnUse" x1="1675.7189" y1="438.6464" x2="1832.7899" y2="438.6464">
		<stop  offset="0.1486" style="stop-color:#00EED5"/>
		<stop  offset="0.3817" style="stop-color:#3EBBD7"/>
		<stop  offset="0.8094" style="stop-color:#AB62DB"/>
		<stop  offset="1" style="stop-color:#D63EDC"/>
	</linearGradient>
	<path class="st88" d="M1739.3,429.6c9.3-6,20.5-9.6,32.4-9.6c33,0,59.8,26.8,59.8,59.8c0.2-0.8,0.3-1.6,0.4-2.4
		c-0.6-26.5-13.7-49.8-33.6-64.4c-6.4-4.4-12.8-7.8-18.5-10.2c-4.3-1.7-8.8-3.1-13.4-4l0,0c-6.7-0.7-17.8-2.2-30.6-0.6
		c-21.1,3.6-39.5,15.1-52,31.5c-2.8,3.9-5.5,8.2-8.1,13C1675.7,442.7,1707,423.3,1739.3,429.6z"/>
	<linearGradient id="SVGID_51_" gradientUnits="userSpaceOnUse" x1="1701.1973" y1="547.2315" x2="1813.3513" y2="435.0774">
		<stop  offset="0.1486" style="stop-color:#00EED5"/>
		<stop  offset="0.3817" style="stop-color:#3EBBD7"/>
		<stop  offset="0.8094" style="stop-color:#AB62DB"/>
		<stop  offset="1" style="stop-color:#D63EDC"/>
	</linearGradient>
	<path class="st89" d="M1771.7,420.1c-12,0-23.1,3.5-32.4,9.6c13.1,2.6,26.4,9.4,37.8,23.5c4.2,4.6,7.6,9.9,10.2,15.7
		c7.1,13.5,6.7,26.7,3.7,37.6c-2.2,10-7,19-13.5,26.4l0,0c0,0,43.2-4,54-52.9C1831.5,446.8,1804.7,420.1,1771.7,420.1z"/>
	<linearGradient id="SVGID_52_" gradientUnits="userSpaceOnUse" x1="1686.1659" y1="539.3189" x2="1809.2667" y2="416.2181">
		<stop  offset="0.1486" style="stop-color:#00EED5"/>
		<stop  offset="0.3817" style="stop-color:#3EBBD7"/>
		<stop  offset="0.8094" style="stop-color:#AB62DB"/>
		<stop  offset="1" style="stop-color:#D63EDC"/>
	</linearGradient>
	<path class="st90" d="M1749.5,535.3C1749.5,535.3,1749.5,535.3,1749.5,535.3C1749.5,535.3,1749.5,535.3,1749.5,535.3
		c-1.1-0.4-2.2-0.9-3.3-1.4c0,0-0.1,0-0.1-0.1c-0.3-0.1-0.6-0.3-0.9-0.5c-23.3-11.2-31.8-30.3-33-48.2c-0.2-1.8-0.3-3.6-0.3-5.4
		c0-5.3,0.7-10.5,2-15.4c0.5-1.9,1.1-3.8,1.8-5.7c2.4-6.2,5.7-12,9.9-17c3.8-5.1,7-8.3,7-8.3s-9.3,1.3-18.8,3
		c-23.8,7.9-41,30.3-41,56.8c0,33,26.8,59.8,59.8,59.8c13.7,0,26.3-4.6,36.3-12.3c-5.4-0.7-11.3-2.1-17.6-4.5
		C1750.8,535.8,1750.1,535.6,1749.5,535.3z"/>
</g>
</svg>
