<?xml version="1.0" encoding="utf-8"?>
<!-- Generator: Adobe Illustrator 24.2.0, SVG Export Plug-In . SVG Version: 6.00 Build 0)  -->
<svg version="1.1" id="Layer_01" xmlns="http://www.w3.org/2000/svg" xmlns:xlink="http://www.w3.org/1999/xlink" x="0px" y="0px"
	 viewBox="0 0 612 792" style="enable-background:new 0 0 612 792;" xml:space="preserve">
<style type="text/css">
	.st0{fill:none;stroke:url(#SVGID_1_);stroke-width:2;stroke-miterlimit:10;}
	.st1{fill:none;stroke:url(#SVGID_2_);stroke-width:2;stroke-miterlimit:10;}
	.st2{fill:none;stroke:url(#SVGID_3_);stroke-width:2;stroke-miterlimit:10;}
	.st3{fill:none;stroke:#FFFFFF;stroke-miterlimit:10;}
	.st4{fill:none;stroke:url(#SVGID_4_);stroke-width:3;stroke-miterlimit:10;}
	.st5{fill:none;stroke:url(#SVGID_5_);stroke-miterlimit:10;}
	.st6{fill:none;stroke:url(#SVGID_6_);stroke-miterlimit:10;}
	.st7{fill:#3C019E;}
	.st8{fill:none;}
	.st9{fill:url(#SVGID_7_);}
	.st10{fill:none;stroke:url(#SVGID_8_);stroke-width:3;stroke-miterlimit:10;}
	.st11{fill:none;stroke:url(#SVGID_9_);stroke-width:3;stroke-miterlimit:10;}
	.st12{fill:none;stroke:#00D1B2;stroke-width:5;stroke-miterlimit:10;}
	.st13{fill:none;stroke:url(#SVGID_10_);stroke-miterlimit:10;}
	.st14{fill:none;stroke:url(#SVGID_11_);stroke-miterlimit:10;}
	.st15{fill:#00D1BC;}
	.st16{fill:url(#SVGID_12_);}
</style>
<g>
	<g>
		<linearGradient id="SVGID_1_" gradientUnits="userSpaceOnUse" x1="197.7" y1="477.1062" x2="405.8" y2="477.1062">
			<stop  offset="0.1486" style="stop-color:#00EED5"/>
			<stop  offset="0.3817" style="stop-color:#3EBBD7"/>
			<stop  offset="0.8094" style="stop-color:#AB62DB"/>
			<stop  offset="1" style="stop-color:#D63EDC"/>
		</linearGradient>
		<polygon class="st0" points="198.7,536.1 198.7,415.5 302.2,358.8 404.8,415.5 404.8,536.1 302.2,595.4 		"/>
		<linearGradient id="SVGID_2_" gradientUnits="userSpaceOnUse" x1="198.2035" y1="505.016" x2="303.2" y2="505.016">
			<stop  offset="0.1486" style="stop-color:#00EED5"/>
			<stop  offset="0.3817" style="stop-color:#3EBBD7"/>
			<stop  offset="0.8094" style="stop-color:#AB62DB"/>
			<stop  offset="1" style="stop-color:#D63EDC"/>
		</linearGradient>
		<polyline class="st1" points="302.2,595.4 302.2,474.7 198.7,415.5 		"/>
		<linearGradient id="SVGID_3_" gradientUnits="userSpaceOnUse" x1="301.7002" y1="445.1" x2="405.2998" y2="445.1">
			<stop  offset="0.1486" style="stop-color:#00EED5"/>
			<stop  offset="0.3817" style="stop-color:#3EBBD7"/>
			<stop  offset="0.8094" style="stop-color:#AB62DB"/>
			<stop  offset="1" style="stop-color:#D63EDC"/>
		</linearGradient>
		<line class="st2" x1="404.8" y1="415.5" x2="302.2" y2="474.7"/>
	</g>
	<g>
		<line class="st3" x1="501.1" y1="357.9" x2="302.7" y2="472.6"/>
		<polygon class="st3" points="102.4,591.3 102.4,357.9 302.7,248.2 501.1,357.9 501.1,591.3 302.7,705.9 		"/>
		<polyline class="st3" points="302.7,705.9 302.7,472.6 102.4,357.9 		"/>
	</g>
	<g>
		<g>
			<linearGradient id="SVGID_4_" gradientUnits="userSpaceOnUse" x1="273.1" y1="31.1595" x2="330.4" y2="31.1595">
				<stop  offset="0.1486" style="stop-color:#00EED5"/>
				<stop  offset="0.3817" style="stop-color:#3EBBD7"/>
				<stop  offset="0.8094" style="stop-color:#AB62DB"/>
				<stop  offset="1" style="stop-color:#D63EDC"/>
			</linearGradient>
			<polygon class="st4" points="274.6,46.7 274.6,14.9 301.9,0 328.9,14.9 328.9,46.7 301.9,62.3 			"/>
			
				<linearGradient id="SVGID_5_" gradientUnits="userSpaceOnUse" x1="274.3507" y1="755.6167" x2="302.4" y2="755.6167" gradientTransform="matrix(1 0 0 -1 0 794)">
				<stop  offset="0.1486" style="stop-color:#00EED5"/>
				<stop  offset="0.3817" style="stop-color:#3EBBD7"/>
				<stop  offset="0.8094" style="stop-color:#AB62DB"/>
				<stop  offset="1" style="stop-color:#D63EDC"/>
			</linearGradient>
			<polyline class="st5" points="301.9,62.3 301.9,30.6 274.6,14.9 			"/>
			
				<linearGradient id="SVGID_6_" gradientUnits="userSpaceOnUse" x1="301.6487" y1="771.25" x2="329.1513" y2="771.25" gradientTransform="matrix(1 0 0 -1 0 794)">
				<stop  offset="0.1486" style="stop-color:#00EED5"/>
				<stop  offset="0.3817" style="stop-color:#3EBBD7"/>
				<stop  offset="0.8094" style="stop-color:#AB62DB"/>
				<stop  offset="1" style="stop-color:#D63EDC"/>
			</linearGradient>
			<line class="st6" x1="328.9" y1="14.9" x2="301.9" y2="30.6"/>
		</g>
		<g>
			<g>
				<polygon class="st7" points="275.3,46.5 275.3,15.4 302,0.8 328.4,15.4 328.4,46.5 302,61.7 				"/>
				<polyline class="st7" points="302,61.7 302,30.7 275.3,15.4 				"/>
				<line class="st8" x1="328.4" y1="15.4" x2="302" y2="30.7"/>
			</g>
			
				<linearGradient id="SVGID_7_" gradientUnits="userSpaceOnUse" x1="301.5618" y1="763.1611" x2="302.6223" y2="763.1611" gradientTransform="matrix(1 0 0 -1 0 794)">
				<stop  offset="0" style="stop-color:#6666FF"/>
				<stop  offset="1" style="stop-color:#897DE4"/>
			</linearGradient>
			<path class="st9" d="M301.6,31.1l0.5-0.7l0.5,0.7C302.6,31.1,302.3,31.5,301.6,31.1z"/>
			<linearGradient id="SVGID_8_" gradientUnits="userSpaceOnUse" x1="274.6542" y1="23.05" x2="302.8458" y2="23.05">
				<stop  offset="0.1486" style="stop-color:#00EED5"/>
				<stop  offset="0.3817" style="stop-color:#3EBBD7"/>
				<stop  offset="0.8094" style="stop-color:#AB62DB"/>
				<stop  offset="1" style="stop-color:#D63EDC"/>
			</linearGradient>
			<line class="st10" x1="302.1" y1="30.7" x2="275.4" y2="15.4"/>
			<linearGradient id="SVGID_9_" gradientUnits="userSpaceOnUse" x1="301.3479" y1="23.05" x2="329.2521" y2="23.05">
				<stop  offset="0.1486" style="stop-color:#00EED5"/>
				<stop  offset="0.3817" style="stop-color:#3EBBD7"/>
				<stop  offset="0.8094" style="stop-color:#AB62DB"/>
				<stop  offset="1" style="stop-color:#D63EDC"/>
			</linearGradient>
			<line class="st11" x1="328.5" y1="15.4" x2="302.1" y2="30.7"/>
		</g>
	</g>
	<g>
		<polygon class="st12" points="238.9,250.5 238.9,177 302,142.5 364.6,177 364.6,250.5 302,286.7 		"/>
		
			<linearGradient id="SVGID_10_" gradientUnits="userSpaceOnUse" x1="238.6517" y1="562.367" x2="302.5" y2="562.367" gradientTransform="matrix(1 0 0 -1 0 794)">
			<stop  offset="0" style="stop-color:#6666FF"/>
			<stop  offset="1" style="stop-color:#897DE4"/>
		</linearGradient>
		<polyline class="st13" points="302,286.7 302,213.1 238.9,177 		"/>
		
			<linearGradient id="SVGID_11_" gradientUnits="userSpaceOnUse" x1="301.7502" y1="598.95" x2="364.7805" y2="598.95" gradientTransform="matrix(1 0 0 -1 0 794)">
			<stop  offset="0" style="stop-color:#6666FF"/>
			<stop  offset="1" style="stop-color:#897DE4"/>
		</linearGradient>
		<line class="st14" x1="364.6" y1="177" x2="302" y2="213.1"/>
	</g>
	<circle class="st15" cx="582.1" cy="386.2" r="3"/>
	<circle class="st15" cx="529.9" cy="299.9" r="3"/>
	<circle class="st15" cx="470.6" cy="262.5" r="3"/>
	<circle class="st15" cx="302.7" cy="304.1" r="3"/>
	<circle class="st15" cx="302.7" cy="337.1" r="3"/>
	<g>
		<circle class="st15" cx="152.5" cy="564.6" r="3"/>
		<circle class="st15" cx="181.5" cy="548.1" r="3"/>
		<circle class="st15" cx="120.6" cy="582.7" r="3"/>
	</g>
	<g>
		<circle class="st15" cx="456.6" cy="562" r="3"/>
		<circle class="st15" cx="485.6" cy="578.5" r="3"/>
		<circle class="st15" cx="424.7" cy="543.9" r="3"/>
	</g>
	<circle class="st15" cx="561.6" cy="318.3" r="3"/>
	<circle class="st15" cx="501.1" cy="280.6" r="3"/>
	<circle class="st15" cx="440.5" cy="245.3" r="3"/>
	<circle class="st15" cx="383.2" cy="209.4" r="3"/>
	<circle class="st15" cx="411.6" cy="226.9" r="3"/>
	<circle class="st15" cx="582.7" cy="350.5" r="3"/>
	<circle class="st15" cx="582.1" cy="420.7" r="3"/>
	<circle class="st15" cx="582.1" cy="456.1" r="3"/>
	<circle class="st15" cx="582.1" cy="489.5" r="3"/>
	<circle class="st15" cx="582.7" cy="526" r="3"/>
	<circle class="st15" cx="494.5" cy="682.6" r="3"/>
	<circle class="st15" cx="580.8" cy="629.6" r="3"/>
	<circle class="st15" cx="582.1" cy="559.7" r="3"/>
	<circle class="st15" cx="582.1" cy="595.4" r="3"/>
	<circle class="st15" cx="555.3" cy="649.2" r="3"/>
	<circle class="st15" cx="526.8" cy="665.2" r="3"/>
	<circle class="st15" cx="463.4" cy="697.5" r="3"/>
	<circle class="st15" cx="432.5" cy="715.4" r="3"/>
	<circle class="st15" cx="401.8" cy="731.8" r="3"/>
	<circle class="st15" cx="371.7" cy="746.6" r="3"/>
	<circle class="st15" cx="340.8" cy="763.9" r="3"/>
	<circle class="st15" cx="310.8" cy="780.6" r="3"/>
	<circle class="st15" cx="280.1" cy="774.7" r="3"/>
	<circle class="st15" cx="247.5" cy="755.8" r="3"/>
	<circle class="st15" cx="220.2" cy="740.7" r="3"/>
	<circle class="st15" cx="157.8" cy="705.9" r="3"/>
	<circle class="st15" cx="125.1" cy="689" r="3"/>
	<circle class="st15" cx="188.1" cy="721.3" r="3"/>
	<circle class="st15" cx="66.1" cy="654.6" r="3"/>
	<circle class="st15" cx="97.9" cy="671.5" r="3"/>
	<circle class="st15" cx="36.3" cy="638.3" r="3"/>
	<circle class="st15" cx="29.3" cy="605.9" r="3"/>
	<circle class="st15" cx="30.4" cy="573.7" r="3"/>
	<circle class="st15" cx="30.4" cy="536.8" r="3"/>
	<circle class="st15" cx="29.3" cy="504.5" r="3"/>
	<circle class="st15" cx="29.3" cy="467.8" r="3"/>
	<circle class="st15" cx="29.3" cy="435.2" r="3"/>
	<circle class="st15" cx="29.3" cy="399.3" r="3"/>
	<circle class="st15" cx="29.3" cy="363.4" r="3"/>
	<circle class="st15" cx="202.5" cy="219.3" r="3"/>
	<circle class="st15" cx="169" cy="238.2" r="3"/>
	<circle class="st15" cx="139.2" cy="253.2" r="3"/>
	<circle class="st15" cx="29.3" cy="327.8" r="3"/>
	<circle class="st15" cx="48.1" cy="302.9" r="3"/>
	<circle class="st15" cx="229.9" cy="203.5" r="3"/>
	<circle class="st15" cx="108.1" cy="271.5" r="3"/>
	<circle class="st15" cx="78.4" cy="286.7" r="3"/>
	<g>
		<g>
			<polygon class="st7" points="240.6,250 240.6,178.1 302.3,144.3 363.5,178.1 363.5,250 302.3,285.3 			"/>
			<polyline class="st7" points="302.3,285.3 302.3,213.4 240.6,178.1 			"/>
			<line class="st8" x1="363.5" y1="178.1" x2="302.3" y2="213.4"/>
		</g>
		
			<linearGradient id="SVGID_12_" gradientUnits="userSpaceOnUse" x1="301.317" y1="580.1722" x2="303.7705" y2="580.1722" gradientTransform="matrix(1 0 0 -1 0 794)">
			<stop  offset="0" style="stop-color:#6666FF"/>
			<stop  offset="1" style="stop-color:#897DE4"/>
		</linearGradient>
		<path class="st16" d="M301.3,214.5l1.3-1.7l1.2,1.7C303.8,214.5,302.9,215.3,301.3,214.5z"/>
		<line class="st12" x1="302.6" y1="213.4" x2="240.8" y2="178.1"/>
		<line class="st12" x1="363.7" y1="178.1" x2="302.6" y2="213.4"/>
	</g>
</g>
<text transform="matrix(1 0 0 1 -2911.5 -3331.5)" style="font-family:'ArialMT'; font-size:12px;">    max-width: 600px;</text>
<text transform="matrix(1 0 0 1 -2911.5 -3317.1001)" style="font-family:'ArialMT'; font-size:12px;">    margin: 0 auto;</text>
</svg>
