<?xml version="1.0" encoding="utf-8"?>
<!-- Generator: Adobe Illustrator 24.2.0, SVG Export Plug-In . SVG Version: 6.00 Build 0)  -->
<svg version="1.1" id="Capa_1" xmlns="http://www.w3.org/2000/svg" xmlns:xlink="http://www.w3.org/1999/xlink" x="0px" y="0px"
	 viewBox="0 0 512 512" style="enable-background:new 0 0 512 512;" xml:space="preserve">
<style type="text/css">
	.st0{fill:none;stroke:#FFFFFF;stroke-width:8;stroke-miterlimit:10;}
	.st1{fill:none;stroke:#FFFFFF;stroke-width:8;stroke-linecap:round;stroke-linejoin:round;stroke-miterlimit:10;}
	.st2{fill:none;stroke:url(#SVGID_1_);stroke-width:4;stroke-miterlimit:10;}
	.st3{fill:none;stroke:url(#SVGID_2_);stroke-width:8;stroke-miterlimit:10;}
	.st4{fill:none;stroke:url(#SVGID_3_);stroke-width:8;stroke-miterlimit:10;}
	.st5{fill:none;stroke:url(#SVGID_4_);stroke-width:8;stroke-miterlimit:10;}
</style>
<path id="Stroke-35-Copy-3_1_" class="st0" d="M169.9,85.3c0,15.3-13.1,26.2-26.2,26.2c-13.1,0-26.2-13.1-26.2-26.2
	c0-15.3,13.1-26.2,26.2-26.2C156.8,59.1,169.9,70,169.9,85.3L169.9,85.3z"/>
<g id="Fill-5-Copy-3_1_">
	<path id="path-1_1_" class="st0" d="M231.5,434.7H115.3c-10.9,0-19.6-8.7-19.6-19.6V55.3c0-4.4,0-6.5,2.2-10.9
		c2.2-2.2,2.2-6.5,6.5-8.7c4.4-4.4,10.9-6.5,17.4-6.5h181h2.2l111.2,111.2v2.2V227"/>
</g>
<path id="Stroke-14-Copy-3_1_" class="st1" d="M206.9,87.5h48"/>
<path id="Stroke-8-Copy-2_1_" class="st1" d="M143.7,186.1h154.8"/>
<path id="Stroke-8-Copy-3_1_" class="st1" d="M143.7,240.7h146.1"/>
<path id="Stroke-8-Copy-4_1_" class="st1" d="M143.7,284.3h63.8"/>
<linearGradient id="SVGID_1_" gradientUnits="userSpaceOnUse" x1="219.3995" y1="345.1" x2="489.9" y2="345.1">
	<stop  offset="0.1486" style="stop-color:#00EED5"/>
	<stop  offset="0.3817" style="stop-color:#3EBBD7"/>
	<stop  offset="0.8094" style="stop-color:#AB62DB"/>
	<stop  offset="1" style="stop-color:#D63EDC"/>
</linearGradient>
<path class="st2" d="M291.6,449.9c20.1,13.5,44.2,21.3,70.2,21.3c69.7,0,126.1-56.5,126.1-126.1S431.5,219,361.9,219
	s-126.1,56.5-126.1,126.1c0,17.4,3.5,34,9.9,49.1c0,0-8.1,51.3-22.6,66.3S291.6,449.9,291.6,449.9z"/>
<g>
	
		<linearGradient id="SVGID_2_" gradientUnits="userSpaceOnUse" x1="310" y1="171.2" x2="339.5" y2="171.2" gradientTransform="matrix(1 0 0 -1 0 514)">
		<stop  offset="0.1486" style="stop-color:#00EED5"/>
		<stop  offset="0.3817" style="stop-color:#3EBBD7"/>
		<stop  offset="0.8094" style="stop-color:#AB62DB"/>
		<stop  offset="1" style="stop-color:#D63EDC"/>
	</linearGradient>
	<circle class="st3" cx="324.8" cy="342.8" r="10.8"/>
	
		<linearGradient id="SVGID_3_" gradientUnits="userSpaceOnUse" x1="345.8456" y1="171.2" x2="375.3456" y2="171.2" gradientTransform="matrix(1 0 0 -1 0 514)">
		<stop  offset="0.1486" style="stop-color:#00EED5"/>
		<stop  offset="0.3817" style="stop-color:#3EBBD7"/>
		<stop  offset="0.8094" style="stop-color:#AB62DB"/>
		<stop  offset="1" style="stop-color:#D63EDC"/>
	</linearGradient>
	<circle class="st4" cx="360.6" cy="342.8" r="10.8"/>
	
		<linearGradient id="SVGID_4_" gradientUnits="userSpaceOnUse" x1="381.6912" y1="171.2" x2="411.1912" y2="171.2" gradientTransform="matrix(1 0 0 -1 0 514)">
		<stop  offset="0.1486" style="stop-color:#00EED5"/>
		<stop  offset="0.3817" style="stop-color:#3EBBD7"/>
		<stop  offset="0.8094" style="stop-color:#AB62DB"/>
		<stop  offset="1" style="stop-color:#D63EDC"/>
	</linearGradient>
	<circle class="st5" cx="396.4" cy="342.8" r="10.8"/>
</g>
</svg>
