<?xml version="1.0" encoding="utf-8"?>
<!-- Generator: Adobe Illustrator 24.2.0, SVG Export Plug-In . SVG Version: 6.00 Build 0)  -->
<svg version="1.1" id="Capa_1" xmlns="http://www.w3.org/2000/svg" xmlns:xlink="http://www.w3.org/1999/xlink" x="0px" y="0px"
	 viewBox="0 0 612 792" style="enable-background:new 0 0 612 792;" xml:space="preserve">
<style type="text/css">
	.st0{fill:url(#SVGID_1_);stroke:url(#SVGID_2_);stroke-miterlimit:10;}
	.st1{fill:url(#SVGID_3_);stroke:url(#SVGID_4_);stroke-miterlimit:10;}
	.st2{fill:url(#SVGID_5_);stroke:url(#SVGID_6_);stroke-miterlimit:10;}
	.st3{fill:url(#SVGID_7_);stroke:url(#SVGID_8_);stroke-miterlimit:10;}
	.st4{fill:url(#SVGID_9_);stroke:url(#SVGID_10_);stroke-miterlimit:10;}
	.st5{fill:url(#SVGID_11_);stroke:url(#SVGID_12_);stroke-miterlimit:10;}
	.st6{fill:url(#SVGID_13_);}
	.st7{fill:url(#SVGID_14_);}
	.st8{fill:none;stroke:url(#SVGID_15_);stroke-width:4;stroke-miterlimit:10;}
	.st9{fill:none;stroke:url(#SVGID_16_);stroke-width:4;stroke-miterlimit:10;}
	.st10{fill:none;stroke:#FFFFFF;stroke-width:4;stroke-miterlimit:10;}
	.st11{fill:none;stroke:url(#SVGID_17_);stroke-width:4;stroke-miterlimit:10;}
	.st12{fill:none;stroke:url(#SVGID_18_);stroke-width:4;stroke-miterlimit:10;}
	.st13{fill:none;stroke:#FFFFFF;stroke-width:6;stroke-miterlimit:10;}
	.st14{fill:none;stroke:url(#SVGID_19_);stroke-width:4;stroke-miterlimit:10;}
	.st15{fill:none;stroke:url(#SVGID_20_);stroke-width:6;stroke-miterlimit:10;}
	.st16{fill:none;stroke:url(#SVGID_21_);stroke-width:6;stroke-miterlimit:10;}
	.st17{fill:none;stroke:url(#SVGID_22_);stroke-width:4;stroke-miterlimit:10;}
	.st18{fill:none;stroke:url(#SVGID_23_);stroke-width:4;stroke-miterlimit:10;}
	.st19{fill:url(#SVGID_24_);}
	.st20{fill:url(#SVGID_25_);}
	.st21{fill:url(#SVGID_26_);}
	.st22{fill:url(#SVGID_27_);}
</style>
<g>
	
		<linearGradient id="SVGID_1_" gradientUnits="userSpaceOnUse" x1="54.6" y1="17364.1992" x2="61.2" y2="17364.1992" gradientTransform="matrix(1 0 0 1 0 -16740)">
		<stop  offset="9.817236e-08" style="stop-color:#3F00FC"/>
		<stop  offset="1" style="stop-color:#7F00FF"/>
	</linearGradient>
	
		<linearGradient id="SVGID_2_" gradientUnits="userSpaceOnUse" x1="54.1" y1="17364.1992" x2="61.7" y2="17364.1992" gradientTransform="matrix(1 0 0 1 0 -16740)">
		<stop  offset="9.817236e-08" style="stop-color:#3F00FC"/>
		<stop  offset="1" style="stop-color:#7F00FF"/>
	</linearGradient>
	<circle class="st0" cx="57.9" cy="624.2" r="3.3"/>
	
		<linearGradient id="SVGID_3_" gradientUnits="userSpaceOnUse" x1="54.6" y1="17322.8008" x2="61.2" y2="17322.8008" gradientTransform="matrix(1 0 0 1 0 -16740)">
		<stop  offset="9.817236e-08" style="stop-color:#3F00FC"/>
		<stop  offset="1" style="stop-color:#7F00FF"/>
	</linearGradient>
	
		<linearGradient id="SVGID_4_" gradientUnits="userSpaceOnUse" x1="54.1" y1="17322.8008" x2="61.7" y2="17322.8008" gradientTransform="matrix(1 0 0 1 0 -16740)">
		<stop  offset="9.817236e-08" style="stop-color:#3F00FC"/>
		<stop  offset="1" style="stop-color:#7F00FF"/>
	</linearGradient>
	<circle class="st1" cx="57.9" cy="582.8" r="3.3"/>
	
		<linearGradient id="SVGID_5_" gradientUnits="userSpaceOnUse" x1="53.4" y1="17286.5996" x2="60" y2="17286.5996" gradientTransform="matrix(1 0 0 1 0 -16740)">
		<stop  offset="9.817236e-08" style="stop-color:#3F00FC"/>
		<stop  offset="1" style="stop-color:#7F00FF"/>
	</linearGradient>
	
		<linearGradient id="SVGID_6_" gradientUnits="userSpaceOnUse" x1="52.9" y1="17286.5996" x2="60.5" y2="17286.5996" gradientTransform="matrix(1 0 0 1 0 -16740)">
		<stop  offset="9.817236e-08" style="stop-color:#3F00FC"/>
		<stop  offset="1" style="stop-color:#7F00FF"/>
	</linearGradient>
	<circle class="st2" cx="56.7" cy="546.6" r="3.3"/>
	
		<linearGradient id="SVGID_7_" gradientUnits="userSpaceOnUse" x1="53.4" y1="17245.3008" x2="60" y2="17245.3008" gradientTransform="matrix(1 0 0 1 0 -16740)">
		<stop  offset="9.817236e-08" style="stop-color:#3F00FC"/>
		<stop  offset="1" style="stop-color:#7F00FF"/>
	</linearGradient>
	
		<linearGradient id="SVGID_8_" gradientUnits="userSpaceOnUse" x1="52.9" y1="17245.3008" x2="60.5" y2="17245.3008" gradientTransform="matrix(1 0 0 1 0 -16740)">
		<stop  offset="9.817236e-08" style="stop-color:#3F00FC"/>
		<stop  offset="1" style="stop-color:#7F00FF"/>
	</linearGradient>
	<circle class="st3" cx="56.7" cy="505.3" r="3.3"/>
	
		<linearGradient id="SVGID_9_" gradientUnits="userSpaceOnUse" x1="53.4" y1="17208.6992" x2="60" y2="17208.6992" gradientTransform="matrix(1 0 0 1 0 -16740)">
		<stop  offset="9.817236e-08" style="stop-color:#3F00FC"/>
		<stop  offset="1" style="stop-color:#7F00FF"/>
	</linearGradient>
	
		<linearGradient id="SVGID_10_" gradientUnits="userSpaceOnUse" x1="52.9" y1="17208.6992" x2="60.5" y2="17208.6992" gradientTransform="matrix(1 0 0 1 0 -16740)">
		<stop  offset="9.817236e-08" style="stop-color:#3F00FC"/>
		<stop  offset="1" style="stop-color:#7F00FF"/>
	</linearGradient>
	<circle class="st4" cx="56.7" cy="468.7" r="3.3"/>
	
		<linearGradient id="SVGID_11_" gradientUnits="userSpaceOnUse" x1="53.4" y1="17168.4004" x2="60" y2="17168.4004" gradientTransform="matrix(1 0 0 1 0 -16740)">
		<stop  offset="9.817236e-08" style="stop-color:#3F00FC"/>
		<stop  offset="1" style="stop-color:#7F00FF"/>
	</linearGradient>
	
		<linearGradient id="SVGID_12_" gradientUnits="userSpaceOnUse" x1="52.9" y1="17168.4004" x2="60.5" y2="17168.4004" gradientTransform="matrix(1 0 0 1 0 -16740)">
		<stop  offset="9.817236e-08" style="stop-color:#3F00FC"/>
		<stop  offset="1" style="stop-color:#7F00FF"/>
	</linearGradient>
	<circle class="st5" cx="56.7" cy="428.4" r="3.3"/>
</g>
<linearGradient id="SVGID_13_" gradientUnits="userSpaceOnUse" x1="487.5" y1="16988.8008" x2="494.1" y2="16988.8008" gradientTransform="matrix(1 0 0 1 0 -16740)">
	<stop  offset="9.817236e-08" style="stop-color:#3F00FC"/>
	<stop  offset="1" style="stop-color:#7F00FF"/>
</linearGradient>
<circle class="st6" cx="490.8" cy="248.8" r="3.3"/>
<linearGradient id="SVGID_14_" gradientUnits="userSpaceOnUse" x1="487.5" y1="16948.5996" x2="494.1" y2="16948.5996" gradientTransform="matrix(1 0 0 1 0 -16740)">
	<stop  offset="9.817236e-08" style="stop-color:#3F00FC"/>
	<stop  offset="1" style="stop-color:#7F00FF"/>
</linearGradient>
<circle class="st7" cx="490.8" cy="208.6" r="3.3"/>
<text transform="matrix(1 0 0 1 -2911.5 -3331.5)" style="font-family:'ArialMT'; font-size:12px;">    max-width: 600px;</text>
<text transform="matrix(1 0 0 1 -2911.5 -3317.1001)" style="font-family:'ArialMT'; font-size:12px;">    margin: 0 auto;</text>
<g>
	<linearGradient id="SVGID_15_" gradientUnits="userSpaceOnUse" x1="269.4" y1="503.012" x2="445.3" y2="503.012">
		<stop  offset="0.1486" style="stop-color:#00EED5"/>
		<stop  offset="0.3817" style="stop-color:#3EBBD7"/>
		<stop  offset="0.8094" style="stop-color:#AB62DB"/>
		<stop  offset="1" style="stop-color:#D63EDC"/>
	</linearGradient>
	<polygon class="st8" points="271.4,451.7 357.7,404.4 443.3,451.7 443.3,552.2 357.7,601.6 271.4,552.2 	"/>
	<linearGradient id="SVGID_16_" gradientUnits="userSpaceOnUse" x1="270.4209" y1="476.4286" x2="444.2991" y2="476.4286">
		<stop  offset="0.1486" style="stop-color:#00EED5"/>
		<stop  offset="0.3817" style="stop-color:#3EBBD7"/>
		<stop  offset="0.8094" style="stop-color:#AB62DB"/>
		<stop  offset="1" style="stop-color:#D63EDC"/>
	</linearGradient>
	<polyline class="st9" points="271.4,451.7 358.5,500.6 443.3,451.7 	"/>
</g>
<g>
	<polygon class="st10" points="459.5,118.5 491.2,101.1 522.7,118.5 522.7,155.4 491.2,173.5 459.5,155.4 	"/>
	<polyline class="st10" points="459.5,118.5 491.5,136.5 522.7,118.5 	"/>
</g>
<g>
	
		<linearGradient id="SVGID_17_" gradientUnits="userSpaceOnUse" x1="463" y1="476.7877" x2="586.2" y2="476.7877" gradientTransform="matrix(1 0 0 -1 0 794)">
		<stop  offset="0.1486" style="stop-color:#00EED5"/>
		<stop  offset="0.3817" style="stop-color:#3EBBD7"/>
		<stop  offset="0.8094" style="stop-color:#AB62DB"/>
		<stop  offset="1" style="stop-color:#D63EDC"/>
	</linearGradient>
	<polygon class="st11" points="524.9,385.6 465,351.3 465,281.6 524.9,248.8 584.2,281.6 584.2,351.3 	"/>
	
		<linearGradient id="SVGID_18_" gradientUnits="userSpaceOnUse" x1="465.7972" y1="494.6513" x2="585.2195" y2="494.6513" gradientTransform="matrix(1 0 0 -1 0 794)">
		<stop  offset="0.1486" style="stop-color:#00EED5"/>
		<stop  offset="0.3817" style="stop-color:#3EBBD7"/>
		<stop  offset="0.8094" style="stop-color:#AB62DB"/>
		<stop  offset="1" style="stop-color:#D63EDC"/>
	</linearGradient>
	<polyline class="st12" points="466.8,282.6 525.3,316.5 584.2,281.6 	"/>
	<polygon class="st13" points="465,436.8 465,367 479,359.3 524.9,385.6 571.4,358.6 584.2,367 584.2,436.8 524.9,471 	"/>
	<polyline class="st13" points="465,367 525.4,401 584.2,367 	"/>
	<polygon class="st13" points="524.9,554.6 465,521.8 463,450.6 477.3,443.8 524.9,471 571.9,443.8 584.2,450.6 584.2,520.3 	"/>
	<polyline class="st13" points="463,450.6 525,485.1 584.2,450.6 	"/>
	<polygon class="st13" points="524.9,638.6 465,604.3 465,534.5 476.5,528.1 524.9,554.6 571.6,527.5 584.2,534.5 584.2,604.3 	"/>
	<polyline class="st13" points="465,534.5 525.4,568.5 584.2,534.5 	"/>
	
		<linearGradient id="SVGID_19_" gradientUnits="userSpaceOnUse" x1="465.7972" y1="425.7513" x2="585.2195" y2="425.7513" gradientTransform="matrix(1 0 0 -1 0 794)">
		<stop  offset="0.1486" style="stop-color:#00EED5"/>
		<stop  offset="0.3817" style="stop-color:#3EBBD7"/>
		<stop  offset="0.8094" style="stop-color:#AB62DB"/>
		<stop  offset="1" style="stop-color:#D63EDC"/>
	</linearGradient>
	<polyline class="st14" points="466.8,351.5 525.3,385.4 584.2,350.5 	"/>
</g>
<g>
	<polyline class="st13" points="423.2,206.8 443.6,217.5 443.6,318.1 358.1,367.5 271.8,320.3 271.8,217.5 290.1,207.4 	"/>
	<polyline class="st13" points="271.8,217.5 358.8,267.3 443.6,217.5 	"/>
	<g>
		
			<linearGradient id="SVGID_20_" gradientUnits="userSpaceOnUse" x1="268.2" y1="647.882" x2="446.1" y2="647.882" gradientTransform="matrix(1 0 0 -1 0 794)">
			<stop  offset="0.1486" style="stop-color:#00EED5"/>
			<stop  offset="0.3817" style="stop-color:#3EBBD7"/>
			<stop  offset="0.8094" style="stop-color:#AB62DB"/>
			<stop  offset="1" style="stop-color:#D63EDC"/>
		</linearGradient>
		<polygon class="st15" points="271.2,94.8 357.5,47.5 443.1,94.8 443.1,195.3 357.5,244.7 271.2,195.3 		"/>
		
			<linearGradient id="SVGID_21_" gradientUnits="userSpaceOnUse" x1="269.7314" y1="674.3322" x2="444.5986" y2="674.3322" gradientTransform="matrix(1 0 0 -1 0 794)">
			<stop  offset="0.1486" style="stop-color:#00EED5"/>
			<stop  offset="0.3817" style="stop-color:#3EBBD7"/>
			<stop  offset="0.8094" style="stop-color:#AB62DB"/>
			<stop  offset="1" style="stop-color:#D63EDC"/>
		</linearGradient>
		<polyline class="st16" points="271.2,94.8 358.3,143.7 443.1,94.8 		"/>
	</g>
</g>
<g>
	
		<linearGradient id="SVGID_22_" gradientUnits="userSpaceOnUse" x1="25.9" y1="445.4367" x2="88.9" y2="445.4367" gradientTransform="matrix(1 0 0 -1 0 794)">
		<stop  offset="0.1486" style="stop-color:#00EED5"/>
		<stop  offset="0.3817" style="stop-color:#3EBBD7"/>
		<stop  offset="0.8094" style="stop-color:#AB62DB"/>
		<stop  offset="1" style="stop-color:#D63EDC"/>
	</linearGradient>
	<polygon class="st17" points="27.9,330.9 57.5,314.7 86.9,330.9 86.9,365.4 57.5,382.4 27.9,365.4 	"/>
	
		<linearGradient id="SVGID_23_" gradientUnits="userSpaceOnUse" x1="26.9178" y1="454.4203" x2="87.8974" y2="454.4203" gradientTransform="matrix(1 0 0 -1 0 794)">
		<stop  offset="0.1486" style="stop-color:#00EED5"/>
		<stop  offset="0.3817" style="stop-color:#3EBBD7"/>
		<stop  offset="0.8094" style="stop-color:#AB62DB"/>
		<stop  offset="1" style="stop-color:#D63EDC"/>
	</linearGradient>
	<polyline class="st18" points="27.9,330.9 57.7,347.7 86.9,330.9 	"/>
</g>
<g>
	<polygon class="st13" points="110.1,306.9 183.5,266.6 256.4,306.9 256.4,392.4 183.5,434.5 110.1,392.4 	"/>
	<polyline class="st13" points="110.1,306.9 184.2,348.5 256.4,306.9 	"/>
</g>
<polyline class="st13" points="236.7,403.8 252.9,412.8 252.9,495.3 182.7,535.8 111.9,495.3 111.9,412.8 129.1,403.3 "/>
<polyline class="st13" points="111.9,412.8 183.3,453 252.9,412.8 "/>
<polyline class="st13" points="236.7,503.7 252.9,512.6 252.9,595.1 182.7,635.6 111.9,595.1 111.9,512.6 129.1,503.2 "/>
<polyline class="st13" points="111.9,512.6 183.3,552.8 252.9,512.6 "/>
<polyline class="st13" points="236.7,603.6 252.9,612.5 252.9,695 182.7,735.5 111.9,695 111.9,612.5 129.1,603.1 "/>
<polyline class="st13" points="111.9,612.5 183.3,652.7 252.9,612.5 "/>
<g>
	<linearGradient id="SVGID_24_" gradientUnits="userSpaceOnUse" x1="753.5235" y1="258.3374" x2="833.8513" y2="258.3374">
		<stop  offset="0.1486" style="stop-color:#00EED5"/>
		<stop  offset="0.3817" style="stop-color:#3EBBD7"/>
		<stop  offset="0.8094" style="stop-color:#AB62DB"/>
		<stop  offset="1" style="stop-color:#D63EDC"/>
	</linearGradient>
	<path class="st19" d="M825.7,268.1c-3.4,3.9-11.2,11.9-22.5,10.6c-4.9,3.8-11.1,6-17.8,6c-16.2,0-29.3-13.1-29.3-29.3
		c0-13,8.4-23.9,20.1-27.8c-3.2,0.6-6.5,1.3-8.2,1.9c-6.4,2.4-11.8,4.6-11.8,4.6s-3.4,8.9-2.6,19.7c1.8,14.2,11,26.2,23.7,31.8
		c0.4,0.2,0.7,0.3,1.1,0.5c0,0,0,0,0,0c0.5,0.2,1,0.4,1.4,0.6c4.3,1.6,8.9,2.4,13.8,2.4c12.2,0,23.2-5.4,30.6-14
		c7.7-10.2,9.8-20.9,9.6-22C833.8,253,831.5,261.4,825.7,268.1z"/>
	<linearGradient id="SVGID_25_" gradientUnits="userSpaceOnUse" x1="757.5524" y1="228.6937" x2="834.479" y2="228.6937">
		<stop  offset="0.1486" style="stop-color:#00EED5"/>
		<stop  offset="0.3817" style="stop-color:#3EBBD7"/>
		<stop  offset="0.8094" style="stop-color:#AB62DB"/>
		<stop  offset="1" style="stop-color:#D63EDC"/>
	</linearGradient>
	<path class="st20" d="M788.7,224.3c4.6-3,10-4.7,15.9-4.7c16.2,0,29.3,13.1,29.3,29.3c0.1-0.4,0.1-0.8,0.2-1.2
		c-0.3-13-6.7-24.4-16.5-31.6c-3.1-2.1-6.3-3.8-9.1-5c-2.1-0.8-4.3-1.5-6.6-2l0,0c-3.3-0.3-8.7-1.1-15-0.3
		c-10.4,1.7-19.4,7.4-25.4,15.4c-1.4,1.9-2.7,4-3.9,6.4C757.6,230.7,772.9,221.2,788.7,224.3z"/>
	<linearGradient id="SVGID_26_" gradientUnits="userSpaceOnUse" x1="770.0306" y1="281.874" x2="824.9589" y2="226.9458">
		<stop  offset="0.1486" style="stop-color:#00EED5"/>
		<stop  offset="0.3817" style="stop-color:#3EBBD7"/>
		<stop  offset="0.8094" style="stop-color:#AB62DB"/>
		<stop  offset="1" style="stop-color:#D63EDC"/>
	</linearGradient>
	<path class="st21" d="M804.6,219.6c-5.9,0-11.3,1.7-15.9,4.7c6.4,1.3,12.9,4.6,18.5,11.5c2,2.3,3.7,4.8,5,7.7
		c3.5,6.6,3.3,13.1,1.8,18.4c-1.1,4.9-3.4,9.3-6.6,12.9l0,0c0,0,21.2-2,26.5-25.9C833.8,232.7,820.7,219.6,804.6,219.6z"/>
	<linearGradient id="SVGID_27_" gradientUnits="userSpaceOnUse" x1="762.6689" y1="277.9987" x2="822.9584" y2="217.7093">
		<stop  offset="0.1486" style="stop-color:#00EED5"/>
		<stop  offset="0.3817" style="stop-color:#3EBBD7"/>
		<stop  offset="0.8094" style="stop-color:#AB62DB"/>
		<stop  offset="1" style="stop-color:#D63EDC"/>
	</linearGradient>
	<path class="st22" d="M793.7,276C793.7,276,793.7,276,793.7,276C793.7,276,793.7,276,793.7,276c-0.5-0.2-1.1-0.4-1.6-0.7
		c0,0,0,0-0.1,0c-0.2-0.1-0.3-0.1-0.5-0.2c-11.4-5.5-15.6-14.9-16.2-23.6c-0.1-0.9-0.1-1.8-0.1-2.7c0-2.6,0.3-5.2,1-7.6
		c0.2-0.9,0.5-1.9,0.9-2.8c1.2-3.1,2.8-5.9,4.8-8.3c1.9-2.5,3.4-4.1,3.4-4.1s-4.6,0.6-9.2,1.5c-11.7,3.9-20.1,14.8-20.1,27.8
		c0,16.2,13.1,29.3,29.3,29.3c6.7,0,12.9-2.3,17.8-6c-2.7-0.3-5.5-1-8.6-2.2C794.3,276.3,794,276.2,793.7,276z"/>
</g>
</svg>
