<?xml version="1.0" encoding="utf-8"?>
<!-- Generator: Adobe Illustrator 24.2.0, SVG Export Plug-In . SVG Version: 6.00 Build 0)  -->
<svg version="1.1" id="Capa_1" xmlns="http://www.w3.org/2000/svg" xmlns:xlink="http://www.w3.org/1999/xlink" x="0px" y="0px"
	 viewBox="0 0 512 512" style="enable-background:new 0 0 512 512;" xml:space="preserve">
<style type="text/css">
	.st0{fill:none;stroke:#FFFFFF;stroke-width:8;stroke-miterlimit:10;}
	.st1{fill:none;stroke:#FFFFFF;stroke-width:8;stroke-linecap:round;stroke-linejoin:round;stroke-miterlimit:10;}
	.st2{fill:none;stroke:url(#XMLID_2_);stroke-width:6;stroke-miterlimit:10;}
	.st3{fill:none;stroke:url(#SVGID_1_);stroke-width:6;stroke-miterlimit:10;}
	.st4{fill:none;stroke:url(#SVGID_2_);stroke-width:6;stroke-miterlimit:10;}
</style>
<path id="Stroke-35-Copy-3_1_" class="st0" d="M169.9,85.3c0,15.3-13.1,26.2-26.2,26.2c-13.1,0-26.2-13.1-26.2-26.2
	c0-15.3,13.1-26.2,26.2-26.2C156.8,59.1,169.9,70,169.9,85.3L169.9,85.3z"/>
<g id="Fill-5-Copy-3_1_">
	<path id="path-1_1_" class="st0" d="M231.5,434.7H115.3c-10.9,0-19.6-8.7-19.6-19.6V55.3c0-4.4,0-6.5,2.2-10.9
		c2.2-2.2,2.2-6.5,6.5-8.7c4.4-4.4,10.9-6.5,17.4-6.5h181h2.2l111.2,111.2v2.2V227"/>
</g>
<path id="Stroke-14-Copy-3_1_" class="st1" d="M206.9,87.5h48"/>
<path id="Stroke-8-Copy-2_1_" class="st1" d="M143.7,186.1h154.8"/>
<path id="Stroke-8-Copy-3_1_" class="st1" d="M143.7,240.7h176.6"/>
<path id="Stroke-8-Copy-4_1_" class="st1" d="M143.7,284.3h63.8"/>
<linearGradient id="XMLID_2_" gradientUnits="userSpaceOnUse" x1="202.0979" y1="354.05" x2="504.2021" y2="354.05">
	<stop  offset="0.1486" style="stop-color:#00EED5"/>
	<stop  offset="0.3817" style="stop-color:#3EBBD7"/>
	<stop  offset="0.8094" style="stop-color:#AB62DB"/>
	<stop  offset="1" style="stop-color:#D63EDC"/>
</linearGradient>
<path id="XMLID_31_" class="st2" d="M205.5,294.1c-2.1-8.6,4.3-17.1,12.8-19.3L327,251.1l89.3-19.6l26.8-5.9
	c8.6-2.1,17.1,4.3,19.3,12.8L500.8,414c2.1,8.6-4.3,17.1-12.8,19.3l-224.7,49.2c-8.6,2.1-17.1-4.3-19.3-12.8l-7.7-34.9l-0.3-1.5
	L205.5,294.1z"/>
<g>
	
		<linearGradient id="SVGID_1_" gradientUnits="userSpaceOnUse" x1="332.7" y1="159.9" x2="373.6239" y2="159.9" gradientTransform="matrix(1 0 0 -1 0 514)">
		<stop  offset="0.1486" style="stop-color:#00EED5"/>
		<stop  offset="0.3817" style="stop-color:#3EBBD7"/>
		<stop  offset="0.8094" style="stop-color:#AB62DB"/>
		<stop  offset="1" style="stop-color:#D63EDC"/>
	</linearGradient>
	<circle class="st3" cx="353.2" cy="354.1" r="17.5"/>
	
		<linearGradient id="SVGID_2_" gradientUnits="userSpaceOnUse" x1="286.2" y1="159.9" x2="420.2" y2="159.9" gradientTransform="matrix(1 0 0 -1 0 514)">
		<stop  offset="0.1486" style="stop-color:#00EED5"/>
		<stop  offset="0.3817" style="stop-color:#3EBBD7"/>
		<stop  offset="0.8094" style="stop-color:#AB62DB"/>
		<stop  offset="1" style="stop-color:#D63EDC"/>
	</linearGradient>
	<path class="st4" d="M396.3,371.5c-1.6,3.6-0.8,7.8,1.9,10.6l0.3,0.3c4.5,4.5,4.6,11.9,0,16.5l0,0c-4.5,4.5-11.9,4.6-16.5,0l0,0
		l-0.3-0.3c-2.8-2.7-7-3.5-10.6-1.9c-3.5,1.5-5.8,5-5.8,8.8v1c0,6.4-5.2,11.6-11.6,11.6s-11.6-5.2-11.6-11.6V406
		c-0.1-3.9-2.6-7.4-6.3-8.8c-3.6-1.6-7.8-0.8-10.6,1.9l-0.3,0.3c-4.5,4.5-11.9,4.6-16.5,0l0,0c-4.5-4.5-4.6-11.9,0-16.5l0,0l0.3-0.3
		c2.7-2.8,3.5-7,1.9-10.6c-1.5-3.5-5-5.8-8.8-5.8h-1c-6.4,0-11.6-5.2-11.6-11.6s5.2-11.6,11.6-11.6h0.5c3.9-0.1,7.4-2.6,8.8-6.3
		c1.6-3.6,0.8-7.8-1.9-10.6l-0.3-0.3c-4.5-4.5-4.6-11.9,0-16.5l0,0c4.5-4.5,11.9-4.6,16.5,0l0,0l0.3,0.3c2.8,2.7,7,3.5,10.6,1.9h0.5
		c3.5-1.5,5.8-5,5.8-8.8v-1c0-6.4,5.2-11.6,11.6-11.6s11.6,5.2,11.6,11.6v0.5c0,3.8,2.3,7.3,5.8,8.8c3.6,1.6,7.8,0.8,10.6-1.9
		l0.3-0.3c4.5-4.5,11.9-4.6,16.5,0l0,0c4.5,4.5,4.6,11.9,0,16.5l0,0l-0.3,0.3c-2.7,2.8-3.5,7-1.9,10.6v0.5c1.5,3.5,5,5.8,8.8,5.8h1
		c6.4,0,11.6,5.2,11.6,11.6s-5.2,11.6-11.6,11.6H405C401.2,365.7,397.8,368,396.3,371.5z"/>
</g>
</svg>
