<?xml version="1.0" encoding="utf-8"?>
<!-- Generator: Adobe Illustrator 24.2.0, SVG Export Plug-In . SVG Version: 6.00 Build 0)  -->
<svg version="1.1" id="Capa_1" xmlns="http://www.w3.org/2000/svg" xmlns:xlink="http://www.w3.org/1999/xlink" x="0px" y="0px"
	 viewBox="0 0 512 512" style="enable-background:new 0 0 512 512;" xml:space="preserve">
<style type="text/css">
	.st0{fill:none;stroke:#FFFFFF;stroke-width:8;stroke-miterlimit:10;}
	.st1{fill:none;stroke:#FFFFFF;stroke-width:8;stroke-linecap:round;stroke-linejoin:round;stroke-miterlimit:10;}
	.st2{fill:none;stroke:url(#XMLID_2_);stroke-width:5;stroke-miterlimit:10;}
	.st3{fill:none;stroke:url(#SVGID_1_);stroke-width:5;stroke-miterlimit:10;}
	.st4{fill:none;stroke:url(#SVGID_2_);stroke-width:5;stroke-miterlimit:10;}
	.st5{fill:none;stroke:url(#SVGID_3_);stroke-width:5;stroke-miterlimit:10;}
	.st6{fill:none;stroke:url(#SVGID_4_);stroke-width:5;stroke-miterlimit:10;}
	.st7{fill:none;stroke:url(#SVGID_5_);stroke-width:5;stroke-miterlimit:10;}
	.st8{fill:none;stroke:url(#SVGID_6_);stroke-width:5;stroke-miterlimit:10;}
</style>
<path id="Stroke-35-Copy-3_1_" class="st0" d="M175.9,79.3c0,15.3-13.1,26.2-26.2,26.2c-13.1,0-26.2-13.1-26.2-26.2
	c0-15.3,13.1-26.2,26.2-26.2C162.8,53.1,175.9,64,175.9,79.3L175.9,79.3z"/>
<g id="Fill-5-Copy-3_1_">
	<path id="path-1_1_" class="st0" d="M237.5,428.7H121.3c-10.9,0-19.6-8.7-19.6-19.6V49.3c0-4.4,0-6.5,2.2-10.9
		c2.2-2.2,2.2-6.5,6.5-8.7c4.4-4.4,10.9-6.5,17.4-6.5h181h2.2l111.2,111.2v2.2V221"/>
</g>
<path id="Stroke-14-Copy-3_1_" class="st1" d="M212.9,81.5h48"/>
<path id="Stroke-8-Copy-2_1_" class="st1" d="M149.7,180.1h154.8"/>
<path id="Stroke-8-Copy-3_1_" class="st1" d="M149.7,234.7h176.6"/>
<path id="Stroke-8-Copy-4_1_" class="st1" d="M149.7,278.3h63.8"/>
<linearGradient id="XMLID_2_" gradientUnits="userSpaceOnUse" x1="208.5979" y1="348.05" x2="509.7021" y2="348.05">
	<stop  offset="0.1486" style="stop-color:#00EED5"/>
	<stop  offset="0.3817" style="stop-color:#3EBBD7"/>
	<stop  offset="0.8094" style="stop-color:#AB62DB"/>
	<stop  offset="1" style="stop-color:#D63EDC"/>
</linearGradient>
<path id="XMLID_31_" class="st2" d="M211.5,288.1c-2.1-8.6,4.3-17.1,12.8-19.3L333,245.1l89.3-19.6l26.8-5.9
	c8.6-2.1,17.1,4.3,19.3,12.8L506.8,408c2.1,8.6-4.3,17.1-12.8,19.3l-224.7,49.2c-8.6,2.1-17.1-4.3-19.3-12.8l-7.7-34.9l-0.3-1.5
	L211.5,288.1z"/>
<linearGradient id="SVGID_1_" gradientUnits="userSpaceOnUse" x1="327.8" y1="165.9" x2="390.4842" y2="165.9" gradientTransform="matrix(1 0 0 -1 0 514)">
	<stop  offset="0.1486" style="stop-color:#00EED5"/>
	<stop  offset="0.3817" style="stop-color:#3EBBD7"/>
	<stop  offset="0.8094" style="stop-color:#AB62DB"/>
	<stop  offset="1" style="stop-color:#D63EDC"/>
</linearGradient>
<circle class="st3" cx="359.1" cy="348.1" r="28.8"/>
<linearGradient id="SVGID_2_" gradientUnits="userSpaceOnUse" x1="303.8" y1="165.9" x2="414.4" y2="165.9" gradientTransform="matrix(1 0 0 -1 0 514)">
	<stop  offset="0.1486" style="stop-color:#00EED5"/>
	<stop  offset="0.3817" style="stop-color:#3EBBD7"/>
	<stop  offset="0.8094" style="stop-color:#AB62DB"/>
	<stop  offset="1" style="stop-color:#D63EDC"/>
</linearGradient>
<circle class="st4" cx="359.1" cy="348.1" r="52.8"/>
<linearGradient id="SVGID_3_" gradientUnits="userSpaceOnUse" x1="359.5191" y1="125.15" x2="367.4809" y2="125.15" gradientTransform="matrix(1 0 0 -1 0 514)">
	<stop  offset="0.1486" style="stop-color:#00EED5"/>
	<stop  offset="0.3817" style="stop-color:#3EBBD7"/>
	<stop  offset="0.8094" style="stop-color:#AB62DB"/>
	<stop  offset="1" style="stop-color:#D63EDC"/>
</linearGradient>
<line class="st5" x1="362" y1="376.8" x2="365" y2="400.9"/>
<linearGradient id="SVGID_4_" gradientUnits="userSpaceOnUse" x1="385.3914" y1="180.05" x2="409.5086" y2="180.05" gradientTransform="matrix(1 0 0 -1 0 514)">
	<stop  offset="0.1486" style="stop-color:#00EED5"/>
	<stop  offset="0.3817" style="stop-color:#3EBBD7"/>
	<stop  offset="0.8094" style="stop-color:#AB62DB"/>
	<stop  offset="1" style="stop-color:#D63EDC"/>
</linearGradient>
<line class="st6" x1="386.3" y1="338.3" x2="408.6" y2="329.6"/>
<linearGradient id="SVGID_5_" gradientUnits="userSpaceOnUse" x1="239.4742" y1="206.7932" x2="303.7015" y2="206.7932" gradientTransform="matrix(1 0 0 -1 0 514)">
	<stop  offset="0.1486" style="stop-color:#00EED5"/>
	<stop  offset="0.3817" style="stop-color:#3EBBD7"/>
	<stop  offset="0.8094" style="stop-color:#AB62DB"/>
	<stop  offset="1" style="stop-color:#D63EDC"/>
</linearGradient>
<polyline class="st7" points="302,316.8 282.3,298.5 240,307.6 "/>
<linearGradient id="SVGID_6_" gradientUnits="userSpaceOnUse" x1="-982.0258" y1="501.4074" x2="-917.8035" y2="501.4074" gradientTransform="matrix(-1 0 0 1 -522 -90.967)">
	<stop  offset="0.1486" style="stop-color:#00EED5"/>
	<stop  offset="0.3817" style="stop-color:#3EBBD7"/>
	<stop  offset="0.8094" style="stop-color:#AB62DB"/>
	<stop  offset="1" style="stop-color:#D63EDC"/>
</linearGradient>
<polyline class="st8" points="397.5,400.9 417.2,419.1 459.5,410 "/>
</svg>
