<?xml version="1.0" encoding="utf-8"?>
<!-- Generator: Adobe Illustrator 24.2.0, SVG Export Plug-In . SVG Version: 6.00 Build 0)  -->
<svg version="1.1" id="Capa_1" xmlns="http://www.w3.org/2000/svg" xmlns:xlink="http://www.w3.org/1999/xlink" x="0px" y="0px"
	 viewBox="6 -512 512 512" style="enable-background:new 6 -512 512 512;" xml:space="preserve">
<style type="text/css">
	.st0{fill:url(#SVGID_1_);}
	.st1{fill:url(#SVGID_2_);}
	.st2{fill:url(#SVGID_3_);}
	.st3{fill:url(#SVGID_4_);}
	.st4{fill:url(#SVGID_5_);}
	.st5{fill:url(#SVGID_6_);}
	.st6{fill:url(#SVGID_7_);}
	.st7{display:none;}
	.st8{display:inline;fill:url(#SVGID_8_);}
	.st9{display:inline;fill:url(#SVGID_9_);}
	.st10{display:inline;fill:url(#SVGID_10_);}
	.st11{display:inline;fill:url(#SVGID_11_);}
</style>
<g>
	<g>
		
			<linearGradient id="SVGID_1_" gradientUnits="userSpaceOnUse" x1="117.2846" y1="-16623.5957" x2="406.7133" y2="-16623.5957" gradientTransform="matrix(1 0 0 -1 0 -16896)">
			<stop  offset="0" style="stop-color:#7F00FF"/>
			<stop  offset="1" style="stop-color:#3F00FC"/>
		</linearGradient>
		<path class="st0" d="M262-417.1c-79.9,0-144.7,64.8-144.7,144.7c0.1,79.9,64.8,144.6,144.7,144.7c79.9,0,144.7-64.8,144.7-144.7
			S341.9-417.1,262-417.1z M262-144.7c-70.5,0-127.7-57.2-127.7-127.7c0.1-70.5,57.2-127.6,127.7-127.7
			c70.5,0,127.7,57.2,127.7,127.7S332.5-144.7,262-144.7z"/>
	</g>
</g>
<g>
	<g>
		
			<linearGradient id="SVGID_2_" gradientUnits="userSpaceOnUse" x1="151.335" y1="-16623.5938" x2="372.6644" y2="-16623.5938" gradientTransform="matrix(1 0 0 -1 0 -16896)">
			<stop  offset="0" style="stop-color:#7F00FF"/>
			<stop  offset="1" style="stop-color:#3F00FC"/>
		</linearGradient>
		<path class="st1" d="M335.8-354.9c-45.6-40.7-115.5-36.9-156.3,8.7c-18.1,20.3-28.2,46.6-28.2,73.8c0,31.5,13.4,61.5,36.9,82.5
			c45.6,40.7,115.5,36.9,156.3-8.7C385.2-244.2,381.3-314.1,335.8-354.9z M324.4-202.6c-38.5,34.5-97.7,31.2-132.2-7.4
			c-15.4-17.2-23.8-39.4-23.8-62.4c0-26.7,11.3-52.1,31.2-69.8c38.5-34.5,97.7-31.2,132.2,7.4C366.3-296.3,363-237.1,324.4-202.6z"
			/>
	</g>
</g>
<g>
	<g>
		
			<linearGradient id="SVGID_3_" gradientUnits="userSpaceOnUse" x1="66.21" y1="-16640.6191" x2="457.79" y2="-16640.6191" gradientTransform="matrix(1 0 0 -1 0 -16896)">
			<stop  offset="0.1486" style="stop-color:#00EED5"/>
			<stop  offset="0.3817" style="stop-color:#3EBBD7"/>
			<stop  offset="0.8094" style="stop-color:#AB62DB"/>
			<stop  offset="1" style="stop-color:#D63EDC"/>
		</linearGradient>
		<path class="st2" d="M449.3-510.8c-1.4,0-2.8,0.4-4.1,1c-55.8,30.6-123.3,30.6-179.1,0c-2.5-1.4-5.6-1.4-8.2,0
			c-55.8,30.6-123.3,30.6-179.1,0c-4.1-2.3-9.3-0.7-11.6,3.4c-0.7,1.3-1,2.7-1,4.1v363.6c0,15,8,29,20.9,36.6L257.7-1.2
			c2.7,1.6,6,1.6,8.7,0L436.9-102c12.9-7.7,20.9-21.6,20.9-36.6v-363.6C457.8-506.9,454-510.8,449.3-510.8z M440.8-138.6
			c0,9-4.8,17.4-12.5,22L262-18.4L95.8-116.6c-7.8-4.6-12.5-13-12.5-22v-349.8c57,26.3,123,24.8,178.8-4.2
			c55.7,29,121.7,30.5,178.8,4.2V-138.6z"/>
	</g>
</g>
<g>
	<linearGradient id="SVGID_4_" gradientUnits="userSpaceOnUse" x1="198.1976" y1="-253.0019" x2="333.1752" y2="-253.0019">
		<stop  offset="0.1486" style="stop-color:#00EED5"/>
		<stop  offset="0.3817" style="stop-color:#3EBBD7"/>
		<stop  offset="0.8094" style="stop-color:#AB62DB"/>
		<stop  offset="1" style="stop-color:#D63EDC"/>
	</linearGradient>
	<path class="st3" d="M319.5-236.7c-5.7,6.6-18.9,20-37.8,17.8c-8.3,6.4-18.7,10.2-29.9,10.2c-27.2,0-49.2-22-49.2-49.2
		c0-21.8,14.2-40.2,33.8-46.7c-5.4,1-10.9,2.2-13.7,3.2c-10.7,4.1-19.9,7.7-19.9,7.7s-5.7,14.9-4.4,33.1c3,23.9,18.6,44,39.8,53.4
		c0.6,0.3,1.2,0.5,1.9,0.8c0,0,0,0,0,0c0.8,0.3,1.6,0.6,2.4,0.9c7.2,2.6,15,4.1,23.2,4.1c20.6,0,39-9.2,51.4-23.6
		c13-17.1,16.4-35.1,16.1-37C333.2-261.9,329.2-247.8,319.5-236.7z"/>
	<linearGradient id="SVGID_5_" gradientUnits="userSpaceOnUse" x1="204.9676" y1="-302.8132" x2="334.23" y2="-302.8132">
		<stop  offset="0.1486" style="stop-color:#00EED5"/>
		<stop  offset="0.3817" style="stop-color:#3EBBD7"/>
		<stop  offset="0.8094" style="stop-color:#AB62DB"/>
		<stop  offset="1" style="stop-color:#D63EDC"/>
	</linearGradient>
	<path class="st4" d="M257.3-310.2c7.7-5,16.8-7.9,26.7-7.9c27.2,0,49.2,22,49.2,49.2c0.1-0.7,0.2-1.3,0.4-2
		c-0.5-21.8-11.3-41-27.7-53c-5.3-3.6-10.6-6.4-15.2-8.4c-3.5-1.4-7.2-2.5-11-3.3l0,0c-5.5-0.6-14.7-1.8-25.2-0.5
		c-17.4,2.9-32.5,12.5-42.8,25.9c-2.3,3.2-4.5,6.7-6.6,10.7C205-299.5,230.7-315.4,257.3-310.2z"/>
	<linearGradient id="SVGID_6_" gradientUnits="userSpaceOnUse" x1="225.9352" y1="-213.4525" x2="318.233" y2="-305.7504">
		<stop  offset="0.1486" style="stop-color:#00EED5"/>
		<stop  offset="0.3817" style="stop-color:#3EBBD7"/>
		<stop  offset="0.8094" style="stop-color:#AB62DB"/>
		<stop  offset="1" style="stop-color:#D63EDC"/>
	</linearGradient>
	<path class="st5" d="M284-318.1c-9.8,0-19,2.9-26.7,7.9c10.8,2.1,21.7,7.7,31.1,19.3c3.4,3.8,6.3,8.1,8.4,12.9
		c5.8,11.1,5.5,22,3.1,30.9c-1.8,8.2-5.7,15.6-11.1,21.7l0,0c0,0,35.6-3.3,44.4-43.5C333.2-296.1,311.1-318.1,284-318.1z"/>
	<linearGradient id="SVGID_7_" gradientUnits="userSpaceOnUse" x1="213.565" y1="-219.9642" x2="314.8715" y2="-321.2707">
		<stop  offset="0.1486" style="stop-color:#00EED5"/>
		<stop  offset="0.3817" style="stop-color:#3EBBD7"/>
		<stop  offset="0.8094" style="stop-color:#AB62DB"/>
		<stop  offset="1" style="stop-color:#D63EDC"/>
	</linearGradient>
	<path class="st6" d="M265.7-223.2C265.7-223.2,265.7-223.2,265.7-223.2C265.7-223.2,265.7-223.2,265.7-223.2
		c-0.9-0.4-1.8-0.7-2.7-1.2c0,0-0.1,0-0.1,0c-0.3-0.1-0.5-0.2-0.8-0.4c-19.2-9.2-26.2-25-27.2-39.6c-0.1-1.5-0.2-3-0.2-4.5
		c0-4.4,0.6-8.7,1.7-12.7c0.4-1.6,0.9-3.1,1.5-4.7c1.9-5.1,4.7-9.9,8.1-14c3.1-4.2,5.8-6.8,5.8-6.8s-7.7,1.1-15.4,2.5
		c-19.6,6.5-33.8,24.9-33.8,46.7c0,27.2,22,49.2,49.2,49.2c11.3,0,21.6-3.8,29.9-10.2c-4.5-0.5-9.3-1.7-14.5-3.7
		C266.7-222.8,266.2-223,265.7-223.2z"/>
</g>
<g class="st7">
	<linearGradient id="SVGID_8_" gradientUnits="userSpaceOnUse" x1="198.1976" y1="-253.0019" x2="333.1752" y2="-253.0019">
		<stop  offset="0" style="stop-color:#7F00FF"/>
		<stop  offset="1" style="stop-color:#3F00FC"/>
	</linearGradient>
	<path class="st8" d="M319.5-236.7c-5.7,6.6-18.9,20-37.8,17.8c-8.3,6.4-18.7,10.2-29.9,10.2c-27.2,0-49.2-22-49.2-49.2
		c0-21.8,14.2-40.2,33.8-46.7c-5.4,1-10.9,2.2-13.7,3.2c-10.7,4.1-19.9,7.7-19.9,7.7s-5.7,14.9-4.4,33.1c3,23.9,18.6,44,39.8,53.4
		c0.6,0.3,1.2,0.5,1.9,0.8c0,0,0,0,0,0c0.8,0.3,1.6,0.6,2.4,0.9c7.2,2.6,15,4.1,23.2,4.1c20.6,0,39-9.2,51.4-23.6
		c13-17.1,16.4-35.1,16.1-37C333.2-261.9,329.2-247.8,319.5-236.7z"/>
	<linearGradient id="SVGID_9_" gradientUnits="userSpaceOnUse" x1="204.9676" y1="-302.8132" x2="334.23" y2="-302.8132">
		<stop  offset="0" style="stop-color:#7F00FF"/>
		<stop  offset="1" style="stop-color:#3F00FC"/>
	</linearGradient>
	<path class="st9" d="M257.3-310.2c7.7-5,16.8-7.9,26.7-7.9c27.2,0,49.2,22,49.2,49.2c0.1-0.7,0.2-1.3,0.4-2
		c-0.5-21.8-11.3-41-27.7-53c-5.3-3.6-10.6-6.4-15.2-8.4c-3.5-1.4-7.2-2.5-11-3.3l0,0c-5.5-0.6-14.7-1.8-25.2-0.5
		c-17.4,2.9-32.5,12.5-42.8,25.9c-2.3,3.2-4.5,6.7-6.6,10.7C205-299.5,230.7-315.4,257.3-310.2z"/>
	<linearGradient id="SVGID_10_" gradientUnits="userSpaceOnUse" x1="225.9352" y1="-213.4525" x2="318.233" y2="-305.7504">
		<stop  offset="0" style="stop-color:#7F00FF"/>
		<stop  offset="1" style="stop-color:#3F00FC"/>
	</linearGradient>
	<path class="st10" d="M284-318.1c-9.8,0-19,2.9-26.7,7.9c10.8,2.1,21.7,7.7,31.1,19.3c3.4,3.8,6.3,8.1,8.4,12.9
		c5.8,11.1,5.5,22,3.1,30.9c-1.8,8.2-5.7,15.6-11.1,21.7l0,0c0,0,35.6-3.3,44.4-43.5C333.2-296.1,311.1-318.1,284-318.1z"/>
	<linearGradient id="SVGID_11_" gradientUnits="userSpaceOnUse" x1="213.565" y1="-219.9642" x2="314.8715" y2="-321.2707">
		<stop  offset="0" style="stop-color:#7F00FF"/>
		<stop  offset="1" style="stop-color:#3F00FC"/>
	</linearGradient>
	<path class="st11" d="M265.7-223.2C265.7-223.2,265.7-223.2,265.7-223.2C265.7-223.2,265.7-223.2,265.7-223.2
		c-0.9-0.4-1.8-0.7-2.7-1.2c0,0-0.1,0-0.1,0c-0.3-0.1-0.5-0.2-0.8-0.4c-19.2-9.2-26.2-25-27.2-39.6c-0.1-1.5-0.2-3-0.2-4.5
		c0-4.4,0.6-8.7,1.7-12.7c0.4-1.6,0.9-3.1,1.5-4.7c1.9-5.1,4.7-9.9,8.1-14c3.1-4.2,5.8-6.8,5.8-6.8s-7.7,1.1-15.4,2.5
		c-19.6,6.5-33.8,24.9-33.8,46.7c0,27.2,22,49.2,49.2,49.2c11.3,0,21.6-3.8,29.9-10.2c-4.5-0.5-9.3-1.7-14.5-3.7
		C266.7-222.8,266.2-223,265.7-223.2z"/>
</g>
</svg>
