<?xml version="1.0" encoding="utf-8"?>
<!-- Generator: Adobe Illustrator 24.2.0, SVG Export Plug-In . SVG Version: 6.00 Build 0)  -->
<svg version="1.1" id="Capa_1" xmlns="http://www.w3.org/2000/svg" xmlns:xlink="http://www.w3.org/1999/xlink" x="0px" y="0px"
	 viewBox="6 -512 512 512" style="enable-background:new 6 -512 512 512;" xml:space="preserve">
<style type="text/css">
	.st0{fill:url(#SVGID_1_);}
	.st1{fill:url(#SVGID_2_);}
	.st2{fill:url(#SVGID_3_);}
	.st3{fill:url(#SVGID_4_);}
	.st4{fill:url(#SVGID_5_);}
	.st5{fill:url(#SVGID_6_);}
	.st6{fill:url(#SVGID_7_);}
	.st7{fill:url(#SVGID_8_);}
	.st8{fill:url(#SVGID_9_);}
	.st9{fill:url(#SVGID_10_);}
	.st10{fill:url(#SVGID_11_);}
	.st11{fill:url(#SVGID_12_);}
	.st12{fill:url(#SVGID_13_);}
	.st13{fill:url(#SVGID_14_);}
	.st14{fill:url(#SVGID_15_);}
	.st15{fill:url(#SVGID_16_);}
	.st16{fill:url(#SVGID_17_);}
	.st17{fill:url(#SVGID_18_);}
	.st18{fill:url(#SVGID_19_);}
	.st19{fill:url(#SVGID_20_);}
	.st20{fill:url(#SVGID_21_);}
	.st21{fill:url(#SVGID_22_);}
	.st22{fill:url(#SVGID_23_);}
	.st23{fill:url(#SVGID_24_);}
	.st24{fill:url(#SVGID_25_);}
	.st25{fill:url(#SVGID_26_);}
	.st26{fill:url(#SVGID_27_);}
	.st27{fill:url(#SVGID_28_);}
</style>
<g>
	
		<linearGradient id="SVGID_1_" gradientUnits="userSpaceOnUse" x1="6" y1="-16711.7324" x2="518" y2="-16711.7324" gradientTransform="matrix(1 0 0 -1 0 -16896)">
		<stop  offset="0.1486" style="stop-color:#00EED5"/>
		<stop  offset="0.3817" style="stop-color:#3EBBD7"/>
		<stop  offset="0.8094" style="stop-color:#AB62DB"/>
		<stop  offset="1" style="stop-color:#D63EDC"/>
	</linearGradient>
	<path class="st0" d="M483.9-312.3H185.2c0-37.7-30.6-68.3-68.3-68.3S48.7-350,48.7-312.3h-8.5C21.3-312.3,6-297,6-278.1v256
		C6-3.3,21.3,12,40.1,12h443.7C502.7,12,518-3.3,518-22.1v-256C518-297,502.7-312.3,483.9-312.3z M116.9-363.5
		c28.3,0,51.2,22.9,51.2,51.2c0,28.3-22.9,51.2-51.2,51.2S65.7-284,65.7-312.3C65.8-340.5,88.7-363.4,116.9-363.5z M65.7-261.1h6.2
		c25.7,22.8,64.3,22.8,90,0h91.5v42.7h17.1v-42.7h162.1v221.9H65.7V-261.1z M500.9-22.1c0,9.4-7.6,17.1-17.1,17.1H40.1
		c-9.4,0-17.1-7.6-17.1-17.1v-256c0-9.4,7.6-17.1,17.1-17.1h10.8c1.5,6,3.9,11.7,7,17.1h-0.7c-4.7,0-8.5,3.8-8.5,8.5v238.9
		c0,4.7,3.8,8.5,8.5,8.5h384c4.7,0,8.5-3.8,8.5-8.5v-238.9c0-4.7-3.8-8.5-8.5-8.5H176c3.1-5.3,5.4-11.1,7-17.1h300.9
		c9.4,0,17.1,7.6,17.1,17.1V-22.1z"/>
</g>
<linearGradient id="SVGID_2_" gradientUnits="userSpaceOnUse" x1="151.0667" y1="-16758.502" x2="364.4" y2="-16758.502" gradientTransform="matrix(1 0 0 -1 0 -16896)">
	<stop  offset="0" style="stop-color:#7F00FF"/>
	<stop  offset="1" style="stop-color:#3F00FC"/>
</linearGradient>
<path class="st1" d="M334.8-90.4c2.7-8.3,4-16.9,4-25.6c0.2-47.1-37.9-85.5-85-85.7s-85.5,37.9-85.7,85c0,8.9,1.3,17.8,4,26.3h-21.1
	v17.1h213.3v-17.1H334.8z"/>
<g>
	<g>
		
			<linearGradient id="SVGID_3_" gradientUnits="userSpaceOnUse" x1="296.1333" y1="-16498.4004" x2="432.6667" y2="-16498.4004" gradientTransform="matrix(1 0 0 -1 0 -16896)">
			<stop  offset="0.1486" style="stop-color:#00EED5"/>
			<stop  offset="0.3817" style="stop-color:#3EBBD7"/>
			<stop  offset="0.8094" style="stop-color:#AB62DB"/>
			<stop  offset="1" style="stop-color:#D63EDC"/>
		</linearGradient>
		<path class="st2" d="M364.4-465.9c-37.7,0-68.2,30.6-68.3,68.3c0,37.7,30.6,68.3,68.3,68.3s68.3-30.6,68.3-68.3
			S402.1-465.9,364.4-465.9z M364.4-346.4c-28.3,0-51.2-22.9-51.2-51.2s22.9-51.2,51.2-51.2c28.3,0,51.2,22.9,51.2,51.2
			C415.6-369.3,392.7-346.4,364.4-346.4z"/>
	</g>
</g>
<g>
	<g>
		
			<linearGradient id="SVGID_4_" gradientUnits="userSpaceOnUse" x1="279.0667" y1="-16425.8672" x2="296.1333" y2="-16425.8672" gradientTransform="matrix(1 0 0 -1 0 -16896)">
			<stop  offset="0" style="stop-color:#7F00FF"/>
			<stop  offset="1" style="stop-color:#3F00FC"/>
		</linearGradient>
		<rect x="279.1" y="-500" class="st3" width="17.1" height="59.7"/>
	</g>
</g>
<g>
	<g>
		
			<linearGradient id="SVGID_5_" gradientUnits="userSpaceOnUse" x1="407.0667" y1="-16408.8008" x2="424.1333" y2="-16408.8008" gradientTransform="matrix(1 0 0 -1 0 -16896)">
			<stop  offset="0" style="stop-color:#7F00FF"/>
			<stop  offset="1" style="stop-color:#3F00FC"/>
		</linearGradient>
		<rect x="407.1" y="-500" class="st4" width="17.1" height="25.6"/>
	</g>
</g>
<g>
	<g>
		
			<linearGradient id="SVGID_6_" gradientUnits="userSpaceOnUse" x1="236.4" y1="-16494.1328" x2="253.4667" y2="-16494.1328" gradientTransform="matrix(1 0 0 -1 0 -16896)">
			<stop  offset="0" style="stop-color:#7F00FF"/>
			<stop  offset="1" style="stop-color:#3F00FC"/>
		</linearGradient>
		<rect x="236.4" y="-440.3" class="st5" width="17.1" height="76.8"/>
	</g>
</g>
<g>
	<g>
		
			<linearGradient id="SVGID_7_" gradientUnits="userSpaceOnUse" x1="173.9" y1="-16434.4004" x2="190.9667" y2="-16434.4004" gradientTransform="matrix(1 0 0 -1 0 -16896)">
			<stop  offset="0" style="stop-color:#7F00FF"/>
			<stop  offset="1" style="stop-color:#3F00FC"/>
		</linearGradient>
		<rect x="173.9" y="-500" class="st6" width="17.1" height="76.8"/>
	</g>
</g>
<g>
	<g>
		
			<linearGradient id="SVGID_8_" gradientUnits="userSpaceOnUse" x1="82.8" y1="-16408.8008" x2="99.8667" y2="-16408.8008" gradientTransform="matrix(1 0 0 -1 0 -16896)">
			<stop  offset="0" style="stop-color:#7F00FF"/>
			<stop  offset="1" style="stop-color:#3F00FC"/>
		</linearGradient>
		<rect x="82.8" y="-500" class="st7" width="17.1" height="25.6"/>
	</g>
</g>
<g>
	<g>
		
			<linearGradient id="SVGID_9_" gradientUnits="userSpaceOnUse" x1="279.0667" y1="-16549.5996" x2="296.1333" y2="-16549.5996" gradientTransform="matrix(1 0 0 -1 0 -16896)">
			<stop  offset="0" style="stop-color:#7F00FF"/>
			<stop  offset="1" style="stop-color:#3F00FC"/>
		</linearGradient>
		<rect x="279.1" y="-354.9" class="st8" width="17.1" height="17.1"/>
	</g>
</g>
<g>
	<g>
		
			<linearGradient id="SVGID_10_" gradientUnits="userSpaceOnUse" x1="173.9" y1="-16502.666" x2="190.9667" y2="-16502.666" gradientTransform="matrix(1 0 0 -1 0 -16896)">
			<stop  offset="0" style="stop-color:#7F00FF"/>
			<stop  offset="1" style="stop-color:#3F00FC"/>
		</linearGradient>
		<rect x="173.9" y="-401.9" class="st9" width="17.1" height="17.1"/>
	</g>
</g>
<g>
	<g>
		
			<linearGradient id="SVGID_11_" gradientUnits="userSpaceOnUse" x1="142.5333" y1="-16660.5332" x2="159.6" y2="-16660.5332" gradientTransform="matrix(1 0 0 -1 0 -16896)">
			<stop  offset="0" style="stop-color:#7F00FF"/>
			<stop  offset="1" style="stop-color:#3F00FC"/>
		</linearGradient>
		<rect x="142.5" y="-244" class="st10" width="17.1" height="17.1"/>
	</g>
</g>
<g>
	<g>
		
			<linearGradient id="SVGID_12_" gradientUnits="userSpaceOnUse" x1="142.5333" y1="-16711.7324" x2="159.6" y2="-16711.7324" gradientTransform="matrix(1 0 0 -1 0 -16896)">
			<stop  offset="0" style="stop-color:#7F00FF"/>
			<stop  offset="1" style="stop-color:#3F00FC"/>
		</linearGradient>
		<rect x="142.5" y="-209.9" class="st11" width="17.1" height="51.2"/>
	</g>
</g>
<g>
	<g>
		
			<linearGradient id="SVGID_13_" gradientUnits="userSpaceOnUse" x1="108.4" y1="-16438.666" x2="125.4667" y2="-16438.666" gradientTransform="matrix(1 0 0 -1 0 -16896)">
			<stop  offset="0" style="stop-color:#7F00FF"/>
			<stop  offset="1" style="stop-color:#3F00FC"/>
		</linearGradient>
		<rect x="108.4" y="-465.9" class="st12" width="17.1" height="17.1"/>
	</g>
</g>
<g>
	<g>
		
			<linearGradient id="SVGID_14_" gradientUnits="userSpaceOnUse" x1="108.4" y1="-16481.334" x2="125.4667" y2="-16481.334" gradientTransform="matrix(1 0 0 -1 0 -16896)">
			<stop  offset="0" style="stop-color:#7F00FF"/>
			<stop  offset="1" style="stop-color:#3F00FC"/>
		</linearGradient>
		<rect x="108.4" y="-431.7" class="st13" width="17.1" height="34.1"/>
	</g>
</g>
<g>
	<g>
		
			<linearGradient id="SVGID_15_" gradientUnits="userSpaceOnUse" x1="236.4" y1="-16430.1328" x2="253.4667" y2="-16430.1328" gradientTransform="matrix(1 0 0 -1 0 -16896)">
			<stop  offset="0" style="stop-color:#7F00FF"/>
			<stop  offset="1" style="stop-color:#3F00FC"/>
		</linearGradient>
		<rect x="236.4" y="-474.4" class="st14" width="17.1" height="17.1"/>
	</g>
</g>
<g>
	<g>
		
			<linearGradient id="SVGID_16_" gradientUnits="userSpaceOnUse" x1="330.2667" y1="-16686.1328" x2="398.5333" y2="-16686.1328" gradientTransform="matrix(1 0 0 -1 0 -16896)">
			<stop  offset="0.1486" style="stop-color:#00EED5"/>
			<stop  offset="0.3817" style="stop-color:#3EBBD7"/>
			<stop  offset="0.8094" style="stop-color:#AB62DB"/>
			<stop  offset="1" style="stop-color:#D63EDC"/>
		</linearGradient>
		<path class="st15" d="M364.4-244c-18.9,0-34.1,15.3-34.1,34.1s15.3,34.1,34.1,34.1s34.1-15.3,34.1-34.1S383.3-244,364.4-244z
			 M364.4-192.8c-9.4,0-17.1-7.6-17.1-17.1c0-9.4,7.6-17.1,17.1-17.1s17.1,7.6,17.1,17.1C381.5-200.4,373.8-192.8,364.4-192.8z"/>
	</g>
</g>
<g>
	<linearGradient id="SVGID_17_" gradientUnits="userSpaceOnUse" x1="84.5631" y1="-304.5986" x2="149.1464" y2="-304.5986">
		<stop  offset="0.1486" style="stop-color:#00EED5"/>
		<stop  offset="0.3817" style="stop-color:#3EBBD7"/>
		<stop  offset="0.8094" style="stop-color:#AB62DB"/>
		<stop  offset="1" style="stop-color:#D63EDC"/>
	</linearGradient>
	<path class="st16" d="M142.6-296.8c-2.7,3.1-9,9.6-18.1,8.5c-4,3-8.9,4.9-14.3,4.9c-13,0-23.5-10.5-23.5-23.5
		c0-10.4,6.8-19.2,16.2-22.3c-2.6,0.5-5.2,1-6.6,1.5c-5.1,1.9-9.5,3.7-9.5,3.7s-2.7,7.1-2.1,15.8c1.5,11.5,8.9,21,19.1,25.6
		c0.3,0.1,0.6,0.3,0.9,0.4c0,0,0,0,0,0c0.4,0.2,0.8,0.3,1.2,0.5c3.5,1.3,7.2,1.9,11.1,1.9c9.8,0,18.6-4.4,24.6-11.3
		c6.2-8.2,7.9-16.8,7.7-17.7C149.1-308.9,147.3-302.1,142.6-296.8z"/>
	<linearGradient id="SVGID_18_" gradientUnits="userSpaceOnUse" x1="87.8023" y1="-328.4321" x2="149.6511" y2="-328.4321">
		<stop  offset="0.1486" style="stop-color:#00EED5"/>
		<stop  offset="0.3817" style="stop-color:#3EBBD7"/>
		<stop  offset="0.8094" style="stop-color:#AB62DB"/>
		<stop  offset="1" style="stop-color:#D63EDC"/>
	</linearGradient>
	<path class="st17" d="M112.8-332c3.7-2.4,8.1-3.8,12.8-3.8c13,0,23.5,10.5,23.5,23.5c0.1-0.3,0.1-0.6,0.2-0.9
		c-0.3-10.4-5.4-19.6-13.2-25.4c-2.5-1.7-5.1-3.1-7.3-4c-1.7-0.7-3.5-1.2-5.3-1.6l0,0c-2.6-0.3-7-0.9-12.1-0.2
		c-8.3,1.4-15.6,6-20.5,12.4c-1.1,1.5-2.2,3.2-3.2,5.1C87.8-326.8,100.1-334.5,112.8-332z"/>
	<linearGradient id="SVGID_19_" gradientUnits="userSpaceOnUse" x1="97.8348" y1="-285.6753" x2="141.9969" y2="-329.8374">
		<stop  offset="0.1486" style="stop-color:#00EED5"/>
		<stop  offset="0.3817" style="stop-color:#3EBBD7"/>
		<stop  offset="0.8094" style="stop-color:#AB62DB"/>
		<stop  offset="1" style="stop-color:#D63EDC"/>
	</linearGradient>
	<path class="st18" d="M125.6-335.8c-4.7,0-9.1,1.4-12.8,3.8c5.2,1,10.4,3.7,14.9,9.2c1.6,1.8,3,3.9,4,6.2
		c2.8,5.3,2.6,10.5,1.5,14.8c-0.9,3.9-2.7,7.5-5.3,10.4l0,0c0,0,17-1.6,21.3-20.8C149.1-325.2,138.6-335.8,125.6-335.8z"/>
	<linearGradient id="SVGID_20_" gradientUnits="userSpaceOnUse" x1="91.916" y1="-288.791" x2="140.3885" y2="-337.2635">
		<stop  offset="0.1486" style="stop-color:#00EED5"/>
		<stop  offset="0.3817" style="stop-color:#3EBBD7"/>
		<stop  offset="0.8094" style="stop-color:#AB62DB"/>
		<stop  offset="1" style="stop-color:#D63EDC"/>
	</linearGradient>
	<path class="st19" d="M116.9-290.4C116.9-290.4,116.9-290.4,116.9-290.4C116.9-290.4,116.9-290.4,116.9-290.4
		c-0.4-0.2-0.9-0.4-1.3-0.6c0,0,0,0-0.1,0c-0.1-0.1-0.2-0.1-0.4-0.2c-9.2-4.4-12.5-11.9-13-19c-0.1-0.7-0.1-1.4-0.1-2.1
		c0-2.1,0.3-4.1,0.8-6.1c0.2-0.8,0.4-1.5,0.7-2.2c0.9-2.5,2.3-4.7,3.9-6.7c1.5-2,2.8-3.3,2.8-3.3s-3.7,0.5-7.4,1.2
		c-9.4,3.1-16.2,11.9-16.2,22.3c0,13,10.5,23.5,23.5,23.5c5.4,0,10.3-1.8,14.3-4.9c-2.1-0.3-4.4-0.8-6.9-1.8
		C117.4-290.2,117.1-290.3,116.9-290.4z"/>
</g>
<g>
	<linearGradient id="SVGID_21_" gradientUnits="userSpaceOnUse" x1="211.6766" y1="-120.9995" x2="299.6702" y2="-120.9995">
		<stop  offset="0.1486" style="stop-color:#00EED5"/>
		<stop  offset="0.3817" style="stop-color:#3EBBD7"/>
		<stop  offset="0.8094" style="stop-color:#AB62DB"/>
		<stop  offset="1" style="stop-color:#D63EDC"/>
	</linearGradient>
	<path class="st20" d="M290.8-110.3c-3.7,4.3-12.3,13.1-24.6,11.6c-5.4,4.1-12.2,6.6-19.5,6.6c-17.7,0-32.1-14.4-32.1-32.1
		c0-14.2,9.2-26.2,22-30.4c-3.5,0.6-7.1,1.4-8.9,2.1c-7,2.6-13,5.1-13,5.1s-3.7,9.7-2.9,21.6c2,15.6,12.1,28.7,26,34.8
		c0.4,0.2,0.8,0.4,1.2,0.5c0,0,0,0,0,0c0.5,0.2,1.1,0.4,1.6,0.6c4.7,1.7,9.8,2.6,15.1,2.6c13.4,0,25.4-6,33.5-15.4
		c8.4-11.1,10.7-22.9,10.5-24.1C299.7-126.8,297.1-117.6,290.8-110.3z"/>
	<linearGradient id="SVGID_22_" gradientUnits="userSpaceOnUse" x1="216.09" y1="-153.4722" x2="300.3578" y2="-153.4722">
		<stop  offset="0.1486" style="stop-color:#00EED5"/>
		<stop  offset="0.3817" style="stop-color:#3EBBD7"/>
		<stop  offset="0.8094" style="stop-color:#AB62DB"/>
		<stop  offset="1" style="stop-color:#D63EDC"/>
	</linearGradient>
	<path class="st21" d="M250.2-158.3c5-3.2,11-5.1,17.4-5.1c17.7,0,32.1,14.4,32.1,32.1c0.1-0.4,0.2-0.9,0.2-1.3
		c-0.3-14.2-7.4-26.7-18-34.6c-3.4-2.3-6.9-4.2-9.9-5.5c-2.3-0.9-4.7-1.6-7.2-2.2l0,0c-3.6-0.4-9.6-1.2-16.4-0.3
		c-11.3,1.9-21.2,8.1-27.9,16.9c-1.5,2.1-3,4.4-4.3,7C216.1-151.3,232.9-161.7,250.2-158.3z"/>
	<linearGradient id="SVGID_23_" gradientUnits="userSpaceOnUse" x1="229.759" y1="-95.2168" x2="289.9291" y2="-155.3869">
		<stop  offset="0.1486" style="stop-color:#00EED5"/>
		<stop  offset="0.3817" style="stop-color:#3EBBD7"/>
		<stop  offset="0.8094" style="stop-color:#AB62DB"/>
		<stop  offset="1" style="stop-color:#D63EDC"/>
	</linearGradient>
	<path class="st22" d="M267.6-163.4c-6.4,0-12.4,1.9-17.4,5.1c7,1.4,14.2,5,20.3,12.6c2.2,2.5,4.1,5.3,5.5,8.4
		c3.8,7.2,3.6,14.3,2,20.2c-1.2,5.4-3.7,10.2-7.3,14.2l0,0c0,0,23.2-2.2,29-28.4C299.7-149.1,285.3-163.4,267.6-163.4z"/>
	<linearGradient id="SVGID_24_" gradientUnits="userSpaceOnUse" x1="221.6948" y1="-99.4619" x2="287.7378" y2="-165.5048">
		<stop  offset="0.1486" style="stop-color:#00EED5"/>
		<stop  offset="0.3817" style="stop-color:#3EBBD7"/>
		<stop  offset="0.8094" style="stop-color:#AB62DB"/>
		<stop  offset="1" style="stop-color:#D63EDC"/>
	</linearGradient>
	<path class="st23" d="M255.7-101.6C255.7-101.6,255.7-101.6,255.7-101.6C255.7-101.6,255.7-101.6,255.7-101.6
		c-0.6-0.2-1.2-0.5-1.8-0.8c0,0,0,0-0.1,0c-0.2-0.1-0.3-0.2-0.5-0.2c-12.5-6-17.1-16.3-17.7-25.8c-0.1-1-0.1-1.9-0.1-2.9
		c0-2.9,0.4-5.6,1.1-8.3c0.3-1,0.6-2,1-3.1c1.3-3.3,3.1-6.4,5.3-9.1c2-2.7,3.8-4.5,3.8-4.5s-5,0.7-10.1,1.6
		c-12.8,4.2-22,16.3-22,30.4c0,17.7,14.4,32.1,32.1,32.1c7.3,0,14.1-2.5,19.5-6.6c-2.9-0.3-6.1-1.1-9.5-2.4
		C256.4-101.3,256-101.5,255.7-101.6z"/>
</g>
<g>
	<linearGradient id="SVGID_25_" gradientUnits="userSpaceOnUse" x1="332.0298" y1="-389.9319" x2="396.613" y2="-389.9319">
		<stop  offset="0.1486" style="stop-color:#00EED5"/>
		<stop  offset="0.3817" style="stop-color:#3EBBD7"/>
		<stop  offset="0.8094" style="stop-color:#AB62DB"/>
		<stop  offset="1" style="stop-color:#D63EDC"/>
	</linearGradient>
	<path class="st24" d="M390.1-382.1c-2.7,3.1-9,9.6-18.1,8.5c-4,3-8.9,4.9-14.3,4.9c-13,0-23.5-10.5-23.5-23.5
		c0-10.4,6.8-19.2,16.2-22.3c-2.6,0.5-5.2,1-6.6,1.5c-5.1,1.9-9.5,3.7-9.5,3.7s-2.7,7.1-2.1,15.8c1.5,11.5,8.9,21,19.1,25.6
		c0.3,0.1,0.6,0.3,0.9,0.4c0,0,0,0,0,0c0.4,0.2,0.8,0.3,1.2,0.5c3.5,1.3,7.2,1.9,11.1,1.9c9.8,0,18.6-4.4,24.6-11.3
		c6.2-8.2,7.9-16.8,7.7-17.7C396.6-394.2,394.7-387.5,390.1-382.1z"/>
	<linearGradient id="SVGID_26_" gradientUnits="userSpaceOnUse" x1="335.269" y1="-413.7654" x2="397.1177" y2="-413.7654">
		<stop  offset="0.1486" style="stop-color:#00EED5"/>
		<stop  offset="0.3817" style="stop-color:#3EBBD7"/>
		<stop  offset="0.8094" style="stop-color:#AB62DB"/>
		<stop  offset="1" style="stop-color:#D63EDC"/>
	</linearGradient>
	<path class="st25" d="M360.3-417.3c3.7-2.4,8.1-3.8,12.8-3.8c13,0,23.5,10.5,23.5,23.5c0.1-0.3,0.1-0.6,0.2-0.9
		c-0.3-10.4-5.4-19.6-13.2-25.4c-2.5-1.7-5.1-3.1-7.3-4c-1.7-0.7-3.5-1.2-5.3-1.6l0,0c-2.6-0.3-7-0.9-12.1-0.2
		c-8.3,1.4-15.6,6-20.5,12.4c-1.1,1.5-2.2,3.2-3.2,5.1C335.3-412.2,347.6-419.8,360.3-417.3z"/>
	<linearGradient id="SVGID_27_" gradientUnits="userSpaceOnUse" x1="345.3015" y1="-371.0086" x2="389.4636" y2="-415.1707">
		<stop  offset="0.1486" style="stop-color:#00EED5"/>
		<stop  offset="0.3817" style="stop-color:#3EBBD7"/>
		<stop  offset="0.8094" style="stop-color:#AB62DB"/>
		<stop  offset="1" style="stop-color:#D63EDC"/>
	</linearGradient>
	<path class="st26" d="M373.1-421.1c-4.7,0-9.1,1.4-12.8,3.8c5.2,1,10.4,3.7,14.9,9.2c1.6,1.8,3,3.9,4,6.2
		c2.8,5.3,2.6,10.5,1.5,14.8c-0.9,3.9-2.7,7.5-5.3,10.4l0,0c0,0,17-1.6,21.3-20.8C396.6-410.5,386.1-421.1,373.1-421.1z"/>
	<linearGradient id="SVGID_28_" gradientUnits="userSpaceOnUse" x1="339.3827" y1="-374.1243" x2="387.8552" y2="-422.5968">
		<stop  offset="0.1486" style="stop-color:#00EED5"/>
		<stop  offset="0.3817" style="stop-color:#3EBBD7"/>
		<stop  offset="0.8094" style="stop-color:#AB62DB"/>
		<stop  offset="1" style="stop-color:#D63EDC"/>
	</linearGradient>
	<path class="st27" d="M364.3-375.7C364.3-375.7,364.3-375.7,364.3-375.7C364.3-375.7,364.3-375.7,364.3-375.7
		c-0.4-0.2-0.9-0.4-1.3-0.6c0,0,0,0-0.1,0c-0.1-0.1-0.2-0.1-0.4-0.2c-9.2-4.4-12.5-11.9-13-19c-0.1-0.7-0.1-1.4-0.1-2.1
		c0-2.1,0.3-4.1,0.8-6.1c0.2-0.8,0.4-1.5,0.7-2.2c0.9-2.5,2.3-4.7,3.9-6.7c1.5-2,2.8-3.3,2.8-3.3s-3.7,0.5-7.4,1.2
		c-9.4,3.1-16.2,11.9-16.2,22.3c0,13,10.5,23.5,23.5,23.5c5.4,0,10.3-1.8,14.3-4.9c-2.1-0.3-4.4-0.8-6.9-1.8
		C364.8-375.5,364.6-375.6,364.3-375.7z"/>
</g>
</svg>
