<?xml version="1.0" encoding="utf-8"?>
<!-- Generator: Adobe Illustrator 24.2.0, SVG Export Plug-In . SVG Version: 6.00 Build 0)  -->
<svg version="1.1" id="Capa_1" xmlns="http://www.w3.org/2000/svg" xmlns:xlink="http://www.w3.org/1999/xlink" x="0px" y="0px"
	 viewBox="6 -512 512 512" style="enable-background:new 6 -512 512 512;" xml:space="preserve">
<style type="text/css">
	.st0{fill:url(#SVGID_1_);}
	.st1{fill:url(#SVGID_2_);}
	.st2{fill:url(#SVGID_3_);}
	.st3{fill:url(#SVGID_4_);}
	.st4{fill:url(#SVGID_5_);}
	.st5{fill:url(#SVGID_6_);}
	.st6{fill:url(#SVGID_7_);}
	.st7{fill:url(#SVGID_8_);}
	.st8{fill:url(#SVGID_9_);}
</style>
<g>
	<g>
		
			<linearGradient id="SVGID_1_" gradientUnits="userSpaceOnUse" x1="151.6188" y1="-16639.9492" x2="372.3689" y2="-16639.9492" gradientTransform="matrix(1 0 0 -1 0 -16896)">
			<stop  offset="0" style="stop-color:#7F00FF"/>
			<stop  offset="1" style="stop-color:#3F00FC"/>
		</linearGradient>
		<path class="st0" d="M335.6-338.3c-45.4-40.6-115.2-36.8-155.9,8.7c-18.1,20.2-28.1,46.4-28.1,73.6c0,31.4,13.4,61.3,36.8,82.3
			c45.4,40.6,115.2,36.8,155.9-8.7C384.9-227.9,381-297.7,335.6-338.3z M324.3-186.4c-38.4,34.4-97.5,31.1-131.9-7.4
			c-15.3-17.1-23.8-39.3-23.8-62.3c0-26.6,11.3-51.9,31.1-69.6c38.4-34.4,97.5-31.1,131.9,7.4C366-279.9,362.7-220.8,324.3-186.4z"
			/>
	</g>
</g>
<linearGradient id="SVGID_2_" gradientUnits="userSpaceOnUse" x1="7.283" y1="-16640" x2="516.717" y2="-16640" gradientTransform="matrix(1 0 0 -1 0 -16896)">
	<stop  offset="0.1486" style="stop-color:#00EED5"/>
	<stop  offset="0.3817" style="stop-color:#3EBBD7"/>
	<stop  offset="0.8094" style="stop-color:#AB62DB"/>
	<stop  offset="1" style="stop-color:#D63EDC"/>
</linearGradient>
<path class="st1" d="M499.7-232.1c13.2-4.7,20.2-19.2,15.6-32.4c-4.7-13.2-19.2-20.2-32.4-15.6c-7.3,2.6-13,8.3-15.6,15.6h-61.4
	c-3-50.1-31.7-95.1-76-118.8v-51h95c2.6,7.2,8.2,12.9,15.4,15.4v69.5c0,4.7,3.8,8.5,8.5,8.5h67.9v-17h-59.4v-61
	c13.2-4.7,20.2-19.2,15.6-32.4s-19.2-20.2-32.4-15.6c-7.3,2.6-13,8.3-15.6,15.6H321.4c-4.7,0-8.5,3.8-8.5,8.5v51.9
	c-16.3-6.2-33.5-9.4-50.9-9.5c-5.7,0-11.3,0.4-17,1.1v-11.1c13.2-4.6,20.2-19,15.6-32.2c-2.5-7.3-8.3-13-15.6-15.6v-35.5h271.7v-17
	H236.5c-4.7,0-8.5,3.8-8.5,8.5v44c-7.2,2.6-12.9,8.2-15.4,15.4h-78v-18.5c13.2-4.7,20.2-19.2,15.6-32.4
	c-4.7-13.2-19.2-20.2-32.4-15.6c-7.3,2.6-13,8.3-15.6,15.6h-95v17h95c2.6,7.2,8.2,12.9,15.4,15.4v27c0,4.7,3.8,8.5,8.5,8.5h86.5
	c2.6,7.2,8.2,12.9,15.4,15.4v14.3c-61.5,15-106.1,68.4-109.9,131.6H66.7v-35.5c13.2-4.6,20.2-19,15.6-32.2
	c-2.5-7.3-8.3-13-15.6-15.6v-52.5c0-4.7-3.8-8.5-8.5-8.5H7.3v17h42.5v44c-13.2,4.6-20.2,19-15.6,32.2c2.5,7.3,8.3,13,15.6,15.6v44
	c0,4.7,3.8,8.5,8.5,8.5h59.9c1.2,20.8,6.8,41.1,16.6,59.4H92.2c-4.7,0-8.5,3.8-8.5,8.5v42.5H7.3v17h76.4v17c0,4.7,3.8,8.5,8.5,8.5
	h59.4v18.5c-7.2,2.6-12.9,8.2-15.4,15.4H7.3v17h128.9c4.7,13.2,19.2,20.2,32.4,15.6c13.2-4.7,20.2-19.2,15.6-32.4
	c-2.6-7.3-8.3-13-15.6-15.6v-27c0-4.7-3.8-8.5-8.5-8.5h-59.4v-59.4h44.9c25.4,34.8,65,56.5,108,59v59.9c0,4.7,3.8,8.5,8.5,8.5h67.9
	v42.5h17v-50.9c0-4.7-3.8-8.5-8.5-8.5h-67.9v-51.4c35.3-2,68.7-17,93.6-42h50.7v103.4c-13.3,4.7-20.2,19.2-15.5,32.5
	C404-5,418.5,2,431.8-2.7c13.3-4.7,20.2-19.2,15.5-32.5c-2.6-7.3-8.3-13-15.5-15.5v-111.9c0-4.7-3.8-8.5-8.5-8.5h-44.9
	c16.3-22.3,25.9-48.8,27.4-76.4h61.4c2.6,7.2,8.2,12.9,15.4,15.4v111.9c0,4.7,3.8,8.5,8.5,8.5h25.5v-17h-17L499.7-232.1L499.7-232.1
	z M448.8-451.3c4.7,0,8.5,3.8,8.5,8.5c0,4.7-3.8,8.5-8.5,8.5c-4.7,0-8.5-3.8-8.5-8.5C440.3-447.5,444.1-451.3,448.8-451.3z
	 M126.1-476.8c-4.7,0-8.5-3.8-8.5-8.5c0-4.7,3.8-8.5,8.5-8.5s8.5,3.8,8.5,8.5C134.6-480.6,130.8-476.8,126.1-476.8z M58.2-315.5
	c-4.7,0-8.5-3.8-8.5-8.5c0-4.7,3.8-8.5,8.5-8.5s8.5,3.8,8.5,8.5C66.7-319.3,62.9-315.5,58.2-315.5z M160.1-60.8
	c4.7,0,8.5,3.8,8.5,8.5s-3.8,8.5-8.5,8.5c-4.7,0-8.5-3.8-8.5-8.5S155.4-60.8,160.1-60.8z M423.3-35.3c4.7,0,8.5,3.8,8.5,8.5
	s-3.8,8.5-8.5,8.5c-4.7,0-8.5-3.8-8.5-8.5S418.6-35.3,423.3-35.3z M236.5-442.8c4.7,0,8.5,3.8,8.5,8.5s-3.8,8.5-8.5,8.5
	c-4.7,0-8.5-3.8-8.5-8.5S231.8-442.8,236.5-442.8z M262-128.7c-70.3,0-127.4-57-127.4-127.4c0.1-70.3,57.1-127.3,127.4-127.4
	c70.3,0,127.4,57,127.4,127.4S332.3-128.7,262-128.7z M491.2-247.6c-4.7,0-8.5-3.8-8.5-8.5c0-4.7,3.8-8.5,8.5-8.5
	c4.7,0,8.5,3.8,8.5,8.5C499.7-251.4,495.9-247.6,491.2-247.6z"/>
<g>
	<g>
		
			<linearGradient id="SVGID_3_" gradientUnits="userSpaceOnUse" x1="7.283" y1="-16733.3438" x2="58.2251" y2="-16733.3438" gradientTransform="matrix(1 0 0 -1 0 -16896)">
			<stop  offset="0" style="stop-color:#7F00FF"/>
			<stop  offset="1" style="stop-color:#3F00FC"/>
		</linearGradient>
		<rect x="7.3" y="-171.1" class="st2" width="50.9" height="17"/>
	</g>
</g>
<g>
	<g>
		
			<linearGradient id="SVGID_4_" gradientUnits="userSpaceOnUse" x1="287.4644" y1="-16809.7578" x2="304.445" y2="-16809.7578" gradientTransform="matrix(1 0 0 -1 0 -16896)">
			<stop  offset="0" style="stop-color:#7F00FF"/>
			<stop  offset="1" style="stop-color:#3F00FC"/>
		</linearGradient>
		<rect x="287.5" y="-94.7" class="st3" width="17" height="17"/>
	</g>
</g>
<g>
	<g>
		
			<linearGradient id="SVGID_5_" gradientUnits="userSpaceOnUse" x1="406.3292" y1="-16508.3496" x2="423.3099" y2="-16508.3496" gradientTransform="matrix(1 0 0 -1 0 -16896)">
			<stop  offset="0" style="stop-color:#7F00FF"/>
			<stop  offset="1" style="stop-color:#3F00FC"/>
		</linearGradient>
		<rect x="406.3" y="-400.4" class="st4" width="17" height="25.5"/>
	</g>
</g>
<g>
	<linearGradient id="SVGID_6_" gradientUnits="userSpaceOnUse" x1="188.5791" y1="-238.3919" x2="334.7094" y2="-238.3919">
		<stop  offset="0.1486" style="stop-color:#00EED5"/>
		<stop  offset="0.3817" style="stop-color:#3EBBD7"/>
		<stop  offset="0.8094" style="stop-color:#AB62DB"/>
		<stop  offset="1" style="stop-color:#D63EDC"/>
	</linearGradient>
	<path class="st5" d="M320-220.7c-6.2,7.1-20.5,21.7-40.9,19.2c-9,6.9-20.2,11-32.4,11c-29.4,0-53.3-23.8-53.3-53.3
		c0-23.6,15.3-43.6,36.5-50.6c-5.9,1.1-11.8,2.3-14.8,3.5c-11.6,4.4-21.5,8.4-21.5,8.4s-6.2,16.2-4.8,35.8
		c3.3,25.9,20.1,47.6,43.1,57.8c0.7,0.3,1.3,0.6,2,0.9c0,0,0,0,0,0c0.9,0.4,1.8,0.7,2.6,1c7.8,2.8,16.3,4.4,25.1,4.4
		c22.3,0,42.2-9.9,55.7-25.5c14-18.5,17.8-38,17.4-40C334.7-248,330.4-232.8,320-220.7z"/>
	<linearGradient id="SVGID_7_" gradientUnits="userSpaceOnUse" x1="195.9084" y1="-292.3189" x2="335.8514" y2="-292.3189">
		<stop  offset="0.1486" style="stop-color:#00EED5"/>
		<stop  offset="0.3817" style="stop-color:#3EBBD7"/>
		<stop  offset="0.8094" style="stop-color:#AB62DB"/>
		<stop  offset="1" style="stop-color:#D63EDC"/>
	</linearGradient>
	<path class="st6" d="M252.5-300.4c8.3-5.4,18.2-8.5,28.9-8.5c29.4,0,53.3,23.8,53.3,53.3c0.2-0.7,0.3-1.4,0.4-2.1
		c-0.6-23.6-12.2-44.4-30-57.4c-5.7-3.9-11.4-7-16.5-9.1c-3.8-1.5-7.8-2.7-11.9-3.6l0,0c-5.9-0.6-15.9-2-27.3-0.5
		c-18.8,3.2-35.2,13.5-46.3,28.1c-2.5,3.4-4.9,7.3-7.2,11.6C195.9-288.7,223.8-306,252.5-300.4z"/>
	<linearGradient id="SVGID_8_" gradientUnits="userSpaceOnUse" x1="218.6085" y1="-195.5747" x2="318.5326" y2="-295.4987">
		<stop  offset="0.1486" style="stop-color:#00EED5"/>
		<stop  offset="0.3817" style="stop-color:#3EBBD7"/>
		<stop  offset="0.8094" style="stop-color:#AB62DB"/>
		<stop  offset="1" style="stop-color:#D63EDC"/>
	</linearGradient>
	<path class="st7" d="M281.4-308.9c-10.7,0-20.6,3.1-28.9,8.5c11.7,2.3,23.5,8.4,33.6,20.9c3.7,4.1,6.8,8.8,9.1,13.9
		c6.3,12,5.9,23.8,3.3,33.5c-2,8.9-6.2,16.9-12,23.5l0,0c0,0,38.5-3.6,48.1-47.1C334.7-285,310.8-308.9,281.4-308.9z"/>
	<linearGradient id="SVGID_9_" gradientUnits="userSpaceOnUse" x1="205.2163" y1="-202.6244" x2="314.8934" y2="-312.3015">
		<stop  offset="0.1486" style="stop-color:#00EED5"/>
		<stop  offset="0.3817" style="stop-color:#3EBBD7"/>
		<stop  offset="0.8094" style="stop-color:#AB62DB"/>
		<stop  offset="1" style="stop-color:#D63EDC"/>
	</linearGradient>
	<path class="st8" d="M261.7-206.2C261.7-206.2,261.6-206.2,261.7-206.2C261.6-206.2,261.6-206.2,261.7-206.2c-1-0.4-2-0.8-2.9-1.3
		c0,0-0.1,0-0.1-0.1c-0.3-0.1-0.6-0.3-0.8-0.4c-20.8-10-28.3-27-29.4-42.9c-0.1-1.6-0.2-3.2-0.2-4.8c0-4.8,0.6-9.4,1.8-13.8
		c0.4-1.7,1-3.4,1.6-5.1c2.1-5.6,5.1-10.7,8.8-15.2c3.4-4.5,6.2-7.4,6.2-7.4s-8.3,1.2-16.7,2.7c-21.2,7-36.5,27-36.5,50.6
		c0,29.4,23.8,53.3,53.3,53.3c12.2,0,23.4-4.1,32.4-11c-4.8-0.6-10.1-1.9-15.7-4C262.8-205.7,262.2-205.9,261.7-206.2z"/>
</g>
</svg>
