<?xml version="1.0" encoding="utf-8"?>
<!-- Generator: Adobe Illustrator 24.2.0, SVG Export Plug-In . SVG Version: 6.00 Build 0)  -->
<svg version="1.1" id="Capa_1" xmlns="http://www.w3.org/2000/svg" xmlns:xlink="http://www.w3.org/1999/xlink" x="0px" y="0px"
	 viewBox="6 -512 512 512" style="enable-background:new 6 -512 512 512;" xml:space="preserve">
<style type="text/css">
	.st0{fill:url(#SVGID_1_);}
	.st1{fill:url(#SVGID_2_);}
	.st2{fill:url(#SVGID_3_);}
	.st3{fill:url(#SVGID_4_);}
	.st4{fill:url(#SVGID_5_);}
	.st5{fill:url(#SVGID_6_);}
	.st6{fill:url(#SVGID_7_);}
	.st7{fill:url(#SVGID_8_);}
	.st8{fill:url(#SVGID_9_);}
	.st9{fill:url(#SVGID_10_);}
	.st10{fill:url(#SVGID_11_);}
	.st11{fill:url(#SVGID_12_);}
	.st12{fill:url(#SVGID_13_);}
	.st13{fill:url(#SVGID_14_);}
	.st14{fill:url(#SVGID_15_);}
	.st15{fill:url(#SVGID_16_);}
	.st16{fill:url(#SVGID_17_);}
	.st17{fill:url(#SVGID_18_);}
	.st18{fill:url(#SVGID_19_);}
	.st19{fill:url(#SVGID_20_);}
	.st20{fill:url(#SVGID_21_);}
</style>
<g>
	<g>
		
			<linearGradient id="SVGID_1_" gradientUnits="userSpaceOnUse" x1="69.9971" y1="-16640" x2="454.0029" y2="-16640" gradientTransform="matrix(1 0 0 -1 0 -16896)">
			<stop  offset="0.1486" style="stop-color:#00EED5"/>
			<stop  offset="0.3817" style="stop-color:#3EBBD7"/>
			<stop  offset="0.8094" style="stop-color:#AB62DB"/>
			<stop  offset="1" style="stop-color:#D63EDC"/>
		</linearGradient>
		<path class="st0" d="M390-204.5v-103c38.7-3.5,67.3-37.7,63.7-76.4s-37.7-67.3-76.4-63.7c-31.4,2.8-57.1,26.3-62.9,57.3H209.6
			c-7-38.2-43.7-63.5-82-56.5c-38.2,7-63.5,43.7-56.5,82c5.7,31.1,31.4,54.5,62.9,57.3v103c-36.2,3.3-63.9,33.7-64,70.1
			c0.2,38.9,31.9,70.2,70.7,70c36.1-0.2,66.2-27.7,69.7-63.6h103c3.5,38.7,37.7,67.2,76.5,63.7c38.7-3.5,67.2-37.7,63.7-76.5
			C450.6-174.6,423.8-201.4,390-204.5z M383.6-435.1c31.8,0,57.6,25.8,57.6,57.6c0,31.8-25.8,57.6-57.6,57.6
			c-31.8,0-57.6-25.8-57.6-57.6C326-409.3,351.8-435.1,383.6-435.1z M198-256c0-31.8,25.8-57.6,57.6-57.6
			c31.8,0,57.5,25.8,57.6,57.6c0,31.8-25.8,57.6-57.6,57.6C223.8-198.4,198-224.2,198-256z M204.6-207.6l-19.2,19.2
			c-10.9-9.1-24.4-14.7-38.6-16v-103c14.2-1.3,27.7-6.9,38.6-16l19.2,19.2c-12.4,13-19.4,30.3-19.4,48.3
			C185.2-238,192.2-220.7,204.6-207.6z M312.4-297.4l26.1-26.1c10.9,9.1,24.4,14.7,38.6,16v103c-14.2,1.3-27.7,6.9-38.6,16
			l-26.1-26.1C330.5-239.2,330.5-272.7,312.4-297.4z M210.8-377.6h102.4c0,16.5,5.8,32.4,16.3,45L304-307
			c-24.5-23.4-62.4-25.9-89.7-5.8l-19.7-19.7C205.1-345.2,210.8-361.1,210.8-377.6z M82.9-377.6c0-31.8,25.8-57.6,57.6-57.6
			s57.6,25.8,57.6,57.6c0,31.8-25.8,57.6-57.6,57.6C108.7-320,82.9-345.8,82.9-377.6z M140.4-76.9c-31.8,0-57.6-25.8-57.6-57.6
			c0-31.8,25.8-57.5,57.6-57.6c31.8,0,57.6,25.8,57.6,57.6S172.2-76.9,140.4-76.9z M210.5-140.8c-1.3-14.2-6.9-27.7-16-38.6
			l19.7-19.7c27.4,20.1,65.2,17.6,89.7-5.8l25.6,25.6c-9.1,10.9-14.7,24.4-16,38.6H210.5z M383.6-76.9c-31.8,0-57.6-25.8-57.6-57.6
			c0-31.8,25.8-57.6,57.6-57.6c31.8,0,57.5,25.8,57.6,57.6C441.1-102.6,415.4-76.9,383.6-76.9z"/>
	</g>
</g>
<g>
	<linearGradient id="SVGID_2_" gradientUnits="userSpaceOnUse" x1="343.2075" y1="-124.7111" x2="423.5352" y2="-124.7111">
		<stop  offset="0.1486" style="stop-color:#00EED5"/>
		<stop  offset="0.3817" style="stop-color:#3EBBD7"/>
		<stop  offset="0.8094" style="stop-color:#AB62DB"/>
		<stop  offset="1" style="stop-color:#D63EDC"/>
	</linearGradient>
	<path class="st1" d="M415.4-115c-3.4,3.9-11.2,11.9-22.5,10.6c-4.9,3.8-11.1,6-17.8,6c-16.2,0-29.3-13.1-29.3-29.3
		c0-13,8.4-23.9,20.1-27.8c-3.2,0.6-6.5,1.3-8.2,1.9c-6.4,2.4-11.8,4.6-11.8,4.6s-3.4,8.9-2.6,19.7c1.8,14.2,11,26.2,23.7,31.8
		c0.4,0.2,0.7,0.3,1.1,0.5c0,0,0,0,0,0c0.5,0.2,1,0.4,1.4,0.6c4.3,1.6,8.9,2.4,13.8,2.4c12.2,0,23.2-5.4,30.6-14
		c7.7-10.2,9.8-20.9,9.6-22C423.5-130,421.2-121.6,415.4-115z"/>
	<linearGradient id="SVGID_3_" gradientUnits="userSpaceOnUse" x1="347.2364" y1="-154.3548" x2="424.1629" y2="-154.3548">
		<stop  offset="0.1486" style="stop-color:#00EED5"/>
		<stop  offset="0.3817" style="stop-color:#3EBBD7"/>
		<stop  offset="0.8094" style="stop-color:#AB62DB"/>
		<stop  offset="1" style="stop-color:#D63EDC"/>
	</linearGradient>
	<path class="st2" d="M378.4-158.8c4.6-3,10-4.7,15.9-4.7c16.2,0,29.3,13.1,29.3,29.3c0.1-0.4,0.1-0.8,0.2-1.2
		c-0.3-13-6.7-24.4-16.5-31.6c-3.1-2.1-6.3-3.8-9.1-5c-2.1-0.8-4.3-1.5-6.6-2l0,0c-3.3-0.3-8.7-1.1-15-0.3
		c-10.4,1.7-19.4,7.4-25.4,15.4c-1.4,1.9-2.7,4-3.9,6.4C347.2-152.4,362.6-161.9,378.4-158.8z"/>
	<linearGradient id="SVGID_4_" gradientUnits="userSpaceOnUse" x1="359.7146" y1="-101.1746" x2="414.6428" y2="-156.1028">
		<stop  offset="0.1486" style="stop-color:#00EED5"/>
		<stop  offset="0.3817" style="stop-color:#3EBBD7"/>
		<stop  offset="0.8094" style="stop-color:#AB62DB"/>
		<stop  offset="1" style="stop-color:#D63EDC"/>
	</linearGradient>
	<path class="st3" d="M394.2-163.5c-5.9,0-11.3,1.7-15.9,4.7c6.4,1.3,12.9,4.6,18.5,11.5c2,2.3,3.7,4.8,5,7.7
		c3.5,6.6,3.3,13.1,1.8,18.4c-1.1,4.9-3.4,9.3-6.6,12.9l0,0c0,0,21.2-2,26.5-25.9C423.5-150.3,410.4-163.5,394.2-163.5z"/>
	<linearGradient id="SVGID_5_" gradientUnits="userSpaceOnUse" x1="352.3529" y1="-105.0498" x2="412.6423" y2="-165.3392">
		<stop  offset="0.1486" style="stop-color:#00EED5"/>
		<stop  offset="0.3817" style="stop-color:#3EBBD7"/>
		<stop  offset="0.8094" style="stop-color:#AB62DB"/>
		<stop  offset="1" style="stop-color:#D63EDC"/>
	</linearGradient>
	<path class="st4" d="M383.4-107C383.4-107,383.4-107,383.4-107C383.4-107,383.4-107,383.4-107c-0.5-0.2-1.1-0.4-1.6-0.7
		c0,0,0,0-0.1,0c-0.2-0.1-0.3-0.1-0.5-0.2c-11.4-5.5-15.6-14.9-16.2-23.6c-0.1-0.9-0.1-1.8-0.1-2.7c0-2.6,0.3-5.2,1-7.6
		c0.2-0.9,0.5-1.9,0.9-2.8c1.2-3.1,2.8-5.9,4.8-8.3c1.9-2.5,3.4-4.1,3.4-4.1s-4.6,0.6-9.2,1.5c-11.7,3.9-20.1,14.8-20.1,27.8
		c0,16.2,13.1,29.3,29.3,29.3c6.7,0,12.9-2.3,17.8-6c-2.7-0.3-5.5-1-8.6-2.2C384-106.8,383.7-106.9,383.4-107z"/>
</g>
<g>
	<linearGradient id="SVGID_6_" gradientUnits="userSpaceOnUse" x1="215.3457" y1="-246.4669" x2="295.6734" y2="-246.4669">
		<stop  offset="0.1486" style="stop-color:#00EED5"/>
		<stop  offset="0.3817" style="stop-color:#3EBBD7"/>
		<stop  offset="0.8094" style="stop-color:#AB62DB"/>
		<stop  offset="1" style="stop-color:#D63EDC"/>
	</linearGradient>
	<path class="st5" d="M287.6-236.7c-3.4,3.9-11.2,11.9-22.5,10.6c-4.9,3.8-11.1,6-17.8,6c-16.2,0-29.3-13.1-29.3-29.3
		c0-13,8.4-23.9,20.1-27.8c-3.2,0.6-6.5,1.3-8.2,1.9c-6.4,2.4-11.8,4.6-11.8,4.6s-3.4,8.9-2.6,19.7c1.8,14.2,11,26.2,23.7,31.8
		c0.4,0.2,0.7,0.3,1.1,0.5c0,0,0,0,0,0c0.5,0.2,1,0.4,1.4,0.6c4.3,1.6,8.9,2.4,13.8,2.4c12.2,0,23.2-5.4,30.6-14
		c7.7-10.2,9.8-20.9,9.6-22C295.7-251.8,293.3-243.4,287.6-236.7z"/>
	<linearGradient id="SVGID_7_" gradientUnits="userSpaceOnUse" x1="219.3746" y1="-276.1106" x2="296.3011" y2="-276.1106">
		<stop  offset="0.1486" style="stop-color:#00EED5"/>
		<stop  offset="0.3817" style="stop-color:#3EBBD7"/>
		<stop  offset="0.8094" style="stop-color:#AB62DB"/>
		<stop  offset="1" style="stop-color:#D63EDC"/>
	</linearGradient>
	<path class="st6" d="M250.5-280.5c4.6-3,10-4.7,15.9-4.7c16.2,0,29.3,13.1,29.3,29.3c0.1-0.4,0.1-0.8,0.2-1.2
		c-0.3-13-6.7-24.4-16.5-31.6c-3.1-2.1-6.3-3.8-9.1-5c-2.1-0.8-4.3-1.5-6.6-2l0,0c-3.3-0.3-8.7-1.1-15-0.3
		c-10.4,1.7-19.4,7.4-25.4,15.4c-1.4,1.9-2.7,4-3.9,6.4C219.4-274.1,234.7-283.6,250.5-280.5z"/>
	<linearGradient id="SVGID_8_" gradientUnits="userSpaceOnUse" x1="231.8528" y1="-222.9304" x2="286.781" y2="-277.8586">
		<stop  offset="0.1486" style="stop-color:#00EED5"/>
		<stop  offset="0.3817" style="stop-color:#3EBBD7"/>
		<stop  offset="0.8094" style="stop-color:#AB62DB"/>
		<stop  offset="1" style="stop-color:#D63EDC"/>
	</linearGradient>
	<path class="st7" d="M266.4-285.2c-5.9,0-11.3,1.7-15.9,4.7c6.4,1.3,12.9,4.6,18.5,11.5c2,2.3,3.7,4.8,5,7.7
		c3.5,6.6,3.3,13.1,1.8,18.4c-1.1,4.9-3.4,9.3-6.6,12.9l0,0c0,0,21.2-2,26.5-25.9C295.7-272.1,282.6-285.2,266.4-285.2z"/>
	<linearGradient id="SVGID_9_" gradientUnits="userSpaceOnUse" x1="224.4911" y1="-226.8056" x2="284.7805" y2="-287.095">
		<stop  offset="0.1486" style="stop-color:#00EED5"/>
		<stop  offset="0.3817" style="stop-color:#3EBBD7"/>
		<stop  offset="0.8094" style="stop-color:#AB62DB"/>
		<stop  offset="1" style="stop-color:#D63EDC"/>
	</linearGradient>
	<path class="st8" d="M255.5-228.8C255.5-228.8,255.5-228.8,255.5-228.8C255.5-228.8,255.5-228.8,255.5-228.8
		c-0.5-0.2-1.1-0.4-1.6-0.7c0,0,0,0-0.1,0c-0.2-0.1-0.3-0.1-0.5-0.2c-11.4-5.5-15.6-14.9-16.2-23.6c-0.1-0.9-0.1-1.8-0.1-2.7
		c0-2.6,0.3-5.2,1-7.6c0.2-0.9,0.5-1.9,0.9-2.8c1.2-3.1,2.8-5.9,4.8-8.3c1.9-2.5,3.4-4.1,3.4-4.1s-4.6,0.6-9.2,1.5
		c-11.7,3.9-20.1,14.8-20.1,27.8c0,16.2,13.1,29.3,29.3,29.3c6.7,0,12.9-2.3,17.8-6c-2.7-0.3-5.5-1-8.6-2.2
		C256.1-228.5,255.8-228.6,255.5-228.8z"/>
</g>
<g>
	<linearGradient id="SVGID_10_" gradientUnits="userSpaceOnUse" x1="342.9977" y1="-368.0189" x2="423.3255" y2="-368.0189">
		<stop  offset="0.1486" style="stop-color:#00EED5"/>
		<stop  offset="0.3817" style="stop-color:#3EBBD7"/>
		<stop  offset="0.8094" style="stop-color:#AB62DB"/>
		<stop  offset="1" style="stop-color:#D63EDC"/>
	</linearGradient>
	<path class="st9" d="M415.2-358.3c-3.4,3.9-11.2,11.9-22.5,10.6c-4.9,3.8-11.1,6-17.8,6c-16.2,0-29.3-13.1-29.3-29.3
		c0-13,8.4-23.9,20.1-27.8c-3.2,0.6-6.5,1.3-8.2,1.9c-6.4,2.4-11.8,4.6-11.8,4.6s-3.4,8.9-2.6,19.7c1.8,14.2,11,26.2,23.7,31.8
		c0.4,0.2,0.7,0.3,1.1,0.5c0,0,0,0,0,0c0.5,0.2,1,0.4,1.4,0.6c4.3,1.6,8.9,2.4,13.8,2.4c12.2,0,23.2-5.4,30.6-14
		c7.7-10.2,9.8-20.9,9.6-22C423.3-373.3,421-364.9,415.2-358.3z"/>
	<linearGradient id="SVGID_11_" gradientUnits="userSpaceOnUse" x1="347.0266" y1="-397.6626" x2="423.9532" y2="-397.6626">
		<stop  offset="0.1486" style="stop-color:#00EED5"/>
		<stop  offset="0.3817" style="stop-color:#3EBBD7"/>
		<stop  offset="0.8094" style="stop-color:#AB62DB"/>
		<stop  offset="1" style="stop-color:#D63EDC"/>
	</linearGradient>
	<path class="st10" d="M378.2-402.1c4.6-3,10-4.7,15.9-4.7c16.2,0,29.3,13.1,29.3,29.3c0.1-0.4,0.1-0.8,0.2-1.2
		c-0.3-13-6.7-24.4-16.5-31.6c-3.1-2.1-6.3-3.8-9.1-5c-2.1-0.8-4.3-1.5-6.6-2l0,0c-3.3-0.3-8.7-1.1-15-0.3
		c-10.4,1.7-19.4,7.4-25.4,15.4c-1.4,1.9-2.7,4-3.9,6.4C347-395.7,362.4-405.2,378.2-402.1z"/>
	<linearGradient id="SVGID_12_" gradientUnits="userSpaceOnUse" x1="359.5049" y1="-344.4823" x2="414.4331" y2="-399.4105">
		<stop  offset="0.1486" style="stop-color:#00EED5"/>
		<stop  offset="0.3817" style="stop-color:#3EBBD7"/>
		<stop  offset="0.8094" style="stop-color:#AB62DB"/>
		<stop  offset="1" style="stop-color:#D63EDC"/>
	</linearGradient>
	<path class="st11" d="M394-406.8c-5.9,0-11.3,1.7-15.9,4.7c6.4,1.3,12.9,4.6,18.5,11.5c2,2.3,3.7,4.8,5,7.7
		c3.5,6.6,3.3,13.1,1.8,18.4c-1.1,4.9-3.4,9.3-6.6,12.9l0,0c0,0,21.2-2,26.5-25.9C423.3-393.7,410.2-406.8,394-406.8z"/>
	<linearGradient id="SVGID_13_" gradientUnits="userSpaceOnUse" x1="352.1432" y1="-348.3576" x2="412.4326" y2="-408.647">
		<stop  offset="0.1486" style="stop-color:#00EED5"/>
		<stop  offset="0.3817" style="stop-color:#3EBBD7"/>
		<stop  offset="0.8094" style="stop-color:#AB62DB"/>
		<stop  offset="1" style="stop-color:#D63EDC"/>
	</linearGradient>
	<path class="st12" d="M383.2-350.3C383.2-350.3,383.2-350.3,383.2-350.3C383.2-350.3,383.2-350.3,383.2-350.3
		c-0.5-0.2-1.1-0.4-1.6-0.7c0,0,0,0-0.1,0c-0.2-0.1-0.3-0.1-0.5-0.2c-11.4-5.5-15.6-14.9-16.2-23.6c-0.1-0.9-0.1-1.8-0.1-2.7
		c0-2.6,0.3-5.2,1-7.6c0.2-0.9,0.5-1.9,0.9-2.8c1.2-3.1,2.8-5.9,4.8-8.3c1.9-2.5,3.4-4.1,3.4-4.1s-4.6,0.6-9.2,1.5
		c-11.7,3.9-20.1,14.8-20.1,27.8c0,16.2,13.1,29.3,29.3,29.3c6.7,0,12.9-2.3,17.8-6c-2.7-0.3-5.5-1-8.6-2.2
		C383.8-350.1,383.5-350.2,383.2-350.3z"/>
</g>
<g>
	<linearGradient id="SVGID_14_" gradientUnits="userSpaceOnUse" x1="100.1821" y1="-369.6362" x2="180.5098" y2="-369.6362">
		<stop  offset="0.1486" style="stop-color:#00EED5"/>
		<stop  offset="0.3817" style="stop-color:#3EBBD7"/>
		<stop  offset="0.8094" style="stop-color:#AB62DB"/>
		<stop  offset="1" style="stop-color:#D63EDC"/>
	</linearGradient>
	<path class="st13" d="M172.4-359.9c-3.4,3.9-11.2,11.9-22.5,10.6c-4.9,3.8-11.1,6-17.8,6c-16.2,0-29.3-13.1-29.3-29.3
		c0-13,8.4-23.9,20.1-27.8c-3.2,0.6-6.5,1.3-8.2,1.9c-6.4,2.4-11.8,4.6-11.8,4.6s-3.4,8.9-2.6,19.7c1.8,14.2,11,26.2,23.7,31.8
		c0.4,0.2,0.7,0.3,1.1,0.5c0,0,0,0,0,0c0.5,0.2,1,0.4,1.4,0.6c4.3,1.6,8.9,2.4,13.8,2.4c12.2,0,23.2-5.4,30.6-14
		c7.7-10.2,9.8-20.9,9.6-22C180.5-374.9,178.2-366.6,172.4-359.9z"/>
	<linearGradient id="SVGID_15_" gradientUnits="userSpaceOnUse" x1="104.211" y1="-399.2798" x2="181.1375" y2="-399.2798">
		<stop  offset="0.1486" style="stop-color:#00EED5"/>
		<stop  offset="0.3817" style="stop-color:#3EBBD7"/>
		<stop  offset="0.8094" style="stop-color:#AB62DB"/>
		<stop  offset="1" style="stop-color:#D63EDC"/>
	</linearGradient>
	<path class="st14" d="M135.3-403.7c4.6-3,10-4.7,15.9-4.7c16.2,0,29.3,13.1,29.3,29.3c0.1-0.4,0.1-0.8,0.2-1.2
		c-0.3-13-6.7-24.4-16.5-31.6c-3.1-2.1-6.3-3.8-9.1-5c-2.1-0.8-4.3-1.5-6.6-2l0,0c-3.3-0.3-8.7-1.1-15-0.3
		c-10.4,1.7-19.4,7.4-25.4,15.4c-1.4,1.9-2.7,4-3.9,6.4C104.2-397.3,119.5-406.8,135.3-403.7z"/>
	<linearGradient id="SVGID_16_" gradientUnits="userSpaceOnUse" x1="116.6892" y1="-346.0996" x2="171.6174" y2="-401.0278">
		<stop  offset="0.1486" style="stop-color:#00EED5"/>
		<stop  offset="0.3817" style="stop-color:#3EBBD7"/>
		<stop  offset="0.8094" style="stop-color:#AB62DB"/>
		<stop  offset="1" style="stop-color:#D63EDC"/>
	</linearGradient>
	<path class="st15" d="M151.2-408.4c-5.9,0-11.3,1.7-15.9,4.7c6.4,1.3,12.9,4.6,18.5,11.5c2,2.3,3.7,4.8,5,7.7
		c3.5,6.6,3.3,13.1,1.8,18.4c-1.1,4.9-3.4,9.3-6.6,12.9l0,0c0,0,21.2-2,26.5-25.9C180.5-395.3,167.4-408.4,151.2-408.4z"/>
	<linearGradient id="SVGID_17_" gradientUnits="userSpaceOnUse" x1="109.3275" y1="-349.9748" x2="169.6169" y2="-410.2643">
		<stop  offset="0.1486" style="stop-color:#00EED5"/>
		<stop  offset="0.3817" style="stop-color:#3EBBD7"/>
		<stop  offset="0.8094" style="stop-color:#AB62DB"/>
		<stop  offset="1" style="stop-color:#D63EDC"/>
	</linearGradient>
	<path class="st16" d="M140.4-351.9C140.3-351.9,140.3-351.9,140.4-351.9C140.3-351.9,140.3-351.9,140.4-351.9
		c-0.5-0.2-1.1-0.4-1.6-0.7c0,0,0,0-0.1,0c-0.2-0.1-0.3-0.1-0.5-0.2c-11.4-5.5-15.6-14.9-16.2-23.6c-0.1-0.9-0.1-1.8-0.1-2.7
		c0-2.6,0.3-5.2,1-7.6c0.2-0.9,0.5-1.9,0.9-2.8c1.2-3.1,2.8-5.9,4.8-8.3c1.9-2.5,3.4-4.1,3.4-4.1s-4.6,0.6-9.2,1.5
		c-11.7,3.9-20.1,14.8-20.1,27.8c0,16.2,13.1,29.3,29.3,29.3c6.7,0,12.9-2.3,17.8-6c-2.7-0.3-5.5-1-8.6-2.2
		C141-351.7,140.7-351.8,140.4-351.9z"/>
</g>
<g>
	<linearGradient id="SVGID_18_" gradientUnits="userSpaceOnUse" x1="100.0843" y1="-126.3284" x2="180.412" y2="-126.3284">
		<stop  offset="0.1486" style="stop-color:#00EED5"/>
		<stop  offset="0.3817" style="stop-color:#3EBBD7"/>
		<stop  offset="0.8094" style="stop-color:#AB62DB"/>
		<stop  offset="1" style="stop-color:#D63EDC"/>
	</linearGradient>
	<path class="st17" d="M172.3-116.6c-3.4,3.9-11.2,11.9-22.5,10.6c-4.9,3.8-11.1,6-17.8,6c-16.2,0-29.3-13.1-29.3-29.3
		c0-13,8.4-23.9,20.1-27.8c-3.2,0.6-6.5,1.3-8.2,1.9c-6.4,2.4-11.8,4.6-11.8,4.6s-3.4,8.9-2.6,19.7c1.8,14.2,11,26.2,23.7,31.8
		c0.4,0.2,0.7,0.3,1.1,0.5c0,0,0,0,0,0c0.5,0.2,1,0.4,1.4,0.6c4.3,1.6,8.9,2.4,13.8,2.4c12.2,0,23.2-5.4,30.6-14
		c7.7-10.2,9.8-20.9,9.6-22C180.4-131.6,178.1-123.2,172.3-116.6z"/>
	<linearGradient id="SVGID_19_" gradientUnits="userSpaceOnUse" x1="104.1132" y1="-155.9721" x2="181.0397" y2="-155.9721">
		<stop  offset="0.1486" style="stop-color:#00EED5"/>
		<stop  offset="0.3817" style="stop-color:#3EBBD7"/>
		<stop  offset="0.8094" style="stop-color:#AB62DB"/>
		<stop  offset="1" style="stop-color:#D63EDC"/>
	</linearGradient>
	<path class="st18" d="M135.2-160.4c4.6-3,10-4.7,15.9-4.7c16.2,0,29.3,13.1,29.3,29.3c0.1-0.4,0.1-0.8,0.2-1.2
		c-0.3-13-6.7-24.4-16.5-31.6c-3.1-2.1-6.3-3.8-9.1-5c-2.1-0.8-4.3-1.5-6.6-2l0,0c-3.3-0.3-8.7-1.1-15-0.3
		c-10.4,1.7-19.4,7.4-25.4,15.4c-1.4,1.9-2.7,4-3.9,6.4C104.1-154,119.4-163.5,135.2-160.4z"/>
	<linearGradient id="SVGID_20_" gradientUnits="userSpaceOnUse" x1="116.5914" y1="-102.7918" x2="171.5196" y2="-157.72">
		<stop  offset="0.1486" style="stop-color:#00EED5"/>
		<stop  offset="0.3817" style="stop-color:#3EBBD7"/>
		<stop  offset="0.8094" style="stop-color:#AB62DB"/>
		<stop  offset="1" style="stop-color:#D63EDC"/>
	</linearGradient>
	<path class="st19" d="M151.1-165.1c-5.9,0-11.3,1.7-15.9,4.7c6.4,1.3,12.9,4.6,18.5,11.5c2,2.3,3.7,4.8,5,7.7
		c3.5,6.6,3.3,13.1,1.8,18.4c-1.1,4.9-3.4,9.3-6.6,12.9l0,0c0,0,21.2-2,26.5-25.9C180.4-152,167.3-165.1,151.1-165.1z"/>
	<linearGradient id="SVGID_21_" gradientUnits="userSpaceOnUse" x1="109.2297" y1="-106.6671" x2="169.5191" y2="-166.9565">
		<stop  offset="0.1486" style="stop-color:#00EED5"/>
		<stop  offset="0.3817" style="stop-color:#3EBBD7"/>
		<stop  offset="0.8094" style="stop-color:#AB62DB"/>
		<stop  offset="1" style="stop-color:#D63EDC"/>
	</linearGradient>
	<path class="st20" d="M140.3-108.6C140.3-108.6,140.2-108.6,140.3-108.6C140.2-108.6,140.2-108.6,140.3-108.6
		c-0.5-0.2-1.1-0.4-1.6-0.7c0,0,0,0-0.1,0c-0.2-0.1-0.3-0.1-0.5-0.2c-11.4-5.5-15.6-14.9-16.2-23.6c-0.1-0.9-0.1-1.8-0.1-2.7
		c0-2.6,0.3-5.2,1-7.6c0.2-0.9,0.5-1.9,0.9-2.8c1.2-3.1,2.8-5.9,4.8-8.3c1.9-2.5,3.4-4.1,3.4-4.1s-4.6,0.6-9.2,1.5
		c-11.7,3.9-20.1,14.8-20.1,27.8c0,16.2,13.1,29.3,29.3,29.3c6.7,0,12.9-2.3,17.8-6c-2.7-0.3-5.5-1-8.6-2.2
		C140.9-108.4,140.6-108.5,140.3-108.6z"/>
</g>
</svg>
