<?xml version="1.0" encoding="utf-8"?>
<!-- Generator: Adobe Illustrator 24.2.0, SVG Export Plug-In . SVG Version: 6.00 Build 0)  -->
<svg version="1.1" id="Capa_1" xmlns="http://www.w3.org/2000/svg" xmlns:xlink="http://www.w3.org/1999/xlink" x="0px" y="0px"
	 viewBox="6 -512 512 512" style="enable-background:new 6 -512 512 512;" xml:space="preserve">
<style type="text/css">
	.st0{fill:url(#SVGID_1_);}
	.st1{fill:url(#SVGID_2_);}
	.st2{fill:url(#SVGID_3_);}
	.st3{fill:url(#SVGID_4_);}
	.st4{fill:url(#SVGID_5_);}
	.st5{fill:url(#SVGID_6_);}
	.st6{fill:url(#SVGID_7_);}
	.st7{fill:url(#SVGID_8_);}
	.st8{fill:url(#SVGID_9_);}
	.st9{fill:url(#SVGID_10_);}
	.st10{fill:url(#SVGID_11_);}
</style>
<g>
	<g>
		
			<linearGradient id="SVGID_1_" gradientUnits="userSpaceOnUse" x1="80.7216" y1="-16639.998" x2="298.2521" y2="-16639.998" gradientTransform="matrix(1 0 0 -1 0 -16896)">
			<stop  offset="0.1486" style="stop-color:#00EED5"/>
			<stop  offset="0.3817" style="stop-color:#3EBBD7"/>
			<stop  offset="0.8094" style="stop-color:#AB62DB"/>
			<stop  offset="1" style="stop-color:#D63EDC"/>
		</linearGradient>
		<path class="st0" d="M292.2-189.5h-6v-42.3c0-3.3-2.7-6-6-6v-36.3h6c3.3,0,6-2.7,6-6v-48.3c0-3.3-2.7-6-6-6h-12.1v-36.3h2.3
			c3.3,0,6-2.7,6-6v-48.3c0-3.3-2.7-6-6-6H95.1c-3.3,0-6,2.7-6,6v42.3h-2.3c-3.3,0-6,2.7-6,6v48.3c0,3.3,2.7,6,6,6h12.1v36.3h-6
			c-3.3,0-6,2.7-6,6v48.3c0,3.3,2.7,6,6,6v42.3c0,3.3,2.7,6,6,6h6v36.3h-9.8c-3.3,0-6,2.7-6,6v48.3c0,3.3,2.7,6,6,6h181.3
			c3.3,0,6-2.7,6-6v-42.3h9.8c3.3,0,6-2.7,6-6v-48.3C298.3-186.8,295.5-189.5,292.2-189.5z M280.1-322.5v36.3H262v-36.3H280.1z
			 M117-177.5h18.1v36.3H117V-177.5z M110.9-189.5h-6v-36.3H123v36.3H110.9z M129.1-237.9v-36.3h18.1v36.3H129.1z M110.9-286.2
			v-36.3h18.1v36.3H110.9z M141.1-286.2v-36.3h18.1v36.3H141.1z M135.1-225.8h18.1v36.3h-18.1V-225.8z M147.2-177.5h18.1v36.3h-18.1
			V-177.5z M159.3-237.9v-36.3h18.1v36.3H159.3z M171.4-286.2v-36.3h18.1v36.3H171.4z M165.3-225.8h18.1v36.3h-18.1V-225.8z
			 M177.4-177.5h18.1v36.3h-18.1V-177.5z M189.5-237.9v-36.3h18.1v36.3H189.5z M201.6-286.2v-36.3h18.1v36.3H201.6z M195.5-225.8
			h18.1v36.3h-18.1V-225.8z M207.6-177.5h18.1v36.3h-18.1V-177.5z M219.7-237.9v-36.3h18.1v36.3H219.7z M231.8-286.2v-36.3h18.1
			v36.3H231.8z M225.7-225.8h18.1v36.3h-18.1V-225.8z M237.8-177.5H256v36.3h-18.1V-177.5z M249.9-237.9v-36.3H268v36.3H249.9z
			 M256-225.8h18.1v36.3H256V-225.8z M252.2-419.2h18.1v36.3h-18.1V-419.2z M243.9-370.8H262v36.3h-18.1V-370.8z M222-419.2h18.1
			v36.3H222V-419.2z M213.7-370.8h18.1v36.3h-18.1V-370.8z M191.8-419.2h18.1v36.3h-18.1V-419.2z M183.4-370.8h18.1v36.3h-18.1
			V-370.8z M161.5-419.2h18.1v36.3h-18.1V-419.2z M153.2-370.8h18.1v36.3h-18.1V-370.8z M131.3-419.2h18.1v36.3h-18.1V-419.2z
			 M123-370.8h18.1v36.3H123V-370.8z M101.1-419.2h18.1v36.3h-18.1V-419.2z M92.8-334.6v-36.3h18.1v36.3H92.8z M98.8-237.9v-36.3
			H117v36.3H98.8z M119.2-92.9h-18.1v-36.3h18.1V-92.9z M149.5-92.9h-18.1v-36.3h18.1V-92.9z M179.7-92.9h-18.1v-36.3h18.1V-92.9z
			 M209.9-92.9h-18.1v-36.3h18.1V-92.9z M240.1-92.9H222v-36.3h18.1V-92.9z M270.3-92.9h-18.1v-36.3h18.1V-92.9z M286.2-141.2H268
			v-36.3h18.1V-141.2z"/>
	</g>
</g>
<g>
	<g>
		
			<linearGradient id="SVGID_2_" gradientUnits="userSpaceOnUse" x1="288.5841" y1="-16718.5527" x2="443.2784" y2="-16718.5527" gradientTransform="matrix(1 0 0 -1 0 -16896)">
			<stop  offset="0" style="stop-color:#00FF99"/>
			<stop  offset="1" style="stop-color:#33CCFF"/>
		</linearGradient>
		<path class="st1" d="M404.6-254.8c-16.7-12.6-37.1-19.3-58-19.3c-20.9-0.1-41.3,6.7-58,19.3l7.3,9.7c37.4-28,90.4-20.5,118.4,16.9
			s20.5,90.4-16.9,118.4c-30.1,22.6-71.4,22.6-101.5,0l-7.3,9.7c42.7,32,103.3,23.4,135.4-19.3C456-162.2,447.3-222.8,404.6-254.8z"
			/>
	</g>
</g>
<g>
	<g>
		
			<linearGradient id="SVGID_3_" gradientUnits="userSpaceOnUse" x1="288.5841" y1="-16560.2363" x2="443.2729" y2="-16560.2363" gradientTransform="matrix(1 0 0 -1 0 -16896)">
			<stop  offset="0" style="stop-color:#00FF99"/>
			<stop  offset="1" style="stop-color:#33CCFF"/>
		</linearGradient>
		<path class="st2" d="M346.6-413.1c-20.9-0.1-41.3,6.7-58,19.3l7.3,9.7c37.4-28,90.4-20.5,118.4,16.9c22.6,30.1,22.6,71.4,0,101.5
			l9.7,7.3c12.6-16.7,19.4-37.1,19.3-58C443.2-369.8,400-413,346.6-413.1z"/>
	</g>
</g>
<g>
	<linearGradient id="SVGID_4_" gradientUnits="userSpaceOnUse" x1="306.5986" y1="-319.4899" x2="393.544" y2="-319.4899">
		<stop  offset="0.1486" style="stop-color:#00EED5"/>
		<stop  offset="0.3817" style="stop-color:#3EBBD7"/>
		<stop  offset="0.8094" style="stop-color:#AB62DB"/>
		<stop  offset="1" style="stop-color:#D63EDC"/>
	</linearGradient>
	<path class="st3" d="M384.8-309c-3.7,4.2-12.2,12.9-24.3,11.4c-5.3,4.1-12,6.5-19.3,6.5c-17.5,0-31.7-14.2-31.7-31.7
		c0-14,9.1-25.9,21.7-30.1c-3.5,0.6-7,1.4-8.8,2.1c-6.9,2.6-12.8,5-12.8,5s-3.7,9.6-2.9,21.3c2,15.4,11.9,28.3,25.7,34.4
		c0.4,0.2,0.8,0.3,1.2,0.5c0,0,0,0,0,0c0.5,0.2,1,0.4,1.6,0.6c4.7,1.7,9.7,2.6,14.9,2.6c13.2,0,25.1-5.9,33.1-15.2
		c8.3-11,10.6-22.6,10.3-23.8C393.5-325.2,391-316.2,384.8-309z"/>
	<linearGradient id="SVGID_5_" gradientUnits="userSpaceOnUse" x1="310.9595" y1="-351.5757" x2="394.2234" y2="-351.5757">
		<stop  offset="0.1486" style="stop-color:#00EED5"/>
		<stop  offset="0.3817" style="stop-color:#3EBBD7"/>
		<stop  offset="0.8094" style="stop-color:#AB62DB"/>
		<stop  offset="1" style="stop-color:#D63EDC"/>
	</linearGradient>
	<path class="st4" d="M344.7-356.4c5-3.2,10.9-5.1,17.2-5.1c17.5,0,31.7,14.2,31.7,31.7c0.1-0.4,0.2-0.8,0.2-1.3
		c-0.3-14-7.3-26.4-17.8-34.2c-3.4-2.3-6.8-4.1-9.8-5.4c-2.3-0.9-4.7-1.6-7.1-2.1l0,0c-3.5-0.4-9.5-1.2-16.2-0.3
		c-11.2,1.9-21,8-27.5,16.7c-1.5,2-2.9,4.3-4.3,6.9C311-349.4,327.6-359.7,344.7-356.4z"/>
	<linearGradient id="SVGID_6_" gradientUnits="userSpaceOnUse" x1="324.4657" y1="-294.0143" x2="383.919" y2="-353.4676">
		<stop  offset="0.1486" style="stop-color:#00EED5"/>
		<stop  offset="0.3817" style="stop-color:#3EBBD7"/>
		<stop  offset="0.8094" style="stop-color:#AB62DB"/>
		<stop  offset="1" style="stop-color:#D63EDC"/>
	</linearGradient>
	<path class="st5" d="M361.8-361.4c-6.3,0-12.2,1.9-17.2,5.1c7,1.4,14,5,20,12.4c2.2,2.4,4,5.2,5.4,8.3c3.8,7.1,3.5,14.1,2,19.9
		c-1.2,5.3-3.7,10.1-7.2,14l0,0c0,0,22.9-2.1,28.6-28C393.5-347.2,379.3-361.4,361.8-361.4z"/>
	<linearGradient id="SVGID_7_" gradientUnits="userSpaceOnUse" x1="316.4975" y1="-298.2088" x2="381.7537" y2="-363.465">
		<stop  offset="0.1486" style="stop-color:#00EED5"/>
		<stop  offset="0.3817" style="stop-color:#3EBBD7"/>
		<stop  offset="0.8094" style="stop-color:#AB62DB"/>
		<stop  offset="1" style="stop-color:#D63EDC"/>
	</linearGradient>
	<path class="st6" d="M350.1-300.3C350.1-300.3,350.1-300.3,350.1-300.3C350.1-300.3,350.1-300.3,350.1-300.3
		c-0.6-0.2-1.2-0.5-1.7-0.7c0,0,0,0-0.1,0c-0.2-0.1-0.3-0.2-0.5-0.2c-12.4-5.9-16.9-16.1-17.5-25.5c-0.1-0.9-0.1-1.9-0.1-2.9
		c0-2.8,0.4-5.6,1.1-8.2c0.3-1,0.6-2,1-3c1.2-3.3,3-6.3,5.2-9c2-2.7,3.7-4.4,3.7-4.4s-5,0.7-9.9,1.6c-12.6,4.2-21.7,16.1-21.7,30.1
		c0,17.5,14.2,31.7,31.7,31.7c7.3,0,13.9-2.4,19.3-6.5c-2.9-0.3-6-1.1-9.3-2.4C350.7-300.1,350.4-300.2,350.1-300.3z"/>
</g>
<g>
	<linearGradient id="SVGID_8_" gradientUnits="userSpaceOnUse" x1="308.7791" y1="-167.1244" x2="395.7244" y2="-167.1244">
		<stop  offset="0.1486" style="stop-color:#00EED5"/>
		<stop  offset="0.3817" style="stop-color:#3EBBD7"/>
		<stop  offset="0.8094" style="stop-color:#AB62DB"/>
		<stop  offset="1" style="stop-color:#D63EDC"/>
	</linearGradient>
	<path class="st7" d="M386.9-156.6c-3.7,4.2-12.2,12.9-24.3,11.4c-5.3,4.1-12,6.5-19.3,6.5c-17.5,0-31.7-14.2-31.7-31.7
		c0-14,9.1-25.9,21.7-30.1c-3.5,0.6-7,1.4-8.8,2.1c-6.9,2.6-12.8,5-12.8,5s-3.7,9.6-2.9,21.3c2,15.4,11.9,28.3,25.7,34.4
		c0.4,0.2,0.8,0.3,1.2,0.5c0,0,0,0,0,0c0.5,0.2,1,0.4,1.6,0.6c4.7,1.7,9.7,2.6,14.9,2.6c13.2,0,25.1-5.9,33.1-15.2
		c8.3-11,10.6-22.6,10.3-23.8C395.7-172.9,393.2-163.8,386.9-156.6z"/>
	<linearGradient id="SVGID_9_" gradientUnits="userSpaceOnUse" x1="313.1399" y1="-199.2102" x2="396.4038" y2="-199.2102">
		<stop  offset="0.1486" style="stop-color:#00EED5"/>
		<stop  offset="0.3817" style="stop-color:#3EBBD7"/>
		<stop  offset="0.8094" style="stop-color:#AB62DB"/>
		<stop  offset="1" style="stop-color:#D63EDC"/>
	</linearGradient>
	<path class="st8" d="M346.8-204c5-3.2,10.9-5.1,17.2-5.1c17.5,0,31.7,14.2,31.7,31.7c0.1-0.4,0.2-0.8,0.2-1.3
		c-0.3-14-7.3-26.4-17.8-34.2c-3.4-2.3-6.8-4.1-9.8-5.4c-2.3-0.9-4.7-1.6-7.1-2.1l0,0c-3.5-0.4-9.5-1.2-16.2-0.3
		c-11.2,1.9-21,8-27.5,16.7c-1.5,2-2.9,4.3-4.3,6.9C313.1-197.1,329.7-207.3,346.8-204z"/>
	<linearGradient id="SVGID_10_" gradientUnits="userSpaceOnUse" x1="326.6461" y1="-141.6488" x2="386.0994" y2="-201.1022">
		<stop  offset="0.1486" style="stop-color:#00EED5"/>
		<stop  offset="0.3817" style="stop-color:#3EBBD7"/>
		<stop  offset="0.8094" style="stop-color:#AB62DB"/>
		<stop  offset="1" style="stop-color:#D63EDC"/>
	</linearGradient>
	<path class="st9" d="M364-209.1c-6.3,0-12.2,1.9-17.2,5.1c7,1.4,14,5,20,12.4c2.2,2.4,4,5.2,5.4,8.3c3.8,7.1,3.5,14.1,2,19.9
		c-1.2,5.3-3.7,10.1-7.2,14l0,0c0,0,22.9-2.1,28.6-28C395.7-194.9,381.5-209.1,364-209.1z"/>
	<linearGradient id="SVGID_11_" gradientUnits="userSpaceOnUse" x1="318.6779" y1="-145.8433" x2="383.9341" y2="-211.0995">
		<stop  offset="0.1486" style="stop-color:#00EED5"/>
		<stop  offset="0.3817" style="stop-color:#3EBBD7"/>
		<stop  offset="0.8094" style="stop-color:#AB62DB"/>
		<stop  offset="1" style="stop-color:#D63EDC"/>
	</linearGradient>
	<path class="st10" d="M352.3-148C352.3-148,352.3-148,352.3-148C352.3-148,352.3-148,352.3-148c-0.6-0.2-1.2-0.5-1.7-0.7
		c0,0,0,0-0.1,0c-0.2-0.1-0.3-0.2-0.5-0.2c-12.4-5.9-16.9-16.1-17.5-25.5c-0.1-0.9-0.1-1.9-0.1-2.9c0-2.8,0.4-5.6,1.1-8.2
		c0.3-1,0.6-2,1-3c1.2-3.3,3-6.3,5.2-9c2-2.7,3.7-4.4,3.7-4.4s-5,0.7-9.9,1.6c-12.6,4.2-21.7,16.1-21.7,30.1
		c0,17.5,14.2,31.7,31.7,31.7c7.3,0,13.9-2.4,19.3-6.5c-2.9-0.3-6-1.1-9.3-2.4C352.9-147.7,352.6-147.8,352.3-148z"/>
</g>
</svg>
