<?xml version="1.0" encoding="utf-8"?>
<!-- Generator: Adobe Illustrator 24.2.0, SVG Export Plug-In . SVG Version: 6.00 Build 0)  -->
<svg version="1.1" id="Capa_1" xmlns="http://www.w3.org/2000/svg" xmlns:xlink="http://www.w3.org/1999/xlink" x="0px" y="0px"
	 viewBox="6 -512 512 512" style="enable-background:new 6 -512 512 512;" xml:space="preserve">
<style type="text/css">
	.st0{fill:url(#SVGID_1_);}
	.st1{fill:url(#SVGID_2_);}
	.st2{fill:url(#SVGID_3_);}
	.st3{fill:url(#SVGID_4_);}
	.st4{fill:url(#SVGID_5_);}
	.st5{fill:url(#SVGID_6_);}
	.st6{fill:url(#SVGID_7_);}
	.st7{fill:url(#SVGID_8_);}
	.st8{fill:url(#SVGID_9_);}
	.st9{fill:url(#SVGID_10_);}
	.st10{fill:url(#SVGID_11_);}
	.st11{fill:url(#SVGID_12_);}
	.st12{fill:url(#SVGID_13_);}
	.st13{fill:url(#SVGID_14_);}
	.st14{fill:url(#SVGID_15_);}
	.st15{fill:url(#SVGID_16_);}
	.st16{fill:url(#SVGID_17_);}
	.st17{fill:url(#SVGID_18_);}
	.st18{fill:url(#SVGID_19_);}
	.st19{fill:url(#SVGID_20_);}
	.st20{fill:url(#SVGID_21_);}
	.st21{fill:url(#SVGID_22_);}
	.st22{fill:url(#SVGID_23_);}
</style>
<g>
	<g>
		
			<linearGradient id="SVGID_1_" gradientUnits="userSpaceOnUse" x1="233.7848" y1="-16611.7832" x2="374.8648" y2="-16611.7832" gradientTransform="matrix(1 0 0 -1 0 -16896)">
			<stop  offset="0" style="stop-color:#00FF99"/>
			<stop  offset="1" style="stop-color:#33CCFF"/>
		</linearGradient>
		<path class="st0" d="M304.3-354.8c-39,0-70.5,31.6-70.5,70.5c0,38.9,31.6,70.5,70.5,70.5c39,0,70.5-31.6,70.5-70.5
			S343.3-354.8,304.3-354.8z M304.3-227.8c-31.2,0-56.4-25.3-56.4-56.4c0-31.2,25.3-56.4,56.4-56.4c31.2,0,56.4,25.3,56.4,56.4
			S335.5-227.8,304.3-227.8z"/>
	</g>
</g>
<g>
	<g>
		
			<linearGradient id="SVGID_2_" gradientUnits="userSpaceOnUse" x1="127.9748" y1="-16527.1367" x2="240.8388" y2="-16527.1367" gradientTransform="matrix(1 0 0 -1 0 -16896)">
			<stop  offset="0" style="stop-color:#00FF99"/>
			<stop  offset="1" style="stop-color:#33CCFF"/>
		</linearGradient>
		<path class="st1" d="M184.4-425.3c-31.2,0-56.4,25.3-56.4,56.4s25.3,56.4,56.4,56.4c31.2,0,56.4-25.3,56.4-56.4
			C240.8-400,215.6-425.3,184.4-425.3z M184.4-326.5c-23.4,0-42.3-19-42.3-42.3c0-23.4,18.9-42.3,42.3-42.3s42.3,18.9,42.3,42.3
			C226.7-345.5,207.8-326.5,184.4-326.5z"/>
	</g>
</g>
<g>
	<g>
		
			<linearGradient id="SVGID_3_" gradientUnits="userSpaceOnUse" x1="311.3788" y1="-16484.8125" x2="424.2428" y2="-16484.8125" gradientTransform="matrix(1 0 0 -1 0 -16896)">
			<stop  offset="0" style="stop-color:#00FF99"/>
			<stop  offset="1" style="stop-color:#33CCFF"/>
		</linearGradient>
		<path class="st2" d="M367.8-467.6c-31.2,0-56.4,25.3-56.4,56.4s25.3,56.4,56.4,56.4c31.2,0,56.4-25.3,56.4-56.4
			C424.2-442.4,399-467.6,367.8-467.6z M367.8-368.9c-23.4,0-42.3-18.9-42.3-42.3s18.9-42.3,42.3-42.3c23.4,0,42.3,18.9,42.3,42.3
			C410.1-387.8,391.2-368.9,367.8-368.9z"/>
	</g>
</g>
<g>
	<g>
		
			<linearGradient id="SVGID_4_" gradientUnits="userSpaceOnUse" x1="417.1888" y1="-16601.2031" x2="431.2968" y2="-16601.2031" gradientTransform="matrix(1 0 0 -1 0 -16896)">
			<stop  offset="0" style="stop-color:#00FF99"/>
			<stop  offset="1" style="stop-color:#33CCFF"/>
		</linearGradient>
		<rect x="417.2" y="-319.5" class="st3" width="14.1" height="49.4"/>
	</g>
</g>
<g>
	<g>
		
			<linearGradient id="SVGID_5_" gradientUnits="userSpaceOnUse" x1="417.1888" y1="-16555.3516" x2="431.2968" y2="-16555.3516" gradientTransform="matrix(1 0 0 -1 0 -16896)">
			<stop  offset="0" style="stop-color:#00FF99"/>
			<stop  offset="1" style="stop-color:#33CCFF"/>
		</linearGradient>
		<rect x="417.2" y="-347.7" class="st4" width="14.1" height="14.1"/>
	</g>
</g>
<g>
	<g>
		
			<linearGradient id="SVGID_6_" gradientUnits="userSpaceOnUse" x1="170.2988" y1="-16650.5801" x2="184.4068" y2="-16650.5801" gradientTransform="matrix(1 0 0 -1 0 -16896)">
			<stop  offset="0" style="stop-color:#00FF99"/>
			<stop  offset="1" style="stop-color:#33CCFF"/>
		</linearGradient>
		<rect x="170.3" y="-270.1" class="st5" width="14.1" height="49.4"/>
	</g>
</g>
<g>
	<g>
		
			<linearGradient id="SVGID_7_" gradientUnits="userSpaceOnUse" x1="170.2988" y1="-16604.7305" x2="184.4068" y2="-16604.7305" gradientTransform="matrix(1 0 0 -1 0 -16896)">
			<stop  offset="0" style="stop-color:#00FF99"/>
			<stop  offset="1" style="stop-color:#33CCFF"/>
		</linearGradient>
		<rect x="170.3" y="-298.3" class="st6" width="14.1" height="14.1"/>
	</g>
</g>
<g>
	<g>
		
			<linearGradient id="SVGID_8_" gradientUnits="userSpaceOnUse" x1="388.9728" y1="-16657.6348" x2="403.0807" y2="-16657.6348" gradientTransform="matrix(1 0 0 -1 0 -16896)">
			<stop  offset="0" style="stop-color:#00FF99"/>
			<stop  offset="1" style="stop-color:#33CCFF"/>
		</linearGradient>
		<rect x="389" y="-256" class="st7" width="14.1" height="35.3"/>
	</g>
</g>
<g>
	<g>
		
			<linearGradient id="SVGID_9_" gradientUnits="userSpaceOnUse" x1="269.0548" y1="-16488.3398" x2="283.1628" y2="-16488.3398" gradientTransform="matrix(1 0 0 -1 0 -16896)">
			<stop  offset="0" style="stop-color:#00FF99"/>
			<stop  offset="1" style="stop-color:#33CCFF"/>
		</linearGradient>
		<rect x="269.1" y="-439.4" class="st8" width="14.1" height="63.5"/>
	</g>
</g>
<g>
	<g>
		
			<linearGradient id="SVGID_10_" gradientUnits="userSpaceOnUse" x1="156.1908" y1="-16438.9609" x2="170.2988" y2="-16438.9609" gradientTransform="matrix(1 0 0 -1 0 -16896)">
			<stop  offset="0" style="stop-color:#00FF99"/>
			<stop  offset="1" style="stop-color:#33CCFF"/>
		</linearGradient>
		<rect x="156.2" y="-467.6" class="st9" width="14.1" height="21.2"/>
	</g>
</g>
<g>
	<g>
		
			<linearGradient id="SVGID_11_" gradientUnits="userSpaceOnUse" x1="50.3808" y1="-16770.5" x2="473.6192" y2="-16770.5" gradientTransform="matrix(1 0 0 -1 0 -16896)">
			<stop  offset="0.1486" style="stop-color:#00EED5"/>
			<stop  offset="0.3817" style="stop-color:#3EBBD7"/>
			<stop  offset="0.8094" style="stop-color:#AB62DB"/>
			<stop  offset="1" style="stop-color:#D63EDC"/>
		</linearGradient>
		<path class="st10" d="M472-175.8c-0.4-0.5-0.8-0.9-1.2-1.2c-19.3-14.4-45.6-15.3-65.9-2.3L316.4-122h-24.2l-47-28.2h31
			c23.4,0,42.3-19,42.3-42.3c0-3.9-3.2-7.1-7.1-7.1l-48.7,0l-70.5-7.1c-1.2-0.1-2.4,0.1-3.5,0.5l-48,20.6H50.4v14.1h91.7
			c1,0,1.9-0.2,2.8-0.6l47.7-20.5l69.4,6.9h41.4c-3.2,12.4-14.5,21.1-27.3,21.2h-56.4c-3.9,0-7.1,3.2-7.1,7.1c0,2.5,1.3,4.8,3.4,6
			l70.5,42.3c1.1,0.7,2.4,1,3.6,1h28.2c1.4,0,2.7-0.4,3.8-1.1l90.3-58.4c12.5-8,28.2-9.2,41.7-3.1l-138.3,112h-38.6l-132.8-48.9
			c-0.8-0.3-1.6-0.4-2.4-0.4H50.4v14.1h90.4l132.8,48.9c0.8,0.3,1.6,0.4,2.4,0.4h42.3c1.6,0,3.2-0.6,4.4-1.6L471-165.9
			C474-168.3,474.5-172.8,472-175.8z"/>
	</g>
</g>
<g>
	<linearGradient id="SVGID_12_" gradientUnits="userSpaceOnUse" x1="262.9267" y1="-273.8929" x2="349.872" y2="-273.8929">
		<stop  offset="0.1486" style="stop-color:#00EED5"/>
		<stop  offset="0.3817" style="stop-color:#3EBBD7"/>
		<stop  offset="0.8094" style="stop-color:#AB62DB"/>
		<stop  offset="1" style="stop-color:#D63EDC"/>
	</linearGradient>
	<path class="st11" d="M341.1-263.4c-3.7,4.2-12.2,12.9-24.3,11.4c-5.3,4.1-12,6.5-19.3,6.5c-17.5,0-31.7-14.2-31.7-31.7
		c0-14,9.1-25.9,21.7-30.1c-3.5,0.6-7,1.4-8.8,2.1c-6.9,2.6-12.8,5-12.8,5s-3.7,9.6-2.9,21.3c2,15.4,11.9,28.3,25.7,34.4
		c0.4,0.2,0.8,0.3,1.2,0.5c0,0,0,0,0,0c0.5,0.2,1,0.4,1.6,0.6c4.7,1.7,9.7,2.6,14.9,2.6c13.2,0,25.1-5.9,33.1-15.2
		c8.3-11,10.6-22.6,10.3-23.8C349.9-279.6,347.3-270.6,341.1-263.4z"/>
	<linearGradient id="SVGID_13_" gradientUnits="userSpaceOnUse" x1="267.2875" y1="-305.9787" x2="350.5515" y2="-305.9787">
		<stop  offset="0.1486" style="stop-color:#00EED5"/>
		<stop  offset="0.3817" style="stop-color:#3EBBD7"/>
		<stop  offset="0.8094" style="stop-color:#AB62DB"/>
		<stop  offset="1" style="stop-color:#D63EDC"/>
	</linearGradient>
	<path class="st12" d="M301-310.8c5-3.2,10.9-5.1,17.2-5.1c17.5,0,31.7,14.2,31.7,31.7c0.1-0.4,0.2-0.8,0.2-1.3
		c-0.3-14-7.3-26.4-17.8-34.2c-3.4-2.3-6.8-4.1-9.8-5.4c-2.3-0.9-4.7-1.6-7.1-2.1l0,0c-3.5-0.4-9.5-1.2-16.2-0.3
		c-11.2,1.9-21,8-27.5,16.7c-1.5,2-2.9,4.3-4.3,6.9C267.3-303.8,283.9-314.1,301-310.8z"/>
	<linearGradient id="SVGID_14_" gradientUnits="userSpaceOnUse" x1="280.7937" y1="-248.4173" x2="340.247" y2="-307.8706">
		<stop  offset="0.1486" style="stop-color:#00EED5"/>
		<stop  offset="0.3817" style="stop-color:#3EBBD7"/>
		<stop  offset="0.8094" style="stop-color:#AB62DB"/>
		<stop  offset="1" style="stop-color:#D63EDC"/>
	</linearGradient>
	<path class="st13" d="M318.2-315.8c-6.3,0-12.2,1.9-17.2,5.1c7,1.4,14,5,20,12.4c2.2,2.4,4,5.2,5.4,8.3c3.8,7.1,3.5,14.1,2,19.9
		c-1.2,5.3-3.7,10.1-7.2,14l0,0c0,0,22.9-2.1,28.6-28C349.9-301.6,335.7-315.8,318.2-315.8z"/>
	<linearGradient id="SVGID_15_" gradientUnits="userSpaceOnUse" x1="272.8255" y1="-252.6118" x2="338.0818" y2="-317.868">
		<stop  offset="0.1486" style="stop-color:#00EED5"/>
		<stop  offset="0.3817" style="stop-color:#3EBBD7"/>
		<stop  offset="0.8094" style="stop-color:#AB62DB"/>
		<stop  offset="1" style="stop-color:#D63EDC"/>
	</linearGradient>
	<path class="st14" d="M306.4-254.7C306.4-254.7,306.4-254.7,306.4-254.7C306.4-254.7,306.4-254.7,306.4-254.7
		c-0.6-0.2-1.2-0.5-1.7-0.7c0,0,0,0-0.1,0c-0.2-0.1-0.3-0.2-0.5-0.2c-12.4-5.9-16.9-16.1-17.5-25.5c-0.1-0.9-0.1-1.9-0.1-2.9
		c0-2.8,0.4-5.6,1.1-8.2c0.3-1,0.6-2,1-3c1.2-3.3,3-6.3,5.2-9c2-2.7,3.7-4.4,3.7-4.4s-5,0.7-9.9,1.6c-12.6,4.2-21.7,16.1-21.7,30.1
		c0,17.5,14.2,31.7,31.7,31.7c7.3,0,13.9-2.4,19.3-6.5c-2.9-0.3-6-1.1-9.3-2.4C307.1-254.5,306.7-254.6,306.4-254.7z"/>
</g>
<g>
	<linearGradient id="SVGID_16_" gradientUnits="userSpaceOnUse" x1="337.0601" y1="-403.4663" x2="401.6434" y2="-403.4663">
		<stop  offset="0.1486" style="stop-color:#00EED5"/>
		<stop  offset="0.3817" style="stop-color:#3EBBD7"/>
		<stop  offset="0.8094" style="stop-color:#AB62DB"/>
		<stop  offset="1" style="stop-color:#D63EDC"/>
	</linearGradient>
	<path class="st15" d="M395.1-395.6c-2.7,3.1-9,9.6-18.1,8.5c-4,3-8.9,4.9-14.3,4.9c-13,0-23.5-10.5-23.5-23.5
		c0-10.4,6.8-19.2,16.2-22.3c-2.6,0.5-5.2,1-6.6,1.5c-5.1,1.9-9.5,3.7-9.5,3.7s-2.7,7.1-2.1,15.8c1.5,11.5,8.9,21,19.1,25.6
		c0.3,0.1,0.6,0.3,0.9,0.4c0,0,0,0,0,0c0.4,0.2,0.8,0.3,1.2,0.5c3.5,1.3,7.2,1.9,11.1,1.9c9.8,0,18.6-4.4,24.6-11.3
		c6.2-8.2,7.9-16.8,7.7-17.7C401.6-407.7,399.8-401,395.1-395.6z"/>
	<linearGradient id="SVGID_17_" gradientUnits="userSpaceOnUse" x1="340.2994" y1="-427.2997" x2="402.1481" y2="-427.2997">
		<stop  offset="0.1486" style="stop-color:#00EED5"/>
		<stop  offset="0.3817" style="stop-color:#3EBBD7"/>
		<stop  offset="0.8094" style="stop-color:#AB62DB"/>
		<stop  offset="1" style="stop-color:#D63EDC"/>
	</linearGradient>
	<path class="st16" d="M365.3-430.8c3.7-2.4,8.1-3.8,12.8-3.8c13,0,23.5,10.5,23.5,23.5c0.1-0.3,0.1-0.6,0.2-0.9
		c-0.3-10.4-5.4-19.6-13.2-25.4c-2.5-1.7-5.1-3.1-7.3-4c-1.7-0.7-3.5-1.2-5.3-1.6l0,0c-2.6-0.3-7-0.9-12.1-0.2
		c-8.3,1.4-15.6,6-20.5,12.4c-1.1,1.5-2.2,3.2-3.2,5.1C340.3-425.7,352.6-433.3,365.3-430.8z"/>
	<linearGradient id="SVGID_18_" gradientUnits="userSpaceOnUse" x1="350.3318" y1="-384.5429" x2="394.494" y2="-428.7051">
		<stop  offset="0.1486" style="stop-color:#00EED5"/>
		<stop  offset="0.3817" style="stop-color:#3EBBD7"/>
		<stop  offset="0.8094" style="stop-color:#AB62DB"/>
		<stop  offset="1" style="stop-color:#D63EDC"/>
	</linearGradient>
	<path class="st17" d="M378.1-434.6c-4.7,0-9.1,1.4-12.8,3.8c5.2,1,10.4,3.7,14.9,9.2c1.6,1.8,3,3.9,4,6.2
		c2.8,5.3,2.6,10.5,1.5,14.8c-0.9,3.9-2.7,7.5-5.3,10.4l0,0c0,0,17-1.6,21.3-20.8C401.6-424.1,391.1-434.6,378.1-434.6z"/>
	<linearGradient id="SVGID_19_" gradientUnits="userSpaceOnUse" x1="344.413" y1="-387.6586" x2="392.8856" y2="-436.1312">
		<stop  offset="0.1486" style="stop-color:#00EED5"/>
		<stop  offset="0.3817" style="stop-color:#3EBBD7"/>
		<stop  offset="0.8094" style="stop-color:#AB62DB"/>
		<stop  offset="1" style="stop-color:#D63EDC"/>
	</linearGradient>
	<path class="st18" d="M369.4-389.2C369.4-389.2,369.4-389.2,369.4-389.2C369.4-389.2,369.4-389.2,369.4-389.2
		c-0.4-0.2-0.9-0.4-1.3-0.6c0,0,0,0-0.1,0c-0.1-0.1-0.2-0.1-0.4-0.2c-9.2-4.4-12.5-11.9-13-19c-0.1-0.7-0.1-1.4-0.1-2.1
		c0-2.1,0.3-4.1,0.8-6.1c0.2-0.8,0.4-1.5,0.7-2.2c0.9-2.5,2.3-4.7,3.9-6.7c1.5-2,2.8-3.3,2.8-3.3s-3.7,0.5-7.4,1.2
		c-9.4,3.1-16.2,11.9-16.2,22.3c0,13,10.5,23.5,23.5,23.5c5.4,0,10.3-1.8,14.3-4.9c-2.1-0.3-4.4-0.8-6.9-1.8
		C369.9-389,369.6-389.1,369.4-389.2z"/>
</g>
<g>
	<linearGradient id="SVGID_20_" gradientUnits="userSpaceOnUse" x1="152.0365" y1="-361.196" x2="216.6198" y2="-361.196">
		<stop  offset="0.1486" style="stop-color:#00EED5"/>
		<stop  offset="0.3817" style="stop-color:#3EBBD7"/>
		<stop  offset="0.8094" style="stop-color:#AB62DB"/>
		<stop  offset="1" style="stop-color:#D63EDC"/>
	</linearGradient>
	<path class="st19" d="M210.1-353.4c-2.7,3.1-9,9.6-18.1,8.5c-4,3-8.9,4.9-14.3,4.9c-13,0-23.5-10.5-23.5-23.5
		c0-10.4,6.8-19.2,16.2-22.3c-2.6,0.5-5.2,1-6.6,1.5c-5.1,1.9-9.5,3.7-9.5,3.7s-2.7,7.1-2.1,15.8c1.5,11.5,8.9,21,19.1,25.6
		c0.3,0.1,0.6,0.3,0.9,0.4c0,0,0,0,0,0c0.4,0.2,0.8,0.3,1.2,0.5c3.5,1.3,7.2,1.9,11.1,1.9c9.8,0,18.6-4.4,24.6-11.3
		c6.2-8.2,7.9-16.8,7.7-17.7C216.6-365.5,214.7-358.7,210.1-353.4z"/>
	<linearGradient id="SVGID_21_" gradientUnits="userSpaceOnUse" x1="155.2758" y1="-385.0294" x2="217.1245" y2="-385.0294">
		<stop  offset="0.1486" style="stop-color:#00EED5"/>
		<stop  offset="0.3817" style="stop-color:#3EBBD7"/>
		<stop  offset="0.8094" style="stop-color:#AB62DB"/>
		<stop  offset="1" style="stop-color:#D63EDC"/>
	</linearGradient>
	<path class="st20" d="M180.3-388.6c3.7-2.4,8.1-3.8,12.8-3.8c13,0,23.5,10.5,23.5,23.5c0.1-0.3,0.1-0.6,0.2-0.9
		c-0.3-10.4-5.4-19.6-13.2-25.4c-2.5-1.7-5.1-3.1-7.3-4c-1.7-0.7-3.5-1.2-5.3-1.6l0,0c-2.6-0.3-7-0.9-12.1-0.2
		c-8.3,1.4-15.6,6-20.5,12.4c-1.1,1.5-2.2,3.2-3.2,5.1C155.3-383.4,167.6-391.1,180.3-388.6z"/>
	<linearGradient id="SVGID_22_" gradientUnits="userSpaceOnUse" x1="165.3082" y1="-342.2726" x2="209.4703" y2="-386.4347">
		<stop  offset="0.1486" style="stop-color:#00EED5"/>
		<stop  offset="0.3817" style="stop-color:#3EBBD7"/>
		<stop  offset="0.8094" style="stop-color:#AB62DB"/>
		<stop  offset="1" style="stop-color:#D63EDC"/>
	</linearGradient>
	<path class="st21" d="M193.1-392.3c-4.7,0-9.1,1.4-12.8,3.8c5.2,1,10.4,3.7,14.9,9.2c1.6,1.8,3,3.9,4,6.2
		c2.8,5.3,2.6,10.5,1.5,14.8c-0.9,3.9-2.7,7.5-5.3,10.4l0,0c0,0,17-1.6,21.3-20.8C216.6-381.8,206.1-392.3,193.1-392.3z"/>
	<linearGradient id="SVGID_23_" gradientUnits="userSpaceOnUse" x1="159.3894" y1="-345.3883" x2="207.862" y2="-393.8608">
		<stop  offset="0.1486" style="stop-color:#00EED5"/>
		<stop  offset="0.3817" style="stop-color:#3EBBD7"/>
		<stop  offset="0.8094" style="stop-color:#AB62DB"/>
		<stop  offset="1" style="stop-color:#D63EDC"/>
	</linearGradient>
	<path class="st22" d="M184.3-347C184.3-347,184.3-347,184.3-347C184.3-347,184.3-347,184.3-347c-0.4-0.2-0.9-0.4-1.3-0.6
		c0,0,0,0-0.1,0c-0.1-0.1-0.2-0.1-0.4-0.2c-9.2-4.4-12.5-11.9-13-19c-0.1-0.7-0.1-1.4-0.1-2.1c0-2.1,0.3-4.1,0.8-6.1
		c0.2-0.8,0.4-1.5,0.7-2.2c0.9-2.5,2.3-4.7,3.9-6.7c1.5-2,2.8-3.3,2.8-3.3s-3.7,0.5-7.4,1.2c-9.4,3.1-16.2,11.9-16.2,22.3
		c0,13,10.5,23.5,23.5,23.5c5.4,0,10.3-1.8,14.3-4.9c-2.1-0.3-4.4-0.8-6.9-1.8C184.8-346.8,184.6-346.9,184.3-347z"/>
</g>
</svg>
