<?xml version="1.0" encoding="utf-8"?>
<!-- Generator: Adobe Illustrator 24.2.0, SVG Export Plug-In . SVG Version: 6.00 Build 0)  -->
<svg version="1.1" id="Capa_1" xmlns="http://www.w3.org/2000/svg" xmlns:xlink="http://www.w3.org/1999/xlink" x="0px" y="0px"
	 viewBox="6 -512 512 512" style="enable-background:new 6 -512 512 512;" xml:space="preserve">
<style type="text/css">
	.st0{fill:url(#SVGID_1_);}
	.st1{fill:url(#SVGID_2_);}
	.st2{fill:url(#SVGID_3_);}
	.st3{fill:url(#SVGID_4_);}
	.st4{fill:url(#SVGID_5_);}
	.st5{fill:url(#SVGID_6_);}
	.st6{fill:url(#SVGID_7_);}
	.st7{fill:url(#SVGID_8_);}
	.st8{fill:url(#SVGID_9_);}
	.st9{fill:url(#SVGID_10_);}
	.st10{fill:url(#SVGID_11_);}
	.st11{fill:url(#SVGID_12_);}
	.st12{fill:url(#SVGID_13_);}
</style>
<g>
	<g>
		
			<linearGradient id="SVGID_1_" gradientUnits="userSpaceOnUse" x1="448.8091" y1="-16802.5996" x2="462.6473" y2="-16802.5996" gradientTransform="matrix(1 0 0 -1 0 -16896)">
			<stop  offset="0" style="stop-color:#00FF99"/>
			<stop  offset="1" style="stop-color:#33CCFF"/>
		</linearGradient>
		<rect x="448.8" y="-124.5" class="st0" width="13.8" height="62.3"/>
	</g>
</g>
<g>
	<g>
		
			<linearGradient id="SVGID_2_" gradientUnits="userSpaceOnUse" x1="75.1773" y1="-16712.6504" x2="89.0155" y2="-16712.6504" gradientTransform="matrix(1 0 0 -1 0 -16896)">
			<stop  offset="0" style="stop-color:#00FF99"/>
			<stop  offset="1" style="stop-color:#33CCFF"/>
		</linearGradient>
		<rect x="75.2" y="-207.6" class="st1" width="13.8" height="48.4"/>
	</g>
</g>
<g>
	<g>
		
			<linearGradient id="SVGID_3_" gradientUnits="userSpaceOnUse" x1="111.8001" y1="-16771.4648" x2="163.0984" y2="-16771.4648" gradientTransform="matrix(1 0 0 -1 0 -16896)">
			<stop  offset="0" style="stop-color:#00FF99"/>
			<stop  offset="1" style="stop-color:#33CCFF"/>
		</linearGradient>
		<path class="st2" d="M142.3-164c-2.7-2.7-7.1-2.7-9.8,0l-20.8,20.8l9.8,9.8l8.9-8.9V-83h13.8v-59.4l8.9,8.9l9.8-9.8L142.3-164z"/>
	</g>
</g>
<g>
	<g>
		
			<linearGradient id="SVGID_4_" gradientUnits="userSpaceOnUse" x1="172.0448" y1="-16823.3574" x2="185.883" y2="-16823.3574" gradientTransform="matrix(1 0 0 -1 0 -16896)">
			<stop  offset="0" style="stop-color:#00FF99"/>
			<stop  offset="1" style="stop-color:#33CCFF"/>
		</linearGradient>
		<rect x="172" y="-96.9" class="st3" width="13.8" height="48.4"/>
	</g>
</g>
<g>
	<g>
		
			<linearGradient id="SVGID_5_" gradientUnits="userSpaceOnUse" x1="75.1773" y1="-16757.625" x2="89.0155" y2="-16757.625" gradientTransform="matrix(1 0 0 -1 0 -16896)">
			<stop  offset="0" style="stop-color:#00FF99"/>
			<stop  offset="1" style="stop-color:#33CCFF"/>
		</linearGradient>
		<rect x="75.2" y="-145.3" class="st4" width="13.8" height="13.8"/>
	</g>
</g>
<g>
	<g>
		
			<linearGradient id="SVGID_6_" gradientUnits="userSpaceOnUse" x1="54.4199" y1="-16636.541" x2="469.58" y2="-16636.541" gradientTransform="matrix(1 0 0 -1 0 -16896)">
			<stop  offset="0.1486" style="stop-color:#00EED5"/>
			<stop  offset="0.3817" style="stop-color:#3EBBD7"/>
			<stop  offset="0.8094" style="stop-color:#AB62DB"/>
			<stop  offset="1" style="stop-color:#D63EDC"/>
		</linearGradient>
		<path class="st5" d="M461.3-332.1c-12.1-23.7-35.7-39.4-62.2-41.3c7.8-41.3-19.4-81.1-60.7-88.8c-31-5.8-62.4,8.1-78.9,34.9
			c-33.5-25.4-81.2-18.9-106.6,14.6c-8.7,11.5-14,25.1-15.2,39.4c-2.4-0.2-4.8-0.3-7.2-0.3c-42,0-76.1,34.1-76.1,76.1
			s34.1,76.1,76.1,76.1h20.8v48.4h13.8v-48.4h20.8v6.9h13.8v-6.9H262v13.8c-42-0.1-76.2,33.9-76.3,76c-0.1,42,33.9,76.2,76,76.3
			c21.1,0,41.2-8.7,55.7-24v10.2h13.8v-30.7c17.5-38.1,0.8-83.1-37.3-100.6c-5.8-2.6-11.8-4.6-18.1-5.7v-15.2h62.3v48.4h13.8v-48.4
			h41.5c7,0,14-1,20.8-2.9v37.5h13.8v-43C465.5-248.9,480.3-294.7,461.3-332.1z M290.6-186.8c20.7,10.7,33.7,32.1,33.7,55.4
			c0,9.6-2.3,19.1-6.6,27.7h-0.3v0.7c-15.7,30.5-53.2,42.5-83.8,26.7s-42.5-53.2-26.7-83.8S260.1-202.6,290.6-186.8z M454.8-289.4
			c-4,30.9-30.2,54-61.4,54.2H130.5c-34.4,0-62.3-27.9-62.3-62.3c0-34.4,27.9-62.3,62.3-62.3c4.2,0,8.4,0.4,12.5,1.3
			c3.7,0.8,7.4-1.7,8.2-5.4c0.1-0.5,0.1-1,0.1-1.5c0-0.1-0.1-1.1-0.1-1.3c0-34.4,27.8-62.3,62.2-62.3c16.1,0,31.6,6.2,43.3,17.4
			c2.8,2.6,7.1,2.6,9.8-0.2c0.5-0.6,1-1.2,1.3-1.9c14.2-31.3,51-45.1,82.3-30.9c25.9,11.8,40.5,39.6,35.5,67.6
			c-11.5-9.1-25.8-14.1-40.5-14.1v13.8c28.6,0,51.9,23.2,51.9,51.9h13.8c0-12-3.3-23.8-9.6-34.1
			C435.2-354.8,459.3-323.5,454.8-289.4z"/>
	</g>
</g>
<g>
	<g>
		
			<linearGradient id="SVGID_7_" gradientUnits="userSpaceOnUse" x1="374.7262" y1="-16788.7598" x2="426.0245" y2="-16788.7598" gradientTransform="matrix(1 0 0 -1 0 -16896)">
			<stop  offset="0" style="stop-color:#00FF99"/>
			<stop  offset="1" style="stop-color:#33CCFF"/>
		</linearGradient>
		<path class="st6" d="M416.2-101.8l-8.9,8.9v-52.5h-13.8v52.5l-8.9-8.9l-9.8,9.8l20.8,20.8c2.7,2.7,7.1,2.7,9.8,0L426-92
			L416.2-101.8z"/>
	</g>
</g>
<g>
	<g>
		
			<linearGradient id="SVGID_8_" gradientUnits="userSpaceOnUse" x1="393.4562" y1="-16729.9492" x2="407.2944" y2="-16729.9492" gradientTransform="matrix(1 0 0 -1 0 -16896)">
			<stop  offset="0" style="stop-color:#00FF99"/>
			<stop  offset="1" style="stop-color:#33CCFF"/>
		</linearGradient>
		<rect x="393.5" y="-173" class="st7" width="13.8" height="13.8"/>
	</g>
</g>
<g>
	<g>
		
			<linearGradient id="SVGID_9_" gradientUnits="userSpaceOnUse" x1="172.0447" y1="-16593.2852" x2="379.618" y2="-16593.2852" gradientTransform="matrix(1 0 0 -1 0 -16896)">
			<stop  offset="0.1486" style="stop-color:#00EED5"/>
			<stop  offset="0.3817" style="stop-color:#3EBBD7"/>
			<stop  offset="0.8094" style="stop-color:#AB62DB"/>
			<stop  offset="1" style="stop-color:#D63EDC"/>
		</linearGradient>
		<path class="st8" d="M313.9-318.3c-5.8,0-11.5,0.8-17.1,2.3c-15.9-32.6-55.2-46.2-87.8-30.3c-22.6,11-36.9,34-36.9,59.1h13.8
			c0.1-28.7,23.4-51.8,52-51.7c21.6,0.1,41,13.5,48.5,33.8c1.3,3.6,5.3,5.4,8.9,4.1c0,0,0.1,0,0.1,0c26.7-10.3,56.7,3.1,66.9,29.8
			c2.3,6,3.5,12.3,3.4,18.7h13.8C379.6-288.8,350.2-318.2,313.9-318.3z"/>
	</g>
</g>
<g>
	<linearGradient id="SVGID_10_" gradientUnits="userSpaceOnUse" x1="219.1859" y1="-121.0686" x2="306.6717" y2="-121.0686">
		<stop  offset="0.1486" style="stop-color:#00EED5"/>
		<stop  offset="0.3817" style="stop-color:#3EBBD7"/>
		<stop  offset="0.8094" style="stop-color:#AB62DB"/>
		<stop  offset="1" style="stop-color:#D63EDC"/>
	</linearGradient>
	<path class="st9" d="M297.8-110.5c-3.7,4.3-12.2,13-24.5,11.5c-5.4,4.1-12.1,6.6-19.4,6.6c-17.6,0-31.9-14.3-31.9-31.9
		c0-14.1,9.2-26.1,21.9-30.3c-3.5,0.6-7,1.4-8.9,2.1c-6.9,2.6-12.9,5-12.9,5s-3.7,9.7-2.9,21.5c2,15.5,12,28.5,25.8,34.6
		c0.4,0.2,0.8,0.4,1.2,0.5c0,0,0,0,0,0c0.5,0.2,1,0.4,1.6,0.6c4.7,1.7,9.7,2.6,15,2.6c13.3,0,25.3-5.9,33.3-15.3
		c8.4-11.1,10.6-22.7,10.4-24C306.7-126.8,304.1-117.7,297.8-110.5z"/>
	<linearGradient id="SVGID_11_" gradientUnits="userSpaceOnUse" x1="223.5738" y1="-153.3539" x2="307.3554" y2="-153.3539">
		<stop  offset="0.1486" style="stop-color:#00EED5"/>
		<stop  offset="0.3817" style="stop-color:#3EBBD7"/>
		<stop  offset="0.8094" style="stop-color:#AB62DB"/>
		<stop  offset="1" style="stop-color:#D63EDC"/>
	</linearGradient>
	<path class="st10" d="M257.5-158.2c5-3.2,10.9-5.1,17.3-5.1c17.6,0,31.9,14.3,31.9,31.9c0.1-0.4,0.2-0.8,0.2-1.3
		c-0.3-14.1-7.3-26.6-17.9-34.4c-3.4-2.3-6.8-4.2-9.9-5.4c-2.3-0.9-4.7-1.6-7.2-2.1l0,0c-3.6-0.4-9.5-1.2-16.3-0.3
		c-11.3,1.9-21.1,8.1-27.7,16.8c-1.5,2.1-2.9,4.4-4.3,6.9C223.6-151.2,240.3-161.5,257.5-158.2z"/>
	<linearGradient id="SVGID_12_" gradientUnits="userSpaceOnUse" x1="237.164" y1="-95.4347" x2="296.9869" y2="-155.2576">
		<stop  offset="0.1486" style="stop-color:#00EED5"/>
		<stop  offset="0.3817" style="stop-color:#3EBBD7"/>
		<stop  offset="0.8094" style="stop-color:#AB62DB"/>
		<stop  offset="1" style="stop-color:#D63EDC"/>
	</linearGradient>
	<path class="st11" d="M274.8-163.3c-6.4,0-12.3,1.9-17.3,5.1c7,1.4,14.1,5,20.1,12.5c2.2,2.5,4.1,5.3,5.4,8.4
		c3.8,7.2,3.6,14.2,2,20c-1.2,5.3-3.7,10.1-7.2,14.1l0,0c0,0,23-2.2,28.8-28.2C306.7-149,292.4-163.3,274.8-163.3z"/>
	<linearGradient id="SVGID_13_" gradientUnits="userSpaceOnUse" x1="229.1463" y1="-99.6552" x2="294.8082" y2="-165.3172">
		<stop  offset="0.1486" style="stop-color:#00EED5"/>
		<stop  offset="0.3817" style="stop-color:#3EBBD7"/>
		<stop  offset="0.8094" style="stop-color:#AB62DB"/>
		<stop  offset="1" style="stop-color:#D63EDC"/>
	</linearGradient>
	<path class="st12" d="M262.9-101.8C262.9-101.8,262.9-101.8,262.9-101.8C262.9-101.8,262.9-101.8,262.9-101.8
		c-0.6-0.2-1.2-0.5-1.7-0.8c0,0,0,0-0.1,0c-0.2-0.1-0.3-0.2-0.5-0.2c-12.4-6-17-16.2-17.6-25.7c-0.1-1-0.1-1.9-0.1-2.9
		c0-2.9,0.4-5.6,1.1-8.2c0.3-1,0.6-2,1-3c1.3-3.3,3.1-6.4,5.3-9.1c2-2.7,3.7-4.4,3.7-4.4s-5,0.7-10,1.6
		c-12.7,4.2-21.9,16.2-21.9,30.3c0,17.6,14.3,31.9,31.9,31.9c7.3,0,14-2.5,19.4-6.6c-2.9-0.3-6-1.1-9.4-2.4
		C263.6-101.5,263.3-101.6,262.9-101.8z"/>
</g>
</svg>
