<?xml version="1.0" encoding="utf-8"?>
<!-- Generator: Adobe Illustrator 24.2.0, SVG Export Plug-In . SVG Version: 6.00 Build 0)  -->
<svg version="1.1" id="Capa_1" xmlns="http://www.w3.org/2000/svg" xmlns:xlink="http://www.w3.org/1999/xlink" x="0px" y="0px"
	 viewBox="6 -512 512 512" style="enable-background:new 6 -512 512 512;" xml:space="preserve">
<style type="text/css">
	.st0{fill:url(#SVGID_1_);}
	.st1{fill:url(#SVGID_2_);}
	.st2{fill:url(#SVGID_3_);}
	.st3{fill:url(#SVGID_4_);}
	.st4{fill:url(#SVGID_5_);}
	.st5{fill:url(#SVGID_6_);}
	.st6{fill:url(#SVGID_7_);}
	.st7{fill:url(#SVGID_8_);}
	.st8{fill:url(#SVGID_9_);}
	.st9{fill:url(#SVGID_10_);}
	.st10{fill:url(#SVGID_11_);}
	.st11{fill:url(#SVGID_12_);}
	.st12{fill:url(#SVGID_13_);}
	.st13{fill:url(#SVGID_14_);}
	.st14{fill:url(#SVGID_15_);}
	.st15{fill:url(#SVGID_16_);}
	.st16{fill:url(#SVGID_17_);}
	.st17{fill:url(#SVGID_18_);}
	.st18{fill:url(#SVGID_19_);}
	.st19{fill:url(#SVGID_20_);}
	.st20{fill:url(#SVGID_21_);}
	.st21{fill:url(#SVGID_22_);}
	.st22{fill:url(#SVGID_23_);}
	.st23{fill:url(#SVGID_24_);}
	.st24{fill:url(#SVGID_25_);}
	.st25{fill:url(#SVGID_26_);}
	.st26{fill:url(#SVGID_27_);}
	.st27{fill:url(#SVGID_28_);}
	.st28{fill:url(#SVGID_29_);}
	.st29{fill:url(#SVGID_30_);}
	.st30{fill:url(#SVGID_31_);}
</style>
<g>
	<g>
		
			<linearGradient id="SVGID_1_" gradientUnits="userSpaceOnUse" x1="130.2667" y1="-16508.2676" x2="192.6745" y2="-16508.2676" gradientTransform="matrix(1 0 0 -1 0 -16896)">
			<stop  offset="0" style="stop-color:#00FF99"/>
			<stop  offset="1" style="stop-color:#33CCFF"/>
		</linearGradient>
		<path class="st0" d="M191.5-380.6c-0.9-2.7-2.4-5.1-4.3-7.2c7.7-8.4,7.1-21.4-1.3-29.1c-2.1-1.9-4.5-3.4-7.2-4.3v-8.2h-13.9v6.9
			h-13.9v-6.9h-13.9v6.9h-6.9v13.9h6.9v41.6h-6.9v13.9h6.9v6.9h13.9v-6.9h13.9v6.9h13.9v-8.2C189.6-358.1,195.3-369.8,191.5-380.6z
			 M171.9-366.9h-20.8v-13.9h20.8c3.8,0,6.9,3.1,6.9,6.9C178.8-370,175.7-366.9,171.9-366.9z M171.9-394.7h-20.8v-13.9h20.8
			c3.8,0,6.9,3.1,6.9,6.9C178.8-397.8,175.7-394.7,171.9-394.7z"/>
	</g>
</g>
<g>
	<g>
		
			<linearGradient id="SVGID_2_" gradientUnits="userSpaceOnUse" x1="81.7334" y1="-16508.2676" x2="234.2667" y2="-16508.2676" gradientTransform="matrix(1 0 0 -1 0 -16896)">
			<stop  offset="0" style="stop-color:#00FF99"/>
			<stop  offset="1" style="stop-color:#33CCFF"/>
		</linearGradient>
		<path class="st1" d="M158-464c-42.1,0-76.3,34.1-76.3,76.3c0,42.1,34.2,76.2,76.3,76.3c42.1,0,76.3-34.1,76.3-76.3
			S200.1-464,158-464z M158-325.3c-34.5,0-62.4-27.9-62.4-62.4c0-34.4,28-62.4,62.4-62.4c34.5,0,62.4,27.9,62.4,62.4
			C220.4-353.3,192.5-325.3,158-325.3z"/>
	</g>
</g>
<g>
	<g>
		
			<linearGradient id="SVGID_3_" gradientUnits="userSpaceOnUse" x1="81.7334" y1="-16723.1992" x2="234.2667" y2="-16723.1992" gradientTransform="matrix(1 0 0 -1 0 -16896)">
			<stop  offset="0" style="stop-color:#00FF99"/>
			<stop  offset="1" style="stop-color:#33CCFF"/>
		</linearGradient>
		<path class="st2" d="M158-249.1c-42.1,0-76.3,34.1-76.3,76.3s34.1,76.3,76.3,76.3c42.1,0,76.2-34.2,76.3-76.3
			C234.3-214.9,200.1-249.1,158-249.1z M158-110.4c-34.5,0-62.4-27.9-62.4-62.4c0-34.5,27.9-62.4,62.4-62.4s62.4,27.9,62.4,62.4
			C220.4-138.4,192.4-110.4,158-110.4z"/>
	</g>
</g>
<g>
	<g>
		
			<linearGradient id="SVGID_4_" gradientUnits="userSpaceOnUse" x1="109.4669" y1="-16726.7441" x2="206.5332" y2="-16726.7441" gradientTransform="matrix(1 0 0 -1 0 -16896)">
			<stop  offset="0" style="stop-color:#00FF99"/>
			<stop  offset="1" style="stop-color:#33CCFF"/>
		</linearGradient>
		<path class="st3" d="M205.1-170l-41.6-55.5c-2.5-3.1-7-3.5-10.1-1c-0.4,0.3-0.7,0.6-1,1L110.9-170c-2,2.6-1.8,6.2,0.3,8.7
			l41.6,48.5c2.5,2.9,6.9,3.2,9.8,0.7c0.3-0.2,0.5-0.5,0.7-0.7l41.6-48.5C207-163.8,207.1-167.4,205.1-170z M158-128l-32.7-38.2
			l32.7-43.6l32.7,43.6L158-128z"/>
	</g>
</g>
<g>
	<g>
		
			<linearGradient id="SVGID_5_" gradientUnits="userSpaceOnUse" x1="141.0342" y1="-16733.9648" x2="174.9659" y2="-16733.9648" gradientTransform="matrix(1 0 0 -1 0 -16896)">
			<stop  offset="0" style="stop-color:#00FF99"/>
			<stop  offset="1" style="stop-color:#33CCFF"/>
		</linearGradient>
		<path class="st4" d="M168.8-172.1l-10.8,5.4l-10.8-5.4l-6.2,12.4l13.9,6.9c2,1,4.2,1,6.2,0l13.9-6.9L168.8-172.1z"/>
	</g>
</g>
<g>
	<g>
		
			<linearGradient id="SVGID_6_" gradientUnits="userSpaceOnUse" x1="317.4667" y1="-16771.7324" x2="470" y2="-16771.7324" gradientTransform="matrix(1 0 0 -1 0 -16896)">
			<stop  offset="0" style="stop-color:#00FF99"/>
			<stop  offset="1" style="stop-color:#33CCFF"/>
		</linearGradient>
		<path class="st5" d="M393.7-200.5c-42.1,0-76.3,34.1-76.3,76.3S351.6-48,393.7-48S470-82.1,470-124.3
			C470-166.4,435.8-200.5,393.7-200.5z M393.7-61.9c-34.5,0-62.4-27.9-62.4-62.4c0-34.5,27.9-62.4,62.4-62.4
			c34.5,0,62.4,27.9,62.4,62.4C456.1-89.8,428.2-61.9,393.7-61.9z"/>
	</g>
</g>
<g>
	<g>
		
			<linearGradient id="SVGID_7_" gradientUnits="userSpaceOnUse" x1="255.0667" y1="-16577.5996" x2="407.6" y2="-16577.5996" gradientTransform="matrix(1 0 0 -1 0 -16896)">
			<stop  offset="0" style="stop-color:#00FF99"/>
			<stop  offset="1" style="stop-color:#33CCFF"/>
		</linearGradient>
		<path class="st6" d="M331.3-394.7c-42.1,0-76.3,34.1-76.3,76.3c0,42.1,34.2,76.2,76.3,76.3c42.1,0,76.3-34.1,76.3-76.3
			S373.5-394.7,331.3-394.7z M331.3-256c-34.5,0-62.4-27.9-62.4-62.4c0-34.4,28-62.4,62.4-62.4c34.5,0,62.4,27.9,62.4,62.4
			C393.7-283.9,365.8-256,331.3-256z"/>
	</g>
</g>
<g>
	<g>
		
			<linearGradient id="SVGID_8_" gradientUnits="userSpaceOnUse" x1="303.6" y1="-16577.5996" x2="366" y2="-16577.5996" gradientTransform="matrix(1 0 0 -1 0 -16896)">
			<stop  offset="0" style="stop-color:#00FF99"/>
			<stop  offset="1" style="stop-color:#33CCFF"/>
		</linearGradient>
		<path class="st7" d="M331.3-353.1h-20.8c-3.8,0-6.9,3.1-6.9,6.9v55.5c0,3.8,3.1,6.9,6.9,6.9h20.8c19.1,0,34.7-15.5,34.7-34.7
			S350.5-353.1,331.3-353.1z M331.3-297.6h-13.9v-13.9h20.8v-13.9h-20.8v-13.9h13.9c11.5,0,20.8,9.3,20.8,20.8
			S342.8-297.6,331.3-297.6z"/>
	</g>
</g>
<g>
	<g>
		
			<linearGradient id="SVGID_9_" gradientUnits="userSpaceOnUse" x1="456.1334" y1="-16463.1992" x2="470" y2="-16463.1992" gradientTransform="matrix(1 0 0 -1 0 -16896)">
			<stop  offset="0.1486" style="stop-color:#00EED5"/>
			<stop  offset="0.3817" style="stop-color:#3EBBD7"/>
			<stop  offset="0.8094" style="stop-color:#AB62DB"/>
			<stop  offset="1" style="stop-color:#D63EDC"/>
		</linearGradient>
		<rect x="456.1" y="-457.1" class="st8" width="13.9" height="48.5"/>
	</g>
</g>
<g>
	<g>
		
			<linearGradient id="SVGID_10_" gradientUnits="userSpaceOnUse" x1="54" y1="-16442.4004" x2="67.8667" y2="-16442.4004" gradientTransform="matrix(1 0 0 -1 0 -16896)">
			<stop  offset="0.1486" style="stop-color:#00EED5"/>
			<stop  offset="0.3817" style="stop-color:#3EBBD7"/>
			<stop  offset="0.8094" style="stop-color:#AB62DB"/>
			<stop  offset="1" style="stop-color:#D63EDC"/>
		</linearGradient>
		<rect x="54" y="-464" class="st9" width="13.9" height="20.8"/>
	</g>
</g>
<g>
	<g>
		
			<linearGradient id="SVGID_11_" gradientUnits="userSpaceOnUse" x1="421.4667" y1="-16518.666" x2="435.3334" y2="-16518.666" gradientTransform="matrix(1 0 0 -1 0 -16896)">
			<stop  offset="0.1486" style="stop-color:#00EED5"/>
			<stop  offset="0.3817" style="stop-color:#3EBBD7"/>
			<stop  offset="0.8094" style="stop-color:#AB62DB"/>
			<stop  offset="1" style="stop-color:#D63EDC"/>
		</linearGradient>
		<rect x="421.5" y="-408.5" class="st10" width="13.9" height="62.4"/>
	</g>
</g>
<g>
	<g>
		
			<linearGradient id="SVGID_12_" gradientUnits="userSpaceOnUse" x1="54" y1="-16581.0664" x2="67.8667" y2="-16581.0664" gradientTransform="matrix(1 0 0 -1 0 -16896)">
			<stop  offset="0.1486" style="stop-color:#00EED5"/>
			<stop  offset="0.3817" style="stop-color:#3EBBD7"/>
			<stop  offset="0.8094" style="stop-color:#AB62DB"/>
			<stop  offset="1" style="stop-color:#D63EDC"/>
		</linearGradient>
		<rect x="54" y="-325.3" class="st11" width="13.9" height="20.8"/>
	</g>
</g>
<g>
	<g>
		
			<linearGradient id="SVGID_13_" gradientUnits="userSpaceOnUse" x1="74.8" y1="-16605.334" x2="88.6667" y2="-16605.334" gradientTransform="matrix(1 0 0 -1 0 -16896)">
			<stop  offset="0.1486" style="stop-color:#00EED5"/>
			<stop  offset="0.3817" style="stop-color:#3EBBD7"/>
			<stop  offset="0.8094" style="stop-color:#AB62DB"/>
			<stop  offset="1" style="stop-color:#D63EDC"/>
		</linearGradient>
		<rect x="74.8" y="-297.6" class="st12" width="13.9" height="13.9"/>
	</g>
</g>
<g>
	<g>
		
			<linearGradient id="SVGID_14_" gradientUnits="userSpaceOnUse" x1="74.8" y1="-16640" x2="88.6667" y2="-16640" gradientTransform="matrix(1 0 0 -1 0 -16896)">
			<stop  offset="0.1486" style="stop-color:#00EED5"/>
			<stop  offset="0.3817" style="stop-color:#3EBBD7"/>
			<stop  offset="0.8094" style="stop-color:#AB62DB"/>
			<stop  offset="1" style="stop-color:#D63EDC"/>
		</linearGradient>
		<rect x="74.8" y="-269.9" class="st13" width="13.9" height="27.7"/>
	</g>
</g>
<g>
	<g>
		
			<linearGradient id="SVGID_15_" gradientUnits="userSpaceOnUse" x1="171.8667" y1="-16813.334" x2="185.7334" y2="-16813.334" gradientTransform="matrix(1 0 0 -1 0 -16896)">
			<stop  offset="0.1486" style="stop-color:#00EED5"/>
			<stop  offset="0.3817" style="stop-color:#3EBBD7"/>
			<stop  offset="0.8094" style="stop-color:#AB62DB"/>
			<stop  offset="1" style="stop-color:#D63EDC"/>
		</linearGradient>
		<rect x="171.9" y="-89.6" class="st14" width="13.9" height="13.9"/>
	</g>
</g>
<g>
	<g>
		
			<linearGradient id="SVGID_16_" gradientUnits="userSpaceOnUse" x1="171.8667" y1="-16841.0664" x2="185.7334" y2="-16841.0664" gradientTransform="matrix(1 0 0 -1 0 -16896)">
			<stop  offset="0.1486" style="stop-color:#00EED5"/>
			<stop  offset="0.3817" style="stop-color:#3EBBD7"/>
			<stop  offset="0.8094" style="stop-color:#AB62DB"/>
			<stop  offset="1" style="stop-color:#D63EDC"/>
		</linearGradient>
		<rect x="171.9" y="-61.9" class="st15" width="13.9" height="13.9"/>
	</g>
</g>
<g>
	<g>
		
			<linearGradient id="SVGID_17_" gradientUnits="userSpaceOnUse" x1="296.6667" y1="-16827.1992" x2="310.5334" y2="-16827.1992" gradientTransform="matrix(1 0 0 -1 0 -16896)">
			<stop  offset="0.1486" style="stop-color:#00EED5"/>
			<stop  offset="0.3817" style="stop-color:#3EBBD7"/>
			<stop  offset="0.8094" style="stop-color:#AB62DB"/>
			<stop  offset="1" style="stop-color:#D63EDC"/>
		</linearGradient>
		<rect x="296.7" y="-75.7" class="st16" width="13.9" height="13.9"/>
	</g>
</g>
<g>
	<g>
		
			<linearGradient id="SVGID_18_" gradientUnits="userSpaceOnUse" x1="213.4667" y1="-16584.5332" x2="227.3334" y2="-16584.5332" gradientTransform="matrix(1 0 0 -1 0 -16896)">
			<stop  offset="0.1486" style="stop-color:#00EED5"/>
			<stop  offset="0.3817" style="stop-color:#3EBBD7"/>
			<stop  offset="0.8094" style="stop-color:#AB62DB"/>
			<stop  offset="1" style="stop-color:#D63EDC"/>
		</linearGradient>
		<rect x="213.5" y="-318.4" class="st17" width="13.9" height="13.9"/>
	</g>
</g>
<g>
	<g>
		
			<linearGradient id="SVGID_19_" gradientUnits="userSpaceOnUse" x1="213.4667" y1="-16619.1992" x2="227.3334" y2="-16619.1992" gradientTransform="matrix(1 0 0 -1 0 -16896)">
			<stop  offset="0.1486" style="stop-color:#00EED5"/>
			<stop  offset="0.3817" style="stop-color:#3EBBD7"/>
			<stop  offset="0.8094" style="stop-color:#AB62DB"/>
			<stop  offset="1" style="stop-color:#D63EDC"/>
		</linearGradient>
		<rect x="213.5" y="-290.7" class="st18" width="13.9" height="27.7"/>
	</g>
</g>
<g>
	<g>
		
			<linearGradient id="SVGID_20_" gradientUnits="userSpaceOnUse" x1="421.4667" y1="-16466.666" x2="435.3334" y2="-16466.666" gradientTransform="matrix(1 0 0 -1 0 -16896)">
			<stop  offset="0.1486" style="stop-color:#00EED5"/>
			<stop  offset="0.3817" style="stop-color:#3EBBD7"/>
			<stop  offset="0.8094" style="stop-color:#AB62DB"/>
			<stop  offset="1" style="stop-color:#D63EDC"/>
		</linearGradient>
		<rect x="421.5" y="-436.3" class="st19" width="13.9" height="13.9"/>
	</g>
</g>
<g>
	<g>
		
			<linearGradient id="SVGID_21_" gradientUnits="userSpaceOnUse" x1="262" y1="-16761.334" x2="275.8667" y2="-16761.334" gradientTransform="matrix(1 0 0 -1 0 -16896)">
			<stop  offset="0.1486" style="stop-color:#00EED5"/>
			<stop  offset="0.3817" style="stop-color:#3EBBD7"/>
			<stop  offset="0.8094" style="stop-color:#AB62DB"/>
			<stop  offset="1" style="stop-color:#D63EDC"/>
		</linearGradient>
		<rect x="262" y="-165.9" class="st20" width="13.9" height="62.4"/>
	</g>
</g>
<g>
	<g>
		
			<linearGradient id="SVGID_22_" gradientUnits="userSpaceOnUse" x1="303.6" y1="-16456.2676" x2="317.4667" y2="-16456.2676" gradientTransform="matrix(1 0 0 -1 0 -16896)">
			<stop  offset="0.1486" style="stop-color:#00EED5"/>
			<stop  offset="0.3817" style="stop-color:#3EBBD7"/>
			<stop  offset="0.8094" style="stop-color:#AB62DB"/>
			<stop  offset="1" style="stop-color:#D63EDC"/>
		</linearGradient>
		<rect x="303.6" y="-464" class="st21" width="13.9" height="48.5"/>
	</g>
</g>
<g>
	<g>
		
			<linearGradient id="SVGID_23_" gradientUnits="userSpaceOnUse" x1="262" y1="-16709.334" x2="275.8667" y2="-16709.334" gradientTransform="matrix(1 0 0 -1 0 -16896)">
			<stop  offset="0.1486" style="stop-color:#00EED5"/>
			<stop  offset="0.3817" style="stop-color:#3EBBD7"/>
			<stop  offset="0.8094" style="stop-color:#AB62DB"/>
			<stop  offset="1" style="stop-color:#D63EDC"/>
		</linearGradient>
		<rect x="262" y="-193.6" class="st22" width="13.9" height="13.9"/>
	</g>
</g>
<g>
	<g>
		
			<linearGradient id="SVGID_24_" gradientUnits="userSpaceOnUse" x1="456.1334" y1="-16664.2676" x2="470" y2="-16664.2676" gradientTransform="matrix(1 0 0 -1 0 -16896)">
			<stop  offset="0.1486" style="stop-color:#00EED5"/>
			<stop  offset="0.3817" style="stop-color:#3EBBD7"/>
			<stop  offset="0.8094" style="stop-color:#AB62DB"/>
			<stop  offset="1" style="stop-color:#D63EDC"/>
		</linearGradient>
		<rect x="456.1" y="-262.9" class="st23" width="13.9" height="62.4"/>
	</g>
</g>
<g>
	<g>
		
			<linearGradient id="SVGID_25_" gradientUnits="userSpaceOnUse" x1="456.1334" y1="-16612.2676" x2="470" y2="-16612.2676" gradientTransform="matrix(1 0 0 -1 0 -16896)">
			<stop  offset="0.1486" style="stop-color:#00EED5"/>
			<stop  offset="0.3817" style="stop-color:#3EBBD7"/>
			<stop  offset="0.8094" style="stop-color:#AB62DB"/>
			<stop  offset="1" style="stop-color:#D63EDC"/>
		</linearGradient>
		<rect x="456.1" y="-290.7" class="st24" width="13.9" height="13.9"/>
	</g>
</g>
<g>
	<g>
		
			<linearGradient id="SVGID_26_" gradientUnits="userSpaceOnUse" x1="54" y1="-16816.8008" x2="67.8667" y2="-16816.8008" gradientTransform="matrix(1 0 0 -1 0 -16896)">
			<stop  offset="0.1486" style="stop-color:#00EED5"/>
			<stop  offset="0.3817" style="stop-color:#3EBBD7"/>
			<stop  offset="0.8094" style="stop-color:#AB62DB"/>
			<stop  offset="1" style="stop-color:#D63EDC"/>
		</linearGradient>
		<rect x="54" y="-110.4" class="st25" width="13.9" height="62.4"/>
	</g>
</g>
<g>
	<g>
		
			<linearGradient id="SVGID_27_" gradientUnits="userSpaceOnUse" x1="54" y1="-16764.8008" x2="67.8667" y2="-16764.8008" gradientTransform="matrix(1 0 0 -1 0 -16896)">
			<stop  offset="0.1486" style="stop-color:#00EED5"/>
			<stop  offset="0.3817" style="stop-color:#3EBBD7"/>
			<stop  offset="0.8094" style="stop-color:#AB62DB"/>
			<stop  offset="1" style="stop-color:#D63EDC"/>
		</linearGradient>
		<rect x="54" y="-138.1" class="st26" width="13.9" height="13.9"/>
	</g>
</g>
<g>
	<linearGradient id="SVGID_28_" gradientUnits="userSpaceOnUse" x1="343.0645" y1="-110.736" x2="444.1561" y2="-110.736">
		<stop  offset="0.1486" style="stop-color:#00EED5"/>
		<stop  offset="0.3817" style="stop-color:#3EBBD7"/>
		<stop  offset="0.8094" style="stop-color:#AB62DB"/>
		<stop  offset="1" style="stop-color:#D63EDC"/>
	</linearGradient>
	<path class="st27" d="M433.9-98.5c-4.3,4.9-14.1,15-28.3,13.3c-6.2,4.8-14,7.6-22.4,7.6c-20.3,0-36.8-16.5-36.8-36.8
		c0-16.3,10.6-30.1,25.3-35c-4.1,0.7-8.1,1.6-10.3,2.4c-8,3-14.9,5.8-14.9,5.8s-4.3,11.2-3.3,24.8c2.3,17.9,13.9,32.9,29.8,40
		c0.5,0.2,0.9,0.4,1.4,0.6c0,0,0,0,0,0c0.6,0.2,1.2,0.5,1.8,0.7c5.4,2,11.3,3,17.3,3c15.4,0,29.2-6.9,38.5-17.7
		c9.7-12.8,12.3-26.3,12-27.7C444.1-117.4,441.2-106.9,433.9-98.5z"/>
	<linearGradient id="SVGID_29_" gradientUnits="userSpaceOnUse" x1="348.1349" y1="-148.0422" x2="444.9461" y2="-148.0422">
		<stop  offset="0.1486" style="stop-color:#00EED5"/>
		<stop  offset="0.3817" style="stop-color:#3EBBD7"/>
		<stop  offset="0.8094" style="stop-color:#AB62DB"/>
		<stop  offset="1" style="stop-color:#D63EDC"/>
	</linearGradient>
	<path class="st28" d="M387.3-153.6c5.8-3.7,12.6-5.9,20-5.9c20.3,0,36.8,16.5,36.8,36.8c0.1-0.5,0.2-1,0.3-1.5
		c-0.4-16.3-8.5-30.7-20.7-39.7c-3.9-2.7-7.9-4.8-11.4-6.3c-2.7-1-5.4-1.9-8.3-2.5l0,0c-4.1-0.4-11-1.4-18.9-0.4
		c-13,2.2-24.4,9.3-32,19.4c-1.7,2.4-3.4,5-5,8C348.1-145.6,367.4-157.5,387.3-153.6z"/>
	<linearGradient id="SVGID_30_" gradientUnits="userSpaceOnUse" x1="363.8386" y1="-81.1155" x2="432.9651" y2="-150.242">
		<stop  offset="0.1486" style="stop-color:#00EED5"/>
		<stop  offset="0.3817" style="stop-color:#3EBBD7"/>
		<stop  offset="0.8094" style="stop-color:#AB62DB"/>
		<stop  offset="1" style="stop-color:#D63EDC"/>
	</linearGradient>
	<path class="st29" d="M407.3-159.5c-7.4,0-14.2,2.2-20,5.9c8.1,1.6,16.3,5.8,23.3,14.5c2.6,2.8,4.7,6.1,6.3,9.6
		c4.4,8.3,4.1,16.4,2.3,23.2c-1.4,6.1-4.3,11.7-8.3,16.3l0,0c0,0,26.6-2.5,33.3-32.6C444.1-143,427.6-159.5,407.3-159.5z"/>
	<linearGradient id="SVGID_31_" gradientUnits="userSpaceOnUse" x1="354.574" y1="-85.9924" x2="430.4475" y2="-161.866">
		<stop  offset="0.1486" style="stop-color:#00EED5"/>
		<stop  offset="0.3817" style="stop-color:#3EBBD7"/>
		<stop  offset="0.8094" style="stop-color:#AB62DB"/>
		<stop  offset="1" style="stop-color:#D63EDC"/>
	</linearGradient>
	<path class="st30" d="M393.6-88.4C393.6-88.4,393.6-88.4,393.6-88.4C393.6-88.4,393.6-88.4,393.6-88.4c-0.7-0.3-1.4-0.6-2-0.9
		c0,0-0.1,0-0.1,0c-0.2-0.1-0.4-0.2-0.6-0.3c-14.4-6.9-19.6-18.7-20.3-29.7c-0.1-1.1-0.2-2.2-0.2-3.3c0-3.3,0.4-6.5,1.2-9.5
		c0.3-1.2,0.7-2.4,1.1-3.5c1.5-3.8,3.5-7.4,6.1-10.5c2.3-3.1,4.3-5.1,4.3-5.1s-5.8,0.8-11.6,1.9c-14.7,4.9-25.3,18.7-25.3,35
		c0,20.3,16.5,36.8,36.8,36.8c8.4,0,16.2-2.8,22.4-7.6c-3.3-0.4-7-1.3-10.9-2.8C394.4-88.1,394-88.3,393.6-88.4z"/>
</g>
</svg>
