<?xml version="1.0" encoding="utf-8"?>
<!-- Generator: Adobe Illustrator 24.2.0, SVG Export Plug-In . SVG Version: 6.00 Build 0)  -->
<svg version="1.1" id="Capa_1" xmlns="http://www.w3.org/2000/svg" xmlns:xlink="http://www.w3.org/1999/xlink" x="0px" y="0px"
	 viewBox="6 -512 512 512" style="enable-background:new 6 -512 512 512;" xml:space="preserve">
<style type="text/css">
	.st0{fill:url(#SVGID_1_);}
	.st1{fill:url(#SVGID_2_);}
	.st2{fill:url(#SVGID_3_);}
	.st3{fill:url(#SVGID_4_);}
	.st4{fill:#FFFFFF;}
	.st5{fill:url(#SVGID_5_);}
	.st6{fill:url(#SVGID_6_);}
	.st7{fill:url(#SVGID_7_);}
	.st8{fill:url(#SVGID_8_);}
</style>
<g>
	<g>
		
			<linearGradient id="SVGID_1_" gradientUnits="userSpaceOnUse" x1="204.1841" y1="-16726.6836" x2="459.119" y2="-16726.6836" gradientTransform="matrix(1 0 0 -1 0 -16896)">
			<stop  offset="0" style="stop-color:#00FF99"/>
			<stop  offset="1" style="stop-color:#33CCFF"/>
		</linearGradient>
		<path class="st0" d="M400.7-132.6c-1.1-1.7-3-2.8-5-3l-59.8-4h-23.2v-16.2l19.2-3l37.3,3.9c0.6,0.1,1.1,0,1.7,0l25.4-4l-2-12.7
			L371-168c-0.7-30.7-18.2-58.5-45.6-72.4l1.5-1.7l82.6,29.2l40.4,40.4l9.1-9.1L417.7-223c-0.7-0.7-1.5-1.2-2.4-1.5l-88-31.1
			c-2.4-0.9-5.1-0.2-6.9,1.7l-7.6,8.2c-8.1-2.6-16.6-3.9-25.2-3.9c-46.1,0-83.5,37.3-83.5,83.4s37.3,83.5,83.4,83.5
			c30.1,0,57.9-16.2,72.7-42.5l31.2,2.1l23.7,37.4c1.2,1.9,3.2,3,5.4,3h33.9v-12.8h-30.4L400.7-132.6z M247.6-107.8
			c-32.2-22.1-40.4-66.1-18.3-98.2c22.1-32.2,66.1-40.4,98.2-18.3c18.4,12.6,29.7,33.1,30.6,55.4l0,0l-25.8-2.7
			c-0.6-0.1-1.1,0-1.7,0l-25.4,4c-0.3,0.1-0.6,0.2-0.9,0.3l-10.2-3.4v-26.6c6.9,1.3,12.2,7,12.8,14.1h12.8
			c-0.8-14.1-11.7-25.6-25.7-27.3v-7h-12.8v7c-14,1.7-24.8,13.2-25.7,27.3c0.3,8.3,5.9,15.5,13.9,17.8l11.8,3.9v26.6
			c-6.9-1.3-12.2-7-12.8-14.1h-12.8c0.8,14.1,11.7,25.6,25.7,27.3v7h12.8v-7c4.6-0.8,8.9-2.5,12.8-5h28.5l10.3,0.7
			C323.8-93.9,279.8-85.7,247.6-107.8z M299.8-155.3v17.9c-1.8,1.1-3.7,1.9-5.7,2.5v-22.2L299.8-155.3z M278.3-197.3v21.5l-5.9-2.5
			c-2.1-0.6-3.7-2.8-3.9-5.4C268.9-190.5,272.9-196.1,278.3-197.3z"/>
	</g>
</g>
<linearGradient id="SVGID_2_" gradientUnits="userSpaceOnUse" x1="64.881" y1="-16514.8477" x2="319.8287" y2="-16514.8477" gradientTransform="matrix(1 0 0 -1 0 -16896)">
	<stop  offset="0" style="stop-color:#00FF99"/>
	<stop  offset="1" style="stop-color:#33CCFF"/>
</linearGradient>
<path class="st1" d="M309.1-418.9c-19.4-34.4-60.2-50.5-97.9-38.6l-7.6-8.2c-1.7-1.9-4.4-2.6-6.9-1.7l-88,31.1
	c-0.9,0.3-1.7,0.8-2.4,1.5l-41.4,41.4l9.1,9.1l40.4-40.4l82.6-29.2l1.5,1.7c-27.4,13.9-44.9,41.7-45.6,72.4l-23.2-3.7l-2,12.7
	l25.4,4c0.6,0.1,1.1,0.1,1.7,0l37.3-3.9l18.5,2.9v16.3h-23l-59.3,4c-2,0.1-3.9,1.2-5,3l-23.5,37.1H69.4v12.8h33.9
	c2.2,0,4.2-1.1,5.4-3l23.7-37.4l31.2-2.1c22.6,40.2,73.5,54.4,113.7,31.7S331.7-378.8,309.1-418.9z"/>
<g>
	<g>
		
			<linearGradient id="SVGID_3_" gradientUnits="userSpaceOnUse" x1="323.8119" y1="-16543.9746" x2="458.4321" y2="-16543.9746" gradientTransform="matrix(1 0 0 -1 0 -16896)">
			<stop  offset="0.1486" style="stop-color:#00EED5"/>
			<stop  offset="0.3817" style="stop-color:#3EBBD7"/>
			<stop  offset="0.8094" style="stop-color:#AB62DB"/>
			<stop  offset="1" style="stop-color:#D63EDC"/>
		</linearGradient>
		<path class="st2" d="M450.7-299.6l-15.9,11.9c-4.6-65.3-45.7-122.4-106.1-147.5l-4.9,11.8c55.4,23,93.2,75.1,98.1,134.9
			l-14.8-11.1l-7.7,10.3l25.7,19.3c2.3,1.7,5.4,1.7,7.7,0l25.7-19.3L450.7-299.6z"/>
	</g>
</g>
<g>
	<g>
		
			<linearGradient id="SVGID_4_" gradientUnits="userSpaceOnUse" x1="65.5679" y1="-16697.5449" x2="200.1881" y2="-16697.5449" gradientTransform="matrix(1 0 0 -1 0 -16896)">
			<stop  offset="0.1486" style="stop-color:#00EED5"/>
			<stop  offset="0.3817" style="stop-color:#3EBBD7"/>
			<stop  offset="0.8094" style="stop-color:#AB62DB"/>
			<stop  offset="1" style="stop-color:#D63EDC"/>
		</linearGradient>
		<path class="st3" d="M102.1-262l14.8,11.1l7.7-10.3l-25.7-19.3c-2.3-1.7-5.4-1.7-7.7,0l-25.7,19.3l7.7,10.3l15.9-11.9
			c4.6,65.3,45.7,122.4,106.1,147.5l4.9-11.8C144.8-150.1,106.9-202.2,102.1-262z"/>
	</g>
</g>
<g>
	<circle class="st4" cx="237.8" cy="-379.6" r="76.1"/>
	<g>
		<linearGradient id="SVGID_5_" gradientUnits="userSpaceOnUse" x1="176.1155" y1="-366.5592" x2="299.4546" y2="-366.5592">
			<stop  offset="0.1486" style="stop-color:#00EED5"/>
			<stop  offset="0.3817" style="stop-color:#3EBBD7"/>
			<stop  offset="0.8094" style="stop-color:#AB62DB"/>
			<stop  offset="1" style="stop-color:#D63EDC"/>
		</linearGradient>
		<path class="st5" d="M287-351.6c-5.2,6-17.3,18.3-34.5,16.2c-7.6,5.8-17,9.3-27.3,9.3c-24.8,0-45-20.1-45-45
			c0-19.9,12.9-36.8,30.8-42.7c-4.9,0.9-9.9,2-12.5,3c-9.8,3.7-18.2,7.1-18.2,7.1s-5.3,13.6-4.1,30.3c2.8,21.9,17,40.2,36.4,48.8
			c0.6,0.2,1.1,0.5,1.7,0.7c0,0,0,0,0,0c0.7,0.3,1.5,0.6,2.2,0.9c6.6,2.4,13.7,3.7,21.2,3.7c18.8,0,35.6-8.4,47-21.6
			c11.8-15.6,15-32.1,14.7-33.8C299.4-374.7,295.8-361.8,287-351.6z"/>
		<linearGradient id="SVGID_6_" gradientUnits="userSpaceOnUse" x1="182.3017" y1="-412.0756" x2="300.4185" y2="-412.0756">
			<stop  offset="0.1486" style="stop-color:#00EED5"/>
			<stop  offset="0.3817" style="stop-color:#3EBBD7"/>
			<stop  offset="0.8094" style="stop-color:#AB62DB"/>
			<stop  offset="1" style="stop-color:#D63EDC"/>
		</linearGradient>
		<path class="st6" d="M230.1-418.9c7-4.5,15.4-7.2,24.4-7.2c24.8,0,45,20.1,45,45c0.1-0.6,0.2-1.2,0.3-1.8
			c-0.5-19.9-10.3-37.5-25.3-48.5c-4.8-3.3-9.7-5.9-13.9-7.7c-3.2-1.3-6.6-2.3-10.1-3l0,0c-5-0.5-13.4-1.7-23-0.4
			c-15.9,2.7-29.7,11.4-39.1,23.7c-2.1,2.9-4.1,6.1-6.1,9.8C182.3-409.1,205.8-423.6,230.1-418.9z"/>
		<linearGradient id="SVGID_7_" gradientUnits="userSpaceOnUse" x1="201.4614" y1="-330.42" x2="285.8008" y2="-414.7595">
			<stop  offset="0.1486" style="stop-color:#00EED5"/>
			<stop  offset="0.3817" style="stop-color:#3EBBD7"/>
			<stop  offset="0.8094" style="stop-color:#AB62DB"/>
			<stop  offset="1" style="stop-color:#D63EDC"/>
		</linearGradient>
		<path class="st7" d="M254.5-426.1c-9,0-17.4,2.6-24.4,7.2c9.9,1.9,19.8,7.1,28.4,17.6c3.1,3.5,5.7,7.4,7.7,11.8
			c5.3,10.1,5,20.1,2.8,28.3c-1.7,7.5-5.2,14.3-10.2,19.9l0,0c0,0,32.5-3,40.6-39.8C299.4-405.9,279.3-426.1,254.5-426.1z"/>
		<linearGradient id="SVGID_8_" gradientUnits="userSpaceOnUse" x1="190.1579" y1="-336.3703" x2="282.7292" y2="-428.9416">
			<stop  offset="0.1486" style="stop-color:#00EED5"/>
			<stop  offset="0.3817" style="stop-color:#3EBBD7"/>
			<stop  offset="0.8094" style="stop-color:#AB62DB"/>
			<stop  offset="1" style="stop-color:#D63EDC"/>
		</linearGradient>
		<path class="st8" d="M237.8-339.4C237.8-339.4,237.8-339.4,237.8-339.4C237.8-339.4,237.8-339.4,237.8-339.4
			c-0.8-0.3-1.7-0.7-2.5-1.1c0,0-0.1,0-0.1,0c-0.2-0.1-0.5-0.2-0.7-0.3c-17.5-8.4-23.9-22.8-24.8-36.2c-0.1-1.3-0.2-2.7-0.2-4.1
			c0-4,0.5-7.9,1.5-11.6c0.4-1.4,0.8-2.9,1.4-4.3c1.8-4.7,4.3-9,7.4-12.8c2.9-3.8,5.3-6.2,5.3-6.2s-7,1-14.1,2.3
			c-17.9,5.9-30.8,22.8-30.8,42.7c0,24.8,20.1,45,45,45c10.3,0,19.8-3.5,27.3-9.3c-4.1-0.5-8.5-1.6-13.3-3.4
			C238.7-339,238.3-339.2,237.8-339.4z"/>
	</g>
</g>
</svg>
