<?xml version="1.0" encoding="utf-8"?>
<!-- Generator: Adobe Illustrator 24.2.0, SVG Export Plug-In . SVG Version: 6.00 Build 0)  -->
<svg version="1.1" id="Capa_1" xmlns="http://www.w3.org/2000/svg" xmlns:xlink="http://www.w3.org/1999/xlink" x="0px" y="0px"
	 viewBox="6 -512 512 512" style="enable-background:new 6 -512 512 512;" xml:space="preserve">
<style type="text/css">
	.st0{fill:url(#SVGID_1_);}
	.st1{fill:url(#SVGID_2_);}
	.st2{fill:url(#SVGID_3_);}
	.st3{fill:url(#SVGID_4_);}
	.st4{fill:url(#SVGID_5_);}
	.st5{fill:url(#SVGID_6_);}
</style>
<g>
	<g>
		
			<linearGradient id="SVGID_1_" gradientUnits="userSpaceOnUse" x1="6.5076" y1="-16612.4629" x2="506.6568" y2="-16612.4629" gradientTransform="matrix(1 0 0 -1 0 -16896)">
			<stop  offset="0.1486" style="stop-color:#00EED5"/>
			<stop  offset="0.3817" style="stop-color:#3EBBD7"/>
			<stop  offset="0.8094" style="stop-color:#AB62DB"/>
			<stop  offset="1" style="stop-color:#D63EDC"/>
		</linearGradient>
		<path class="st0" d="M425.3-384.9v0.1c-55.9-91.3-175.3-119.9-266.5-63.9c-30.2,18.5-54.8,45-71,76.6l-1.5-3.5
			c-39.2,16.9-65.3,38.6-75.4,62.6l15.7,6.6c7.1-16.9,25.7-33.4,52.9-47.2c-15.1,38.8-17.3,81.4-6.3,121.5
			c-29.7-15.5-47.3-34.4-49.6-53.7l-16.9,2c3.3,27.5,26.7,52.2,67.5,71.3l3.1-6.7c35.7,101,146.4,153.9,247.4,118.3
			s153.9-146.4,118.3-247.4c-1.6-4.5-3.4-9-5.3-13.4c25.8,11.4,45.1,25.4,55.1,40.3l14.2-9.5C492.3-352.4,464.2-371.1,425.3-384.9z
			 M380.6-412.4l-7.3,4.9l-28-5.6l-18.7-6.2c-1.5-0.5-3.2-0.6-4.8-0.2l-23.2,5.8l-7.5-2.5l6-12.1h20.3c1.3,0,2.6-0.3,3.8-0.9
			l21.1-10.6C356.3-432.4,369.2-423.2,380.6-412.4z M189.8-445.7l14.3,9.5c1,0.7,2.1,1.1,3.3,1.3l28.5,4.8l-1.9,5.7l-15.1,5.1
			c-1.9,0.6-3.6,2-4.6,3.7l-18.1,30.1l-28.7,17.2l-43.1,6.1c-4.2,0.6-7.3,4.2-7.3,8.4v19.2c0,2.3,0.9,4.4,2.5,6l10.3,10.3v6.1
			l-22.7-15.1l-9.1-27.3C116.2-395.3,148.9-427.9,189.8-445.7z M89-328.1L89-328.1l3,9.1c0.6,1.8,1.8,3.3,3.4,4.4l29.7,19.8
			l-5.4,5.4c-1.6,1.6-2.5,3.8-2.5,6v19.2c0,1.3,0.3,2.6,0.9,3.8l12.8,25.6c1.2,2.4,3.4,4,6,4.5l25.1,5v21.6c-1.9-0.3-3.9-0.6-5.8-1
			c-17.7-3.4-35.1-8-52.1-14l-3.8,10.7C82.2-245.4,78.3-288,89-328.1z M260-106.5c-65.5-0.1-125.7-36.3-156.3-94.3
			c16.1,5.4,32.5,9.7,49.2,12.9c2.9,0.6,6,1,9.1,1.6v18c0,1.1,0.2,2.2,0.6,3.2l12.8,32c0.9,2.3,2.8,4.1,5.2,4.9l19.2,6.4
			c2.6,0.9,5.4,0.4,7.7-1.2c2.2-1.6,3.5-4.2,3.5-6.9v-27.7l22.2-16.6c1.5-1.2,2.5-2.8,2.9-4.7c4.1,0.1,8.3,0.3,12.4,0.3h5.7
			c3.1,0,6.3,0,9.5-0.1c14.7-0.2,29.3-1.1,43.7-2.4c4.9,12.6,17.1,20.9,30.7,20.9h0.5c17.1-0.3,31.1-13.6,32.3-30.7
			c5-1.1,10.1-2.2,14.9-3.5v0.5c0,2.3,0.9,4.4,2.5,6l11.9,11.9C366.8-132.2,315-106.5,260-106.5z M322-193
			c-0.2-8.8,6.9-16.1,15.7-16.3c0,0,0,0,0,0h0.3c8.9,0,16,7.2,16,16c0,8.9-7.2,16-16,16C329.3-177.2,322.1-184.3,322-193z
			 M410-190.1l-7.2-7.3v-1.8c5.2-1.6,10.2-3.3,15.2-5.1C415.5-199.4,412.9-194.7,410-190.1z M427.2-226c-7.7,3.2-15.8,6.2-24.4,8.9
			v-2.3c0-1.3-0.3-2.6-0.9-3.8l-24.7-49.4v-23.6c0-2.9-1.4-5.5-3.8-7.1L354.2-316c-2-1.3-4.5-1.8-6.8-1.2l-25.6,6.4l4.1,16.5
			l21.9-5.5l12.3,8.2v21c0,1.3,0.3,2.6,0.9,3.8l24.7,49.4v5.4c-5.9,1.6-11.9,3.1-18,4.4c-1.7-3.5-3.9-6.7-6.7-9.4
			c-6.3-6.1-14.8-9.4-23.6-9.3c-16.2,0.2-29.9,12.2-32.1,28.3c-13.8,1.3-27.9,2.1-42,2.3c-3.1,0.1-6.2,0.1-9.2,0.1h-5.5
			c-4.1,0-8.1-0.2-12.1-0.3v-0.8l23.1-23.1l-12.1-12.1L222-206.2c-1.6,1.6-2.5,3.8-2.5,6v3.6c-0.3,0-0.6,0-0.9-0.1l-0.8,12.6
			l-20.5,15.3c-2.1,1.6-3.4,4.1-3.4,6.8v20.1l-4.2-1.4L179-169.9v-13.7c4.2,0.6,8.4,1.2,12.6,1.7l1.9-17c-4.9-0.5-9.7-1.2-14.5-1.9
			v-31.4c0-4.1-2.9-7.5-6.8-8.4l-27.9-5.6l-10-20v-13.6l21.1-21.1l7.5,15c1.6,3.2,5,5,8.5,4.7l36.1-3.8l5.6,5.6l12.1-12.1l-8.5-8.5
			c-1.8-1.8-4.4-2.7-6.9-2.4l-34.3,3.6l-10.1-20.3c-2.1-4.2-7.2-5.9-11.4-3.8c-0.8,0.4-1.6,0.9-2.2,1.6l-4.6,4.6v-5
			c0-2.3-0.9-4.4-2.5-6L134.3-338v-8.3l37.4-5.3c1.1-0.2,2.2-0.5,3.2-1.1l32-19.2c1.2-0.7,2.2-1.7,2.9-2.9l17.6-29.3l16.2-5.4
			c2.5-0.8,4.5-2.8,5.4-5.4l6.4-19.2c1.5-4.5-0.9-9.3-5.4-10.8c-0.4-0.1-0.8-0.2-1.3-0.3l-36.6-6.1l-2.3-1.6
			c16.3-4.9,33.2-7.4,50.2-7.4c21.3,0,42.4,3.9,62.3,11.5l-6.8,3.4H292c-3.2,0-6.2,1.8-7.6,4.7L271.6-415c-2.1,4.2-0.4,9.3,3.8,11.4
			c0.4,0.2,0.7,0.3,1.1,0.5l19.2,6.4c1.5,0.5,3.2,0.6,4.8,0.2l23.2-5.8l16.8,5.6c0.3,0.1,0.7,0.2,1,0.3l32,6.4
			c0.6,0.1,1.1,0.2,1.7,0.2c1.7,0,3.3-0.5,4.7-1.4l12.9-8.6c6,6.8,11.5,14,16.3,21.7l-28.2,9.4l-32.6-5.4l-10.8-16.1
			c-1.6-2.4-4.2-3.8-7.1-3.8H292c-2.3,0-4.4,0.9-6,2.5l-19.2,19.2l12.1,12l16.7-16.7h30.3l10.2,15.3c1.3,2,3.4,3.3,5.7,3.7l38.4,6.4
			c1.4,0.2,2.8,0.1,4.1-0.3l33.5-11.2C439.5-320.7,442.9-271.1,427.2-226z"/>
	</g>
</g>
<g>
	<g>
		
			<linearGradient id="SVGID_2_" gradientUnits="userSpaceOnUse" x1="452.641" y1="-16632.498" x2="517.4924" y2="-16632.498" gradientTransform="matrix(1 0 0 -1 0 -16896)">
			<stop  offset="0.1486" style="stop-color:#00EED5"/>
			<stop  offset="0.3817" style="stop-color:#3EBBD7"/>
			<stop  offset="0.8094" style="stop-color:#AB62DB"/>
			<stop  offset="1" style="stop-color:#D63EDC"/>
		</linearGradient>
		<path class="st1" d="M517.1-303.5l-16.9,2c0.2,1.5,0.3,3,0.3,4.5c0,20.4-17,41.3-47.8,58.7l8.4,14.8
			c36.9-20.9,56.5-46.3,56.5-73.6v-0.9C517.5-299.8,517.3-301.7,517.1-303.5z"/>
	</g>
</g>
<g>
	<linearGradient id="SVGID_3_" gradientUnits="userSpaceOnUse" x1="229.6297" y1="-289.7596" x2="317.8428" y2="-289.7596">
		<stop  offset="0.1486" style="stop-color:#00EED5"/>
		<stop  offset="0.3817" style="stop-color:#3EBBD7"/>
		<stop  offset="0.8094" style="stop-color:#AB62DB"/>
		<stop  offset="1" style="stop-color:#D63EDC"/>
	</linearGradient>
	<path class="st2" d="M308.9-279.1c-3.7,4.3-12.3,13.1-24.7,11.6c-5.4,4.2-12.2,6.6-19.5,6.6c-17.8,0-32.1-14.4-32.1-32.1
		c0-14.2,9.2-26.3,22.1-30.5c-3.5,0.6-7.1,1.4-9,2.1c-7,2.7-13,5.1-13,5.1s-3.8,9.8-2.9,21.6c2,15.6,12.1,28.7,26,34.9
		c0.4,0.2,0.8,0.4,1.2,0.5c0,0,0,0,0,0c0.5,0.2,1.1,0.4,1.6,0.6c4.7,1.7,9.8,2.7,15.1,2.7c13.4,0,25.5-6,33.6-15.4
		c8.5-11.2,10.7-22.9,10.5-24.2C317.8-295.6,315.3-286.4,308.9-279.1z"/>
	<linearGradient id="SVGID_4_" gradientUnits="userSpaceOnUse" x1="234.0542" y1="-322.3133" x2="318.5321" y2="-322.3133">
		<stop  offset="0.1486" style="stop-color:#00EED5"/>
		<stop  offset="0.3817" style="stop-color:#3EBBD7"/>
		<stop  offset="0.8094" style="stop-color:#AB62DB"/>
		<stop  offset="1" style="stop-color:#D63EDC"/>
	</linearGradient>
	<path class="st3" d="M268.2-327.2c5-3.3,11-5.1,17.4-5.1c17.8,0,32.1,14.4,32.1,32.1c0.1-0.4,0.2-0.9,0.2-1.3
		c-0.3-14.2-7.4-26.8-18.1-34.7c-3.4-2.4-6.9-4.2-9.9-5.5c-2.3-0.9-4.7-1.7-7.2-2.2l0,0c-3.6-0.4-9.6-1.2-16.5-0.3
		c-11.4,1.9-21.3,8.1-27.9,16.9c-1.5,2.1-3,4.4-4.3,7C234.1-320.1,250.9-330.6,268.2-327.2z"/>
	<linearGradient id="SVGID_5_" gradientUnits="userSpaceOnUse" x1="247.7573" y1="-263.9126" x2="308.0775" y2="-324.2328">
		<stop  offset="0.1486" style="stop-color:#00EED5"/>
		<stop  offset="0.3817" style="stop-color:#3EBBD7"/>
		<stop  offset="0.8094" style="stop-color:#AB62DB"/>
		<stop  offset="1" style="stop-color:#D63EDC"/>
	</linearGradient>
	<path class="st4" d="M285.7-332.3c-6.4,0-12.4,1.9-17.4,5.1c7.1,1.4,14.2,5,20.3,12.6c2.2,2.5,4.1,5.3,5.5,8.4
		c3.8,7.2,3.6,14.3,2,20.2c-1.2,5.4-3.8,10.2-7.3,14.2l0,0c0,0,23.2-2.2,29-28.5C317.8-317.9,303.4-332.3,285.7-332.3z"/>
	<linearGradient id="SVGID_6_" gradientUnits="userSpaceOnUse" x1="239.6729" y1="-268.1683" x2="305.8806" y2="-334.376">
		<stop  offset="0.1486" style="stop-color:#00EED5"/>
		<stop  offset="0.3817" style="stop-color:#3EBBD7"/>
		<stop  offset="0.8094" style="stop-color:#AB62DB"/>
		<stop  offset="1" style="stop-color:#D63EDC"/>
	</linearGradient>
	<path class="st5" d="M273.7-270.3C273.7-270.3,273.7-270.3,273.7-270.3C273.7-270.3,273.7-270.3,273.7-270.3
		c-0.6-0.2-1.2-0.5-1.8-0.8c0,0,0,0-0.1,0c-0.2-0.1-0.3-0.2-0.5-0.2c-12.5-6-17.1-16.3-17.8-25.9c-0.1-1-0.1-1.9-0.1-2.9
		c0-2.9,0.4-5.7,1.1-8.3c0.3-1,0.6-2.1,1-3.1c1.3-3.4,3.1-6.4,5.3-9.1c2-2.7,3.8-4.5,3.8-4.5s-5,0.7-10.1,1.6
		c-12.8,4.2-22.1,16.3-22.1,30.5c0,17.8,14.4,32.1,32.1,32.1c7.4,0,14.1-2.5,19.5-6.6c-2.9-0.4-6.1-1.1-9.5-2.4
		C274.4-270,274.1-270.2,273.7-270.3z"/>
</g>
</svg>
