<?xml version="1.0" encoding="utf-8"?>
<!-- Generator: Adobe Illustrator 24.2.0, SVG Export Plug-In . SVG Version: 6.00 Build 0)  -->
<svg version="1.1" id="Capa_1" xmlns="http://www.w3.org/2000/svg" xmlns:xlink="http://www.w3.org/1999/xlink" x="0px" y="0px"
	 viewBox="6 -512 512 512" style="enable-background:new 6 -512 512 512;" xml:space="preserve">
<style type="text/css">
	.st0{fill:url(#SVGID_1_);}
	.st1{fill:url(#SVGID_2_);}
	.st2{fill:url(#SVGID_3_);}
	.st3{fill:url(#SVGID_4_);}
	.st4{fill:url(#SVGID_5_);}
	.st5{fill:url(#SVGID_6_);}
	.st6{fill:url(#SVGID_7_);}
	.st7{fill:url(#SVGID_8_);}
	.st8{fill:url(#SVGID_9_);}
	.st9{fill:url(#SVGID_10_);}
	.st10{fill:url(#SVGID_11_);}
	.st11{fill:url(#SVGID_12_);}
	.st12{fill:url(#SVGID_13_);}
	.st13{fill:url(#SVGID_14_);}
</style>
<g>
	<g>
		
			<linearGradient id="SVGID_1_" gradientUnits="userSpaceOnUse" x1="6" y1="-16640" x2="257.3245" y2="-16640" gradientTransform="matrix(1 0 0 -1 0 -16896)">
			<stop  offset="0.1486" style="stop-color:#00EED5"/>
			<stop  offset="0.3817" style="stop-color:#3EBBD7"/>
			<stop  offset="0.8094" style="stop-color:#AB62DB"/>
			<stop  offset="1" style="stop-color:#D63EDC"/>
		</linearGradient>
		<path class="st0" d="M238-439.4v34c-82.5-37.5-179.8-0.9-217.3,81.6S19.8-144,102.3-106.5c43.1,19.6,92.6,19.6,135.7,0v34h19.3
			v-366.9L238-439.4L238-439.4z M238-174.2c-45.2,37.4-112.1,31.1-149.5-14s-31.1-112.1,14-149.5c39.3-32.6,96.2-32.6,135.5,0
			V-174.2z M238-361.7c-58.4-37.4-136-20.4-173.4,37.9s-20.4,136,37.9,173.4c41.3,26.5,94.2,26.5,135.5,0v22.3
			c-70.7,37.4-158.3,10.5-195.8-60.2S31.7-346.5,102.4-384c42.4-22.5,93.2-22.5,135.6,0L238-361.7L238-361.7z"/>
	</g>
</g>
<g>
	<g>
		
			<linearGradient id="SVGID_2_" gradientUnits="userSpaceOnUse" x1="276.6349" y1="-16495.1797" x2="344.2172" y2="-16495.1797" gradientTransform="matrix(1 0 0 -1 0 -16896)">
			<stop  offset="0.1486" style="stop-color:#00EED5"/>
			<stop  offset="0.3817" style="stop-color:#3EBBD7"/>
			<stop  offset="0.8094" style="stop-color:#AB62DB"/>
			<stop  offset="1" style="stop-color:#D63EDC"/>
		</linearGradient>
		<rect x="276.6" y="-410.5" class="st1" width="67.6" height="19.3"/>
	</g>
</g>
<g>
	<g>
		
			<linearGradient id="SVGID_3_" gradientUnits="userSpaceOnUse" x1="295.9442" y1="-16707.582" x2="363.5264" y2="-16707.582" gradientTransform="matrix(1 0 0 -1 0 -16896)">
			<stop  offset="0.1486" style="stop-color:#00EED5"/>
			<stop  offset="0.3817" style="stop-color:#3EBBD7"/>
			<stop  offset="0.8094" style="stop-color:#AB62DB"/>
			<stop  offset="1" style="stop-color:#D63EDC"/>
		</linearGradient>
		<rect x="295.9" y="-198.1" class="st2" width="67.6" height="19.3"/>
	</g>
</g>
<g>
	<g>
		
			<linearGradient id="SVGID_4_" gradientUnits="userSpaceOnUse" x1="295.9442" y1="-16601.3809" x2="363.5264" y2="-16601.3809" gradientTransform="matrix(1 0 0 -1 0 -16896)">
			<stop  offset="0.1486" style="stop-color:#00EED5"/>
			<stop  offset="0.3817" style="stop-color:#3EBBD7"/>
			<stop  offset="0.8094" style="stop-color:#AB62DB"/>
			<stop  offset="1" style="stop-color:#D63EDC"/>
		</linearGradient>
		<rect x="295.9" y="-304.3" class="st3" width="67.6" height="19.3"/>
	</g>
</g>
<g>
	<g>
		
			<linearGradient id="SVGID_5_" gradientUnits="userSpaceOnUse" x1="450.4178" y1="-16804.127" x2="479.3816" y2="-16804.127" gradientTransform="matrix(1 0 0 -1 0 -16896)">
			<stop  offset="0.1486" style="stop-color:#00EED5"/>
			<stop  offset="0.3817" style="stop-color:#3EBBD7"/>
			<stop  offset="0.8094" style="stop-color:#AB62DB"/>
			<stop  offset="1" style="stop-color:#D63EDC"/>
		</linearGradient>
		<rect x="450.4" y="-101.5" class="st4" width="29" height="19.3"/>
	</g>
</g>
<g>
	<g>
		
			<linearGradient id="SVGID_6_" gradientUnits="userSpaceOnUse" x1="276.6349" y1="-16813.7832" x2="305.5988" y2="-16813.7832" gradientTransform="matrix(1 0 0 -1 0 -16896)">
			<stop  offset="0.1486" style="stop-color:#00EED5"/>
			<stop  offset="0.3817" style="stop-color:#3EBBD7"/>
			<stop  offset="0.8094" style="stop-color:#AB62DB"/>
			<stop  offset="1" style="stop-color:#D63EDC"/>
		</linearGradient>
		<rect x="276.6" y="-91.9" class="st5" width="29" height="19.3"/>
	</g>
</g>
<g>
	<g>
		
			<linearGradient id="SVGID_7_" gradientUnits="userSpaceOnUse" x1="402.1448" y1="-16524.1445" x2="469.727" y2="-16524.1445" gradientTransform="matrix(1 0 0 -1 0 -16896)">
			<stop  offset="0.1486" style="stop-color:#00EED5"/>
			<stop  offset="0.3817" style="stop-color:#3EBBD7"/>
			<stop  offset="0.8094" style="stop-color:#AB62DB"/>
			<stop  offset="1" style="stop-color:#D63EDC"/>
		</linearGradient>
		<rect x="402.1" y="-381.5" class="st6" width="67.6" height="19.3"/>
	</g>
</g>
<g>
	<g>
		
			<linearGradient id="SVGID_8_" gradientUnits="userSpaceOnUse" x1="450.4178" y1="-16466.2168" x2="518" y2="-16466.2168" gradientTransform="matrix(1 0 0 -1 0 -16896)">
			<stop  offset="0.1486" style="stop-color:#00EED5"/>
			<stop  offset="0.3817" style="stop-color:#3EBBD7"/>
			<stop  offset="0.8094" style="stop-color:#AB62DB"/>
			<stop  offset="1" style="stop-color:#D63EDC"/>
		</linearGradient>
		<rect x="450.4" y="-439.4" class="st7" width="67.6" height="19.3"/>
	</g>
</g>
<g>
	<g>
		
			<linearGradient id="SVGID_9_" gradientUnits="userSpaceOnUse" x1="382.8356" y1="-16707.582" x2="402.1448" y2="-16707.582" gradientTransform="matrix(1 0 0 -1 0 -16896)">
			<stop  offset="0.1486" style="stop-color:#00EED5"/>
			<stop  offset="0.3817" style="stop-color:#3EBBD7"/>
			<stop  offset="0.8094" style="stop-color:#AB62DB"/>
			<stop  offset="1" style="stop-color:#D63EDC"/>
		</linearGradient>
		<rect x="382.8" y="-198.1" class="st8" width="19.3" height="19.3"/>
	</g>
</g>
<g>
	<g>
		
			<linearGradient id="SVGID_10_" gradientUnits="userSpaceOnUse" x1="469.727" y1="-16630.3457" x2="508.3454" y2="-16630.3457" gradientTransform="matrix(1 0 0 -1 0 -16896)">
			<stop  offset="0.1486" style="stop-color:#00EED5"/>
			<stop  offset="0.3817" style="stop-color:#3EBBD7"/>
			<stop  offset="0.8094" style="stop-color:#AB62DB"/>
			<stop  offset="1" style="stop-color:#D63EDC"/>
		</linearGradient>
		<rect x="469.7" y="-275.3" class="st9" width="38.6" height="19.3"/>
	</g>
</g>
<g>
	<linearGradient id="SVGID_11_" gradientUnits="userSpaceOnUse" x1="99.3212" y1="-238.0872" x2="227.1279" y2="-238.0872">
		<stop  offset="0.1486" style="stop-color:#00EED5"/>
		<stop  offset="0.3817" style="stop-color:#3EBBD7"/>
		<stop  offset="0.8094" style="stop-color:#AB62DB"/>
		<stop  offset="1" style="stop-color:#D63EDC"/>
	</linearGradient>
	<path class="st10" d="M214.2-222.6c-5.4,6.2-17.9,19-35.8,16.8c-7.8,6-17.7,9.6-28.3,9.6c-25.7,0-46.6-20.9-46.6-46.6
		c0-20.6,13.4-38.1,32-44.2c-5.1,0.9-10.3,2-13,3.1c-10.1,3.8-18.8,7.3-18.8,7.3s-5.4,14.1-4.2,31.3c2.9,22.7,17.6,41.6,37.7,50.6
		c0.6,0.3,1.2,0.5,1.8,0.8c0,0,0,0,0,0c0.8,0.3,1.5,0.6,2.3,0.9c6.8,2.5,14.2,3.8,21.9,3.8c19.5,0,36.9-8.7,48.7-22.3
		c12.3-16.2,15.5-33.2,15.2-35C227.1-246.5,223.4-233.2,214.2-222.6z"/>
	<linearGradient id="SVGID_12_" gradientUnits="userSpaceOnUse" x1="105.7315" y1="-285.2523" x2="228.1267" y2="-285.2523">
		<stop  offset="0.1486" style="stop-color:#00EED5"/>
		<stop  offset="0.3817" style="stop-color:#3EBBD7"/>
		<stop  offset="0.8094" style="stop-color:#AB62DB"/>
		<stop  offset="1" style="stop-color:#D63EDC"/>
	</linearGradient>
	<path class="st11" d="M155.3-292.3c7.3-4.7,15.9-7.5,25.3-7.5c25.7,0,46.6,20.9,46.6,46.6c0.1-0.6,0.2-1.2,0.3-1.9
		c-0.5-20.6-10.7-38.8-26.2-50.2c-5-3.4-10-6.1-14.4-8c-3.4-1.3-6.8-2.4-10.4-3.1l0,0c-5.2-0.5-13.9-1.7-23.9-0.4
		C136-314,121.7-305,112-292.2c-2.2,3-4.3,6.4-6.3,10.1C105.7-282.1,130.1-297.2,155.3-292.3z"/>
	<linearGradient id="SVGID_13_" gradientUnits="userSpaceOnUse" x1="125.5852" y1="-200.639" x2="212.9795" y2="-288.0334">
		<stop  offset="0.1486" style="stop-color:#00EED5"/>
		<stop  offset="0.3817" style="stop-color:#3EBBD7"/>
		<stop  offset="0.8094" style="stop-color:#AB62DB"/>
		<stop  offset="1" style="stop-color:#D63EDC"/>
	</linearGradient>
	<path class="st12" d="M180.5-299.7c-9.3,0-18,2.7-25.3,7.5c10.2,2,20.6,7.3,29.4,18.3c3.3,3.6,5.9,7.7,8,12.2
		c5.5,10.5,5.2,20.8,2.9,29.3c-1.7,7.8-5.4,14.8-10.5,20.6l0,0c0,0,33.7-3.1,42.1-41.2C227.1-278.9,206.3-299.7,180.5-299.7z"/>
	<linearGradient id="SVGID_14_" gradientUnits="userSpaceOnUse" x1="113.8722" y1="-206.8048" x2="209.7966" y2="-302.7292">
		<stop  offset="0.1486" style="stop-color:#00EED5"/>
		<stop  offset="0.3817" style="stop-color:#3EBBD7"/>
		<stop  offset="0.8094" style="stop-color:#AB62DB"/>
		<stop  offset="1" style="stop-color:#D63EDC"/>
	</linearGradient>
	<path class="st13" d="M163.2-209.9C163.2-209.9,163.2-209.9,163.2-209.9C163.2-209.9,163.2-209.9,163.2-209.9
		c-0.9-0.3-1.7-0.7-2.5-1.1c0,0-0.1,0-0.1,0c-0.2-0.1-0.5-0.2-0.7-0.4c-18.2-8.7-24.8-23.6-25.7-37.5c-0.1-1.4-0.2-2.8-0.2-4.2
		c0-4.2,0.6-8.2,1.6-12c0.4-1.5,0.8-3,1.4-4.4c1.8-4.9,4.5-9.3,7.7-13.3c3-3.9,5.5-6.5,5.5-6.5s-7.3,1-14.6,2.4
		c-18.6,6.1-32,23.6-32,44.2c0,25.7,20.9,46.6,46.6,46.6c10.7,0,20.5-3.6,28.3-9.6c-4.2-0.5-8.8-1.6-13.7-3.5
		C164.2-209.5,163.7-209.7,163.2-209.9z"/>
</g>
</svg>
