<?xml version="1.0" encoding="utf-8"?>
<!-- Generator: Adobe Illustrator 24.2.0, SVG Export Plug-In . SVG Version: 6.00 Build 0)  -->
<svg version="1.1" id="Capa_1" xmlns="http://www.w3.org/2000/svg" xmlns:xlink="http://www.w3.org/1999/xlink" x="0px" y="0px"
	 viewBox="6 -512 512 512" style="enable-background:new 6 -512 512 512;" xml:space="preserve">
<style type="text/css">
	.st0{fill:url(#SVGID_1_);}
	.st1{fill:url(#SVGID_2_);}
	.st2{fill:url(#SVGID_3_);}
	.st3{fill:url(#SVGID_4_);}
	.st4{fill:url(#SVGID_5_);}
	.st5{fill:url(#SVGID_6_);}
</style>
<g>
	<g>
		
			<linearGradient id="SVGID_1_" gradientUnits="userSpaceOnUse" x1="230.1199" y1="-16764.2891" x2="293.8575" y2="-16764.2891" gradientTransform="matrix(1 0 0 -1 0 -16896)">
			<stop  offset="0" style="stop-color:#00FF99"/>
			<stop  offset="1" style="stop-color:#33CCFF"/>
		</linearGradient>
		<path class="st0" d="M274.7-176.3h-25.5c-10.6,0-19.1,8.6-19.1,19.1v12.7c0,8.1,5.1,15.3,12.7,18v33c0,3.5,2.9,6.4,6.4,6.4h25.5
			c3.5,0,6.4-2.9,6.4-6.4v-33c7.6-2.7,12.7-9.9,12.7-18v-12.7C293.9-167.8,285.3-176.3,274.7-176.3z M281.1-144.5
			c0,3.5-2.9,6.4-6.4,6.4c-3.5,0-6.4,2.9-6.4,6.4v31.9h-12.7v-31.9c0-3.5-2.9-6.4-6.4-6.4s-6.4-2.9-6.4-6.4v-12.7
			c0-3.5,2.9-6.4,6.4-6.4h25.5c3.5,0,6.4,2.9,6.4,6.4V-144.5z"/>
	</g>
</g>
<g>
	<g>
		
			<linearGradient id="SVGID_2_" gradientUnits="userSpaceOnUse" x1="153.6346" y1="-16640" x2="370.3654" y2="-16640" gradientTransform="matrix(1 0 0 -1 0 -16896)">
			<stop  offset="0.1486" style="stop-color:#00EED5"/>
			<stop  offset="0.3817" style="stop-color:#3EBBD7"/>
			<stop  offset="0.8094" style="stop-color:#AB62DB"/>
			<stop  offset="1" style="stop-color:#D63EDC"/>
		</linearGradient>
		<path class="st1" d="M338.5-195.4h-19.1v-44.6c0-3.2-0.3-6.5-0.8-9.6c51-31.2,67.1-97.8,35.9-148.9
			c-19.7-32.2-54.7-51.8-92.5-51.8c-59.8-0.1-108.3,48.3-108.4,108.1c0,37.8,19.6,72.9,51.9,92.5c-0.6,3.2-0.9,6.4-0.9,9.7v44.6
			h-19.1c-3.5,0-6.4,2.9-6.4,6.4V-68c0,3.5,2.9,6.4,6.4,6.4h153c3.5,0,6.4-2.9,6.4-6.4v-121.1C344.8-192.6,342-195.4,338.5-195.4z
			 M167.6-324.7c-9.7-52,24.6-102.1,76.7-111.7c52-9.7,102.1,24.6,111.7,76.7c7,37.8-9.2,76.1-41.1,97.3c-1.7-3.9-3.8-7.7-6.2-11.1
			c37.8-25.8,47.5-77.3,21.8-115c-25.8-37.8-77.3-47.5-115-21.8s-47.5,77.3-21.8,115c15.4,22.6,41,36.2,68.4,36.1h3.9
			c0.8,0.4,1.7,0.8,2.5,1.1c4.8,1.7,8.8,5.4,10.9,10C227.3-238.3,177.3-272.7,167.6-324.7z M272.7-270.1c-2.5-0.7-4.2-2.9-4.4-5.5
			v-1.6c0-3.1,2.5-5.7,5.7-5.7c0.6,0,1.1,0.1,1.7,0.3c18.4,5.9,30.9,23.1,30.9,42.5v44.6h-12.7v-44.6
			C293.8-253.5,285.4-265.5,272.7-270.1z M299.8-283.2c-5.9-5.2-12.7-9.1-20.2-11.5c-9.7-3.1-20,2.2-23.2,11.9
			c-0.6,1.8-0.9,3.7-0.9,5.7v1.6c0,1.1,0.1,2.3,0.4,3.4c-38.8-3.2-67.6-37.1-64.5-75.9s37.1-67.6,75.9-64.5
			c38.8,3.2,67.6,37.1,64.5,75.9C330.1-314.8,318.2-295.1,299.8-283.2z M281.1-235.4v40h-38.2v-40
			C255.5-233.1,268.5-233.1,281.1-235.4z M230.1-238.5v43h-12.7v-44.6c0-1.1,0.1-2.2,0.2-3.3C221.7-241.4,225.8-239.8,230.1-238.5z
			 M332.1-74.3H191.9v-108.4h140.2V-74.3z"/>
	</g>
</g>
<g>
	<linearGradient id="SVGID_3_" gradientUnits="userSpaceOnUse" x1="219.7243" y1="-337.9805" x2="313.5079" y2="-337.9805">
		<stop  offset="0.1486" style="stop-color:#00EED5"/>
		<stop  offset="0.3817" style="stop-color:#3EBBD7"/>
		<stop  offset="0.8094" style="stop-color:#AB62DB"/>
		<stop  offset="1" style="stop-color:#D63EDC"/>
	</linearGradient>
	<path class="st2" d="M304-326.6c-4,4.6-13.1,13.9-26.2,12.3c-5.8,4.4-13,7.1-20.8,7.1c-18.9,0-34.2-15.3-34.2-34.2
		c0-15.1,9.8-28,23.5-32.5c-3.8,0.7-7.5,1.5-9.5,2.2c-7.4,2.8-13.8,5.4-13.8,5.4s-4,10.4-3.1,23c2.1,16.6,12.9,30.6,27.7,37.1
		c0.4,0.2,0.9,0.4,1.3,0.6c0,0,0,0,0,0c0.6,0.2,1.1,0.4,1.7,0.7c5,1.8,10.4,2.8,16.1,2.8c14.3,0,27.1-6.4,35.7-16.4
		c9-11.9,11.4-24.4,11.2-25.7C313.5-344.2,310.8-334.4,304-326.6z"/>
	<linearGradient id="SVGID_4_" gradientUnits="userSpaceOnUse" x1="224.4281" y1="-372.5898" x2="314.2408" y2="-372.5898">
		<stop  offset="0.1486" style="stop-color:#00EED5"/>
		<stop  offset="0.3817" style="stop-color:#3EBBD7"/>
		<stop  offset="0.8094" style="stop-color:#AB62DB"/>
		<stop  offset="1" style="stop-color:#D63EDC"/>
	</linearGradient>
	<path class="st3" d="M260.8-377.7c5.3-3.5,11.7-5.5,18.5-5.5c18.9,0,34.2,15.3,34.2,34.2c0.1-0.5,0.2-0.9,0.2-1.4
		c-0.4-15.1-7.8-28.5-19.2-36.8c-3.7-2.5-7.3-4.5-10.6-5.8c-2.5-1-5-1.8-7.7-2.3l0,0c-3.8-0.4-10.2-1.3-17.5-0.3
		c-12.1,2-22.6,8.7-29.7,18c-1.6,2.2-3.2,4.7-4.6,7.4C224.4-370.3,242.3-381.4,260.8-377.7z"/>
	<linearGradient id="SVGID_5_" gradientUnits="userSpaceOnUse" x1="238.9965" y1="-310.5013" x2="303.1259" y2="-374.6306">
		<stop  offset="0.1486" style="stop-color:#00EED5"/>
		<stop  offset="0.3817" style="stop-color:#3EBBD7"/>
		<stop  offset="0.8094" style="stop-color:#AB62DB"/>
		<stop  offset="1" style="stop-color:#D63EDC"/>
	</linearGradient>
	<path class="st4" d="M279.3-383.2c-6.8,0-13.2,2-18.5,5.5c7.5,1.5,15.1,5.4,21.6,13.4c2.4,2.6,4.4,5.7,5.8,9
		c4.1,7.7,3.8,15.3,2.1,21.5c-1.3,5.7-4,10.9-7.7,15.1l0,0c0,0,24.7-2.3,30.9-30.2C313.5-367.9,298.2-383.2,279.3-383.2z"/>
	<linearGradient id="SVGID_6_" gradientUnits="userSpaceOnUse" x1="230.4017" y1="-315.0256" x2="300.7903" y2="-385.4143">
		<stop  offset="0.1486" style="stop-color:#00EED5"/>
		<stop  offset="0.3817" style="stop-color:#3EBBD7"/>
		<stop  offset="0.8094" style="stop-color:#AB62DB"/>
		<stop  offset="1" style="stop-color:#D63EDC"/>
	</linearGradient>
	<path class="st5" d="M266.6-317.3C266.6-317.3,266.6-317.3,266.6-317.3C266.6-317.3,266.6-317.3,266.6-317.3
		c-0.6-0.3-1.3-0.5-1.9-0.8c0,0-0.1,0-0.1,0c-0.2-0.1-0.4-0.2-0.5-0.3c-13.3-6.4-18.2-17.3-18.9-27.5c-0.1-1-0.1-2.1-0.1-3.1
		c0-3.1,0.4-6,1.2-8.8c0.3-1.1,0.6-2.2,1-3.3c1.3-3.6,3.3-6.8,5.7-9.7c2.2-2.9,4-4.7,4-4.7s-5.3,0.7-10.7,1.7
		c-13.6,4.5-23.5,17.3-23.5,32.5c0,18.9,15.3,34.2,34.2,34.2c7.8,0,15-2.6,20.8-7.1c-3.1-0.4-6.5-1.2-10.1-2.6
		C267.3-317,267-317.2,266.6-317.3z"/>
</g>
</svg>
