<?xml version="1.0" encoding="utf-8"?>
<!-- Generator: Adobe Illustrator 24.2.0, SVG Export Plug-In . SVG Version: 6.00 Build 0)  -->
<svg version="1.1" id="Capa_1" xmlns="http://www.w3.org/2000/svg" xmlns:xlink="http://www.w3.org/1999/xlink" x="0px" y="0px"
	 viewBox="6 -512 512 512" style="enable-background:new 6 -512 512 512;" xml:space="preserve">
<style type="text/css">
	.st0{fill:url(#SVGID_1_);}
	.st1{fill:url(#SVGID_2_);}
	.st2{fill:url(#SVGID_3_);}
	.st3{fill:url(#SVGID_4_);}
	.st4{fill:url(#SVGID_5_);}
	.st5{fill:url(#SVGID_6_);}
	.st6{fill:url(#SVGID_7_);}
	.st7{fill:url(#SVGID_8_);}
	.st8{fill:url(#SVGID_9_);}
	.st9{fill:url(#SVGID_10_);}
	.st10{fill:url(#SVGID_11_);}
	.st11{fill:url(#SVGID_12_);}
	.st12{fill:url(#SVGID_13_);}
	.st13{fill:url(#SVGID_14_);}
	.st14{fill:url(#SVGID_15_);}
	.st15{fill:url(#SVGID_16_);}
	.st16{fill:url(#SVGID_17_);}
	.st17{fill:url(#SVGID_18_);}
	.st18{fill:url(#SVGID_19_);}
	.st19{fill:url(#SVGID_20_);}
	.st20{fill:url(#SVGID_21_);}
	.st21{fill:url(#SVGID_22_);}
	.st22{fill:url(#SVGID_23_);}
	.st23{fill:url(#SVGID_24_);}
	.st24{fill:url(#SVGID_25_);}
	.st25{fill:url(#SVGID_26_);}
	.st26{fill:url(#SVGID_27_);}
</style>
<g>
	<g>
		
			<linearGradient id="SVGID_1_" gradientUnits="userSpaceOnUse" x1="47.5461" y1="-16640" x2="476.4539" y2="-16640" gradientTransform="matrix(1 0 0 -1 0 -16896)">
			<stop  offset="0.1486" style="stop-color:#00EED5"/>
			<stop  offset="0.3817" style="stop-color:#3EBBD7"/>
			<stop  offset="0.8094" style="stop-color:#AB62DB"/>
			<stop  offset="1" style="stop-color:#D63EDC"/>
		</linearGradient>
		<path class="st0" d="M433.6-348.4v-79.2c0-3.9-3.2-7.1-7.1-7.1H97.6c-27.6,0-50,22.4-50,50v257.3c0,27.6,22.4,50,50,50h328.8
			c3.9,0,7.1-3.2,7.1-7.1v-78.6h-7.1c27.6,0,50-22.4,50-50v-85.8C476.4-323.7,458.2-344.8,433.6-348.4z M97.6-420.4h321.7v71.5
			l-321.7,0.5v-0.5c-19.7,0-35.7-16-35.7-35.7C61.8-404.4,77.8-420.4,97.6-420.4z M419.3-91.6H97.6c-19.7,0-35.7-16-35.7-35.7
			v-222.4c9.4,9.7,22.3,15.1,35.7,15.1v0.5l321.7-0.5v71.5H319.2c-27.6,0-50,22.4-50,50s22.4,50,50,50h100.1V-91.6z M462.2-213.1
			c0,19.7-16,35.7-35.7,35.7H319.2c-19.7,0-35.7-16-35.7-35.7s16-35.7,35.7-35.7h114.4v-0.6c10.9-1.6,20.9-6.7,28.6-14.5V-213.1z
			 M461.5-291.8c-2.9,14.1-13.8,25.1-27.9,27.9v-70.1C452.9-330,465.4-311.1,461.5-291.8z"/>
	</g>
</g>
<g>
	<g>
		
			<linearGradient id="SVGID_2_" gradientUnits="userSpaceOnUse" x1="297.7423" y1="-16682.8906" x2="340.6331" y2="-16682.8906" gradientTransform="matrix(1 0 0 -1 0 -16896)">
			<stop  offset="0" style="stop-color:#00FF99"/>
			<stop  offset="1" style="stop-color:#33CCFF"/>
		</linearGradient>
		<path class="st1" d="M319.2-234.6c-11.8,0-21.4,9.6-21.4,21.4c0,11.8,9.6,21.4,21.4,21.4s21.4-9.6,21.4-21.4
			C340.6-225,331-234.6,319.2-234.6z M319.2-206c-3.9,0-7.1-3.2-7.1-7.1c0-3.9,3.2-7.1,7.1-7.1c3.9,0,7.1,3.2,7.1,7.1
			C326.3-209.2,323.1-206,319.2-206z"/>
	</g>
</g>
<g>
	<g>
		
			<linearGradient id="SVGID_3_" gradientUnits="userSpaceOnUse" x1="90.4369" y1="-16525.625" x2="404.9692" y2="-16525.625" gradientTransform="matrix(1 0 0 -1 0 -16896)">
			<stop  offset="0" style="stop-color:#00FF99"/>
			<stop  offset="1" style="stop-color:#33CCFF"/>
		</linearGradient>
		<rect x="90.4" y="-377.5" class="st2" width="314.5" height="14.3"/>
	</g>
</g>
<g>
	<g>
		
			<linearGradient id="SVGID_4_" gradientUnits="userSpaceOnUse" x1="376.3754" y1="-16582.8125" x2="397.8208" y2="-16582.8125" gradientTransform="matrix(1 0 0 -1 0 -16896)">
			<stop  offset="0" style="stop-color:#00FF99"/>
			<stop  offset="1" style="stop-color:#33CCFF"/>
		</linearGradient>
		<rect x="376.4" y="-320.3" class="st3" width="21.4" height="14.3"/>
	</g>
</g>
<g>
	<g>
		
			<linearGradient id="SVGID_5_" gradientUnits="userSpaceOnUse" x1="340.6331" y1="-16582.8125" x2="362.0785" y2="-16582.8125" gradientTransform="matrix(1 0 0 -1 0 -16896)">
			<stop  offset="0" style="stop-color:#00FF99"/>
			<stop  offset="1" style="stop-color:#33CCFF"/>
		</linearGradient>
		<rect x="340.6" y="-320.3" class="st4" width="21.4" height="14.3"/>
	</g>
</g>
<g>
	<g>
		
			<linearGradient id="SVGID_6_" gradientUnits="userSpaceOnUse" x1="304.8908" y1="-16582.8125" x2="326.3362" y2="-16582.8125" gradientTransform="matrix(1 0 0 -1 0 -16896)">
			<stop  offset="0" style="stop-color:#00FF99"/>
			<stop  offset="1" style="stop-color:#33CCFF"/>
		</linearGradient>
		<rect x="304.9" y="-320.3" class="st5" width="21.4" height="14.3"/>
	</g>
</g>
<g>
	<g>
		
			<linearGradient id="SVGID_7_" gradientUnits="userSpaceOnUse" x1="269.1485" y1="-16582.8125" x2="290.5938" y2="-16582.8125" gradientTransform="matrix(1 0 0 -1 0 -16896)">
			<stop  offset="0" style="stop-color:#00FF99"/>
			<stop  offset="1" style="stop-color:#33CCFF"/>
		</linearGradient>
		<rect x="269.1" y="-320.3" class="st6" width="21.4" height="14.3"/>
	</g>
</g>
<g>
	<g>
		
			<linearGradient id="SVGID_8_" gradientUnits="userSpaceOnUse" x1="233.4061" y1="-16582.8125" x2="254.8515" y2="-16582.8125" gradientTransform="matrix(1 0 0 -1 0 -16896)">
			<stop  offset="0" style="stop-color:#00FF99"/>
			<stop  offset="1" style="stop-color:#33CCFF"/>
		</linearGradient>
		<rect x="233.4" y="-320.3" class="st7" width="21.4" height="14.3"/>
	</g>
</g>
<g>
	<g>
		
			<linearGradient id="SVGID_9_" gradientUnits="userSpaceOnUse" x1="197.6638" y1="-16582.8125" x2="219.1092" y2="-16582.8125" gradientTransform="matrix(1 0 0 -1 0 -16896)">
			<stop  offset="0" style="stop-color:#00FF99"/>
			<stop  offset="1" style="stop-color:#33CCFF"/>
		</linearGradient>
		<rect x="197.7" y="-320.3" class="st8" width="21.4" height="14.3"/>
	</g>
</g>
<g>
	<g>
		
			<linearGradient id="SVGID_10_" gradientUnits="userSpaceOnUse" x1="161.9215" y1="-16582.8125" x2="183.3669" y2="-16582.8125" gradientTransform="matrix(1 0 0 -1 0 -16896)">
			<stop  offset="0" style="stop-color:#00FF99"/>
			<stop  offset="1" style="stop-color:#33CCFF"/>
		</linearGradient>
		<rect x="161.9" y="-320.3" class="st9" width="21.4" height="14.3"/>
	</g>
</g>
<g>
	<g>
		
			<linearGradient id="SVGID_11_" gradientUnits="userSpaceOnUse" x1="126.1792" y1="-16582.8125" x2="147.6246" y2="-16582.8125" gradientTransform="matrix(1 0 0 -1 0 -16896)">
			<stop  offset="0" style="stop-color:#00FF99"/>
			<stop  offset="1" style="stop-color:#33CCFF"/>
		</linearGradient>
		<rect x="126.2" y="-320.3" class="st10" width="21.4" height="14.3"/>
	</g>
</g>
<g>
	<g>
		
			<linearGradient id="SVGID_12_" gradientUnits="userSpaceOnUse" x1="90.4369" y1="-16582.8125" x2="111.8823" y2="-16582.8125" gradientTransform="matrix(1 0 0 -1 0 -16896)">
			<stop  offset="0" style="stop-color:#00FF99"/>
			<stop  offset="1" style="stop-color:#33CCFF"/>
		</linearGradient>
		<rect x="90.4" y="-320.3" class="st11" width="21.4" height="14.3"/>
	</g>
</g>
<g>
	<g>
		
			<linearGradient id="SVGID_13_" gradientUnits="userSpaceOnUse" x1="376.3754" y1="-16782.9688" x2="397.8208" y2="-16782.9688" gradientTransform="matrix(1 0 0 -1 0 -16896)">
			<stop  offset="0" style="stop-color:#00FF99"/>
			<stop  offset="1" style="stop-color:#33CCFF"/>
		</linearGradient>
		<rect x="376.4" y="-120.2" class="st12" width="21.4" height="14.3"/>
	</g>
</g>
<g>
	<g>
		
			<linearGradient id="SVGID_14_" gradientUnits="userSpaceOnUse" x1="340.6331" y1="-16782.9688" x2="362.0785" y2="-16782.9688" gradientTransform="matrix(1 0 0 -1 0 -16896)">
			<stop  offset="0" style="stop-color:#00FF99"/>
			<stop  offset="1" style="stop-color:#33CCFF"/>
		</linearGradient>
		<rect x="340.6" y="-120.2" class="st13" width="21.4" height="14.3"/>
	</g>
</g>
<g>
	<g>
		
			<linearGradient id="SVGID_15_" gradientUnits="userSpaceOnUse" x1="304.8908" y1="-16782.9688" x2="326.3362" y2="-16782.9688" gradientTransform="matrix(1 0 0 -1 0 -16896)">
			<stop  offset="0" style="stop-color:#00FF99"/>
			<stop  offset="1" style="stop-color:#33CCFF"/>
		</linearGradient>
		<rect x="304.9" y="-120.2" class="st14" width="21.4" height="14.3"/>
	</g>
</g>
<g>
	<g>
		
			<linearGradient id="SVGID_16_" gradientUnits="userSpaceOnUse" x1="269.1485" y1="-16782.9688" x2="290.5938" y2="-16782.9688" gradientTransform="matrix(1 0 0 -1 0 -16896)">
			<stop  offset="0" style="stop-color:#00FF99"/>
			<stop  offset="1" style="stop-color:#33CCFF"/>
		</linearGradient>
		<rect x="269.1" y="-120.2" class="st15" width="21.4" height="14.3"/>
	</g>
</g>
<g>
	<g>
		
			<linearGradient id="SVGID_17_" gradientUnits="userSpaceOnUse" x1="233.4061" y1="-16782.9688" x2="254.8515" y2="-16782.9688" gradientTransform="matrix(1 0 0 -1 0 -16896)">
			<stop  offset="0" style="stop-color:#00FF99"/>
			<stop  offset="1" style="stop-color:#33CCFF"/>
		</linearGradient>
		<rect x="233.4" y="-120.2" class="st16" width="21.4" height="14.3"/>
	</g>
</g>
<g>
	<g>
		
			<linearGradient id="SVGID_18_" gradientUnits="userSpaceOnUse" x1="197.6638" y1="-16782.9688" x2="219.1092" y2="-16782.9688" gradientTransform="matrix(1 0 0 -1 0 -16896)">
			<stop  offset="0" style="stop-color:#00FF99"/>
			<stop  offset="1" style="stop-color:#33CCFF"/>
		</linearGradient>
		<rect x="197.7" y="-120.2" class="st17" width="21.4" height="14.3"/>
	</g>
</g>
<g>
	<g>
		
			<linearGradient id="SVGID_19_" gradientUnits="userSpaceOnUse" x1="161.9215" y1="-16782.9688" x2="183.3669" y2="-16782.9688" gradientTransform="matrix(1 0 0 -1 0 -16896)">
			<stop  offset="0" style="stop-color:#00FF99"/>
			<stop  offset="1" style="stop-color:#33CCFF"/>
		</linearGradient>
		<rect x="161.9" y="-120.2" class="st18" width="21.4" height="14.3"/>
	</g>
</g>
<g>
	<g>
		
			<linearGradient id="SVGID_20_" gradientUnits="userSpaceOnUse" x1="126.1792" y1="-16782.9688" x2="147.6246" y2="-16782.9688" gradientTransform="matrix(1 0 0 -1 0 -16896)">
			<stop  offset="0" style="stop-color:#00FF99"/>
			<stop  offset="1" style="stop-color:#33CCFF"/>
		</linearGradient>
		<rect x="126.2" y="-120.2" class="st19" width="21.4" height="14.3"/>
	</g>
</g>
<g>
	<g>
		
			<linearGradient id="SVGID_21_" gradientUnits="userSpaceOnUse" x1="90.4369" y1="-16782.9688" x2="111.8823" y2="-16782.9688" gradientTransform="matrix(1 0 0 -1 0 -16896)">
			<stop  offset="0" style="stop-color:#00FF99"/>
			<stop  offset="1" style="stop-color:#33CCFF"/>
		</linearGradient>
		<rect x="90.4" y="-120.2" class="st20" width="21.4" height="14.3"/>
	</g>
</g>
<g>
	<g>
		
			<linearGradient id="SVGID_22_" gradientUnits="userSpaceOnUse" x1="90.4369" y1="-16497.0313" x2="404.9692" y2="-16497.0313" gradientTransform="matrix(1 0 0 -1 0 -16896)">
			<stop  offset="0" style="stop-color:#00FF99"/>
			<stop  offset="1" style="stop-color:#33CCFF"/>
		</linearGradient>
		<rect x="90.4" y="-406.1" class="st21" width="314.5" height="14.3"/>
	</g>
</g>
<g>
	<g>
		
			<linearGradient id="SVGID_23_" gradientUnits="userSpaceOnUse" x1="97.5854" y1="-16682.8906" x2="254.8515" y2="-16682.8906" gradientTransform="matrix(1 0 0 -1 0 -16896)">
			<stop  offset="0" style="stop-color:#00FF99"/>
			<stop  offset="1" style="stop-color:#33CCFF"/>
		</linearGradient>
		<path class="st22" d="M176.2-291.7c-43.4,0-78.6,35.2-78.6,78.6s35.2,78.6,78.6,78.6s78.6-35.2,78.6-78.6
			C254.8-256.5,219.6-291.7,176.2-291.7z M176.2-148.8c-35.5,0-64.3-28.8-64.3-64.3c0-35.5,28.8-64.3,64.3-64.3s64.3,28.8,64.3,64.3
			C240.5-177.6,211.7-148.8,176.2-148.8z"/>
	</g>
</g>
<g>
	<linearGradient id="SVGID_24_" gradientUnits="userSpaceOnUse" x1="122.6285" y1="-200.2372" x2="229.5481" y2="-200.2372">
		<stop  offset="0.1486" style="stop-color:#00EED5"/>
		<stop  offset="0.3817" style="stop-color:#3EBBD7"/>
		<stop  offset="0.8094" style="stop-color:#AB62DB"/>
		<stop  offset="1" style="stop-color:#D63EDC"/>
	</linearGradient>
	<path class="st23" d="M218.8-187.3c-4.5,5.2-15,15.9-29.9,14.1c-6.6,5-14.8,8-23.7,8c-21.5,0-39-17.4-39-39
		c0-17.2,11.2-31.9,26.7-37c-4.3,0.8-8.6,1.7-10.9,2.6c-8.5,3.2-15.7,6.1-15.7,6.1s-4.6,11.8-3.5,26.2c2.4,19,14.7,34.8,31.5,42.3
		c0.5,0.2,1,0.4,1.5,0.6c0,0,0,0,0,0c0.6,0.3,1.3,0.5,1.9,0.7c5.7,2.1,11.9,3.2,18.3,3.2c16.3,0,30.9-7.2,40.7-18.7
		c10.3-13.5,13-27.8,12.7-29.3C229.5-207.3,226.4-196.1,218.8-187.3z"/>
	<linearGradient id="SVGID_25_" gradientUnits="userSpaceOnUse" x1="127.9911" y1="-239.6942" x2="230.3837" y2="-239.6942">
		<stop  offset="0.1486" style="stop-color:#00EED5"/>
		<stop  offset="0.3817" style="stop-color:#3EBBD7"/>
		<stop  offset="0.8094" style="stop-color:#AB62DB"/>
		<stop  offset="1" style="stop-color:#D63EDC"/>
	</linearGradient>
	<path class="st24" d="M169.4-245.6c6.1-3.9,13.3-6.2,21.1-6.2c21.5,0,39,17.4,39,39c0.1-0.5,0.2-1,0.3-1.6
		c-0.4-17.2-8.9-32.5-21.9-42c-4.2-2.9-8.4-5.1-12-6.7c-2.8-1.1-5.7-2-8.7-2.6l0,0c-4.3-0.4-11.6-1.4-20-0.4
		c-13.8,2.3-25.8,9.9-33.9,20.5c-1.8,2.5-3.6,5.3-5.3,8.5C128-237.1,148.4-249.7,169.4-245.6z"/>
	<linearGradient id="SVGID_26_" gradientUnits="userSpaceOnUse" x1="144.6002" y1="-168.9091" x2="217.712" y2="-242.0208">
		<stop  offset="0.1486" style="stop-color:#00EED5"/>
		<stop  offset="0.3817" style="stop-color:#3EBBD7"/>
		<stop  offset="0.8094" style="stop-color:#AB62DB"/>
		<stop  offset="1" style="stop-color:#D63EDC"/>
	</linearGradient>
	<path class="st25" d="M190.6-251.8c-7.8,0-15,2.3-21.1,6.2c8.5,1.7,17.2,6.1,24.6,15.3c2.7,3,5,6.5,6.7,10.2
		c4.6,8.8,4.3,17.4,2.4,24.5c-1.5,6.5-4.5,12.4-8.8,17.2l0,0c0,0,28.2-2.6,35.2-34.5C229.5-234.4,212.1-251.8,190.6-251.8z"/>
	<linearGradient id="SVGID_27_" gradientUnits="userSpaceOnUse" x1="134.8015" y1="-174.0672" x2="215.0493" y2="-254.315">
		<stop  offset="0.1486" style="stop-color:#00EED5"/>
		<stop  offset="0.3817" style="stop-color:#3EBBD7"/>
		<stop  offset="0.8094" style="stop-color:#AB62DB"/>
		<stop  offset="1" style="stop-color:#D63EDC"/>
	</linearGradient>
	<path class="st26" d="M176.1-176.7C176.1-176.7,176.1-176.7,176.1-176.7C176.1-176.7,176.1-176.7,176.1-176.7
		c-0.7-0.3-1.4-0.6-2.1-0.9c0,0-0.1,0-0.1,0c-0.2-0.1-0.4-0.2-0.6-0.3c-15.2-7.3-20.7-19.8-21.5-31.4c-0.1-1.2-0.2-2.3-0.2-3.5
		c0-3.5,0.5-6.9,1.3-10.1c0.3-1.3,0.7-2.5,1.2-3.7c1.5-4.1,3.7-7.8,6.5-11.1c2.5-3.3,4.6-5.4,4.6-5.4s-6.1,0.8-12.2,2
		c-15.5,5.1-26.7,19.8-26.7,37c0,21.5,17.4,39,39,39c8.9,0,17.1-3,23.7-8c-3.5-0.4-7.4-1.4-11.5-3
		C176.9-176.3,176.5-176.5,176.1-176.7z"/>
</g>
</svg>
